<svg xmlns="http://www.w3.org/2000/svg" viewBox="0 0 142 126"
 width="142" height="126" fill="none"
 role="presentation" aria-hidden="true">
<rect width="77" height="86.758" x="110" y="113.758" fill="url(#s0-svg-1014669526__a)" rx="10" transform="rotate(-180 110 113.758)"/><path fill="url(#s0-svg-1014669526__b)" fill-rule="evenodd" d="M78.868 38.758a2 2 0 0 0-2-2H65.206a2 2 0 0 0-2 2v1.463a2 2 0 0 0 2 2h11.662a2 2 0 0 0 2-2zm4.89 8.055a2 2 0 0 0-2-2H60.313a2 2 0 0 0-2 2v1.464a2 2 0 0 0 2 2h21.447a2 2 0 0 0 2-2zM42.003 60.09a4 4 0 0 1 4-4H97a4 4 0 0 1 4 4v11.334a4 4 0 0 1-4 4H46.002a4 4 0 0 1-4-4zM99 94.472a2 2 0 0 1 2 2v1.64a2 2 0 0 1-2 1.999H44a2 2 0 0 1-2-2v-1.639a2 2 0 0 1 2-2zM99 84a2 2 0 0 1 2 2v1.639a2 2 0 0 1-2 2H44a2 2 0 0 1-2-2V86a2 2 0 0 1 2-2z" clip-rule="evenodd"/><path stroke="url(#s0-svg-1014669526__c)" stroke-dasharray="1 5" stroke-linecap="round" stroke-linejoin="round" stroke-width="3" d="M21.002 72.5v12a8 8 0 0 0 8 8H35"/><path fill="url(#s0-svg-1014669526__d)" d="M0 52a5 5 0 0 1 5-5h37.088a5 5 0 0 1 5 5v11.64a5 5 0 0 1-5 5H5a5 5 0 0 1-5-5z"/><path fill="url(#s0-svg-1014669526__e)" fill-rule="evenodd" d="M41 61a1 1 0 0 0-1-1H7a1 1 0 0 0-1 1v2a1 1 0 0 0 1 1h33a1 1 0 0 0 1-1zm-12-8a1 1 0 0 0-1-1H7a1 1 0 0 0-1 1v2a1 1 0 0 0 1 1h21a1 1 0 0 0 1-1z" clip-rule="evenodd"/><path fill="url(#s0-svg-1014669526__f)" d="M85.824 22a6 6 0 0 1 6-6H136a6 6 0 0 1 6 6v13a6 6 0 0 1-6 6H91.824a6 6 0 0 1-6-6z"/><path fill="url(#s0-svg-1014669526__g)" fill-rule="evenodd" d="M133 22a1 1 0 0 0-1-1H95a1 1 0 0 0-1 1v3a1 1 0 0 0 1 1h37a1 1 0 0 0 1-1zm-8 9a1 1 0 0 0-1-1H95a1 1 0 0 0-1 1v3a1 1 0 0 0 1 1h29a1 1 0 0 0 1-1z" clip-rule="evenodd"/><path stroke="url(#s0-svg-1014669526__h)" stroke-dasharray="1 5" stroke-linecap="round" stroke-linejoin="round" stroke-width="3" d="M122.5 44v13.5a8 8 0 0 1-8 8h-16"/><defs><linearGradient id="s0-svg-1014669526__a" x1="156.38" x2="306.764" y1="210.683" y2="113.274" gradientUnits="userSpaceOnUse"><stop stop-color="#EAF2FF"/><stop offset="1" stop-color="#76AEFF"/></linearGradient><linearGradient id="s0-svg-1014669526__b" x1="58.976" x2="155.976" y1="20.758" y2="125.758" gradientUnits="userSpaceOnUse"><stop offset="0.318" stop-color="#96C2FF"/><stop offset="1" stop-color="#D6E6FF" stop-opacity="0.47"/></linearGradient><linearGradient id="s0-svg-1014669526__c" x1="12.502" x2="49.948" y1="58.5" y2="78.325" gradientUnits="userSpaceOnUse"><stop offset="0.161" stop-color="#86B6FC"/><stop offset="1" stop-color="#86B6FC" stop-opacity="0"/></linearGradient><linearGradient id="s0-svg-1014669526__d" x1="13.734" x2="17.387" y1="28.833" y2="83.656" gradientUnits="userSpaceOnUse"><stop stop-color="#76AEFF"/><stop offset="1" stop-color="#0F53FA"/></linearGradient><linearGradient id="s0-svg-1014669526__e" x1="7.611" x2="44.399" y1="65.394" y2="29.241" gradientUnits="userSpaceOnUse"><stop stop-color="#fff"/><stop offset="1" stop-color="#fff" stop-opacity="0"/></linearGradient><linearGradient id="s0-svg-1014669526__f" x1="102.209" x2="106.297" y1="-4.988" y2="58.366" gradientUnits="userSpaceOnUse"><stop stop-color="#76AEFF"/><stop offset="1" stop-color="#0F53FA"/></linearGradient><linearGradient id="s0-svg-1014669526__g" x1="94.666" x2="139.455" y1="40.447" y2="0.652" gradientUnits="userSpaceOnUse"><stop stop-color="#fff"/><stop offset="1" stop-color="#fff" stop-opacity="0"/></linearGradient><linearGradient id="s0-svg-1014669526__h" x1="148.5" x2="83.203" y1="29" y2="62.592" gradientUnits="userSpaceOnUse"><stop offset="0.161" stop-color="#86B6FC"/><stop offset="1" stop-color="#86B6FC" stop-opacity="0"/></linearGradient></defs>
</svg>
