<svg xmlns="http://www.w3.org/2000/svg" viewBox="0 0 142 126"
 width="142" height="126" fill="none"
 role="presentation" aria-hidden="true">
<path fill="url(#s0-svg-1144018313__a)" fill-rule="evenodd" d="M44.984 42a1.5 1.5 0 1 0 0 3q.232 0 .46.015a1.5 1.5 0 1 0 .194-2.994 10 10 0 0 0-.654-.021m6.594 2.482a1.5 1.5 0 1 0-1.979 2.255q.346.302.649.648a1.5 1.5 0 1 0 2.255-1.979 10 10 0 0 0-.925-.924m3.385 6.865a1.5 1.5 0 1 0-2.993.193q.014.228.014.46v.48a1.5 1.5 0 1 0 3 0V52q0-.33-.02-.653m.021 5.924a1.5 1.5 0 0 0-3 0v.958a1.5 1.5 0 1 0 3 0zm0 5.75a1.5 1.5 0 0 0-3 0v.958a1.5 1.5 0 1 0 3 0zm0 5.75a1.5 1.5 0 0 0-3 0v.958a1.5 1.5 0 1 0 3 0zm0 5.75a1.5 1.5 0 0 0-3 0V75q0 .232-.014.46a1.5 1.5 0 1 0 2.993.193q.021-.324.021-.653zm-2.482 7.073a1.5 1.5 0 1 0-2.254-1.979q-.303.346-.649.648a1.5 1.5 0 1 0 1.98 2.255q.491-.431.923-.924m-6.864 3.385a1.5 1.5 0 0 0-.194-2.994q-.228.015-.46.015a1.5 1.5 0 1 0 0 3q.33 0 .654-.021M58.95 62a1.5 1.5 0 0 0 0 3h1.041a1.5 1.5 0 0 0 0-3z" clip-rule="evenodd"/><path fill="url(#s0-svg-1144018313__b)" d="M73.992 86h36c5.523 0 10-4.477 10-10V54.116c0-5.513-4.462-9.986-9.975-10l-36-.09c-5.532-.015-10.025 4.467-10.025 10V76c0 5.523 4.477 10 10 10"/><path fill="url(#s0-svg-1144018313__c)" fill-rule="evenodd" d="M74.492 53a1.5 1.5 0 0 0 0 3h1.616a1.5 1.5 0 0 0 0-3zm0 7a1.5 1.5 0 0 0 0 3h1.616a1.5 1.5 0 0 0 0-3zm6.115-6a1 1 0 0 1 1-1h28a1 1 0 0 1 1 1v1a1 1 0 0 1-1 1h-28a1 1 0 0 1-1-1zm1 6a1 1 0 0 0-1 1v1a1 1 0 0 0 1 1h28a1 1 0 0 0 1-1v-1a1 1 0 0 0-1-1zm-8.615 8.5a1.5 1.5 0 0 1 1.5-1.5h1.616a1.5 1.5 0 0 1 0 3h-1.616a1.5 1.5 0 0 1-1.5-1.5m8.615-1.5a1 1 0 0 0-1 1v1a1 1 0 0 0 1 1h28a1 1 0 0 0 1-1v-1a1 1 0 0 0-1-1zm-8.615 8.5a1.5 1.5 0 0 1 1.5-1.5h1.616a1.5 1.5 0 0 1 0 3h-1.616a1.5 1.5 0 0 1-1.5-1.5m8.615-1.5a1 1 0 0 0-1 1v1a1 1 0 0 0 1 1h28a1 1 0 0 0 1-1v-1a1 1 0 0 0-1-1z" clip-rule="evenodd"/><rect width="40" height="40" x="97.984" y="28" fill="url(#s0-svg-1144018313__d)" rx="10"/><path fill="url(#s0-svg-1144018313__e)" fill-rule="evenodd" d="m128.32 41.942-2.976 1.718-.651-.874a8.326 8.326 0 0 0-14.925 3.808l1.871-1.08 1.224 2.12-6.504 3.756-3.755-6.504 2.12-1.225 1.607 2.784C106.982 40.569 111.964 36 118.012 36a11.74 11.74 0 0 1 9.507 4.841zm-20.348 12.117 2.977-1.718.65.874a8.326 8.326 0 0 0 14.87-3.466l-2.141 1.37-1.32-2.062 6.326-4.049 4.048 6.326-2.062 1.32-1.475-2.304c-.991 5.488-5.792 9.65-11.565 9.65a11.74 11.74 0 0 1-9.506-4.84z" clip-rule="evenodd"/><path fill="url(#s0-svg-1144018313__f)" d="M12 58h21.981a8 8 0 0 0 8-8.019l-.025-11a8 8 0 0 0-8-7.981H12a8 8 0 0 0-8 8v11a8 8 0 0 0 8 8"/><path fill="url(#s0-svg-1144018313__g)" fill-rule="evenodd" d="M8 38a2 2 0 0 1 2-2h26a2 2 0 1 1 0 4H10a2 2 0 0 1-2-2m0 7a2 2 0 0 1 2-2h10a2 2 0 1 1 0 4H10a2 2 0 0 1-2-2m2 4a2 2 0 1 0 0 4h10a2 2 0 1 0 0-4zm14-4a2 2 0 0 1 2-2h10a2 2 0 1 1 0 4H26a2 2 0 0 1-2-2m2 4a2 2 0 1 0 0 4h10a2 2 0 1 0 0-4z" clip-rule="evenodd"/><path fill="url(#s0-svg-1144018313__h)" d="M12 98h21.981a8 8 0 0 0 8-8.019l-.025-11a8 8 0 0 0-8-7.981H12a8 8 0 0 0-8 8v11a8 8 0 0 0 8 8"/><path fill="url(#s0-svg-1144018313__i)" fill-rule="evenodd" d="M8 78a2 2 0 0 1 2-2h26a2 2 0 1 1 0 4H10a2 2 0 0 1-2-2m0 7a2 2 0 0 1 2-2h10a2 2 0 1 1 0 4H10a2 2 0 0 1-2-2m2 4a2 2 0 1 0 0 4h10a2 2 0 1 0 0-4zm14-4a2 2 0 0 1 2-2h10a2 2 0 1 1 0 4H26a2 2 0 0 1-2-2m2 4a2 2 0 1 0 0 4h10a2 2 0 1 0 0-4z" clip-rule="evenodd"/><defs><linearGradient id="s0-svg-1144018313__a" x1="34.5" x2="76" y1="68" y2="65.5" gradientUnits="userSpaceOnUse"><stop stop-color="#86B6FC"/><stop offset="1" stop-color="#86B6FC" stop-opacity="0"/></linearGradient><linearGradient id="s0-svg-1144018313__b" x1="76.315" x2="132.678" y1="57.117" y2="104.47" gradientUnits="userSpaceOnUse"><stop stop-color="#ECF3FF"/><stop offset="1" stop-color="#5B9CFC"/></linearGradient><linearGradient id="s0-svg-1144018313__c" x1="128.5" x2="146.564" y1="7.5" y2="56.272" gradientUnits="userSpaceOnUse"><stop stop-color="#ECF3FF"/><stop offset="1" stop-color="#5B9CFC"/></linearGradient><linearGradient id="s0-svg-1144018313__d" x1="117.984" x2="137.143" y1="24.389" y2="62.445" gradientUnits="userSpaceOnUse"><stop stop-color="#76AEFF"/><stop offset="1" stop-color="#0F53FA"/></linearGradient><linearGradient id="s0-svg-1144018313__e" x1="108.494" x2="134.003" y1="63.5" y2="1.615" gradientUnits="userSpaceOnUse"><stop stop-color="#fff"/><stop offset="1" stop-color="#fff" stop-opacity="0"/></linearGradient><linearGradient id="s0-svg-1144018313__f" x1="73.596" x2="125.864" y1="-32.5" y2="44.376" gradientUnits="userSpaceOnUse"><stop stop-color="#ECF3FF"/><stop offset="1" stop-color="#5B9CFC"/></linearGradient><linearGradient id="s0-svg-1144018313__g" x1="-8" x2="6.269" y1="66.5" y2="10.074" gradientUnits="userSpaceOnUse"><stop stop-color="#6EA8FD"/><stop offset="1" stop-color="#6EA8FD" stop-opacity="0"/></linearGradient><linearGradient id="s0-svg-1144018313__h" x1="73.596" x2="125.864" y1="7.5" y2="84.376" gradientUnits="userSpaceOnUse"><stop stop-color="#ECF3FF"/><stop offset="1" stop-color="#5B9CFC"/></linearGradient><linearGradient id="s0-svg-1144018313__i" x1="-8" x2="6.269" y1="106.5" y2="50.074" gradientUnits="userSpaceOnUse"><stop stop-color="#6EA8FD"/><stop offset="1" stop-color="#6EA8FD" stop-opacity="0"/></linearGradient></defs>
</svg>
