<svg xmlns="http://www.w3.org/2000/svg" viewBox="0 0 142 126"
 width="142" height="126" fill="none"
 role="presentation" aria-hidden="true">
<path fill="url(#s0-svg-37803673__a)" fill-rule="evenodd" d="M15.748 30.769C17.67 25.089 23.047 21 29.377 21c6.297 0 11.649 4.046 13.598 9.68q.68-.087 1.384-.088c5.96 0 10.79 4.83 10.79 10.79 0 5.958-4.83 10.789-10.79 10.789l-.139-.001H14.989v-.065q-.59.065-1.198.066C7.83 52.17 3 47.34 3 41.38s4.83-10.79 10.79-10.79q1.004.001 1.958.178M84.548 35c12.313 0 22.756 8.005 26.41 19.095a25 25 0 0 1 2.787-.153c13.862 0 25.099 11.238 25.099 25.1s-11.237 25.099-25.099 25.099q-.883 0-1.752-.06H52.534v-.018C42.224 103.622 34 95.123 34 84.705c0-10.702 8.675-19.377 19.376-19.377 1.2 0 2.375.11 3.514.318a28 28 0 0 1-.144-2.845C56.746 47.447 69.193 35 84.547 35" clip-rule="evenodd"/><defs><linearGradient id="s0-svg-37803673__a" x1="56" x2="-15.382" y1="-0.5" y2="245.425" gradientUnits="userSpaceOnUse"><stop stop-color="#F2F7FF"/><stop offset="1" stop-color="#5B9CFC"/></linearGradient></defs>
</svg>
