<svg xmlns="http://www.w3.org/2000/svg" viewBox="0 0 142 126"
 width="142" height="126" fill="none"
 role="presentation" aria-hidden="true">
<rect width="77" height="116" x="142" y="6" fill="url(#s0-svg-3461904079__a)" rx="10" transform="rotate(90 142 6)"/><mask id="s0-svg-3461904079__c" width="116" height="77" x="26" y="6" maskUnits="userSpaceOnUse" style="mask-type: alpha"><rect width="77" height="116" x="142" y="6" fill="url(#s0-svg-3461904079__b)" rx="10" transform="rotate(90 142 6)"/></mask><g filter="url(#s0-svg-3461904079__d)" mask="url(#s0-svg-3461904079__c)"><path fill="#056BFF" fill-opacity="0.4" d="M13 101.064a9 9 0 0 1-9-9V71a9 9 0 0 1 9-9h53a9 9 0 0 1 9 9v21.064a9 9 0 0 1-9 9z"/></g><rect width="96" height="2" x="36" y="30" fill="url(#s0-svg-3461904079__e)" fill-opacity="0.8" opacity="0.6" rx="1"/><path fill="url(#s0-svg-3461904079__f)" fill-opacity="0.8" fill-rule="evenodd" d="M95 16a2 2 0 0 1 2 2v2a2 2 0 0 1-2 2H38a2 2 0 0 1-2-2v-2a2 2 0 0 1 2-2zm18 0a2 2 0 0 1 2 2v2a2 2 0 0 1-2 2h-10a2 2 0 0 1-2-2v-2a2 2 0 0 1 2-2zm19 2a2 2 0 0 0-2-2h-10a2 2 0 0 0-2 2v2a2 2 0 0 0 2 2h10a2 2 0 0 0 2-2z" clip-rule="evenodd"/><path fill="url(#s0-svg-3461904079__g)" fill-opacity="0.8" fill-rule="evenodd" d="M42.999 46.5a3.5 3.5 0 1 0-7 0 3.5 3.5 0 0 0 7 0M49 44a1 1 0 0 1 1-1h36a1 1 0 0 1 1 1v1a1 1 0 0 1-1 1H50a1 1 0 0 1-1-1zm0 11a1 1 0 0 1 1-1h36a1 1 0 0 1 1 1v1a1 1 0 0 1-1 1H50a1 1 0 0 1-1-1zm1-7a1 1 0 0 0-1 1v1a1 1 0 0 0 1 1h48a1 1 0 0 0 1-1v-1a1 1 0 0 0-1-1zm-1 12a1 1 0 0 1 1-1h48a1 1 0 0 1 1 1v1a1 1 0 0 1-1 1H50a1 1 0 0 1-1-1z" clip-rule="evenodd"/><path fill="url(#s0-svg-3461904079__h)" fill-opacity="0.8" fill-rule="evenodd" d="M132.127 41a2 2 0 0 0-2-2H110a2 2 0 0 0-2 2v13.2a2 2 0 0 0 2 2h20.127a2 2 0 0 0 2-2zm0 21.782a2 2 0 0 0-2-2H110a2 2 0 0 0-2 2V70.2a2 2 0 0 0 2 2h20.127a2 2 0 0 0 2-2z" clip-rule="evenodd"/><path fill="url(#s0-svg-3461904079__i)" d="M0 72c0-5.523 4.477-10 10-10h55c5.523 0 10 4.477 10 10v29c0 5.523-4.477 10-10 10H10c-5.523 0-10-4.477-10-10z"/><mask id="s0-svg-3461904079__k" width="75" height="49" x="0" y="62" maskUnits="userSpaceOnUse" style="mask-type: alpha"><path fill="url(#s0-svg-3461904079__j)" d="M0 72c0-5.523 4.477-10 10-10h55c5.523 0 10 4.477 10 10v29c0 5.523-4.477 10-10 10H10c-5.523 0-10-4.477-10-10z"/></mask><g mask="url(#s0-svg-3461904079__k)"><path stroke="url(#s0-svg-3461904079__l)" stroke-linejoin="round" stroke-width="3" d="m0 64 34.484 24.465a6 6 0 0 0 7.076-.096L74 64"/></g><circle cx="67.5" cy="105.5" r="14.5" fill="url(#s0-svg-3461904079__m)"/><path stroke="url(#s0-svg-3461904079__n)" stroke-linejoin="round" stroke-width="3" d="m60 104 6 6 10-10"/><defs><linearGradient id="s0-svg-3461904079__a" x1="162.274" x2="275.321" y1="42.878" y2="59.218" gradientUnits="userSpaceOnUse"><stop stop-color="#EAF2FF"/><stop offset="1" stop-color="#76AEFF"/></linearGradient><linearGradient id="s0-svg-3461904079__b" x1="162.274" x2="275.321" y1="42.878" y2="59.218" gradientUnits="userSpaceOnUse"><stop stop-color="#EAF2FF"/><stop offset="1" stop-color="#76AEFF"/></linearGradient><linearGradient id="s0-svg-3461904079__e" x1="36" x2="132" y1="30.97" y2="30.97" gradientUnits="userSpaceOnUse"><stop stop-color="#91BDFF"/><stop offset="1" stop-color="#91BDFF" stop-opacity="0"/></linearGradient><linearGradient id="s0-svg-3461904079__f" x1="-19.5" x2="205.5" y1="53" y2="-24" gradientUnits="userSpaceOnUse"><stop offset="0.142" stop-color="#91BDFF"/><stop offset="0.781" stop-color="#91BDFF" stop-opacity="0"/></linearGradient><linearGradient id="s0-svg-3461904079__h" x1="54.5" x2="157.5" y1="69" y2="13" gradientUnits="userSpaceOnUse"><stop offset="0.318" stop-color="#91BDFF"/><stop offset="0.781" stop-color="#91BDFF" stop-opacity="0"/></linearGradient><linearGradient id="s0-svg-3461904079__i" x1="18.903" x2="77.995" y1="23.033" y2="164.1" gradientUnits="userSpaceOnUse"><stop offset="0.37" stop-color="#ECF3FF"/><stop offset="1" stop-color="#5B9CFC"/></linearGradient><linearGradient id="s0-svg-3461904079__j" x1="18.903" x2="77.995" y1="23.033" y2="164.1" gradientUnits="userSpaceOnUse"><stop offset="0.37" stop-color="#ECF3FF"/><stop offset="1" stop-color="#5B9CFC"/></linearGradient><linearGradient id="s0-svg-3461904079__l" x1="-5" x2="53.557" y1="61" y2="105.66" gradientUnits="userSpaceOnUse"><stop stop-color="#6AA3FF" stop-opacity="0"/><stop offset="0.656" stop-color="#6AA3FF"/><stop offset="1" stop-color="#6AA3FF" stop-opacity="0"/></linearGradient><linearGradient id="s0-svg-3461904079__m" x1="78.5" x2="82.929" y1="87" y2="118.666" gradientUnits="userSpaceOnUse"><stop stop-color="#76AEFF"/><stop offset="1" stop-color="#0F53FA"/></linearGradient><linearGradient id="s0-svg-3461904079__n" x1="68" x2="76.017" y1="107.675" y2="82.191" gradientUnits="userSpaceOnUse"><stop stop-color="#fff"/><stop offset="1" stop-color="#fff" stop-opacity="0"/></linearGradient><radialGradient id="s0-svg-3461904079__g" cx="0" cy="0" r="1" gradientTransform="matrix(13.5 -55.5 808.97743 196.77819 68 82)" gradientUnits="userSpaceOnUse"><stop offset="0.097" stop-color="#5094FE"/><stop offset="1" stop-color="#91BDFF" stop-opacity="0"/></radialGradient><filter id="s0-svg-3461904079__d" width="111" height="79.064" x="-16" y="42" color-interpolation-filters="sRGB" filterUnits="userSpaceOnUse"><feFlood flood-opacity="0" result="BackgroundImageFix"/><feBlend in="SourceGraphic" in2="BackgroundImageFix" result="shape"/><feGaussianBlur result="effect1_foregroundBlur_1_1854" stdDeviation="10"/></filter></defs>
</svg>
