<svg xmlns="http://www.w3.org/2000/svg" viewBox="0 0 142 126"
 width="142" height="126" fill="none"
 role="presentation" aria-hidden="true">
<path fill="url(#s0-svg-2364352672__a)" d="m45.672 101.155 38.58-11.795c5.282-1.615 8.254-7.205 6.64-12.487L77.06 31.635l-2.075-6.125a10 10 0 0 0-12.355-6.367l-38.448 11.58c-5.304 1.598-8.299 7.202-6.68 12.5l15.682 51.293c1.615 5.281 7.206 8.254 12.487 6.639"/><path fill="url(#s0-svg-2364352672__b)" fill-rule="evenodd" d="M61.594 79.157a1 1 0 0 0 1.248.664l5.682-1.737a1 1 0 0 0 .664-1.249L56.49 35.305a1 1 0 0 0-1.249-.663l-5.681 1.737a1 1 0 0 0-.664 1.248zm-21.69 6.637a1 1 0 0 0 1.249.664l5.681-1.737a1 1 0 0 0 .664-1.248l-7.42-24.268a1 1 0 0 0-1.248-.664l-5.681 1.737a1 1 0 0 0-.664 1.249zm33.701-9.286a1 1 0 0 1-1.248-.664L61.624 40.739a1 1 0 0 1 .664-1.249l5.682-1.737a1 1 0 0 1 1.248.664l10.733 35.105a1 1 0 0 1-.664 1.248zM50.78 82.484a1 1 0 0 0 1.249.664l5.682-1.737a1 1 0 0 0 .663-1.249L47.097 43.273a1 1 0 0 0-1.248-.664l-5.682 1.737a1 1 0 0 0-.664 1.249z" clip-rule="evenodd"/><mask id="s0-svg-2364352672__d" width="78" height="93" x="14" y="9" maskUnits="userSpaceOnUse" style="mask-type: alpha"><path fill="url(#s0-svg-2364352672__c)" d="M45.925 101.122 84.51 89.325c5.28-1.614 8.25-7.205 6.635-12.488L75.111 24.389l-2.717-8.115c-1.716-5.123-7.187-7.959-12.359-6.404L21.608 21.422c-5.305 1.594-8.301 7.201-6.68 12.501L33.44 94.48c1.615 5.283 7.205 8.257 12.485 6.643"/></mask><g filter="url(#s0-svg-2364352672__e)" mask="url(#s0-svg-2364352672__d)"><path fill="url(#s0-svg-2364352672__f)" d="m63.72 105.374 39.36 4.833c5.48.673 10.468-3.227 11.141-8.71l4.991-40.652.418-4.689c.478-5.359-3.366-10.135-8.701-10.81l-39.192-4.962c-5.492-.695-10.503 3.208-11.178 8.706l-5.543 45.138c-.673 5.483 3.224 10.473 8.703 11.146"/></g><path fill="url(#s0-svg-2364352672__g)" d="m62.664 107.403 40.042 4.916c5.482.673 10.471-3.225 11.144-8.707l5.765-46.953.596-6.439a10 10 0 0 0-8.698-10.841l-39.834-5.06c-5.495-.697-10.51 3.204-11.185 8.702L53.957 96.26c-.673 5.481 3.225 10.471 8.707 11.144"/><path fill="url(#s0-svg-2364352672__h)" fill-rule="evenodd" d="M74.055 49.093a4 4 0 0 0-4.468 3.47l-.709 5.643a4 4 0 0 0 3.47 4.468l5.664.711a4 4 0 0 0 4.467-3.47l.71-5.642a4 4 0 0 0-3.47-4.468zm-5.538 17.602 1.49.186 27.075 3.38 1.486.185a1 1 0 0 1 .869 1.118l-.378 2.976a1 1 0 0 1-1.116.867l-1.49-.186-27.074-3.38-1.487-.185a1 1 0 0 1-.868-1.119l.377-2.976a1 1 0 0 1 1.116-.866m-.906 6.996 1.49.186 16.132 2.014 1.486.186a1 1 0 0 1 .868 1.118l-.377 2.976a1 1 0 0 1-1.116.866l-1.49-.186-16.132-2.013-1.486-.186a1 1 0 0 1-.869-1.118l.378-2.976a1 1 0 0 1 1.116-.867" clip-rule="evenodd"/><defs><linearGradient id="s0-svg-2364352672__a" x1="-13.591" x2="83.884" y1="30.954" y2="82.407" gradientUnits="userSpaceOnUse"><stop offset="0.192" stop-color="#ECF3FF"/><stop offset="1" stop-color="#5B9CFC"/></linearGradient><linearGradient id="s0-svg-2364352672__b" x1="11.719" x2="59.312" y1="29.004" y2="81.159" gradientUnits="userSpaceOnUse"><stop stop-color="#7AB2FF" stop-opacity="0"/><stop offset="0" stop-color="#7AB2FF" stop-opacity="0"/><stop offset="0.792" stop-color="#7AB2FF"/></linearGradient><linearGradient id="s0-svg-2364352672__c" x1="-16.585" x2="89.835" y1="20.29" y2="68.333" gradientUnits="userSpaceOnUse"><stop offset="0.192" stop-color="#ECF3FF"/><stop offset="1" stop-color="#5B9CFC"/></linearGradient><linearGradient id="s0-svg-2364352672__f" x1="92.183" x2="49.023" y1="52.453" y2="161.416" gradientUnits="userSpaceOnUse"><stop stop-color="#ECF3FF"/><stop offset="1" stop-color="#5B9CFC"/></linearGradient><linearGradient id="s0-svg-2364352672__g" x1="92.34" x2="40.895" y1="47.605" y2="167.882" gradientUnits="userSpaceOnUse"><stop stop-color="#ECF3FF"/><stop offset="1" stop-color="#5B9CFC"/></linearGradient><linearGradient id="s0-svg-2364352672__h" x1="70.973" x2="92.537" y1="47.361" y2="79.444" gradientUnits="userSpaceOnUse"><stop stop-color="#6AA3FF" stop-opacity="0"/><stop offset="1" stop-color="#6AA3FF"/></linearGradient><filter id="s0-svg-2364352672__e" width="94.73" height="99.978" x="36.941" y="29.304" color-interpolation-filters="sRGB" filterUnits="userSpaceOnUse"><feFlood flood-opacity="0" result="BackgroundImageFix"/><feColorMatrix in="SourceAlpha" result="hardAlpha" values="0 0 0 0 0 0 0 0 0 0 0 0 0 0 0 0 0 0 0.15 0"/><feOffset dx="-3" dy="4"/><feGaussianBlur stdDeviation="7.5"/><feColorMatrix values="0 0 0 0 0 0 0 0 0 0 0 0 0 0 0 0 0 0 0.8 0"/><feBlend in2="BackgroundImageFix" mode="overlay" result="effect1_dropShadow_1_1960"/><feBlend in="SourceGraphic" in2="effect1_dropShadow_1_1960" result="shape"/></filter></defs>
</svg>
