<svg xmlns="http://www.w3.org/2000/svg" viewBox="0 0 142 126"
 width="142" height="126" fill="none"
 role="presentation" aria-hidden="true">
<path fill="url(#s0-svg-2379038357__a)" d="M5.273 49.182c-1.615-5.282 1.358-10.873 6.64-12.487l19.122-5.847a8 8 0 0 1 7.23 1.32L44.39 36.9a1 1 0 0 0 .903.165l13.214-4.04 21.591-6.601c5.282-1.615 10.872 1.358 12.487 6.64l9.932 32.485c1.615 5.281-1.358 10.872-6.64 12.487L30.65 97.978c-5.282 1.615-10.873-1.357-12.487-6.64z"/><mask id="s0-svg-2379038357__c" width="99" height="74" x="4" y="25" maskUnits="userSpaceOnUse" style="mask-type: alpha"><path fill="url(#s0-svg-2379038357__b)" d="M5.273 49.182c-1.615-5.282 1.358-10.873 6.64-12.487l19.122-5.847a8 8 0 0 1 7.23 1.32L44.39 36.9a1 1 0 0 0 .903.165l13.214-4.04 21.591-6.601c5.282-1.615 10.872 1.358 12.487 6.64l9.932 32.485c1.615 5.281-1.358 10.872-6.64 12.487L30.65 97.978c-5.282 1.615-10.873-1.357-12.487-6.64z"/></mask><g filter="url(#s0-svg-2379038357__d)" mask="url(#s0-svg-2379038357__c)"><path fill="url(#s0-svg-2379038357__e)" d="M46.674 57.795c.673-5.482 5.663-9.38 11.145-8.707l19.847 2.437a8 8 0 0 1 6.068 4.146l3.67 6.814a1 1 0 0 0 .759.518l13.715 1.684 22.409 2.752c5.482.673 9.38 5.662 8.707 11.144l-4.14 33.717c-.673 5.481-5.663 9.38-11.144 8.707l-67.701-8.313c-5.482-.673-9.38-5.663-8.707-11.144z"/></g><path fill="url(#s0-svg-2379038357__f)" d="M46.674 57.795c.673-5.482 5.663-9.38 11.145-8.707l19.847 2.437a8 8 0 0 1 6.068 4.146l3.67 6.814a1 1 0 0 0 .759.518l13.715 1.684 22.409 2.752c5.482.673 9.38 5.662 8.707 11.144l-4.14 33.717c-.673 5.481-5.663 9.38-11.144 8.707l-67.701-8.313c-5.482-.673-9.38-5.663-8.707-11.144z"/><defs><linearGradient id="s0-svg-2379038357__a" x1="8.71" x2="140.19" y1="-15.617" y2="130.527" gradientUnits="userSpaceOnUse"><stop offset="0.37" stop-color="#D1E3FF"/><stop offset="1" stop-color="#5B9CFC"/></linearGradient><linearGradient id="s0-svg-2379038357__b" x1="8.71" x2="140.19" y1="-15.617" y2="130.527" gradientUnits="userSpaceOnUse"><stop offset="0.37" stop-color="#D1E3FF"/><stop offset="1" stop-color="#5B9CFC"/></linearGradient><linearGradient id="s0-svg-2379038357__e" x1="76.171" x2="136.841" y1="-0.004" y2="186.984" gradientUnits="userSpaceOnUse"><stop offset="0.37" stop-color="#ECF3FF"/><stop offset="1" stop-color="#5B9CFC"/></linearGradient><linearGradient id="s0-svg-2379038357__f" x1="76.171" x2="136.841" y1="-0.004" y2="186.984" gradientUnits="userSpaceOnUse"><stop offset="0.37" stop-color="#ECF3FF"/><stop offset="1" stop-color="#5B9CFC"/></linearGradient><filter id="s0-svg-2379038357__d" width="129.843" height="110.07" x="14.226" y="22.012" color-interpolation-filters="sRGB" filterUnits="userSpaceOnUse"><feFlood flood-opacity="0" result="BackgroundImageFix"/><feColorMatrix in="SourceAlpha" result="hardAlpha" values="0 0 0 0 0 0 0 0 0 0 0 0 0 0 0 0 0 0 0.15 0"/><feOffset dx="-8" dy="-8"/><feGaussianBlur stdDeviation="9.5"/><feColorMatrix values="0 0 0 0 0 0 0 0 0 0 0 0 0 0 0 0 0 0 0.8 0"/><feBlend in2="BackgroundImageFix" mode="overlay" result="effect1_dropShadow_1_2002"/><feBlend in="SourceGraphic" in2="effect1_dropShadow_1_2002" result="shape"/></filter></defs>
</svg>
