<svg xmlns="http://www.w3.org/2000/svg" viewBox="0 0 142 126"
 width="142" height="126" fill="none"
 role="presentation" aria-hidden="true">
<path fill="url(#s0-svg-1552009224__a)" d="m52.115 115.545 47.664-14.573c5.282-1.614 8.254-7.205 6.64-12.486L89.95 34.62l-2.89-8.53a10 10 0 0 0-12.355-6.367L27.234 34.02c-5.304 1.597-8.299 7.202-6.68 12.499l19.074 62.386c1.615 5.281 7.205 8.254 12.487 6.639"/><path fill="url(#s0-svg-1552009224__b)" fill-rule="evenodd" d="m63.736 51.108-.48.138a1 1 0 0 0-.685 1.237l.276.961a1 1 0 0 0 1.237.685l.48-.138 3.18-.913.48-.138a1 1 0 0 0 .686-1.237l-.276-.961a1 1 0 0 0-1.237-.685l-.48.137zm-27.368 9.471a1 1 0 0 1 .664-1.248l.479-.146 4.092-1.251.478-.147a1 1 0 0 1 1.248.664l.293.956a1 1 0 0 1-.664 1.25l-.478.145-4.092 1.252-.479.146a1 1 0 0 1-1.248-.664zm12.71-3.885a1 1 0 0 1 .663-1.249l.478-.146 4.776-1.46.478-.146a1 1 0 0 1 1.249.664l.292.956a1 1 0 0 1-.664 1.249l-.478.146-4.775 1.46-.479.146a1 1 0 0 1-1.248-.664zm24.992-7.641a1 1 0 0 1 .664-1.25l.479-.145 6.14-1.877.477-.146a1 1 0 0 1 1.249.663l.292.957a1 1 0 0 1-.664 1.248l-.478.147-6.14 1.877-.477.146a1 1 0 0 1-1.25-.664zm-28.58 7.764-.477.146a1 1 0 0 0-.664 1.249l.292.956a1 1 0 0 0 1.249.664l.478-.146.956-.293.478-.146a1 1 0 0 0 .664-1.249l-.292-.956a1 1 0 0 0-1.249-.664l-.478.146zm12.275-2.749a1 1 0 0 1 .664-1.249l.478-.146.957-.292.478-.146a1 1 0 0 1 1.249.663l.292.957a1 1 0 0 1-.664 1.249l-.478.146-.956.292-.478.146a1 1 0 0 1-1.25-.664zm12.76-4.926-.479.146a1 1 0 0 0-.664 1.249l.293.956a1 1 0 0 0 1.248.664l.478-.146.957-.292.478-.147a1 1 0 0 0 .664-1.248l-.293-.956a1 1 0 0 0-1.248-.664l-.478.146zm-4.493 9.474-.48.139a1 1 0 0 0-.686 1.237l.276.96a1 1 0 0 0 1.237.686l.48-.138 3.18-.913.481-.138a1 1 0 0 0 .686-1.237l-.276-.962a1 1 0 0 0-1.238-.685l-.48.138zm-27.368 9.472a1 1 0 0 1 .664-1.248l.478-.147 4.092-1.25.478-.147a1 1 0 0 1 1.25.664l.291.956a1 1 0 0 1-.663 1.249l-.479.146-4.092 1.251-.478.146a1 1 0 0 1-1.249-.663zm12.71-3.885a1 1 0 0 1 .663-1.249l.478-.146 4.775-1.46.479-.146a1 1 0 0 1 1.248.664l.292.956a1 1 0 0 1-.663 1.249l-.479.146-4.775 1.46-.478.146a1 1 0 0 1-1.249-.664zm24.992-7.642a1 1 0 0 1 .664-1.248l.478-.147 6.14-1.877.478-.146a1 1 0 0 1 1.249.664l.292.956a1 1 0 0 1-.664 1.25l-.478.145-6.14 1.877-.478.147a1 1 0 0 1-1.248-.664zm-28.58 7.764-.478.147a1 1 0 0 0-.664 1.248l.293.957a1 1 0 0 0 1.248.663l.479-.146.956-.292.478-.146a1 1 0 0 0 .664-1.249l-.292-.956a1 1 0 0 0-1.25-.664l-.477.146zm12.275-2.748a1 1 0 0 1 .664-1.249l.478-.146.956-.293.479-.146a1 1 0 0 1 1.248.664l.293.957a1 1 0 0 1-.664 1.248l-.478.146-.957.293-.478.146a1 1 0 0 1-1.248-.664zM72.82 56.65l-.478.146a1 1 0 0 0-.664 1.249l.292.956a1 1 0 0 0 1.249.664l.478-.146.956-.293.479-.146a1 1 0 0 0 .663-1.248l-.292-.957a1 1 0 0 0-1.249-.664l-.478.146zm-4.973 9.612.48-.138 3.18-.913.481-.138a1 1 0 0 1 1.237.685l.276.961a1 1 0 0 1-.685 1.237l-.48.138-3.18.914-.481.138a1 1 0 0 1-1.237-.686l-.276-.96a1 1 0 0 1 .685-1.238m-26.223 8.085a1 1 0 0 0-.664 1.249l.292.956a1 1 0 0 0 1.249.664l.478-.146 4.092-1.251.478-.146a1 1 0 0 0 .664-1.249l-.292-.956a1 1 0 0 0-1.249-.664l-.478.146-4.092 1.251zm12.709-3.885a1 1 0 0 0-.664 1.249l.292.956a1 1 0 0 0 1.249.664l.478-.146 4.775-1.46.478-.147a1 1 0 0 0 .664-1.248l-.292-.957a1 1 0 0 0-1.249-.663l-.478.146-4.775 1.46zm24.993-7.642a1 1 0 0 0-.664 1.25l.292.955a1 1 0 0 0 1.249.664l.478-.146 6.14-1.877.478-.146a1 1 0 0 0 .664-1.249l-.293-.956a1 1 0 0 0-1.249-.664l-.478.146-6.14 1.877zm-29.722 9.16.478-.147.956-.292.479-.147a1 1 0 0 1 1.248.665l.293.956a1 1 0 0 1-.664 1.248l-.478.147-.957.292-.478.146a1 1 0 0 1-1.249-.664l-.292-.956a1 1 0 0 1 .664-1.249m13.417-4.144a1 1 0 0 0-.664 1.248l.292.957a1 1 0 0 0 1.249.664l.478-.147.956-.292.478-.146a1 1 0 0 0 .664-1.249l-.292-.956a1 1 0 0 0-1.249-.664l-.478.146-.956.293zm11.617-3.531.478-.146.956-.293.478-.146a1 1 0 0 1 1.249.664l.292.956a1 1 0 0 1-.664 1.249l-.478.146-.956.292-.478.147a1 1 0 0 1-1.249-.664l-.292-.956a1 1 0 0 1 .663-1.25m-4.015 9.328-.48.138a1 1 0 0 0-.686 1.237l.276.961a1 1 0 0 0 1.238.685l.48-.138 3.18-.913.48-.138a1 1 0 0 0 .686-1.237l-.276-.961a1 1 0 0 0-1.237-.685l-.48.138zm-27.368 9.472a1 1 0 0 1 .664-1.25l.478-.145 4.093-1.251.478-.146a1 1 0 0 1 1.248.663l.293.957a1 1 0 0 1-.664 1.248l-.478.147-4.092 1.25-.479.147a1 1 0 0 1-1.248-.664zm12.71-3.886a1 1 0 0 1 .663-1.248l.478-.147 4.776-1.46.478-.146a1 1 0 0 1 1.248.664l.293.957a1 1 0 0 1-.664 1.248l-.478.146-4.776 1.46-.478.147a1 1 0 0 1-1.248-.664zm24.992-7.641a1 1 0 0 1 .664-1.249l.479-.146 6.139-1.877.478-.146a1 1 0 0 1 1.249.664l.292.956a1 1 0 0 1-.664 1.249l-.478.146-6.14 1.877-.477.146a1 1 0 0 1-1.25-.664zm-28.58 7.764-.477.146a1 1 0 0 0-.664 1.249l.292.956a1 1 0 0 0 1.249.664l.478-.146.956-.293.478-.146a1 1 0 0 0 .664-1.248l-.292-.957a1 1 0 0 0-1.249-.664l-.478.146zm12.275-2.749a1 1 0 0 1 .664-1.248l.478-.147.957-.292.478-.146a1 1 0 0 1 1.249.664l.292.956a1 1 0 0 1-.664 1.249l-.478.146-.956.292-.479.146a1 1 0 0 1-1.248-.663zm12.76-4.926-.479.146a1 1 0 0 0-.664 1.25l.293.956a1 1 0 0 0 1.248.663l.478-.146.957-.292.478-.146a1 1 0 0 0 .664-1.249l-.293-.956a1 1 0 0 0-1.248-.664l-.478.146zm-4.974 9.613.48-.138 3.18-.914.481-.138a1 1 0 0 1 1.238.686l.276.96a1 1 0 0 1-.686 1.238l-.48.138-3.18.913-.48.138a1 1 0 0 1-1.238-.685l-.276-.961a1 1 0 0 1 .685-1.237m-26.223 8.085a1 1 0 0 0-.664 1.248l.292.957a1 1 0 0 0 1.249.664l.478-.147 4.092-1.25.478-.147a1 1 0 0 0 .664-1.249l-.292-.956a1 1 0 0 0-1.249-.664l-.478.146-4.092 1.251zm12.709-3.886a1 1 0 0 0-.664 1.249l.292.956a1 1 0 0 0 1.249.664l.478-.146 4.775-1.46.478-.146a1 1 0 0 0 .664-1.249l-.292-.956a1 1 0 0 0-1.249-.664l-.478.146-4.775 1.46zm24.993-7.641a1 1 0 0 0-.664 1.249l.293.956a1 1 0 0 0 1.248.664l.478-.147 6.14-1.877.478-.146a1 1 0 0 0 .664-1.248l-.293-.957a1 1 0 0 0-1.248-.664l-.478.147-6.14 1.877zm-29.722 9.159.478-.147.957-.292.478-.146a1 1 0 0 1 1.249.664l.292.956a1 1 0 0 1-.664 1.249l-.478.146-.956.293-.479.146a1 1 0 0 1-1.248-.664l-.293-.957a1 1 0 0 1 .664-1.248m13.417-4.144a1 1 0 0 0-.664 1.249l.292.956a1 1 0 0 0 1.25.664l.477-.146.957-.292.478-.147a1 1 0 0 0 .664-1.248l-.293-.957a1 1 0 0 0-1.248-.664l-.479.147-.956.292zm11.617-3.53.478-.147.956-.292.478-.147a1 1 0 0 1 1.25.664l.291.957a1 1 0 0 1-.663 1.248l-.479.147-.956.292-.478.146a1 1 0 0 1-1.249-.664l-.292-.956a1 1 0 0 1 .664-1.249" clip-rule="evenodd"/><mask id="s0-svg-1552009224__d" width="87" height="97" x="20" y="19" maskUnits="userSpaceOnUse" style="mask-type: alpha"><path fill="url(#s0-svg-1552009224__c)" d="m52.115 115.545 47.664-14.573c5.282-1.614 8.254-7.205 6.64-12.486L89.95 34.62l-2.89-8.53a10 10 0 0 0-12.355-6.367L27.234 34.02c-5.304 1.597-8.299 7.202-6.68 12.499l19.074 62.386c1.615 5.281 7.205 8.254 12.487 6.639"/></mask><g filter="url(#s0-svg-1552009224__e)" mask="url(#s0-svg-1552009224__d)"><rect width="39.133" height="35.393" x="85.213" y="81.372" fill="url(#s0-svg-1552009224__f)" rx="10" transform="rotate(-.04 85.213 81.372)"/></g><path fill="url(#s0-svg-1552009224__g)" fill-rule="evenodd" d="M91.927 71.45c0-6.507 5.275-11.782 11.782-11.782s11.782 5.275 11.782 11.782v9.819h-.156c5.067.485 9.032 4.752 9.035 9.947l.011 15.393c.004 5.523-4.47 10.003-9.993 10.007l-19.133.013c-5.523.004-10.003-4.47-10.007-9.993l-.01-15.393c-.004-5.523 4.47-10.003 9.993-10.007l16.333-.011V71.45a7.855 7.855 0 0 0-15.71 0v.964a1 1 0 0 1-1 1h-1.927a1 1 0 0 1-1-1z" clip-rule="evenodd"/><path fill="url(#s0-svg-1552009224__h)" d="M106.393 98.722a3.993 3.993 0 0 0-1.587-7.662 3.997 3.997 0 0 0-3.997 3.996 4 4 0 0 0 2.475 3.691l-1.66 5.756a2 2 0 0 0 1.923 2.555l2.602-.002a2 2 0 0 0 1.919-2.557z"/><defs><linearGradient id="s0-svg-1552009224__a" x1="56.848" x2="59.074" y1="37.886" y2="189.281" gradientUnits="userSpaceOnUse"><stop stop-color="#ECF3FF"/><stop offset="1" stop-color="#5B9CFC"/></linearGradient><linearGradient id="s0-svg-1552009224__b" x1="36.057" x2="80.343" y1="45.28" y2="96.355" gradientUnits="userSpaceOnUse"><stop stop-color="#7AB2FF" stop-opacity="0"/><stop offset="0" stop-color="#7AB2FF" stop-opacity="0"/><stop offset="1" stop-color="#3D8FFF"/></linearGradient><linearGradient id="s0-svg-1552009224__c" x1="56.848" x2="59.074" y1="37.886" y2="189.281" gradientUnits="userSpaceOnUse"><stop stop-color="#ECF3FF"/><stop offset="1" stop-color="#5B9CFC"/></linearGradient><linearGradient id="s0-svg-1552009224__f" x1="105.003" x2="105.003" y1="98.623" y2="26.992" gradientUnits="userSpaceOnUse"><stop stop-color="#ECF3FF"/><stop offset="1" stop-color="#5B9CFC"/></linearGradient><linearGradient id="s0-svg-1552009224__g" x1="104.809" x2="123.879" y1="57.318" y2="114.229" gradientUnits="userSpaceOnUse"><stop stop-color="#76AEFF"/><stop offset="1" stop-color="#0F53FA"/></linearGradient><linearGradient id="s0-svg-1552009224__h" x1="104.809" x2="116.193" y1="102.149" y2="69.359" gradientUnits="userSpaceOnUse"><stop stop-color="#fff"/><stop offset="1" stop-color="#fff" stop-opacity="0"/></linearGradient><filter id="s0-svg-1552009224__e" width="85.144" height="81.406" x="58.22" y="61.352" color-interpolation-filters="sRGB" filterUnits="userSpaceOnUse"><feFlood flood-opacity="0" result="BackgroundImageFix"/><feColorMatrix in="SourceAlpha" result="hardAlpha" values="0 0 0 0 0 0 0 0 0 0 0 0 0 0 0 0 0 0 0.15 0"/><feOffset dx="-4" dy="3"/><feGaussianBlur stdDeviation="11.5"/><feColorMatrix values="0 0 0 0 0 0 0 0 0 0 0 0 0 0 0 0 0 0 1 0"/><feBlend in2="BackgroundImageFix" mode="overlay" result="effect1_dropShadow_1_2095"/><feBlend in="SourceGraphic" in2="effect1_dropShadow_1_2095" result="shape"/></filter></defs>
</svg>
