<svg xmlns="http://www.w3.org/2000/svg" viewBox="0 0 142 126"
 width="142" height="126" fill="none"
 role="presentation" aria-hidden="true">
<path fill="url(#s0-svg-3221780955__a)" d="M28.419 88.124h40.343c5.522 0 10-4.477 10-10V30.818l-.194-6.463a10 10 0 0 0-9.954-9.701l-40.154-.167c-5.539-.023-10.041 4.46-10.041 10v53.637c0 5.523 4.477 10 10 10"/><path fill="url(#s0-svg-3221780955__b)" fill-rule="evenodd" d="M50.425 70.159a1 1 0 0 0 1.005.995l5.94-.026a1 1 0 0 0 .996-1.004l-.19-43.427a1 1 0 0 0-1.005-.996l-5.941.026a1 1 0 0 0-.996 1.005zm-22.682.105a1 1 0 0 0 1.005.996l5.94-.026a1 1 0 0 0 .996-1.005l-.111-25.376a1 1 0 0 0-1.005-.995l-5.94.026a1 1 0 0 0-.996 1.004zm34.948.819a1 1 0 0 1-1.004-.996l-.162-36.708a1 1 0 0 1 .996-1.004l5.941-.026a1 1 0 0 1 1.005.995l.16 36.708a1 1 0 0 1-.995 1.005zm-23.579-.854a1 1 0 0 0 1.004.995l5.942-.026a1 1 0 0 0 .995-1.004l-.17-38.574a1 1 0 0 0-1.004-.996l-5.94.026a1 1 0 0 0-.996 1.004z" clip-rule="evenodd"/><mask id="s0-svg-3221780955__d" width="56" height="73" x="23" y="16" maskUnits="userSpaceOnUse" style="mask-type: alpha"><path fill="url(#s0-svg-3221780955__c)" d="M33.302 88.198h35.504c5.523 0 10-4.477 10-10v-45.67l-.17-5.99a10 10 0 0 0-9.952-9.717l-35.338-.155c-5.54-.024-10.045 4.46-10.045 10v51.532c0 5.523 4.478 10 10 10"/></mask><g filter="url(#s0-svg-3221780955__e)" mask="url(#s0-svg-3221780955__d)"><path fill="url(#s0-svg-3221780955__f)" d="M58.653 112.864H99.04c5.523 0 10.001-4.477 10.001-9.999v-45.67l-.186-6.013a10 10 0 0 0-9.955-9.69l-40.208-.163c-5.539-.022-10.041 4.461-10.041 10v51.536c0 5.522 4.477 9.999 10 9.999"/></g><path fill="url(#s0-svg-3221780955__g)" d="M58.63 111.554h40.343c5.523 0 10-4.477 10-10V54.249l-.193-6.464a10 10 0 0 0-9.954-9.701l-40.154-.167c-5.539-.023-10.041 4.461-10.041 10v53.637c0 5.523 4.477 10 10 10"/><path fill="url(#s0-svg-3221780955__h)" fill-rule="evenodd" d="M106.183 76.332a8.858 8.858 0 1 0 0-17.717 8.858 8.858 0 0 0 0 17.717m14.765 23.623c3.262 0 5.943-2.692 5.019-5.82-2.134-7.224-8.261-14.85-19.785-14.85s-17.652 7.626-19.786 14.85c-.924 3.128 1.757 5.82 5.019 5.82h29.533" clip-rule="evenodd"/><path fill="url(#s0-svg-3221780955__i)" fill-rule="evenodd" d="M63.574 52.63a4 4 0 0 0-4.011 3.988l-.016 5.687a4 4 0 0 0 3.988 4.011l5.708.017a4 4 0 0 0 4.011-3.99l.017-5.686a4 4 0 0 0-3.989-4.011zm-3.351 18.145 1.502.003 27.284.054 1.498.004a1 1 0 0 1 .998 1.003l-.012 3a1 1 0 0 1-1.002.996l-1.502-.003-27.284-.054-1.498-.004a1 1 0 0 1-.998-1.004l.012-3a1 1 0 0 1 1.002-.995m-.047 7.054 1.502.004 16.256.032 1.498.003a1 1 0 0 1 .998 1.004l-.012 3a1 1 0 0 1-1.002.996l-1.502-.003-16.256-.033-1.498-.003a1 1 0 0 1-.998-1.004l.012-3a1 1 0 0 1 1.002-.996" clip-rule="evenodd"/><mask id="s0-svg-3221780955__k" width="62" height="75" x="48" y="37" maskUnits="userSpaceOnUse" style="mask-type: alpha"><path fill="url(#s0-svg-3221780955__j)" d="M58.704 111.554h40.343c5.523 0 10-4.477 10-10V54.249l-.194-6.464a10 10 0 0 0-9.954-9.701l-40.153-.167c-5.54-.023-10.042 4.461-10.042 10v53.637c0 5.523 4.477 10 10 10"/></mask><g filter="url(#s0-svg-3221780955__l)" mask="url(#s0-svg-3221780955__k)"><path fill="url(#s0-svg-3221780955__m)" fill-rule="evenodd" d="M106.183 76.332a8.858 8.858 0 1 0 0-17.717 8.858 8.858 0 0 0 0 17.717m14.765 23.623c3.262 0 5.943-2.692 5.019-5.82-2.134-7.224-8.261-14.85-19.785-14.85s-17.652 7.626-19.786 14.85c-.924 3.128 1.757 5.82 5.019 5.82h29.533" clip-rule="evenodd"/></g><defs><linearGradient id="s0-svg-3221780955__a" x1="-7.73" x2="70.442" y1="3.663" y2="81.368" gradientUnits="userSpaceOnUse"><stop offset="0.192" stop-color="#ECF3FF"/><stop offset="1" stop-color="#5B9CFC"/></linearGradient><linearGradient id="s0-svg-3221780955__b" x1="17.118" x2="47.664" y1="7.761" y2="71.419" gradientUnits="userSpaceOnUse"><stop stop-color="#7AB2FF" stop-opacity="0"/><stop offset="0" stop-color="#7AB2FF" stop-opacity="0"/><stop offset="0.792" stop-color="#7AB2FF"/></linearGradient><linearGradient id="s0-svg-3221780955__c" x1="-0.751" x2="75.051" y1="6.148" y2="77.493" gradientUnits="userSpaceOnUse"><stop offset="0.192" stop-color="#ECF3FF"/><stop offset="1" stop-color="#5B9CFC"/></linearGradient><linearGradient id="s0-svg-3221780955__f" x1="80.845" x2="46.362" y1="51.693" y2="174.305" gradientUnits="userSpaceOnUse"><stop stop-color="#ECF3FF"/><stop offset="1" stop-color="#5B9CFC"/></linearGradient><linearGradient id="s0-svg-3221780955__g" x1="80.798" x2="44.395" y1="48.585" y2="174.236" gradientUnits="userSpaceOnUse"><stop stop-color="#ECF3FF"/><stop offset="1" stop-color="#5B9CFC"/></linearGradient><linearGradient id="s0-svg-3221780955__h" x1="108.99" x2="124.449" y1="63.394" y2="94.985" gradientUnits="userSpaceOnUse"><stop stop-color="#76AEFF"/><stop offset="1" stop-color="#0F53FA"/></linearGradient><linearGradient id="s0-svg-3221780955__i" x1="60.304" x2="85.617" y1="51.286" y2="80.501" gradientUnits="userSpaceOnUse"><stop stop-color="#6AA3FF" stop-opacity="0"/><stop offset="1" stop-color="#6AA3FF"/></linearGradient><linearGradient id="s0-svg-3221780955__j" x1="80.872" x2="44.468" y1="48.585" y2="174.236" gradientUnits="userSpaceOnUse"><stop stop-color="#ECF3FF"/><stop offset="1" stop-color="#5B9CFC"/></linearGradient><linearGradient id="s0-svg-3221780955__m" x1="108.99" x2="124.449" y1="63.394" y2="94.985" gradientUnits="userSpaceOnUse"><stop stop-color="#76AEFF"/><stop offset="1" stop-color="#0F53FA"/></linearGradient><filter id="s0-svg-3221780955__e" width="90.39" height="101.535" x="30.652" y="30.329" color-interpolation-filters="sRGB" filterUnits="userSpaceOnUse"><feFlood flood-opacity="0" result="BackgroundImageFix"/><feColorMatrix in="SourceAlpha" result="hardAlpha" values="0 0 0 0 0 0 0 0 0 0 0 0 0 0 0 0 0 0 0.15 0"/><feOffset dx="-3" dy="4"/><feGaussianBlur stdDeviation="7.5"/><feColorMatrix values="0 0 0 0 0 0 0 0 0 0 0 0 0 0 0 0 0 0 0.8 0"/><feBlend in2="BackgroundImageFix" mode="overlay" result="effect1_dropShadow_1_2411"/><feBlend in="SourceGraphic" in2="effect1_dropShadow_1_2411" result="shape"/></filter><filter id="s0-svg-3221780955__l" width="49.94" height="51.34" x="81.212" y="57.615" color-interpolation-filters="sRGB" filterUnits="userSpaceOnUse"><feFlood flood-opacity="0" result="BackgroundImageFix"/><feColorMatrix in="SourceAlpha" result="hardAlpha" values="0 0 0 0 0 0 0 0 0 0 0 0 0 0 0 0 0 0 0.15 0"/><feOffset dy="4"/><feGaussianBlur stdDeviation="2.5"/><feColorMatrix values="0 0 0 0 0 0 0 0 0 0 0 0 0 0 0 0 0 0 1 0"/><feBlend in2="BackgroundImageFix" mode="overlay" result="effect1_dropShadow_1_2411"/><feBlend in="SourceGraphic" in2="effect1_dropShadow_1_2411" result="shape"/></filter></defs>
</svg>
