<svg xmlns="http://www.w3.org/2000/svg" viewBox="0 0 142 126"
 width="142" height="126" fill="none"
 role="presentation" aria-hidden="true">
<rect width="77" height="116" x="138.806" y="19" fill="url(#s0-svg-3886852332__a)" rx="10" transform="rotate(90 138.806 19)"/><g fill-opacity="0.5" opacity="0.6"><rect width="104" height="15" x="27.806" y="25" fill="url(#s0-svg-3886852332__b)" rx="6"/><path fill="url(#s0-svg-3886852332__c)" fill-rule="evenodd" d="M129.607 45.8a2 2 0 0 1 2 2v2.782a2 2 0 0 1-2 2h-27.2a2 2 0 0 1-2-2V47.8a2 2 0 0 1 2-2zm-34.801 2.064a2 2 0 0 0-2-2H32.999a2 2 0 0 0-2 2v2.654a2 2 0 0 0 2 2h59.807a2 2 0 0 0 2-2zm0 21.782a2 2 0 0 0-2-2H32.999a2 2 0 0 0-2 2V72.3a2 2 0 0 0 2 2h59.807a2 2 0 0 0 2-2zm-2-13a2 2 0 0 1 2 2V61.3a2 2 0 0 1-2 2H32.999a2 2 0 0 1-2-2v-2.654a2 2 0 0 1 2-2zm2 23.782a2 2 0 0 0-2-2H32.999a2 2 0 0 0-2 2v2.654a2 2 0 0 0 2 2h59.807a2 2 0 0 0 2-2zm36.801-10.846a2 2 0 0 0-2-2h-27.2a2 2 0 0 0-2 2v2.782a2 2 0 0 0 2 2h27.2a2 2 0 0 0 2-2zm-2-13a2 2 0 0 1 2 2v2.782a2 2 0 0 1-2 2h-27.2a2 2 0 0 1-2-2v-2.782a2 2 0 0 1 2-2zm2 23.782a2 2 0 0 0-2-2h-27.2a2 2 0 0 0-2 2v2.782a2 2 0 0 0 2 2h27.2a2 2 0 0 0 2-2z" clip-rule="evenodd"/></g><rect width="59" height="53" x="3" y="86.577" fill="url(#s0-svg-3886852332__d)" rx="10" transform="rotate(-89.23 3 86.577)"/><path fill="url(#s0-svg-3886852332__e)" fill-rule="evenodd" d="M14 70.082a3.5 3.5 0 1 1 7 0 3.5 3.5 0 0 1-7 0m9-11a3.5 3.5 0 1 1 7 0v11a3.5 3.5 0 1 1-7 0zm13.5-14.5a3.5 3.5 0 0 0-3.5 3.5v22a3.5 3.5 0 1 0 7 0v-22a3.5 3.5 0 0 0-3.5-3.5" clip-rule="evenodd"/><path fill="url(#s0-svg-3886852332__f)" fill-rule="evenodd" d="M66.673 67.099c-2.154-1.445-5.001.337-4.643 2.905l4.422 31.701c.37 2.644 3.748 3.525 5.362 1.399l5.514-7.268 7.33 10.955a2 2 0 0 0 2.774.55l2.519-1.685a2 2 0 0 0 .55-2.774L83.308 92.13l8.86-1.766c2.617-.521 3.3-3.946 1.084-5.433z" clip-rule="evenodd"/><defs><linearGradient id="s0-svg-3886852332__a" x1="159.08" x2="272.127" y1="55.878" y2="72.218" gradientUnits="userSpaceOnUse"><stop stop-color="#EAF2FF"/><stop offset="1" stop-color="#76AEFF"/></linearGradient><linearGradient id="s0-svg-3886852332__b" x1="27.806" x2="131.806" y1="32.273" y2="32.273" gradientUnits="userSpaceOnUse"><stop stop-color="#91BDFF"/><stop offset="1" stop-color="#91BDFF" stop-opacity="0"/></linearGradient><linearGradient id="s0-svg-3886852332__c" x1="72.499" x2="166.499" y1="61.582" y2="86.582" gradientUnits="userSpaceOnUse"><stop offset="0.318" stop-color="#91BDFF"/><stop offset="0.781" stop-color="#91BDFF" stop-opacity="0"/></linearGradient><linearGradient id="s0-svg-3886852332__d" x1="36.77" x2="5.957" y1="142.545" y2="56.087" gradientUnits="userSpaceOnUse"><stop stop-color="#76AEFF"/><stop offset="1" stop-color="#0F53FA"/></linearGradient><linearGradient id="s0-svg-3886852332__e" x1="27.499" x2="26.119" y1="80.582" y2="27.6" gradientUnits="userSpaceOnUse"><stop stop-color="#fff"/><stop offset="1" stop-color="#fff" stop-opacity="0"/></linearGradient><linearGradient id="s0-svg-3886852332__f" x1="106" x2="104.016" y1="57.082" y2="115.466" gradientUnits="userSpaceOnUse"><stop stop-color="#76AEFF"/><stop offset="1" stop-color="#0F53FA"/></linearGradient></defs>
</svg>
