<svg xmlns="http://www.w3.org/2000/svg" viewBox="0 0 142 126"
 width="142" height="126" fill="none"
 role="presentation" aria-hidden="true">
<path fill="url(#s0-svg-373990390__a)" d="M97.608 117.757H57.266c-5.523 0-10-4.477-10-10V60.452l.193-6.464a10 10 0 0 1 9.954-9.7l40.154-.168c5.539-.023 10.041 4.461 10.041 10v53.637c0 5.523-4.477 10-10 10"/><mask id="s0-svg-373990390__c" width="61" height="74" x="47" y="44" maskUnits="userSpaceOnUse" style="mask-type: alpha"><path fill="url(#s0-svg-373990390__b)" d="M97.535 117.847H57.192c-5.523 0-10-4.477-10-10V60.542l.194-6.464a10 10 0 0 1 9.953-9.701l40.154-.167c5.539-.023 10.042 4.461 10.042 10v53.637c0 5.523-4.477 10-10 10"/></mask><g filter="url(#s0-svg-373990390__d)" mask="url(#s0-svg-373990390__c)"><path fill="url(#s0-svg-373990390__e)" d="M80.808 102.619H40.465c-5.523 0-10-4.478-10-10V45.313l.194-6.464a10 10 0 0 1 9.954-9.7l40.153-.168c5.54-.023 10.042 4.461 10.042 10V92.62c0 5.522-4.477 10-10 10"/></g><path fill="url(#s0-svg-373990390__f)" d="M80.734 102.708H40.392c-5.523 0-10-4.477-10-10V45.402l.193-6.464a10 10 0 0 1 9.954-9.7l40.154-.167c5.539-.023 10.041 4.46 10.041 10v53.637c0 5.523-4.477 10-10 10"/><g filter="url(#s0-svg-373990390__g)"><path fill="url(#s0-svg-373990390__h)" fill-rule="evenodd" d="M60.489 67.022a8.858 8.858 0 1 1 0-17.717 8.858 8.858 0 0 1 0 17.717M45.723 90.645c-3.261 0-5.942-2.691-5.018-5.82 2.134-7.224 8.26-14.85 19.785-14.85 11.524 0 17.651 7.626 19.785 14.85.924 3.129-1.757 5.82-5.018 5.82H45.723" clip-rule="evenodd"/></g><rect width="10.435" height="17.926" x="55.314" y="20.085" fill="url(#s0-svg-373990390__i)" rx="1" transform="rotate(-.203 55.314 20.085)"/><defs><linearGradient id="s0-svg-373990390__a" x1="128.515" x2="32.889" y1="135.165" y2="61.826" gradientUnits="userSpaceOnUse"><stop stop-color="#ECF3FF"/><stop offset="1" stop-color="#5B9CFC"/></linearGradient><linearGradient id="s0-svg-373990390__b" x1="133.683" x2="55.511" y1="33.386" y2="111.091" gradientUnits="userSpaceOnUse"><stop offset="0.192" stop-color="#ECF3FF"/><stop offset="1" stop-color="#5B9CFC"/></linearGradient><linearGradient id="s0-svg-373990390__e" x1="75.599" x2="-45.425" y1="-29.653" y2="124.937" gradientUnits="userSpaceOnUse"><stop offset="0.37" stop-color="#ECF3FF"/><stop offset="1" stop-color="#5B9CFC"/></linearGradient><linearGradient id="s0-svg-373990390__f" x1="58.567" x2="7.544" y1="39.739" y2="168.096" gradientUnits="userSpaceOnUse"><stop stop-color="#ECF3FF"/><stop offset="1" stop-color="#5B9CFC"/></linearGradient><linearGradient id="s0-svg-373990390__h" x1="60.49" x2="60.277" y1="42.777" y2="87.504" gradientUnits="userSpaceOnUse"><stop stop-color="#76AEFF"/><stop offset="1" stop-color="#0F53FA"/></linearGradient><linearGradient id="s0-svg-373990390__i" x1="84.875" x2="41.775" y1="69.372" y2="57.844" gradientUnits="userSpaceOnUse"><stop stop-color="#ECF4FF"/><stop offset="1" stop-color="#6AA3FF"/></linearGradient><filter id="s0-svg-373990390__d" width="90.343" height="103.637" x="12.465" y="17.981" color-interpolation-filters="sRGB" filterUnits="userSpaceOnUse"><feFlood flood-opacity="0" result="BackgroundImageFix"/><feColorMatrix in="SourceAlpha" result="hardAlpha" values="0 0 0 0 0 0 0 0 0 0 0 0 0 0 0 0 0 0 0.15 0"/><feOffset dx="-3" dy="4"/><feGaussianBlur stdDeviation="7.5"/><feColorMatrix values="0 0 0 0 0 0 0 0 0 0 0 0 0 0 0 0 0 0 0.8 0"/><feBlend in2="BackgroundImageFix" mode="overlay" result="effect1_dropShadow_1_3237"/><feBlend in="SourceGraphic" in2="effect1_dropShadow_1_3237" result="shape"/></filter><filter id="s0-svg-373990390__g" width="51.94" height="53.34" x="36.52" y="47.305" color-interpolation-filters="sRGB" filterUnits="userSpaceOnUse"><feFlood flood-opacity="0" result="BackgroundImageFix"/><feColorMatrix in="SourceAlpha" result="hardAlpha" values="0 0 0 0 0 0 0 0 0 0 0 0 0 0 0 0 0 0 0.15 0"/><feOffset dx="2" dy="4"/><feGaussianBlur stdDeviation="3"/><feColorMatrix values="0 0 0 0 0 0 0 0 0 0 0 0 0 0 0 0 0 0 1 0"/><feBlend in2="BackgroundImageFix" mode="overlay" result="effect1_dropShadow_1_3237"/><feBlend in="SourceGraphic" in2="effect1_dropShadow_1_3237" result="shape"/></filter></defs>
</svg>
