<svg xmlns="http://www.w3.org/2000/svg" viewBox="0 0 142 126"
 width="142" height="126" fill="none"
 role="presentation" aria-hidden="true">
<rect width="87" height="60" x="1" y="37.482" fill="url(#s0-svg-692521678__a)" rx="10" transform="rotate(-15 1 37.482)"/><path fill="url(#s0-svg-692521678__b)" fill-opacity="0.5" fill-rule="evenodd" d="M45.817 40.229a1 1 0 0 0-.707 1.225l.259.965a1 1 0 0 0 1.225.708l3.956-1.061a1 1 0 0 0 .707-1.225l-.259-.966a1 1 0 0 0-1.225-.707zm-21.59 5.788a1 1 0 0 0-.706 1.224l.259.966a1 1 0 0 0 1.224.707l10.827-2.902a1 1 0 0 0 .706-1.225l-.258-.966a1 1 0 0 0-1.225-.707zm7.092 4.307a1 1 0 0 1 .707-1.224l3.956-1.061a1 1 0 0 1 1.225.707l.259.966a1 1 0 0 1-.707 1.224l-3.957 1.061a1 1 0 0 1-1.224-.707zm-4.235 7.346a1 1 0 0 0-.706 1.225l.258.966a1 1 0 0 0 1.225.707l3.957-1.061a1 1 0 0 0 .707-1.225l-.26-.965a1 1 0 0 0-1.224-.707zm19.12-4.088a1 1 0 0 1 .707-1.225l3.956-1.06a1 1 0 0 1 1.225.706l.26.966a1 1 0 0 1-.708 1.225l-3.956 1.06a1 1 0 0 1-1.225-.706zm-16.02 15.681a1 1 0 0 0-.706 1.225l.259.966a1 1 0 0 0 1.224.707l3.957-1.061a1 1 0 0 0 .707-1.225l-.26-.966a1 1 0 0 0-1.224-.707zm20.54-4.468a1 1 0 0 1 .707-1.225l3.957-1.06a1 1 0 0 1 1.224.706l.26.966a1 1 0 0 1-.708 1.225l-3.956 1.06a1 1 0 0 1-1.225-.706zm-2.076-4.596a1 1 0 0 0 .707-1.225l-.259-.966a1 1 0 0 0-1.224-.707l-8.864 2.377a1 1 0 0 0-.707 1.224l.26.966a1 1 0 0 0 1.224.707zm4.765 10.086a1 1 0 0 1-.707 1.225l-8.863 2.376a1 1 0 0 1-1.225-.707l-.259-.966a1 1 0 0 1 .707-1.225l8.863-2.376a1 1 0 0 1 1.225.707zM38.718 43.167a1 1 0 0 1 .707-1.225l1.994-.534a1 1 0 0 1 1.225.707l.259.966a1 1 0 0 1-.707 1.224l-1.994.535a1 1 0 0 1-1.225-.707zm15.183-4.055a1 1 0 0 1 .707-1.225l5.748-1.54a1 1 0 0 1 1.224.706l.26.966a1 1 0 0 1-.708 1.225l-5.747 1.54a1 1 0 0 1-1.225-.706zm-12.92 8.639a1 1 0 0 1 .708-1.225l5.747-1.541a1 1 0 0 1 1.225.707l.26.966a1 1 0 0 1-.708 1.224l-5.748 1.541a1 1 0 0 1-1.224-.706zm-5.208 7.607a1 1 0 0 0-.707 1.225l.26.965a1 1 0 0 0 1.224.707l5.748-1.54a1 1 0 0 0 .707-1.225l-.26-.966a1 1 0 0 0-1.224-.707zm24.615 6.863a1 1 0 0 1 .707-1.225l5.748-1.54a1 1 0 0 1 1.225.706l.259.966a1 1 0 0 1-.707 1.225l-5.748 1.54a1 1 0 0 1-1.225-.706zM57.56 67.12a1 1 0 0 0-.707 1.225l.259.966a1 1 0 0 0 1.224.706l7.852-2.105a1 1 0 0 0 .707-1.224l-.259-.966a1 1 0 0 0-1.225-.707zm-21.956-4.47a1 1 0 0 1-.707 1.224l-5.748 1.54a1 1 0 0 1-1.225-.706l-.259-.966a1 1 0 0 1 .707-1.225l5.748-1.54a1 1 0 0 1 1.225.706zm24.407-5.505a1 1 0 0 0 .707-1.225l-.26-.966a1 1 0 0 0-1.224-.707l-5.748 1.541a1 1 0 0 0-.707 1.225l.259.966a1 1 0 0 0 1.225.707zm-34.743-6.22a1 1 0 0 0-.707 1.226l.259.965a1 1 0 0 0 1.225.707l1.993-.534a1 1 0 0 0 .707-1.225l-.259-.966a1 1 0 0 0-1.224-.707zm14.573 15.75a1 1 0 0 0-.707 1.225l.259.966a1 1 0 0 0 1.225.707l5.747-1.54a1 1 0 0 0 .707-1.225l-.259-.966a1 1 0 0 0-1.224-.707zm-1.843 8.776a1 1 0 0 0 .707-1.225l-.258-.966a1 1 0 0 0-1.225-.707l-5.748 1.54a1 1 0 0 0-.707 1.226l.259.965a1 1 0 0 0 1.225.707z" clip-rule="evenodd"/><rect width="87" height="60" x="49" y="41" fill="url(#s0-svg-692521678__c)" rx="10"/><mask id="s0-svg-692521678__e" width="96" height="77" x="3" y="17" maskUnits="userSpaceOnUse" style="mask-type: alpha"><rect width="87" height="60" x="1" y="37.482" fill="url(#s0-svg-692521678__d)" rx="10" transform="rotate(-15 1 37.482)"/></mask><g filter="url(#s0-svg-692521678__f)" mask="url(#s0-svg-692521678__e)"><rect width="83.402" height="55" x="49" y="41.002" fill="url(#s0-svg-692521678__g)" rx="10"/></g><path fill="url(#s0-svg-692521678__h)" d="M49 51c0-5.523 4.477-10 10-10h67c5.523 0 10 4.477 10 10v40c0 5.523-4.477 10-10 10H59c-5.523 0-10-4.477-10-10z"/><path fill="url(#s0-svg-692521678__i)" fill-rule="evenodd" d="M59 46a4 4 0 0 0-4 4v2a4 4 0 0 0 4 4h4.343a4 4 0 0 0 4-4v-2a4 4 0 0 0-4-4zm16 0a4 4 0 0 0-4 4v2a4 4 0 0 0 4 4h51a4 4 0 0 0 4-4v-2a4 4 0 0 0-4-4z" clip-rule="evenodd"/><rect width="75" height="34.687" x="55" y="60.312" fill="url(#s0-svg-692521678__j)" rx="4"/><mask id="s0-svg-692521678__l" width="75" height="37" x="55" y="58" maskUnits="userSpaceOnUse" style="mask-type: alpha"><rect width="74.999" height="36.999" x="55.001" y="58" fill="url(#s0-svg-692521678__k)" rx="4"/></mask><g mask="url(#s0-svg-692521678__l)"><path fill="url(#s0-svg-692521678__m)" d="m57.779 91.462-.176.172a3.34 3.34 0 0 0-1.005 2.385v3.293l73.488-.456V63.538l-11.095 17.63c-2.611 4.15-8.642 4.203-11.326.1l-.45-.686c-2.194-3.353-6.971-3.715-9.645-.731l-2.191 2.444a2.86 2.86 0 0 1-4.064.197 2.86 2.86 0 0 0-4.058.19l-4.768 5.294a8.18 8.18 0 0 1-9.406 1.999l-1.781-.793a5.03 5.03 0 0 0-5.24.71l-1.104.91a3.02 3.02 0 0 1-3.494.244 3.02 3.02 0 0 0-3.685.416"/><path stroke="url(#s0-svg-692521678__n)" stroke-width="2" d="m135.586 58-16.269 22.833c-2.842 3.99-8.808 3.871-11.49-.228l-.613-.936c-2.194-3.353-6.971-3.715-9.645-.73l-2.191 2.443a2.86 2.86 0 0 1-4.063.197 2.86 2.86 0 0 0-4.06.19l-4.767 5.294a8.18 8.18 0 0 1-9.406 1.999l-1.781-.793a5.03 5.03 0 0 0-5.24.711l-1.104.909a3.02 3.02 0 0 1-3.494.244 3.02 3.02 0 0 0-3.685.416l-.176.172a3.34 3.34 0 0 0-1.005 2.385V96.4"/></g><circle cx="80" cy="82" r="11" fill="url(#s0-svg-692521678__o)"/><path fill="url(#s0-svg-692521678__p)" fill-rule="evenodd" d="M81.673 78.516c-2.153-1.444-5 .338-4.642 2.906l4.422 31.701c.37 2.643 3.748 3.525 5.361 1.398l5.515-7.268 7.33 10.957a2 2 0 0 0 2.775.55l2.519-1.685a2 2 0 0 0 .55-2.775l-7.194-10.752 8.859-1.766c2.618-.522 3.302-3.946 1.085-5.433z" clip-rule="evenodd"/><defs><linearGradient id="s0-svg-692521678__a" x1="26.428" x2="60.72" y1="-2.276" y2="178.431" gradientUnits="userSpaceOnUse"><stop stop-color="#ECF3FF"/><stop offset="1" stop-color="#5B9CFC"/></linearGradient><linearGradient id="s0-svg-692521678__b" x1="86.999" x2="97.145" y1="-25.065" y2="77.251" gradientUnits="userSpaceOnUse"><stop stop-color="#6AA3FF" stop-opacity="0"/><stop offset="1" stop-color="#6AA3FF"/></linearGradient><linearGradient id="s0-svg-692521678__c" x1="70.928" x2="146.027" y1="-6.715" y2="163.122" gradientUnits="userSpaceOnUse"><stop offset="0.37" stop-color="#ECF3FF"/><stop offset="1" stop-color="#5B9CFC"/></linearGradient><linearGradient id="s0-svg-692521678__d" x1="86.822" x2="8.835" y1="29.203" y2="150.819" gradientUnits="userSpaceOnUse"><stop stop-color="#ECF3FF"/><stop offset="1" stop-color="#5B9CFC"/></linearGradient><linearGradient id="s0-svg-692521678__g" x1="70.021" x2="136.783" y1="-2.736" y2="155.16" gradientUnits="userSpaceOnUse"><stop offset="0.37" stop-color="#ECF3FF"/><stop offset="1" stop-color="#5B9CFC"/></linearGradient><linearGradient id="s0-svg-692521678__h" x1="113.417" x2="53.173" y1="-27.476" y2="202.083" gradientUnits="userSpaceOnUse"><stop offset="0.366" stop-color="#ECF3FF"/><stop offset="1" stop-color="#5B9CFC"/></linearGradient><linearGradient id="s0-svg-692521678__i" x1="193" x2="56.348" y1="-25.667" y2="-111.591" gradientUnits="userSpaceOnUse"><stop stop-color="#91BDFF" stop-opacity="0"/><stop offset="1" stop-color="#91BDFF"/></linearGradient><linearGradient id="s0-svg-692521678__j" x1="106.064" x2="103.621" y1="44.053" y2="141.369" gradientUnits="userSpaceOnUse"><stop stop-color="#91BDFF" stop-opacity="0"/><stop offset="1" stop-color="#91BDFF"/></linearGradient><linearGradient id="s0-svg-692521678__k" x1="55.001" x2="86.608" y1="58" y2="108.28" gradientUnits="userSpaceOnUse"><stop stop-color="#91BDFF" stop-opacity="0"/><stop offset="1" stop-color="#91BDFF"/></linearGradient><linearGradient id="s0-svg-692521678__m" x1="104.766" x2="103.577" y1="92.82" y2="69.487" gradientUnits="userSpaceOnUse"><stop stop-color="#6AA3FF" stop-opacity="0"/><stop offset="1" stop-color="#6AA3FF"/></linearGradient><linearGradient id="s0-svg-692521678__n" x1="108.63" x2="70.464" y1="59.21" y2="94.577" gradientUnits="userSpaceOnUse"><stop stop-color="#70A6FF"/><stop offset="1" stop-color="#3F7DFD"/></linearGradient><linearGradient id="s0-svg-692521678__o" x1="86.05" x2="94.775" y1="61.65" y2="105.222" gradientUnits="userSpaceOnUse"><stop stop-color="#6AA3FF" stop-opacity="0"/><stop offset="1" stop-color="#6AA3FF"/></linearGradient><linearGradient id="s0-svg-692521678__p" x1="145" x2="81.264" y1="103.5" y2="129.9" gradientUnits="userSpaceOnUse"><stop stop-color="#76AEFF"/><stop offset="1" stop-color="#0F53FA"/></linearGradient><filter id="s0-svg-692521678__f" width="117.402" height="89" x="27" y="20.002" color-interpolation-filters="sRGB" filterUnits="userSpaceOnUse"><feFlood flood-opacity="0" result="BackgroundImageFix"/><feColorMatrix in="SourceAlpha" result="hardAlpha" values="0 0 0 0 0 0 0 0 0 0 0 0 0 0 0 0 0 0 0.15 0"/><feOffset dx="-5" dy="-4"/><feGaussianBlur stdDeviation="8.5"/><feColorMatrix values="0 0 0 0 0 0 0 0 0 0 0 0 0 0 0 0 0 0 1 0"/><feBlend in2="BackgroundImageFix" mode="overlay" result="effect1_dropShadow_1_3267"/><feBlend in="SourceGraphic" in2="effect1_dropShadow_1_3267" result="shape"/></filter></defs>
</svg>
