<svg xmlns="http://www.w3.org/2000/svg" viewBox="0 0 142 126"
 width="142" height="126" fill="none"
 role="presentation" aria-hidden="true">
<path stroke="url(#s0-svg-3991749794__a)" stroke-dasharray="1 5" stroke-linecap="round" stroke-linejoin="round" stroke-width="3" d="M47 90.5c7.732 0 14-6.268 14-14V53"/><path stroke="url(#s0-svg-3991749794__b)" stroke-dasharray="1 5" stroke-linecap="round" stroke-linejoin="round" stroke-width="3" d="M95 90.5c-7.732 0-14-6.268-14-14V53"/><path stroke="url(#s0-svg-3991749794__c)" stroke-dasharray="1 5" stroke-linecap="round" stroke-linejoin="round" stroke-width="3" d="M71 112V46.5"/><rect width="23" height="24" x="83" y="98" fill="url(#s0-svg-3991749794__d)" rx="8" transform="rotate(90 83 98)"/><path fill="url(#s0-svg-3991749794__e)" d="M70.889 103.607a2.31 2.31 0 0 0-2.093 1.127l-3.54 5.954a2.308 2.308 0 1 0 3.97 2.36l1.583-2.664v.002l1.958-3.292a2.31 2.31 0 0 0-1.875-3.487z"/><path fill="url(#s0-svg-3991749794__f)" d="m73.475 107.514-2.2 3.701 1.049 1.872a2.309 2.309 0 1 0 4.028-2.258l-2.476-4.418c-.06.379-.193.753-.4 1.103"/><rect width="23" height="24" x="49" y="79" fill="url(#s0-svg-3991749794__g)" rx="8" transform="rotate(90 49 79)"/><path fill="url(#s0-svg-3991749794__h)" d="M36.889 84.607a2.31 2.31 0 0 0-2.093 1.127l-3.54 5.954a2.309 2.309 0 0 0 3.97 2.36l1.583-2.664v.002l1.958-3.292a2.31 2.31 0 0 0-1.875-3.487z"/><path fill="url(#s0-svg-3991749794__i)" d="m39.475 88.514-2.2 3.701 1.049 1.872a2.309 2.309 0 0 0 4.028-2.258l-2.476-4.418c-.06.38-.193.753-.4 1.103"/><rect width="23" height="24" x="117" y="79" fill="url(#s0-svg-3991749794__j)" rx="8" transform="rotate(90 117 79)"/><path fill="url(#s0-svg-3991749794__k)" d="M104.889 84.607a2.31 2.31 0 0 0-2.093 1.127l-3.54 5.954a2.309 2.309 0 1 0 3.97 2.36l1.583-2.664.001.002 1.957-3.292a2.31 2.31 0 0 0-1.875-3.487z"/><path fill="url(#s0-svg-3991749794__l)" d="m107.475 88.514-2.2 3.701 1.049 1.872a2.309 2.309 0 1 0 4.028-2.258l-2.476-4.418c-.061.38-.193.753-.401 1.103"/><path fill="url(#s0-svg-3991749794__m)" fill-rule="evenodd" d="M91.349 20.393c-.472.033-.911-.25-1.075-.693C87.097 11.118 78.838 5 69.151 5 56.715 5 46.634 15.081 46.634 27.517q0 .49.02.977c.03.666-.559 1.208-1.222 1.144a16 16 0 0 0-1.53-.074c-8.666 0-15.693 7.027-15.693 15.694 0 8.437 6.659 15.32 15.007 15.679q.007 0 .007.007.001.008.008.008h48.155q.699.048 1.41.048c11.226 0 20.328-9.102 20.328-20.329s-9.102-20.329-20.329-20.329q-.729 0-1.446.05" clip-rule="evenodd"/><path fill="url(#s0-svg-3991749794__n)" d="m59.355 43.182-.333.175c-2.165 1.144-2.17 3.198-.012 4.354l9.16 4.903c1.767.946 4.4.954 6.175.018l9.03-4.76c2.168-1.144 2.174-3.201.011-4.357l-.342-.183-8.7 4.587c-1.774.935-4.407.927-6.175-.02z"/><path fill="url(#s0-svg-3991749794__o)" d="m59.612 35.59-.333.175c-2.165 1.143-2.171 3.198-.013 4.353l9.16 4.903c1.768.946 4.4.954 6.176.019l9.03-4.761c2.168-1.144 2.174-3.2.011-4.356l-.343-.183-8.698 4.586c-1.775.936-4.408.928-6.176-.019z"/><path fill="url(#s0-svg-3991749794__p)" d="M68.426 23.516c1.773-.936 4.406-.93 6.176.016l9.174 4.903c2.162 1.155 2.157 3.212-.012 4.356l-9.03 4.76c-1.774.936-4.407.928-6.175-.018l-9.16-4.903c-2.158-1.156-2.153-3.21.012-4.353z"/><defs><linearGradient id="s0-svg-3991749794__a" x1="63.24" x2="44.291" y1="51.545" y2="100.36" gradientUnits="userSpaceOnUse"><stop offset="0.161" stop-color="#86B6FC"/><stop offset="1" stop-color="#86B6FC" stop-opacity="0"/></linearGradient><linearGradient id="s0-svg-3991749794__b" x1="78.76" x2="97.71" y1="51.545" y2="100.36" gradientUnits="userSpaceOnUse"><stop offset="0.161" stop-color="#86B6FC"/><stop offset="1" stop-color="#86B6FC" stop-opacity="0"/></linearGradient><linearGradient id="s0-svg-3991749794__c" x1="75.48" x2="52.032" y1="45.091" y2="114.301" gradientUnits="userSpaceOnUse"><stop offset="0.161" stop-color="#86B6FC"/><stop offset="1" stop-color="#86B6FC" stop-opacity="0"/></linearGradient><linearGradient id="s0-svg-3991749794__d" x1="89.056" x2="122.09" y1="105.63" y2="112.523" gradientUnits="userSpaceOnUse"><stop stop-color="#EAF2FF"/><stop offset="1" stop-color="#76AEFF"/></linearGradient><linearGradient id="s0-svg-3991749794__e" x1="66.629" x2="75.204" y1="101.421" y2="111.894" gradientUnits="userSpaceOnUse"><stop stop-color="#C2D8FB"/><stop offset="0" stop-color="#C0D7FB"/><stop offset="1" stop-color="#7AB2FF"/></linearGradient><linearGradient id="s0-svg-3991749794__f" x1="66.629" x2="75.204" y1="101.421" y2="111.894" gradientUnits="userSpaceOnUse"><stop stop-color="#C2D8FB"/><stop offset="0" stop-color="#C0D7FB"/><stop offset="1" stop-color="#7AB2FF"/></linearGradient><linearGradient id="s0-svg-3991749794__g" x1="55.056" x2="88.09" y1="86.63" y2="93.523" gradientUnits="userSpaceOnUse"><stop stop-color="#EAF2FF"/><stop offset="1" stop-color="#76AEFF"/></linearGradient><linearGradient id="s0-svg-3991749794__h" x1="32.629" x2="41.204" y1="82.421" y2="92.894" gradientUnits="userSpaceOnUse"><stop stop-color="#C2D8FB"/><stop offset="0" stop-color="#C0D7FB"/><stop offset="1" stop-color="#7AB2FF"/></linearGradient><linearGradient id="s0-svg-3991749794__i" x1="32.629" x2="41.204" y1="82.421" y2="92.894" gradientUnits="userSpaceOnUse"><stop stop-color="#C2D8FB"/><stop offset="0" stop-color="#C0D7FB"/><stop offset="1" stop-color="#7AB2FF"/></linearGradient><linearGradient id="s0-svg-3991749794__j" x1="123.056" x2="156.09" y1="86.63" y2="93.523" gradientUnits="userSpaceOnUse"><stop stop-color="#EAF2FF"/><stop offset="1" stop-color="#76AEFF"/></linearGradient><linearGradient id="s0-svg-3991749794__k" x1="100.629" x2="109.204" y1="82.421" y2="92.894" gradientUnits="userSpaceOnUse"><stop stop-color="#C2D8FB"/><stop offset="0" stop-color="#C0D7FB"/><stop offset="1" stop-color="#7AB2FF"/></linearGradient><linearGradient id="s0-svg-3991749794__l" x1="100.629" x2="109.204" y1="82.421" y2="92.894" gradientUnits="userSpaceOnUse"><stop stop-color="#C2D8FB"/><stop offset="0" stop-color="#C0D7FB"/><stop offset="1" stop-color="#7AB2FF"/></linearGradient><linearGradient id="s0-svg-3991749794__m" x1="89.61" x2="27.749" y1="-1.286" y2="53.556" gradientUnits="userSpaceOnUse"><stop stop-color="#C2D8FB"/><stop offset="0" stop-color="#76AEFF"/><stop offset="1" stop-color="#175AFA"/></linearGradient><linearGradient id="s0-svg-3991749794__n" x1="100.392" x2="80.667" y1="-19.706" y2="53.28" gradientUnits="userSpaceOnUse"><stop stop-color="#fff" stop-opacity="0"/><stop offset="1" stop-color="#fff"/></linearGradient><linearGradient id="s0-svg-3991749794__o" x1="100.392" x2="80.667" y1="-19.706" y2="53.28" gradientUnits="userSpaceOnUse"><stop stop-color="#fff" stop-opacity="0"/><stop offset="1" stop-color="#fff"/></linearGradient><linearGradient id="s0-svg-3991749794__p" x1="100.392" x2="80.667" y1="-19.706" y2="53.28" gradientUnits="userSpaceOnUse"><stop stop-color="#fff" stop-opacity="0"/><stop offset="1" stop-color="#fff"/></linearGradient></defs>
</svg>
