<svg xmlns="http://www.w3.org/2000/svg" viewBox="0 0 142 126"
 width="142" height="126" fill="none"
 role="presentation" aria-hidden="true">
<rect width="77" height="116" x="129" y="36" fill="url(#s0-svg-1725200877__a)" rx="10" transform="rotate(90 129 36)"/><path fill="url(#s0-svg-1725200877__b)" d="M35.308 66.457C25.393 58.846 16.305 74.562 13 83.372V95h116V58c-26.274 1.586-38.667 29.6-50.564 29.6-11.898 0-8.428-17.971-19.333-11.1-10.906 6.871-11.402-.528-23.795-10.043"/><path stroke="url(#s0-svg-1725200877__c)" stroke-linecap="round" stroke-width="3" d="M13.856 95.49C22.573 66.71 38.39 63.722 45.82 66.74c14.784 6.008 20.378 25.747 32.764 25.747 9.19 0 12.277-11.211 15.982-19.74 5.594-12.873 21.368-43.996 33.963-17.163" opacity="0.5"/><rect width="79" height="40.717" x="80" y="68.717" fill="url(#s0-svg-1725200877__d)" rx="10" transform="rotate(-180 80 68.717)"/><path fill="url(#s0-svg-1725200877__e)" fill-rule="evenodd" d="M12.404 45.076a1.284 1.284 0 0 0 2.567 0v-6.668a1.284 1.284 0 0 0-2.567 0zM19 42a1 1 0 0 1 1-1h30.87a1 1 0 0 1 1 1v.567a1 1 0 0 1-1 1H20a1 1 0 0 1-1-1zm1.276 5.135a1 1 0 0 0-1 1v.567a1 1 0 0 0 1 1h20.18a1 1 0 0 0 1-1v-.567a1 1 0 0 0-1-1zm24.747 0a1 1 0 0 0-1 1v.567a1 1 0 0 0 1 1h10.796a1 1 0 0 0 1-1v-.567a1 1 0 0 0-1-1zm-25.747 7.134a1 1 0 0 1 1-1h9.09a1 1 0 0 1 1 1v.568a1 1 0 0 1-1 1h-9.09a1 1 0 0 1-1-1zm14.657-1a1 1 0 0 0-1 1v.568a1 1 0 0 0 1 1h26a1 1 0 0 0 1-1v-.568a1 1 0 0 0-1-1z" clip-rule="evenodd"/><defs><linearGradient id="s0-svg-1725200877__a" x1="87.538" x2="197.028" y1="135.2" y2="15.192" gradientUnits="userSpaceOnUse"><stop offset="0.381" stop-color="#EAF2FF"/><stop offset="0.411" stop-color="#EAF2FF"/><stop offset="1" stop-color="#76AEFF"/></linearGradient><linearGradient id="s0-svg-1725200877__b" x1="46.721" x2="45.995" y1="32.339" y2="95.007" gradientUnits="userSpaceOnUse"><stop stop-color="#69A4FF"/><stop offset="1" stop-color="#6BA5FF" stop-opacity="0"/></linearGradient><linearGradient id="s0-svg-1725200877__c" x1="15.054" x2="122.535" y1="95.49" y2="95.49" gradientUnits="userSpaceOnUse"><stop stop-color="#6AA4FF" stop-opacity="0"/><stop offset="0.3" stop-color="#6AA4FF"/><stop offset="0.654" stop-color="#6AA4FF"/><stop offset="1" stop-color="#6AA4FF" stop-opacity="0"/></linearGradient><linearGradient id="s0-svg-1725200877__d" x1="100.5" x2="132.012" y1="125.935" y2="69.559" gradientUnits="userSpaceOnUse"><stop stop-color="#76AEFF"/><stop offset="1" stop-color="#0F53FA"/></linearGradient><linearGradient id="s0-svg-1725200877__e" x1="12.404" x2="74.875" y1="41.741" y2="41.831" gradientUnits="userSpaceOnUse"><stop stop-color="#fff"/><stop offset="1" stop-color="#fff" stop-opacity="0"/></linearGradient></defs>
</svg>
