<svg xmlns="http://www.w3.org/2000/svg" viewBox="0 0 142 126"
 width="142" height="126" fill="none"
 role="presentation" aria-hidden="true">
<rect width="77" height="116" x="129.427" y="23.418" fill="url(#s0-svg-1875107591__a)" rx="10" transform="rotate(90 129.427 23.418)"/><g fill-opacity="0.5" opacity="0.6"><rect width="104" height="15" x="18.427" y="29.418" fill="url(#s0-svg-1875107591__b)" rx="6"/><rect width="41.6" height="44" x="85.427" y="50.618" fill="url(#s0-svg-1875107591__c)" rx="6" transform="rotate(90 85.427 50.618)"/><rect width="42.4" height="31.2" x="122.227" y="50.218" fill="url(#s0-svg-1875107591__d)" rx="6" transform="rotate(90 122.227 50.218)"/></g><path fill="url(#s0-svg-1875107591__e)" d="M75.043 66.275c4.615-6.171 8.846 6.572 10.384 13.714v9.429h-54v-30c12.23 1.286 18 24 23.539 24 5.538 0 3.923-14.571 9-9s5.307-.429 11.077-8.143"/><path fill="url(#s0-svg-1875107591__f)" fill-rule="evenodd" d="M98.799 59.418a1.372 1.372 0 0 0 0 2.745h1.723a1.373 1.373 0 1 0 0-2.745zm0 6a1.372 1.372 0 0 0 0 2.745h1.723a1.373 1.373 0 1 0 0-2.744zm5.777-5a1 1 0 0 1 1-1h8.851a1 1 0 0 1 1 1v.745a1 1 0 0 1-1 1h-8.851a1 1 0 0 1-1-1zm1 5a1 1 0 0 0-1 1v.745a1 1 0 0 0 1 1h8.851a1 1 0 0 0 1-1v-.745a1 1 0 0 0-1-1zM98.8 71.164a1.372 1.372 0 1 0 0 2.745h1.723a1.372 1.372 0 0 0 0-2.745zm6.776 0a1 1 0 0 0-1 1v.745a1 1 0 0 0 1 1h8.851a1 1 0 0 0 1-1v-.745a1 1 0 0 0-1-1zm-8.15 7.118c0-.758.615-1.373 1.373-1.373h1.723a1.373 1.373 0 1 1 0 2.745h-1.723a1.37 1.37 0 0 1-1.372-1.372m7.149-.373a1 1 0 0 1 1-1h8.851a1 1 0 0 1 1 1v.745a1 1 0 0 1-1 1h-8.851a1 1 0 0 1-1-1z" clip-rule="evenodd"/><path fill="#6AA3FF" fill-rule="evenodd" d="M26.629 41.27a1 1 0 0 0 1 1h.5a1 1 0 0 0 1-1V37.97h3.149a1 1 0 0 0 1-1v-.5a1 1 0 0 0-1-1h-3.15v-3.053a1 1 0 0 0-1-1h-.5a1 1 0 0 0-1 1v3.053h-3.201a1 1 0 0 0-1 1v.5a1 1 0 0 0 1 1h3.202z" clip-rule="evenodd"/><mask id="s0-svg-1875107591__h" width="117" height="78" x="13" y="23" maskUnits="userSpaceOnUse" style="mask-type: alpha"><rect width="77" height="116" x="129.427" y="23.418" fill="url(#s0-svg-1875107591__g)" rx="10" transform="rotate(90 129.427 23.418)"/></mask><g filter="url(#s0-svg-1875107591__i)" mask="url(#s0-svg-1875107591__h)"><path fill="url(#s0-svg-1875107591__j)" fill-rule="evenodd" d="M29.78 51.151a2 2 0 0 0-3.384 0l-5.076 8.05a9 9 0 0 0-.169.28H9.427a9 9 0 0 0-9 9v41.001a9 9 0 0 0 9 9h36a9 9 0 0 0 9-9V68.481a9 9 0 0 0-9-9H35.024a9 9 0 0 0-.17-.28z" clip-rule="evenodd"/></g><path fill="url(#s0-svg-1875107591__k)" fill-rule="evenodd" d="M29.693 51.151a2 2 0 0 0-3.384 0l-5.075 8.05a9 9 0 0 0-.17.28H10.502a9 9 0 0 0-9 9v41a9 9 0 0 0 9 9h36a9 9 0 0 0 9-9v-41a9 9 0 0 0-9-9H34.937a9 9 0 0 0-.169-.28z" clip-rule="evenodd"/><path fill="url(#s0-svg-1875107591__l)" d="M11.918 91.848c-4.58-5.102-8.778 5.432-10.305 11.337v7.794l53.888-.288v-24.8c-12.137 1.063-18.163 20.128-23.66 20.128s-3.893-12.046-8.93-7.44c-5.039 4.606-5.268-.354-10.993-6.731" opacity="0.4"/><path stroke="url(#s0-svg-1875107591__m)" stroke-linecap="round" stroke-width="3" d="M1.5 92.351c1.789-6.133 6.775-18.4 12.408-18.4 7.043 0 6.037 18.4 15.091 18.4 9.055 0 11.01-10.952 17.382-10.952s7.043 8.8 8.72 8.8"/><defs><linearGradient id="s0-svg-1875107591__a" x1="149.702" x2="262.748" y1="60.296" y2="76.636" gradientUnits="userSpaceOnUse"><stop stop-color="#EAF2FF"/><stop offset="1" stop-color="#76AEFF"/></linearGradient><linearGradient id="s0-svg-1875107591__b" x1="18.427" x2="122.427" y1="36.691" y2="36.691" gradientUnits="userSpaceOnUse"><stop stop-color="#91BDFF"/><stop offset="1" stop-color="#91BDFF" stop-opacity="0"/></linearGradient><linearGradient id="s0-svg-1875107591__c" x1="85.427" x2="127.027" y1="71.951" y2="71.951" gradientUnits="userSpaceOnUse"><stop offset="0.318" stop-color="#91BDFF"/><stop offset="1" stop-color="#91BDFF" stop-opacity="0"/></linearGradient><linearGradient id="s0-svg-1875107591__d" x1="122.227" x2="164.627" y1="65.345" y2="65.345" gradientUnits="userSpaceOnUse"><stop offset="0.318" stop-color="#91BDFF"/><stop offset="0.781" stop-color="#91BDFF" stop-opacity="0"/></linearGradient><linearGradient id="s0-svg-1875107591__e" x1="74.707" x2="73.202" y1="65.499" y2="86.181" gradientUnits="userSpaceOnUse"><stop offset="0.021" stop-color="#6AA3FF"/><stop offset="1" stop-color="#4A87FD" stop-opacity="0"/></linearGradient><linearGradient id="s0-svg-1875107591__f" x1="106.427" x2="125.512" y1="92.457" y2="57.315" gradientUnits="userSpaceOnUse"><stop stop-color="#7AB2FF" stop-opacity="0"/><stop offset="0" stop-color="#7AB2FF" stop-opacity="0"/><stop offset="1" stop-color="#7AB2FF"/></linearGradient><linearGradient id="s0-svg-1875107591__g" x1="137.574" x2="271.554" y1="32.98" y2="61.492" gradientUnits="userSpaceOnUse"><stop stop-color="#EAF2FF"/><stop offset="1" stop-color="#76AEFF"/></linearGradient><linearGradient id="s0-svg-1875107591__j" x1="31.224" x2="59.697" y1="58.109" y2="105.751" gradientUnits="userSpaceOnUse"><stop stop-color="#76AEFF"/><stop offset="1" stop-color="#0F53FA"/></linearGradient><linearGradient id="s0-svg-1875107591__k" x1="28.501" x2="65.375" y1="44.056" y2="101.994" gradientUnits="userSpaceOnUse"><stop stop-color="#76AEFF"/><stop offset="1" stop-color="#0F53FA"/></linearGradient><linearGradient id="s0-svg-1875107591__l" x1="12.252" x2="13.289" y1="91.206" y2="108.33" gradientUnits="userSpaceOnUse"><stop offset="0.021" stop-color="#fff"/><stop offset="1" stop-color="#fff" stop-opacity="0"/></linearGradient><linearGradient id="s0-svg-1875107591__m" x1="53.76" x2="1.659" y1="93.704" y2="90.075" gradientUnits="userSpaceOnUse"><stop offset="0.005" stop-color="#fff" stop-opacity="0"/><stop offset="0.443" stop-color="#fff"/><stop offset="0.609" stop-color="#fff"/><stop offset="0.97" stop-color="#fff" stop-opacity="0"/></linearGradient><filter id="s0-svg-1875107591__i" width="90" height="104.264" x="-14.573" y="25.218" color-interpolation-filters="sRGB" filterUnits="userSpaceOnUse"><feFlood flood-opacity="0" result="BackgroundImageFix"/><feColorMatrix in="SourceAlpha" result="hardAlpha" values="0 0 0 0 0 0 0 0 0 0 0 0 0 0 0 0 0 0 0.15 0"/><feOffset dx="3" dy="-7"/><feGaussianBlur stdDeviation="9"/><feColorMatrix values="0 0 0 0 0 0 0 0 0 0 0 0 0 0 0 0 0 0 1 0"/><feBlend in2="BackgroundImageFix" mode="overlay" result="effect1_dropShadow_1_3644"/><feBlend in="SourceGraphic" in2="effect1_dropShadow_1_3644" result="shape"/></filter></defs>
</svg>
