<svg xmlns="http://www.w3.org/2000/svg" viewBox="0 0 20 20"
 width="20" height="20" fill="none"
 role="presentation" aria-hidden="true">
<path fill="currentColor" d="M11.141 18.673A9 9 0 0 1 10 18.75q-.58-.002-1.143-.077l.162-1.236a7.6 7.6 0 0 0 1.962 0zM5.435 15.95a7.5 7.5 0 0 0 1.694.981l-.479 1.154a8.7 8.7 0 0 1-1.977-1.145zm9.891.99a8.7 8.7 0 0 1-1.978 1.145l-.477-1.154a7.5 7.5 0 0 0 1.694-.98zM3.069 12.871c.252.609.583 1.178.98 1.694l-.99.76a8.7 8.7 0 0 1-1.145-1.977zm15.016.477a8.7 8.7 0 0 1-1.145 1.978l-.99-.76a7.5 7.5 0 0 0 .981-1.695zM7.2 5.077c.2-.11.443-.102.636.02l6.875 4.376a.625.625 0 0 1 0 1.054l-6.875 4.375a.625.625 0 0 1-.961-.527v-8.75c0-.228.125-.438.325-.548M2.563 9.019a7.6 7.6 0 0 0 0 1.962l-1.237.16A9 9 0 0 1 1.25 10q.001-.581.076-1.143zm7.807-7.76.162.008.094.007a9 9 0 0 1 .515.052c.772.1 1.511.3 2.206.588l.016.006.127.055q.12.052.236.108l.106.05q.15.072.296.15l.13.073q.087.048.172.099a8.8 8.8 0 0 1 3.198 3.26q.045.077.087.155a9 9 0 0 1 .293.603 8.7 8.7 0 0 1 .665 4.668l-1.236-.16a7.6 7.6 0 0 0 .008-1.876 7.45 7.45 0 0 0-1.465-3.629 7.54 7.54 0 0 0-3.085-2.396 7.6 7.6 0 0 0-3.877-.516l-.16-1.238a9 9 0 0 1 1.512-.067M4.05 5.435a7.5 7.5 0 0 0-.981 1.694L1.914 6.65A8.7 8.7 0 0 1 3.06 4.673zm3.079-2.366a7.5 7.5 0 0 0-1.694.98l-.762-.99A8.7 8.7 0 0 1 6.65 1.914z"/>
</svg>
