<svg xmlns="http://www.w3.org/2000/svg" viewBox="0 0 16 16"
 width="16" height="16" fill="none"
 role="presentation" aria-hidden="true">
<path fill="currentColor" d="M7.784 3.06q1.08 0 1.992.408a4.75 4.75 0 0 1 1.572 1.092q.672.684 1.032 1.56a4.65 4.65 0 0 1 .372 1.836q0 .756-.24 1.332a2 2 0 0 1-.672.888q-.444.324-1.067.324a1.9 1.9 0 0 1-.708-.132 1.7 1.7 0 0 1-.577-.396 1.4 1.4 0 0 1-.21-.331 1.97 1.97 0 0 1-1.014.75 2.5 2.5 0 0 1-.756.109q-.696 0-1.26-.336a2.46 2.46 0 0 1-.876-.912 2.6 2.6 0 0 1-.324-1.308q0-.732.324-1.308a2.46 2.46 0 0 1 .876-.912 2.35 2.35 0 0 1 1.26-.348q.588 0 1.068.24.425.207.696.556v-.676h.78v3.312q0 .444.192.648a.73.73 0 0 0 .54.204q.504 0 .78-.42.287-.42.288-1.26 0-.864-.3-1.608t-.84-1.296a3.9 3.9 0 0 0-1.284-.864A4.2 4.2 0 0 0 7.784 3.9q-.876 0-1.632.312-.744.3-1.296.852a4 4 0 0 0-.864 1.296q-.3.744-.3 1.632 0 .864.288 1.62.3.744.84 1.308a3.9 3.9 0 0 0 1.308.9 4.2 4.2 0 0 0 1.68.325q.54 0 1.044-.12.503-.108.912-.337l.384.72q-1.02.576-2.364.576-1.056 0-1.968-.384-.9-.372-1.584-1.056A5 5 0 0 1 3.164 9.96a5.1 5.1 0 0 1-.372-1.956 4.9 4.9 0 0 1 1.44-3.516 4.9 4.9 0 0 1 1.596-1.044 5 5 0 0 1 1.956-.383m-.24 3.18a1.55 1.55 0 0 0-1.392.828 1.84 1.84 0 0 0-.204.876q0 .48.204.876.216.384.576.612t.816.228q.468 0 .828-.228t.564-.612q.216-.396.216-.888 0-.744-.456-1.212-.456-.48-1.152-.48"/>
</svg>
