<svg xmlns="http://www.w3.org/2000/svg" viewBox="0 0 16 16"
 width="16" height="16" fill="none"
 role="presentation" aria-hidden="true">
<g fill="currentColor"><path d="M1.061 9.751c-.144-.131-.013-.31.159-.206 1.974 1.149 4.41 1.846 6.93 1.846 1.698 0 3.565-.355 5.283-1.084.257-.117.475.168.223.355C12.125 11.797 9.9 12.4 7.986 12.4c-2.683 0-5.1-.994-6.925-2.648"/><path d="M12.465 9.662c.875-.617 2.314-.439 2.481-.233.168.21-.046 1.653-.866 2.344-.125.108-.246.053-.19-.086.186-.464.6-1.506.404-1.753-.196-.251-1.295-.122-1.792-.062-.149.019-.172-.112-.037-.21M12.93 4q.157-.001.313.019c.107.014.205.033.303.052q.139.033.264.075.126.041.197.083a.4.4 0 0 1 .14.117c.03.045.044.1.04.154v.22q0 .149-.106.15a.5.5 0 0 1-.177-.057 2.1 2.1 0 0 0-.894-.182c-.265 0-.475.042-.62.132q-.217.129-.218.415 0 .197.14.332c.092.088.265.176.511.256l.662.21q.504.16.722.449.215.288.214.654-.001.303-.121.542c-.083.16-.199.3-.34.411a1.5 1.5 0 0 1-.517.262c-.21.066-.429.098-.666.098q-.363 0-.718-.084a2 2 0 0 1-.535-.187.34.34 0 0 1-.144-.132.3.3 0 0 1-.028-.13v-.238q.001-.146.107-.145.043 0 .084.013c.028.01.07.029.117.048q.237.106.512.163c.186.037.367.057.553.057q.442 0 .68-.154a.5.5 0 0 0 .242-.445.45.45 0 0 0-.126-.326q-.125-.133-.47-.243l-.675-.21c-.34-.108-.591-.268-.744-.478a1.1 1.1 0 0 1-.233-.676q0-.295.125-.52c.084-.149.196-.28.336-.383.14-.106.297-.186.484-.242q.28-.082.587-.08"/><path fill-rule="evenodd" d="M3.33 4.01q.83 0 1.22.378.385.378.386 1.15v1.514h.01q.001.26.05.415c.038.102.085.214.15.336q.03.05.032.107 0 .07-.088.14l-.294.197a.2.2 0 0 1-.12.042q-.072-.001-.141-.065a1.5 1.5 0 0 1-.168-.22q-.078-.135-.144-.275-.545.644-1.369.644c-.39 0-.703-.113-.93-.337Q1.58 7.7 1.579 7.14q-.001-.598.424-.963c.284-.243.661-.364 1.14-.364q.236.001.494.037a6 6 0 0 1 .536.103v-.34q-.001-.533-.22-.749-.221-.216-.759-.215-.244 0-.502.062-.257.06-.504.158a1 1 0 0 1-.162.062.3.3 0 0 1-.074.013q-.099.001-.099-.145V4.57q0-.113.033-.163a.35.35 0 0 1 .131-.098q.244-.126.586-.21.342-.091.727-.09m-.015 2.36c-.312 0-.54.06-.693.186q-.23.188-.228.538-.001.326.172.495.168.173.489.172.228 0 .479-.084c.167-.056.317-.16.442-.3a.74.74 0 0 0 .159-.298c.028-.113.046-.247.046-.406v-.196a4 4 0 0 0-.866-.108" clip-rule="evenodd"/><path d="M5.951 4.122q.133-.001.182.046c.037.028.065.094.093.183l.783 3.092.725-3.092q.034-.14.088-.183a.3.3 0 0 1 .138-.046h.42q.133-.001.187.046c.038.028.07.094.09.183l.734 3.13.806-3.13a.4.4 0 0 1 .093-.183.3.3 0 0 1 .135-.046h.48q.114 0 .116.116-.001.035-.008.075a1 1 0 0 1-.034.117L9.857 8.04q-.042.141-.097.183a.3.3 0 0 1-.177.047h-.4q-.133 0-.187-.047c-.038-.034-.07-.094-.088-.188l-.722-3.012-.717 3.01q-.034.138-.088.186c-.038.033-.104.047-.187.047h-.4c-.084 0-.14-.015-.177-.048-.038-.028-.07-.094-.098-.183l-1.093-3.61a.8.8 0 0 1-.043-.188c0-.074.037-.116.111-.116z"/></g>
</svg>
