<svg xmlns="http://www.w3.org/2000/svg" viewBox="0 0 20 20"
 width="20" height="20" fill="none"
 role="presentation" aria-hidden="true">
<g fill="currentColor"><path d="M1.327 12.189c-.18-.164-.016-.387.198-.258 2.469 1.436 5.512 2.307 8.662 2.307 2.123 0 4.457-.444 6.605-1.355.32-.145.594.21.279.445-1.914 1.418-4.697 2.171-7.089 2.171-3.352 0-6.373-1.243-8.655-3.31"/><path d="M15.582 12.078c1.093-.771 2.892-.55 3.101-.292.21.262-.058 2.067-1.082 2.93-.157.135-.307.067-.238-.108.233-.58.75-1.882.505-2.191-.245-.313-1.618-.152-2.24-.077-.186.024-.215-.14-.046-.262M16.164 5c.129 0 .262.006.39.023.134.018.257.042.379.066q.175.04.33.093a1.3 1.3 0 0 1 .246.105.5.5 0 0 1 .174.145.3.3 0 0 1 .052.193V5.9q-.001.184-.133.186a.6.6 0 0 1-.221-.07 2.7 2.7 0 0 0-1.118-.227c-.332 0-.594.053-.774.164-.18.11-.274.28-.274.52 0 .162.058.303.175.414s.331.22.64.32l.827.262q.63.203.902.562.268.361.267.818 0 .377-.15.677a1.6 1.6 0 0 1-.426.514c-.18.146-.395.252-.645.327a2.8 2.8 0 0 1-.833.122 3.8 3.8 0 0 1-.897-.105c-.29-.07-.517-.145-.67-.233a.4.4 0 0 1-.18-.164.4.4 0 0 1-.034-.163v-.298q.001-.182.133-.182.055 0 .105.018c.035.012.089.035.147.06.196.087.413.156.64.203.232.046.459.071.691.071q.552 0 .85-.193a.63.63 0 0 0 .303-.555.57.57 0 0 0-.158-.408c-.104-.112-.301-.21-.587-.304l-.845-.262c-.424-.135-.738-.335-.93-.597a1.4 1.4 0 0 1-.29-.846q0-.369.156-.65c.105-.185.245-.35.42-.478.175-.133.371-.233.604-.303s.478-.1.734-.1"/><path fill-rule="evenodd" d="M4.163 5.012q1.037 0 1.525.473.481.473.483 1.438v1.892h.012q0 .324.064.519c.046.127.104.267.185.42q.04.061.04.134.001.088-.11.175l-.367.246a.3.3 0 0 1-.15.052q-.089-.001-.176-.082a2 2 0 0 1-.21-.274 5 5 0 0 1-.179-.344q-.681.805-1.711.805-.736 0-1.164-.42-.429-.421-.43-1.121-.001-.747.53-1.204c.354-.304.826-.454 1.425-.454q.294.002.616.045c.216.03.439.077.67.13v-.427q0-.665-.273-.935-.278-.27-.95-.268-.304-.001-.627.077-.322.076-.63.197-.099.045-.203.077a.4.4 0 0 1-.092.017q-.123.001-.124-.181v-.286c0-.093.011-.165.04-.204a.44.44 0 0 1 .165-.123q.304-.158.733-.263.427-.112.908-.11m-.018 2.95c-.39 0-.676.075-.867.233-.192.157-.284.38-.284.672q-.002.408.214.62.21.215.61.214.286 0 .6-.105c.209-.07.397-.199.553-.374a.9.9 0 0 0 .198-.373c.035-.141.058-.31.058-.508v-.245a5 5 0 0 0-.535-.1 4 4 0 0 0-.547-.035" clip-rule="evenodd"/><path d="M7.44 5.153c.109 0 .186.016.226.057.047.035.083.118.118.228l.977 3.866.907-3.866q.042-.175.11-.228a.4.4 0 0 1 .172-.057h.527q.164-.002.233.057c.047.035.088.118.11.228l.92 3.914 1.007-3.914a.5.5 0 0 1 .116-.228.4.4 0 0 1 .168-.057h.601c.093 0 .145.046.145.145q-.001.043-.01.094a1 1 0 0 1-.042.145l-1.403 4.514q-.053.176-.122.229a.37.37 0 0 1-.22.058h-.501q-.164.001-.233-.058c-.047-.042-.087-.118-.11-.235l-.902-3.764-.898 3.76q-.041.174-.11.234c-.047.041-.129.058-.233.058h-.5c-.105 0-.175-.018-.221-.06-.047-.035-.087-.116-.122-.228L6.783 5.532a1 1 0 0 1-.054-.234c0-.093.046-.145.14-.145z"/></g>
</svg>
