<svg xmlns="http://www.w3.org/2000/svg" viewBox="0 0 20 20"
 width="20" height="20" fill="none"
 role="presentation" aria-hidden="true">
<g fill="currentColor"><path d="M14.375 13.125a1.25 1.25 0 1 1 0 2.5h-3.75a1.25 1.25 0 1 1 0-2.5z"/><path fill-rule="evenodd" d="M14.375 11.25a3.125 3.125 0 1 1 0 6.25h-8.75a3.125 3.125 0 1 1 0-6.25zm-8.75 1.25a1.875 1.875 0 0 0 0 3.75h8.75a1.875 1.875 0 0 0 0-3.75z" clip-rule="evenodd"/><path d="M9.375 4.375a1.25 1.25 0 1 1 0 2.5h-3.75a1.25 1.25 0 1 1 0-2.5z"/><path fill-rule="evenodd" d="M14.375 2.5a3.125 3.125 0 1 1 0 6.25h-8.75a3.125 3.125 0 1 1 0-6.25zm-8.75 1.25a1.875 1.875 0 0 0 0 3.75h8.75a1.875 1.875 0 0 0 0-3.75z" clip-rule="evenodd"/></g>
</svg>
