<svg xmlns="http://www.w3.org/2000/svg" viewBox="0 0 16 16"
 width="16" height="16" fill="none"
 role="presentation" aria-hidden="true">
<g fill="currentColor"><path d="M12 11h2v1h-2.5a.5.5 0 0 1-.5-.5V9h1z"/><path fill-rule="evenodd" d="M11.438 7a4.437 4.437 0 1 1 0 8.875 4.437 4.437 0 0 1 0-8.875m0 1a3.437 3.437 0 1 0 0 6.875 3.437 3.437 0 0 0 0-6.875" clip-rule="evenodd"/><path d="M6 3h4V2h1v1h1.5A1.5 1.5 0 0 1 14 4.5V6h-1V4.5a.5.5 0 0 0-.5-.5H11v1h-1V4H6v1H5V4H3.5a.5.5 0 0 0-.5.5v8a.5.5 0 0 0 .5.5H6v1H3.5A1.5 1.5 0 0 1 2 12.5v-8A1.5 1.5 0 0 1 3.5 3H5V2h1z"/></g>
</svg>
