<svg xmlns="http://www.w3.org/2000/svg" viewBox="0 0 20 20"
 width="20" height="20" fill="none"
 role="presentation" aria-hidden="true">
<path fill="currentColor" fill-rule="evenodd" d="M7.5 3.75h5V2.5h1.25v1.25h1.875c1.035 0 1.875.84 1.875 1.875v10c0 1.035-.84 1.875-1.875 1.875H4.375A1.875 1.875 0 0 1 2.5 15.625v-10c0-1.036.84-1.875 1.875-1.875H6.25V2.5H7.5zM3.75 15.625c0 .345.28.625.625.625h11.25c.345 0 .625-.28.625-.625V8.75H3.75zM4.375 5a.625.625 0 0 0-.625.625V7.5h12.5V5.625A.625.625 0 0 0 15.625 5H13.75v1.25H12.5V5h-5v1.25H6.25V5z" clip-rule="evenodd"/>
</svg>
