<svg xmlns="http://www.w3.org/2000/svg" viewBox="0 0 16 16"
 width="16" height="16" fill="none"
 role="presentation" aria-hidden="true">
<g fill="currentColor"><path d="M8.354 6.857 6.708 8.504H11v1H6.708l1.643 1.643-.707.707-2.497-2.497a.5.5 0 0 1 0-.707l2.5-2.5z"/><path fill-rule="evenodd" d="M6 3h4V2h1v1h1.5A1.5 1.5 0 0 1 14 4.5v8a1.5 1.5 0 0 1-1.5 1.5h-9A1.5 1.5 0 0 1 2 12.5v-8A1.5 1.5 0 0 1 3.5 3H5V2h1zM3.5 4a.5.5 0 0 0-.5.5v8a.5.5 0 0 0 .5.5h9a.5.5 0 0 0 .5-.5v-8a.5.5 0 0 0-.5-.5H11v1h-1V4H6v1H5V4z" clip-rule="evenodd"/></g>
</svg>
