<svg xmlns="http://www.w3.org/2000/svg" viewBox="0 0 20 20"
 width="20" height="20" fill="none"
 role="presentation" aria-hidden="true">
<g fill="currentColor"><path d="M15 13.75h2.5V15h-3.125a.625.625 0 0 1-.625-.625V11.25H15z"/><path fill-rule="evenodd" d="M14.297 8.75a5.547 5.547 0 1 1 0 11.094 5.547 5.547 0 0 1 0-11.094m0 1.25a4.297 4.297 0 1 0 0 8.594 4.297 4.297 0 0 0 0-8.594" clip-rule="evenodd"/><path d="M7.5 3.75h5V2.5h1.25v1.25h1.875c1.035 0 1.875.84 1.875 1.875V7.5h-1.25V5.625A.625.625 0 0 0 15.625 5H13.75v1.25H12.5V5h-5v1.25H6.25V5H4.375a.625.625 0 0 0-.625.625v10c0 .345.28.625.625.625H7.5v1.25H4.375A1.875 1.875 0 0 1 2.5 15.625v-10c0-1.036.84-1.875 1.875-1.875H6.25V2.5H7.5z"/></g>
</svg>
