<svg xmlns="http://www.w3.org/2000/svg" viewBox="0 0 20 20"
 width="20" height="20" fill="none"
 role="presentation" aria-hidden="true">
<g fill="currentColor"><path d="M13.566 10.813a.625.625 0 0 1 0 .884l-3.12 3.12-.884-.884 2.053-2.053H6.25v-1.25h5.365L9.558 8.572l.884-.884z"/><path fill-rule="evenodd" d="M7.5 3.75h5V2.5h1.25v1.25h1.875c1.035 0 1.875.84 1.875 1.875v10c0 1.035-.84 1.875-1.875 1.875H4.375A1.875 1.875 0 0 1 2.5 15.625v-10c0-1.036.84-1.875 1.875-1.875H6.25V2.5H7.5zM4.375 5a.625.625 0 0 0-.625.625v10c0 .345.28.625.625.625h11.25c.345 0 .625-.28.625-.625v-10A.625.625 0 0 0 15.625 5H13.75v1.25H12.5V5h-5v1.25H6.25V5z" clip-rule="evenodd"/></g>
</svg>
