<svg xmlns="http://www.w3.org/2000/svg" viewBox="0 0 20 20"
 width="20" height="20" fill="none"
 role="presentation" aria-hidden="true">
<path fill="currentColor" fill-rule="evenodd" d="M16.875 11.25a.625.625 0 0 1 .625.626v5l-.012.125a.626.626 0 0 1-.613.5H3.125a.626.626 0 0 1-.625-.626v-5c0-.345.28-.624.625-.624zm-13.125 5h12.5V12.5H3.75zM16.875 2.5a.625.625 0 0 1 .625.625v5l-.012.126a.626.626 0 0 1-.613.5H3.125a.626.626 0 0 1-.625-.626v-5c0-.345.28-.625.625-.625zM3.75 7.5h12.5V3.75H3.75z" clip-rule="evenodd"/>
</svg>
