<svg xmlns="http://www.w3.org/2000/svg" viewBox="0 0 16 16"
 width="16" height="16" fill="none"
 role="presentation" aria-hidden="true">
<g fill="currentColor" fill-rule="evenodd" clip-rule="evenodd"><path d="M9.5 9a1.5 1.5 0 1 1 0 3 1.5 1.5 0 0 1 0-3m0 1a.5.5 0 1 0 0 1 .5.5 0 0 0 0-1m-4-4a1.5 1.5 0 1 1 0 3 1.5 1.5 0 0 1 0-3m0 1a.5.5 0 1 0 0 1 .5.5 0 0 0 0-1m5-3a1.5 1.5 0 1 1 0 3 1.5 1.5 0 0 1 0-3m0 1a.5.5 0 1 0 0 1 .5.5 0 0 0 0-1"/><path d="M12.5 2A1.5 1.5 0 0 1 14 3.5v9a1.5 1.5 0 0 1-1.5 1.5h-9A1.5 1.5 0 0 1 2 12.5v-9A1.5 1.5 0 0 1 3.5 2zm-9 1a.5.5 0 0 0-.5.5v9a.5.5 0 0 0 .5.5h9a.5.5 0 0 0 .5-.5v-9a.5.5 0 0 0-.5-.5z"/></g>
</svg>
