<svg xmlns="http://www.w3.org/2000/svg" viewBox="0 0 16 16"
 width="16" height="16" fill="none"
 role="presentation" aria-hidden="true">
<g fill="currentColor"><path d="M10.75 9.5a1.25 1.25 0 1 1 0 2.5 1.25 1.25 0 0 1 0-2.5M5.25 4a1.25 1.25 0 1 1 0 2.5 1.25 1.25 0 0 1 0-2.5m5.5 0a1.25 1.25 0 1 1 0 2.5 1.25 1.25 0 0 1 0-2.5"/><path fill-rule="evenodd" d="M12.5 2A1.5 1.5 0 0 1 14 3.5v9a1.5 1.5 0 0 1-1.5 1.5h-9A1.5 1.5 0 0 1 2 12.5v-9A1.5 1.5 0 0 1 3.5 2zM3 8.5v4a.5.5 0 0 0 .5.5h4V8.5zm5.5 0V13h4a.5.5 0 0 0 .5-.5v-4zM3.5 3a.5.5 0 0 0-.5.5v4h4.5V3zm5 4.5H13v-4a.5.5 0 0 0-.5-.5h-4z" clip-rule="evenodd"/></g>
</svg>
