<svg xmlns="http://www.w3.org/2000/svg" viewBox="0 0 16 16"
 width="16" height="16" fill="none"
 role="presentation" aria-hidden="true">
<path fill="currentColor" fill-rule="evenodd" d="M11.5 3A1.5 1.5 0 0 1 13 4.5v9a1.5 1.5 0 0 1-1.5 1.5h-7A1.5 1.5 0 0 1 3 13.5v-9A1.5 1.5 0 0 1 4.5 3H6a2 2 0 0 1 2-2l.204.01A2 2 0 0 1 9.99 2.797L10 3zM9 3a1 1 0 0 0-2 0zM4.5 4a.5.5 0 0 0-.5.5v9a.5.5 0 0 0 .5.5h7a.5.5 0 0 0 .5-.5v-9a.5.5 0 0 0-.5-.5H11v2.5a.5.5 0 0 1-.4.49l-.1.01h-5l-.1-.01A.5.5 0 0 1 5 6.5V4zM6 6h4V4H6z" clip-rule="evenodd"/>
</svg>
