<svg xmlns="http://www.w3.org/2000/svg" viewBox="0 0 16 16"
 width="16" height="16" fill="none"
 role="presentation" aria-hidden="true">
<g fill="currentColor" clipPath="url(#s0-prefix__a)"><path d="M10.436 12.69a.57.57 0 0 1 .57.569v2.172a.57.57 0 0 1-1.14 0v-1.178l-1.033.594a.573.573 0 0 1-.78-.21.57.57 0 0 1 .209-.776l1.811-1.042a.57.57 0 0 1 .362-.13m2.13.001a.57.57 0 0 1 .362.13l1.811 1.041a.57.57 0 0 1 .21.777.573.573 0 0 1-.781.209l-1.032-.594v1.178a.57.57 0 0 1-1.142 0v-2.172a.57.57 0 0 1 .572-.57m-5.489-2.56a.573.573 0 0 1 .78-.208l1.89 1.086.004.004q.016.009.031.02l.005.003.012.008.024.02.002.002.012.008.006.006.007.006.034.034.004.005.006.008.006.007.02.025.008.012.004.005.02.03v.002l.003.004.004.007.003.006.016.03.01.024.01.027.01.029.006.022.003.012.004.02.002.01.001.013.007.084v.028l-.007.056v.01l-.003.012-.007.033-.006.022-.01.03-.006.013-.004.012v.002l-.01.022-.016.03-.004.01-.003.004-.004.005q-.009.016-.02.031l-.003.006-.008.01-.022.028-.004.006-.004.004-.006.008-.025.024-.016.016-.013.01-.005.005-.002.002-.024.019-.01.008-.007.004-.031.02-.005.003-1.889 1.086a.568.568 0 1 1-.571-.985l1.032-.594-1.032-.594a.57.57 0 0 1-.209-.777m8.068-.209a.568.568 0 1 1 .571.985l-1.032.595 1.032.594a.568.568 0 1 1-.571.985l-1.89-1.086-.004-.004-.031-.02-.006-.003-.004-.003-.007-.005-.026-.021-.005-.004-.008-.006-.005-.005-.016-.016-.025-.024-.004-.005-.006-.007-.005-.006-.02-.027-.007-.008-.006-.009-.02-.03-.003-.006-.007-.014-.016-.03-.01-.023-.01-.027-.003-.008q0-.004-.003-.008l-.004-.013-.006-.022a.5.5 0 0 1-.016-.11l-.001-.029v-.028l.007-.056.002-.013.002-.01.006-.032.006-.022.02-.055v-.002l.026-.053.003-.005.002-.003.002-.005.004-.005.02-.031.003-.006.008-.01.02-.026.001-.002.005-.006.004-.005.006-.007.03-.03.011-.01.012-.01.006-.005.026-.021.01-.007.007-.005.031-.02.005-.003z"/><path d="M7.708 3a3.95 3.95 0 0 1 3.67 2.5h-1.1a2.954 2.954 0 0 0-5.522 1.454l.003.162q.004.08.012.158l.065.595-.597-.042-.148-.008a2.09 2.09 0 0 0-.222 4.168l.229.013H6v1H4.078l-.013-.001-.265-.014h-.013l-.013-.002a3.09 3.09 0 0 1-.017-6.146A3.954 3.954 0 0 1 7.708 3"/><path fill-rule="evenodd" d="M11.219 10.582a.4.4 0 0 1 .562 0l.64.638a.396.396 0 0 1 0 .56l-.64.638a.4.4 0 0 1-.562 0l-.64-.638a.396.396 0 0 1 0-.56zm.347.576a.094.094 0 0 0-.132 0l-.278.276a.094.094 0 0 0 0 .132l.278.276a.094.094 0 0 0 .132 0l.278-.276a.094.094 0 0 0 0-.132z" clip-rule="evenodd"/><path d="M10.436 7a.57.57 0 0 1 .57.57v2.17a.57.57 0 0 1-.933.44L8.262 9.139a.57.57 0 0 1-.21-.777.573.573 0 0 1 .781-.209l1.032.594V7.57a.57.57 0 0 1 .57-.569M12.565 7a.57.57 0 0 1 .57.57v1.177l1.032-.594a.573.573 0 0 1 .78.21.57.57 0 0 1-.209.776l-1.811 1.042a.57.57 0 0 1-.934-.44V7.57a.57.57 0 0 1 .572-.57"/></g><defs><clipPath id="s0-prefix__a"><path fill="#fff" d="M0 0h16v16H0z"/></clipPath></defs>
</svg>
