<svg xmlns="http://www.w3.org/2000/svg" viewBox="0 0 16 16"
 width="16" height="16" fill="none"
 role="presentation" aria-hidden="true">
<g fill="currentColor"><path d="M7.918 3.004 8 3.011v1L7.731 4a2.967 2.967 0 0 0-2.966 2.967l.004.163q.004.08.012.158l.064.594-.596-.041a2 2 0 0 0-.15-.008A2.1 2.1 0 0 0 2 9.933l.01.215a2.1 2.1 0 0 0 2.09 1.885h7.354l.151-.004a2.53 2.53 0 0 0 2.382-2.278L14 9.5a2.52 2.52 0 0 0-.493-1.5h1.159c.214.455.334.964.334 1.5l-.004.176a3.534 3.534 0 0 1-3.348 3.352l-.012.001-.156.004H4.1a3.1 3.1 0 0 1-3.096-2.94L1 9.933a3.1 3.1 0 0 1 2.767-3.082A3.967 3.967 0 0 1 7.73 3z"/><path d="M13.5 2a.5.5 0 0 1 .5.5V7h-1V3.707L7.854 8.854l-.708-.708L12.293 3H9V2z"/></g>
</svg>
