<svg xmlns="http://www.w3.org/2000/svg" viewBox="0 0 20 20"
 width="20" height="20" fill="none"
 role="presentation" aria-hidden="true">
<g fill="currentColor" clipPath="url(#s0-prefix__a)"><path d="M13.044 15.862c.395 0 .714.319.714.711v2.715a.713.713 0 0 1-1.426 0v-1.472l-1.29.742a.716.716 0 0 1-.976-.26.71.71 0 0 1 .261-.971l2.265-1.303a.7.7 0 0 1 .452-.162m2.662 0a.7.7 0 0 1 .452.162l2.265 1.303a.71.71 0 0 1 .261.97.716.716 0 0 1-.975.261l-1.29-.742v1.472a.712.712 0 0 1-1.428 0v-2.715c0-.392.32-.711.715-.711m-6.861-3.201a.716.716 0 0 1 .976-.26l2.36 1.358.007.004.039.025.006.005.014.01.03.024.003.002.015.011.007.008.009.007.043.043.004.006.008.01.008.008.025.032.01.014.004.007.025.039h.001l.004.006.005.008.003.009.02.038.012.029.013.033.012.037.008.028.004.014.004.026.003.01.002.018.005.04.003.03v.07l-.003.03-.005.04v.012l-.005.016-.008.04-.008.028-.012.037-.007.017-.005.015-.001.002-.012.028-.02.038-.005.011-.003.006-.005.006-.025.04-.005.007-.01.013-.026.034-.006.008-.005.005-.008.01-.03.03-.037.033-.006.005-.002.002-.03.024-.014.01-.007.005-.04.025-.006.005-2.36 1.357a.716.716 0 0 1-.976-.26.71.71 0 0 1 .261-.972l1.29-.742-1.29-.742a.71.71 0 0 1-.26-.972m10.084-.26a.716.716 0 0 1 .975.26.71.71 0 0 1-.261.972l-1.29.742 1.29.742a.71.71 0 0 1 .26.972.716.716 0 0 1-.975.26l-2.36-1.357-.006-.005-.04-.025-.007-.005-.005-.003-.008-.007q-.017-.012-.033-.026l-.006-.005-.01-.008-.006-.006-.021-.02-.03-.03-.005-.006-.008-.008-.006-.008-.027-.034-.007-.01-.007-.01-.025-.04-.005-.006-.008-.017-.02-.038-.012-.029-.013-.033-.004-.01-.004-.01-.005-.017-.007-.028a1 1 0 0 1-.018-.107l-.003-.03v-.071l.003-.03.005-.04.002-.016.003-.012.008-.04.007-.028.025-.069.001-.002.032-.066.003-.008.003-.003.002-.006.005-.006.025-.04.005-.007.01-.013q.01-.016.024-.032l.002-.002.006-.008.005-.006.008-.008.037-.038.014-.012.014-.014.008-.005.033-.027.012-.008.008-.006.04-.025.006-.005z"/><path d="M9.635 3.75a4.93 4.93 0 0 1 4.589 3.125h-1.377A3.69 3.69 0 0 0 9.635 5a3.69 3.69 0 0 0-3.691 3.693l.004.202q.007.1.016.198l.08.743-.745-.052-.185-.01a2.613 2.613 0 0 0-.278 5.21l.286.016H7.5v1.25H5.098l-.016-.001-.332-.017h-.016l-.016-.003a3.863 3.863 0 0 1-.022-7.683A4.94 4.94 0 0 1 9.635 3.75"/><path fill-rule="evenodd" d="M14.023 13.228a.5.5 0 0 1 .704 0l.8.797a.494.494 0 0 1 0 .7l-.8.798a.5.5 0 0 1-.704 0l-.8-.798a.494.494 0 0 1 0-.7zm.435.72a.117.117 0 0 0-.166 0l-.347.344a.12.12 0 0 0 0 .166l.347.344c.046.046.12.046.166 0l.347-.344a.12.12 0 0 0 0-.166z" clip-rule="evenodd"/><path d="M13.044 8.75c.395 0 .714.319.714.712v2.715a.713.713 0 0 1-1.166.549l-2.265-1.303a.71.71 0 0 1-.261-.97.716.716 0 0 1 .975-.261l1.29.742V9.462c0-.393.32-.712.713-.712m2.662 0c.394 0 .713.319.713.712v1.472l1.29-.742a.716.716 0 0 1 .975.26.71.71 0 0 1-.261.971l-2.265 1.303a.714.714 0 0 1-1.167-.55V9.463c0-.393.32-.712.715-.712"/></g><defs><clipPath id="s0-prefix__a"><path fill="#fff" d="M0 0h20v20H0z"/></clipPath></defs>
</svg>
