<svg xmlns="http://www.w3.org/2000/svg" viewBox="0 0 16 16"
 width="16" height="16" fill="none"
 role="presentation" aria-hidden="true">
<path fill="currentColor" d="M14 9.5c0-1.312-.997-2.39-2.274-2.52l-.26-.013q-.13 0-.253.012l-.479.047-.066-.475a2.97 2.97 0 0 0-2.66-2.538L7.732 4a2.967 2.967 0 0 0-2.966 2.967l.004.163q.004.08.012.158l.064.594-.596-.041a2 2 0 0 0-.15-.008 2.1 2.1 0 0 0-2.1 2.1l.01.215a2.1 2.1 0 0 0 2.09 1.885h7.354l.151-.004a2.53 2.53 0 0 0 2.382-2.278zm.996.176a3.534 3.534 0 0 1-3.348 3.352l-.012.001-.156.004H4.1a3.1 3.1 0 0 1-3.096-2.94L1 9.933a3.1 3.1 0 0 1 2.767-3.082A3.967 3.967 0 0 1 7.73 3l.187.004a3.97 3.97 0 0 1 3.651 2.965A3.533 3.533 0 0 1 15 9.5z"/>
</svg>
