<svg xmlns="http://www.w3.org/2000/svg" viewBox="0 0 20 20"
 width="20" height="20" fill="none"
 role="presentation" aria-hidden="true">
<g fill="currentColor"><path fill-rule="evenodd" d="m16.509 15.625-.884.884-1.875-1.875v2.241a.625.625 0 0 1-.625.625h-5l-.126-.012a.625.625 0 0 1-.499-.613V8.384L3.491 4.375l.884-.884zm-7.759.625h3.75v-2.866l-3.75-3.75z" clip-rule="evenodd"/><path d="M13.125 2.5c.345 0 .625.28.625.625v8.225L12.5 10.1V3.75H8.75v2.6L7.5 5.1V3.125c0-.345.28-.625.625-.625z"/></g>
</svg>
