<svg xmlns="http://www.w3.org/2000/svg" viewBox="0 0 16 16"
 width="16" height="16" fill="none"
 role="presentation" aria-hidden="true">
<path fill="currentColor" fill-rule="evenodd" d="M11 3.5a.5.5 0 0 1 .5-.5h3a.5.5 0 0 1 .5.5v9l-.01.1a.5.5 0 0 1-.49.4h-3l-.098-.01A.5.5 0 0 1 11 12.5zm3 8.5V4h-2v8zM6 3.5a.5.5 0 0 1 .5-.5h3a.5.5 0 0 1 .5.5v9l-.01.1a.5.5 0 0 1-.49.4h-3l-.098-.01A.5.5 0 0 1 6 12.5zM9 12V4H7v8zM1 3.5a.5.5 0 0 1 .5-.5h3a.5.5 0 0 1 .5.5v9l-.01.1a.5.5 0 0 1-.49.4h-3l-.098-.01A.5.5 0 0 1 1 12.5zM4 12V4H2v8z" clip-rule="evenodd"/>
</svg>
