<svg xmlns="http://www.w3.org/2000/svg" viewBox="0 0 16 16"
 width="16" height="16" fill="none"
 role="presentation" aria-hidden="true">
<path fill="currentColor" fill-rule="evenodd" d="M10.5 2A1.5 1.5 0 0 1 12 3.5V5h.5A1.5 1.5 0 0 1 14 6.5v6a1.5 1.5 0 0 1-1.5 1.5h-6A1.5 1.5 0 0 1 5 12.5V12H3.5A1.5 1.5 0 0 1 2 10.5v-7A1.5 1.5 0 0 1 3.5 2zm-4 4a.5.5 0 0 0-.5.5v6a.5.5 0 0 0 .5.5h6a.5.5 0 0 0 .5-.5v-6a.5.5 0 0 0-.5-.5zm-3-3a.5.5 0 0 0-.5.5v7a.5.5 0 0 0 .5.5H5V6.5A1.5 1.5 0 0 1 6.5 5H11V3.5a.5.5 0 0 0-.5-.5z" clip-rule="evenodd"/>
</svg>
