<svg xmlns="http://www.w3.org/2000/svg" viewBox="0 0 20 20"
 width="20" height="20" fill="none"
 role="presentation" aria-hidden="true">
<g fill="currentColor"><path d="M8.75 13.75h-5V12.5h5z"/><path fill-rule="evenodd" d="M16.875 3.75c1.035 0 1.875.84 1.875 1.875v8.75c0 1.036-.84 1.875-1.875 1.875H3.125a1.875 1.875 0 0 1-1.875-1.875v-8.75c0-1.036.84-1.875 1.875-1.875zM2.5 8.75v5.625c0 .345.28.625.625.625h13.75c.345 0 .625-.28.625-.625V8.75zM3.125 5a.625.625 0 0 0-.625.625v.625h15v-.625A.625.625 0 0 0 16.875 5z" clip-rule="evenodd"/></g>
</svg>
