<svg xmlns="http://www.w3.org/2000/svg" viewBox="0 0 16 16"
 width="16" height="16" fill="none"
 role="presentation" aria-hidden="true">
<g fill="currentColor" fill-rule="evenodd" clip-rule="evenodd"><path d="M10.5 10.694c1.002 0 1.828.802 1.828 1.808a1.82 1.82 0 0 1-1.828 1.807 1.82 1.82 0 0 1-1.828-1.807c0-1.006.826-1.808 1.828-1.808m0 1a.82.82 0 0 0-.828.808c0 .438.363.806.828.807a.82.82 0 0 0 .828-.807.82.82 0 0 0-.828-.808"/><path d="M10.5 9.06c1.961 0 3.323.802 4.19 1.605.43.4.737.799.938 1.1a5 5 0 0 1 .284.48l.016.031.005.01v.004l.002.001c-.005.003-.05.025-.454.211l.454-.21a.5.5 0 0 1 0 .42l-.001.002-.001.004-.005.01-.016.032-.059.11c-.05.09-.125.219-.225.37-.201.3-.509.7-.938 1.099-.867.803-2.23 1.604-4.19 1.604s-3.324-.8-4.19-1.604a6.3 6.3 0 0 1-.939-1.1 5 5 0 0 1-.283-.48l-.016-.032-.008-.015a.5.5 0 0 1 0-.42l.001-.001.007-.015.016-.032.058-.11c.05-.09.125-.219.225-.37.201-.3.51-.7.94-1.099.865-.803 2.228-1.604 4.189-1.604m0 1c-1.661 0-2.79.67-3.509 1.338a5.3 5.3 0 0 0-.788.921q-.065.102-.111.182.045.081.111.183c.167.25.426.587.788.922.72.667 1.848 1.337 3.509 1.337s2.79-.67 3.509-1.337c.361-.335.62-.672.788-.922q.065-.102.11-.183-.045-.08-.11-.182a5.3 5.3 0 0 0-.788-.921c-.72-.668-1.848-1.337-3.509-1.338"/><path d="M8.001 2c1.303 0 2.509.263 3.406.71.868.434 1.595 1.126 1.595 2.039q0 .086-.008.169.008.09.008.182V7h-1v-.573a4 4 0 0 1-.595.36c-.897.447-2.103.71-3.406.71-1.304 0-2.509-.262-3.406-.71A4 4 0 0 1 4 6.426v6.351c-.594-.489-1-1.127-1-1.878V5.1q0-.095.008-.186A2 2 0 0 1 3 4.75c0-.912.727-1.605 1.595-2.038C5.492 2.263 6.697 2 8 2m0 1c-1.17 0-2.207.275-2.933.694-.633.366-.966.798-1.047 1.205.073.305.371.668 1.021.993.731.365 1.777.605 2.959.605s2.228-.24 2.959-.605c.65-.325.946-.688 1.02-.993-.081-.407-.413-.839-1.046-1.205-.635-.366-1.508-.623-2.5-.681z"/></g>
</svg>
