<svg xmlns="http://www.w3.org/2000/svg" viewBox="0 0 20 20"
 width="20" height="20" fill="none"
 role="presentation" aria-hidden="true">
<g fill="currentColor" fill-rule="evenodd" clip-rule="evenodd"><path d="M13.125 13.368c1.252 0 2.285 1.003 2.285 2.26s-1.033 2.258-2.285 2.258-2.285-1.002-2.285-2.259 1.033-2.259 2.285-2.26m0 1.25c-.581 0-1.035.462-1.035 1.01 0 .547.454 1.008 1.035 1.008.58 0 1.035-.461 1.035-1.009s-.454-1.009-1.035-1.01"/><path d="M13.125 11.326c2.451 0 4.154 1.001 5.237 2.005a7.8 7.8 0 0 1 1.173 1.375 6 6 0 0 1 .355.6l.02.04.006.012.001.005h.001a19 19 0 0 1-.566.264l.567-.262a.63.63 0 0 1 0 .525l-.002.002-.001.005-.006.012-.02.04-.073.137a6 6 0 0 1-.282.463 7.8 7.8 0 0 1-1.173 1.375c-1.083 1.004-2.786 2.005-5.237 2.005s-4.154-1.001-5.237-2.005a7.8 7.8 0 0 1-1.174-1.375 6 6 0 0 1-.354-.6l-.02-.04-.01-.02a.63.63 0 0 1 0-.524l.002-.001.008-.019.02-.04q.025-.05.072-.136c.063-.115.156-.275.282-.463a7.8 7.8 0 0 1 1.174-1.375c1.083-1.004 2.786-2.005 5.237-2.005m0 1.25c-2.076 0-3.487.837-4.386 1.67a6.6 6.6 0 0 0-.985 1.153c-.056.084-.1.162-.14.227.04.066.084.145.14.229.209.312.533.733.985 1.153.899.834 2.31 1.671 4.386 1.671s3.487-.837 4.386-1.67c.452-.42.776-.842.985-1.155.056-.083.099-.162.138-.228-.04-.065-.082-.144-.138-.227a6.6 6.6 0 0 0-.985-1.152c-.899-.834-2.31-1.671-4.386-1.671"/><path d="M10.001 2.5c1.63 0 3.136.328 4.258.889 1.084.541 1.993 1.407 1.993 2.547q.001.108-.01.211.01.112.01.228V8.75h-1.25v-.717a5.3 5.3 0 0 1-.743.45c-1.122.56-2.628.888-4.258.888s-3.136-.328-4.258-.888A5.3 5.3 0 0 1 5 8.033v7.94c-.743-.612-1.25-1.41-1.25-2.347V6.375q0-.118.01-.232a2 2 0 0 1-.01-.207c0-1.14.91-2.006 1.993-2.547 1.122-.56 2.629-.889 4.258-.889m0 1.25c-1.463 0-2.758.344-3.666.868-.792.458-1.207.996-1.31 1.506.093.38.465.835 1.277 1.24.915.457 2.222.757 3.7.757 1.477 0 2.784-.3 3.698-.757.812-.405 1.183-.86 1.276-1.24-.103-.51-.517-1.049-1.309-1.506-.794-.458-1.884-.78-3.125-.852z"/></g>
</svg>
