<svg xmlns="http://www.w3.org/2000/svg" viewBox="0 0 16 16"
 width="16" height="16" fill="none"
 role="presentation" aria-hidden="true">
<g fill="currentColor" clipPath="url(#s0-prefix__a)"><path d="M14.507 13a1.5 1.5 0 0 1 1.5 1.507L16 16.002l-1-.004.007-1.496a.5.5 0 0 0-.5-.502h-4a.5.5 0 0 0-.5.498L10 16.002l-1-.004.007-1.505a1.5 1.5 0 0 1 1.5-1.493zM8.44 2.013l.05.002c1.124.066 2.153.357 2.944.813.423.245.798.551 1.075.91.303.372.493.798.493 1.262h-.004q.004.05.004.1v.899h-1v-.9c0-.233-.084-.48-.26-.721-.173-.217-.436-.446-.808-.66C10.202 3.296 9.164 3 8 3c-1.17 0-2.207.275-2.933.694-.633.366-.966.798-1.047 1.205.073.305.371.668 1.021.993.731.365 1.777.605 2.959.605L9 6.5v.287l-.001.714L8 7.497c-1.303 0-2.508-.263-3.405-.71A4 4 0 0 1 4 6.426V10.9c0 .464.33.98 1.068 1.407.51.295 1.175.515 1.932.622v1.01c-.924-.114-1.763-.38-2.432-.767C3.678 12.658 3 11.872 3 10.9V5.1q0-.095.008-.186A2 2 0 0 1 3 4.75c0-.912.727-1.605 1.595-2.038C5.492 2.263 6.697 2 8 2q.222 0 .44.013"/><path fill-rule="evenodd" d="M12.5 7.5a2.5 2.5 0 1 1 0 5 2.5 2.5 0 0 1 0-5m0 1a1.5 1.5 0 1 0 0 3 1.5 1.5 0 0 0 0-3" clip-rule="evenodd"/></g><defs><clipPath id="s0-prefix__a"><path fill="#fff" d="M0 0h16v16H0z"/></clipPath></defs>
</svg>
