<svg xmlns="http://www.w3.org/2000/svg" viewBox="0 0 20 20"
 width="20" height="20" fill="none"
 role="presentation" aria-hidden="true">
<g fill="currentColor" clipPath="url(#s0-prefix__a)"><path d="M18.134 16.25c1.038 0 1.88.845 1.875 1.884L20 20.002l-1.25-.004.009-1.87a.625.625 0 0 0-.625-.628h-5a.625.625 0 0 0-.626.623l-.008 1.88-1.25-.005.008-1.882a1.875 1.875 0 0 1 1.876-1.866zM10.55 2.516l.062.002c1.406.083 2.692.447 3.68 1.017.53.306.997.689 1.344 1.137.38.466.616.999.616 1.578h-.004q.004.062.004.125v1.124l-1.25-.001V6.375c0-.292-.104-.6-.325-.903-.216-.271-.545-.556-1.01-.825-.915-.527-2.211-.897-3.666-.897-1.463 0-2.758.344-3.666.868-.792.458-1.207.996-1.31 1.506.093.38.465.835 1.277 1.24.915.457 2.222.757 3.7.757l1.248.003v.359l-.001.892L10 9.371c-1.629 0-3.135-.328-4.257-.888A5.3 5.3 0 0 1 5 8.033v5.593c0 .58.412 1.224 1.335 1.757.639.369 1.47.645 2.415.778v1.262c-1.155-.142-2.204-.475-3.04-.958-1.112-.643-1.96-1.625-1.96-2.84v-7.25q0-.118.01-.232a2 2 0 0 1-.01-.207c0-1.14.91-2.006 1.993-2.547 1.122-.56 2.629-.889 4.258-.889q.278 0 .55.016"/><path fill-rule="evenodd" d="M15.625 9.375a3.125 3.125 0 1 1 0 6.25 3.125 3.125 0 0 1 0-6.25m0 1.25a1.875 1.875 0 1 0 0 3.75 1.875 1.875 0 0 0 0-3.75" clip-rule="evenodd"/></g><defs><clipPath id="s0-prefix__a"><path fill="#fff" d="M0 0h20v20H0z"/></clipPath></defs>
</svg>
