<svg xmlns="http://www.w3.org/2000/svg" viewBox="0 0 20 20"
 width="20" height="20" fill="none"
 role="presentation" aria-hidden="true">
<path fill="currentColor" fill-rule="evenodd" d="M10.001 2.5c1.62 0 3.116.29 4.231.786.557.248 1.047.559 1.405.935.338.355.577.793.608 1.295h.006v.83l.001.029v7.075q.017.13.019.29l-.01.227c-.1 1.116-.925 1.99-1.973 2.562-1.133.62-2.654.972-4.288.972-1.643 0-3.162-.384-4.29-1.036-1.113-.643-1.961-1.625-1.961-2.84l.001-.028v-.493a2.9 2.9 0 0 1-.552-.898 1.3 1.3 0 0 1-.073-.454V8.125c0-.345.28-.625.625-.625V5.516h.007c.031-.502.271-.94.608-1.295.359-.376.849-.687 1.405-.935 1.115-.495 2.612-.786 4.231-.786M5 8.835q.112.095.253.192c.852.581 2.561 1.21 5.91 1.022a1.263 1.263 0 0 1 1.337 1.255V13.8c0 .65-.504 1.2-1.163 1.24-3.068.186-5.006-.268-6.233-.903.174.43.572.866 1.23 1.246.907.524 2.202.868 3.666.868 1.472 0 2.775-.319 3.688-.818.87-.476 1.28-1.046 1.328-1.585l.005-.108q0-.066-.015-.17l-.005-.04V7.55a5.4 5.4 0 0 1-.769.414c-1.115.495-2.611.786-4.23.786s-3.117-.29-4.232-.786A5.4 5.4 0 0 1 5 7.549zm-.625 2.95c.058.155.317.716 1.241 1.212.953.511 2.652.975 5.634.796v-2.488l-.002-.004-.006-.003-.01-.002c-3.511.198-5.527-.447-6.684-1.236a5 5 0 0 1-.173-.126zm5.626-8.035c-1.398 0-2.645.314-3.545.8-.754.408-1.196.897-1.368 1.368.042.076.099.16.183.249.21.221.546.45 1.007.654.92.41 2.237.679 3.723.679 1.487 0 2.803-.27 3.723-.679.462-.205.797-.433 1.007-.654.084-.088.14-.173.182-.249-.172-.47-.613-.96-1.367-1.367-.787-.426-1.84-.72-3.027-.786z" clip-rule="evenodd"/>
</svg>
