<svg xmlns="http://www.w3.org/2000/svg" viewBox="0 0 20 20"
 width="20" height="20" fill="none"
 role="presentation" aria-hidden="true">
<g fill="currentColor"><path d="M11.898 12.68a6.15 6.15 0 0 0-3.159 1.566c-.452.42-.777.84-.985 1.152-.056.083-.1.162-.14.227.04.066.084.144.14.228.209.313.533.734.985 1.154a6.15 6.15 0 0 0 3.16 1.564v1.267a7.4 7.4 0 0 1-4.01-1.916 7.8 7.8 0 0 1-1.175-1.374 6 6 0 0 1-.354-.6l-.02-.04-.01-.02a.63.63 0 0 1 0-.524l.002-.002.008-.018.02-.04q.025-.05.072-.137c.063-.114.156-.274.282-.462a7.8 7.8 0 0 1 1.174-1.375 7.4 7.4 0 0 1 4.01-1.916zm2.5-1.26a7.4 7.4 0 0 1 3.964 1.91c.537.499.922.998 1.173 1.375a6 6 0 0 1 .355.599l.02.04.006.012.001.005.001.002c-.006.003-.061.03-.566.263l.567-.262a.63.63 0 0 1 0 .525l-.002.002-.001.005-.006.012-.02.04-.073.137a6 6 0 0 1-.282.463 7.8 7.8 0 0 1-1.173 1.374 7.4 7.4 0 0 1-3.964 1.91v-1.269a6.14 6.14 0 0 0 3.113-1.556 6.6 6.6 0 0 0 .985-1.154c.056-.083.099-.162.138-.228-.04-.065-.082-.144-.138-.227a6.6 6.6 0 0 0-.985-1.152 6.14 6.14 0 0 0-3.113-1.558z"/><path fill-rule="evenodd" d="M13.125 13.367c1.252 0 2.285 1.002 2.285 2.26 0 1.256-1.033 2.257-2.285 2.257s-2.285-1.001-2.285-2.258 1.033-2.26 2.285-2.26m0 1.25c-.581 0-1.035.462-1.035 1.01 0 .547.454 1.007 1.035 1.007.58 0 1.035-.46 1.035-1.008 0-.547-.454-1.009-1.035-1.01M10.001 2.5c1.63 0 3.136.328 4.258.889 1.084.541 1.993 1.407 1.993 2.547q.001.108-.01.211.01.112.01.228V10h-1.25V8.033a5.3 5.3 0 0 1-.743.45c-1.122.56-2.628.888-4.258.888s-3.136-.328-4.258-.888A5.3 5.3 0 0 1 5 8.033v7.94c-.743-.612-1.25-1.41-1.25-2.347V6.375q0-.118.01-.232a2 2 0 0 1-.01-.207c0-1.14.91-2.006 1.993-2.547 1.122-.56 2.629-.889 4.258-.889m0 1.25c-1.463 0-2.758.344-3.666.868-.792.458-1.207.996-1.31 1.506.093.38.465.835 1.277 1.24.915.457 2.222.757 3.7.757 1.477 0 2.784-.3 3.698-.757.812-.405 1.183-.86 1.276-1.24-.103-.51-.517-1.049-1.309-1.506-.794-.458-1.884-.78-3.125-.852z" clip-rule="evenodd"/></g>
</svg>
