<svg xmlns="http://www.w3.org/2000/svg" viewBox="0 0 20 20"
 width="20" height="20" fill="none"
 role="presentation" aria-hidden="true">
<g fill="currentColor" clipPath="url(#s0-prefix__a)"><path d="M13.044 15.862c.394 0 .714.318.714.71v2.717c0 .392-.32.71-.714.71a.71.71 0 0 1-.713-.71v-1.474l-1.29.743a.715.715 0 0 1-.975-.26.71.71 0 0 1 .261-.972l2.265-1.303a.7.7 0 0 1 .452-.16m2.662-.001c.171 0 .33.06.452.161l2.265 1.303a.71.71 0 0 1 .261.972.715.715 0 0 1-.975.26l-1.29-.743v1.474c0 .392-.32.71-.713.71a.71.71 0 0 1-.714-.71v-2.716c0-.393.32-.71.714-.71M10.001 2.5c1.63 0 3.136.329 4.258.89 1.084.54 1.993 1.406 1.993 2.547q.001.107-.01.21.004.052.004.102h-1.312q.026-.064.042-.124c-.103-.51-.517-1.05-1.309-1.507-.794-.458-1.884-.779-3.125-.852l-.54-.016c-1.464 0-2.76.345-3.667.868-.792.458-1.207.997-1.31 1.507.093.38.466.834 1.277 1.24.915.457 2.221.755 3.698.756v1.25c-1.629 0-3.135-.328-4.257-.888A5.3 5.3 0 0 1 5 8.033v5.593c0 .58.412 1.224 1.335 1.758.338.195.73.365 1.165.502v1.296a7.4 7.4 0 0 1-1.79-.717c-1.112-.643-1.96-1.624-1.96-2.839V6.375q0-.118.01-.232a2 2 0 0 1-.01-.206c0-1.14.91-2.006 1.993-2.548 1.122-.56 2.629-.888 4.258-.889"/><path d="M8.845 12.662a.715.715 0 0 1 .976-.26l2.36 1.357.007.004.039.025.006.004.014.01.03.025.003.002.022.018.009.007.01.013.037.036.008.01.006.007.002.003.025.03.01.015.004.006.025.039.001.001.004.005.008.017.02.038.012.03.013.034.012.036.008.028.004.015.004.024.003.011.002.017.005.04.003.03v.071l-.008.07v.011l-.005.018-.008.039-.008.028-.012.036-.007.019-.005.014-.001.002-.012.029-.02.038-.008.017-.005.006-.025.039-.005.006-.01.015-.026.033-.006.007-.005.006-.008.009-.05.05-.017.014-.006.005-.002.001-.03.026-.014.008-.007.005-.04.026-.006.004-2.36 1.357a.715.715 0 0 1-.976-.26.71.71 0 0 1 .261-.972l1.29-.742-1.29-.74a.71.71 0 0 1-.26-.972m10.084-.26a.71.71 0 1 1 .714 1.232l-1.29.74 1.29.742a.71.71 0 0 1 .26.972.715.715 0 0 1-.975.26l-2.36-1.357-.006-.004-.04-.026-.007-.005-.005-.003-.008-.005-.033-.027-.006-.005-.01-.008-.006-.005-.021-.02-.005-.006-.006-.005-.011-.012-.009-.008-.004-.007-.008-.008-.006-.007-.027-.033-.007-.01-.007-.011-.025-.04-.005-.005-.008-.017-.02-.038-.012-.03-.013-.034-.004-.01-.004-.01-.005-.016-.007-.028a.7.7 0 0 1-.022-.174l.001-.017v-.018l.003-.03.005-.04.002-.014.003-.014.008-.039.007-.028.025-.07h.001l.012-.03.02-.038.003-.007.003-.004.002-.006.005-.006.025-.04.005-.006.01-.014.024-.03.002-.003.006-.007.005-.008.008-.007.006-.007.013-.014.006-.004.012-.014.014-.012.022-.018v-.002l.033-.025.012-.008.008-.006.04-.025.006-.004z"/><path fill-rule="evenodd" d="M14.023 13.227a.5.5 0 0 1 .704 0l.8.797a.495.495 0 0 1 0 .7l-.8.799a.5.5 0 0 1-.704 0l-.8-.798a.495.495 0 0 1 0-.701zm.435.72a.12.12 0 0 0-.166 0l-.347.344a.12.12 0 0 0 0 .168l.347.344c.046.045.12.045.166 0l.347-.344a.12.12 0 0 0 0-.168z" clip-rule="evenodd"/><path d="M13.044 8.75c.395 0 .714.318.714.71v2.717a.712.712 0 0 1-1.166.55l-2.265-1.303a.71.71 0 0 1-.261-.972.716.716 0 0 1 .975-.26l1.29.741V9.461c0-.393.32-.712.713-.712m2.662.001c.394 0 .712.318.713.71v1.473l1.29-.74a.716.716 0 0 1 .975.26.71.71 0 0 1-.261.97l-2.265 1.303a.712.712 0 0 1-1.167-.55V9.462c0-.393.32-.712.715-.712"/></g><defs><clipPath id="s0-prefix__a"><path fill="#fff" d="M0 0h20v20H0z"/></clipPath></defs>
</svg>
