<svg xmlns="http://www.w3.org/2000/svg" viewBox="0 0 16 16"
 width="16" height="16" fill="none"
 role="presentation" aria-hidden="true">
<g fill="currentColor" clipPath="url(#s0-prefix__a)"><path d="M10.436 12.69a.57.57 0 0 1 .57.568v2.173a.57.57 0 0 1-1.14 0v-1.179l-1.033.594a.568.568 0 1 1-.571-.985l1.811-1.042a.57.57 0 0 1 .362-.13m2.13.001a.57.57 0 0 1 .362.129l1.811 1.042a.569.569 0 1 1-.571.985l-1.032-.594v1.18a.57.57 0 0 1-1.142 0v-2.174a.57.57 0 0 1 .572-.568M8.001 2c1.303 0 2.509.263 3.406.711.868.434 1.595 1.126 1.595 2.039q0 .085-.008.168l.003.082-1.05-.001a1 1 0 0 0 .034-.1c-.082-.407-.414-.838-1.047-1.204-.635-.367-1.508-.623-2.5-.682L8 3c-1.17 0-2.207.276-2.933.695-.633.366-.966.797-1.047 1.205.074.304.372.668 1.021.992.731.365 1.777.604 2.958.605v1c-1.303 0-2.508-.262-3.405-.71A4 4 0 0 1 4 6.427v4.474c0 .464.33.98 1.068 1.406.27.156.585.292.932.402v1.037a6 6 0 0 1-1.432-.574C3.678 12.658 3 11.872 3 10.901V5.1q0-.095.008-.186A2 2 0 0 1 3 4.75c0-.913.727-1.605 1.595-2.039.897-.448 2.102-.71 3.406-.71"/><path d="M7.076 10.13a.57.57 0 0 1 .78-.209l1.89 1.086.004.003.031.02.005.004.012.007.024.021.002.001.018.015.007.006.008.01.03.029.006.007.004.006.002.002.02.025.008.011.004.005.02.031v.001l.003.004.007.014.016.03.01.025.01.026.01.03.006.022.003.011.004.02.002.009.001.014.007.083v.029l-.007.056v.01l-.003.013-.007.031-.006.023-.01.029-.006.015-.004.011v.001l-.01.024-.016.03-.007.014-.004.005-.02.03-.003.006-.008.011-.022.027-.004.006-.004.005-.006.006-.041.041-.013.011-.005.004-.002.001-.024.02-.01.007-.007.004-.031.02-.005.004-1.889 1.086a.568.568 0 1 1-.571-.985l1.032-.595-1.032-.592a.57.57 0 0 1-.209-.778m8.068-.208a.568.568 0 1 1 .571.985l-1.032.594 1.032.593a.568.568 0 1 1-.571.986l-1.89-1.086-.004-.003-.031-.02-.006-.005-.004-.003-.007-.003-.026-.022-.005-.004-.008-.007-.005-.004-.016-.015-.004-.005-.005-.004-.009-.01-.007-.007-.004-.005-.006-.006-.005-.006-.02-.027-.007-.007-.006-.01-.02-.03-.003-.005-.007-.014-.016-.03-.01-.025-.01-.026-.003-.008-.003-.009-.004-.012-.006-.023a.6.6 0 0 1-.016-.11l-.001-.029v-.028l.007-.056.002-.011.002-.01.006-.032.006-.023.01-.029.01-.026v-.001l.01-.024.016-.03.003-.006.002-.003.002-.005.004-.005.02-.03.003-.007.008-.01.02-.025.001-.002.005-.006.004-.006.006-.005.005-.006.01-.01.006-.005.01-.01.01-.01.018-.015v-.001l.026-.02.01-.006.007-.005.031-.02.005-.004z"/><path fill-rule="evenodd" d="M11.219 10.582a.4.4 0 0 1 .562 0l.64.637a.396.396 0 0 1 0 .56l-.64.64a.4.4 0 0 1-.562 0l-.64-.64a.396.396 0 0 1 0-.56zm.347.576a.094.094 0 0 0-.132 0l-.278.275a.095.095 0 0 0 0 .134l.278.275a.095.095 0 0 0 .132 0l.278-.275a.095.095 0 0 0 0-.134z" clip-rule="evenodd"/><path d="M10.436 7a.57.57 0 0 1 .57.569v2.173a.57.57 0 0 1-.933.44L8.262 9.138a.568.568 0 1 1 .571-.985l1.032.593V7.569a.57.57 0 0 1 .57-.57m2.13.001a.57.57 0 0 1 .57.569v1.178l1.032-.593a.568.568 0 1 1 .571.985l-1.811 1.042a.57.57 0 0 1-.934-.44V7.57a.57.57 0 0 1 .572-.57"/></g><defs><clipPath id="s0-prefix__a"><path fill="#fff" d="M0 0h16v16H0z"/></clipPath></defs>
</svg>
