<svg xmlns="http://www.w3.org/2000/svg" viewBox="0 0 20 20"
 width="20" height="20" fill="none"
 role="presentation" aria-hidden="true">
<g fill="currentColor"><path fill-rule="evenodd" d="M16.428 10c1.184 0 2.144.908 2.144 2.028l-.003.023c.812.128 1.431.794 1.431 1.598v2.702h-.007q.006.067.007.136c0 .805-.621 1.47-1.434 1.597C18.505 19.15 17.572 20 16.428 20c-.55 0-1.049-.198-1.428-.52-.38.322-.879.52-1.428.52-1.144 0-2.078-.849-2.139-1.916C10.62 17.956 10 17.29 10 16.487q0-.069.007-.136H10V13.65c0-.804.618-1.47 1.43-1.598l-.002-.023c0-1.12.96-2.028 2.144-2.028A2.2 2.2 0 0 1 15 10.52c.38-.322.879-.519 1.428-.519m-2.856 1.25c-.557 0-.89.409-.894.771l.001.015a1.25 1.25 0 0 1-1.054 1.249c-.233.037-.346.19-.37.314l-.005.05v.733h1.608v1.25H11.25v.6q.012.113.002.228l-.002.033.005.044c.024.122.136.274.371.311a1.25 1.25 0 0 1 1.055 1.165c.02.351.353.737.89.737.246 0 .46-.088.62-.223q.088-.075.184-.13V11.6a1.3 1.3 0 0 1-.183-.128.94.94 0 0 0-.442-.206zm2.856 0a.95.95 0 0 0-.62.222q-.088.074-.183.128v6.797q.096.055.183.13c.16.135.375.223.62.223.537 0 .87-.385.89-.737l.011-.11c.078-.538.5-.97 1.045-1.055.235-.037.347-.19.371-.311l.005-.044-.002-.033a1.2 1.2 0 0 1 .002-.228v-.6h-1.6v-1.25h1.6v-.733c0-.128-.108-.32-.375-.363a1.25 1.25 0 0 1-1.056-1.25v-.022c-.008-.361-.338-.764-.89-.764" clip-rule="evenodd"/><path d="M14.375 1.25c1.036 0 1.875.84 1.875 1.875V7.5H15V3.125a.625.625 0 0 0-.625-.625h-8.75A.625.625 0 0 0 5 3.125v13.75c0 .345.28.625.625.625H8.75v1.25H5.625a1.875 1.875 0 0 1-1.875-1.875V3.125c0-1.036.84-1.875 1.875-1.875z"/><path d="M10 10H6.25V8.75H10zm3.75-2.5h-7.5V6.25h7.5z"/></g>
</svg>
