<svg xmlns="http://www.w3.org/2000/svg" viewBox="0 0 20 20"
 width="20" height="20" fill="none"
 role="presentation" aria-hidden="true">
<g fill="currentColor"><path d="M10.625 8.124v7.241l2.683-2.683.884.884-3.75 3.748A.63.63 0 0 1 10 17.5a.63.63 0 0 1-.442-.186l-3.75-3.748.884-.884 2.683 2.683V8.124z"/><path d="M9.897 2.505a4.96 4.96 0 0 1 4.565 3.706 4.416 4.416 0 0 1 4.288 4.414l-.005.22a4.417 4.417 0 0 1-4.185 4.19l-.015.002h-.059l.59-.588a1.25 1.25 0 0 0 0-1.767l-.884-.884a1.25 1.25 0 0 0-1.768 0l-.549.55V8.123c0-.69-.56-1.25-1.25-1.25h-1.25a1.25 1.25 0 0 0-1.244 1.122l-.006.128v4.223l-.55-.549a1.25 1.25 0 0 0-1.767 0l-.884.884a1.25 1.25 0 0 0 0 1.768l.592.591h-.391a3.875 3.875 0 0 1-3.87-3.675l-.005-.199c0-2 1.514-3.646 3.458-3.854A4.96 4.96 0 0 1 9.664 2.5z"/></g>
</svg>
