<svg xmlns="http://www.w3.org/2000/svg" viewBox="0 0 16 16"
 width="16" height="16" fill="none"
 role="presentation" aria-hidden="true">
<g fill="currentColor"><path d="M8.5 6.499v5.793l2.146-2.146.707.706-3 3A.5.5 0 0 1 8 14a.5.5 0 0 1-.354-.148l-3-3 .708-.707L7.5 12.293V6.499z"/><path d="M7.918 2.004a3.97 3.97 0 0 1 3.651 2.965A3.533 3.533 0 0 1 15 8.5l-.004.176a3.534 3.534 0 0 1-3.348 3.352l-.012.001-.047.001.471-.47a1 1 0 0 0 0-1.415l-.707-.707a1 1 0 0 0-1.414 0l-.439.44V6.499a1 1 0 0 0-1-1h-1a1 1 0 0 0-.995.897L6.5 6.5v3.379l-.44-.44a1 1 0 0 0-1.414 0l-.707.707a1 1 0 0 0 0 1.415l.474.473H4.1a3.1 3.1 0 0 1-3.096-2.94L1 8.933a3.1 3.1 0 0 1 2.767-3.082A3.967 3.967 0 0 1 7.73 2z"/></g>
</svg>
