<svg xmlns="http://www.w3.org/2000/svg" viewBox="0 0 16 16"
 width="16" height="16" fill="none"
 role="presentation" aria-hidden="true">
<path fill="currentColor" fill-rule="evenodd" d="M9.916 2.378a1.5 1.5 0 0 1 2.156.038l1.634 1.749a1.5 1.5 0 0 1-.035 2.084l-6.595 6.594a1.5 1.5 0 0 1-.796.416l-3.523.633a.502.502 0 0 1-.578-.596l.771-3.61a1.5 1.5 0 0 1 .407-.748zM4.064 9.645a.5.5 0 0 0-.136.25l-.615 2.88 2.79-.5a.5.5 0 0 0 .266-.139l4.636-4.635-2.398-2.399zm7.278-6.547a.5.5 0 0 0-.719-.013l-1.31 1.31 2.4 2.399 1.251-1.252a.5.5 0 0 0 .012-.695z" clip-rule="evenodd"/>
</svg>
