<svg xmlns="http://www.w3.org/2000/svg" viewBox="0 0 20 20"
 width="20" height="20" fill="none"
 role="presentation" aria-hidden="true">
<path fill="currentColor" fill-rule="evenodd" d="M12.395 2.973a1.875 1.875 0 0 1 2.696.046l2.042 2.187c.69.738.67 1.89-.044 2.605l-8.244 8.243c-.27.27-.618.453-.994.52l-4.405.791a.627.627 0 0 1-.722-.746l.964-4.513c.076-.353.252-.678.508-.934zM5.08 12.056a.63.63 0 0 0-.17.312l-.77 3.602 3.49-.626a.63.63 0 0 0 .332-.174l5.794-5.794-2.998-2.998zm9.098-8.183a.625.625 0 0 0-.899-.016l-1.637 1.637 2.998 2.998 1.565-1.565a.625.625 0 0 0 .015-.868z" clip-rule="evenodd"/>
</svg>
