<svg xmlns="http://www.w3.org/2000/svg" viewBox="0 0 16 16"
 width="16" height="16" fill="none"
 role="presentation" aria-hidden="true">
<path fill="currentColor" fill-rule="evenodd" d="m13.207 12.5-.707.707-2.895-2.895-2.53 2.53a1.5 1.5 0 0 1-.796.417l-3.523.633a.502.502 0 0 1-.578-.597l.771-3.61c.06-.283.202-.543.407-.748L5.792 6.5l-2.999-3 .707-.706zM4.063 9.644a.5.5 0 0 0-.136.25l-.615 2.881 2.79-.5a.5.5 0 0 0 .266-.14l2.53-2.53-2.399-2.399zm5.852-7.266a1.5 1.5 0 0 1 2.157.037l1.633 1.749a1.5 1.5 0 0 1-.035 2.084l-2.652 2.651-.707-.707.693-.692-2.398-2.4-.694.693-.707-.707zm1.426.72a.5.5 0 0 0-.719-.013l-1.31 1.31 2.4 2.398 1.251-1.252a.5.5 0 0 0 .012-.694z" clip-rule="evenodd"/>
</svg>
