<svg xmlns="http://www.w3.org/2000/svg" viewBox="0 0 20 20"
 width="20" height="20" fill="none"
 role="presentation" aria-hidden="true">
<path fill="currentColor" fill-rule="evenodd" d="m16.51 15.625-.885.884-3.619-3.62-3.162 3.165a1.9 1.9 0 0 1-.994.52l-4.405.79a.628.628 0 0 1-.722-.745l.964-4.513c.076-.354.252-.678.508-.934L7.24 8.124 3.492 4.375l.883-.884zm-11.431-3.57a.63.63 0 0 0-.17.312l-.77 3.602 3.49-.626a.63.63 0 0 0 .332-.173l3.161-3.164-2.998-2.998zm7.315-9.082a1.876 1.876 0 0 1 2.696.046l2.042 2.186c.69.739.67 1.89-.044 2.605l-3.316 3.315-.883-.884.866-.866-2.998-2.998-.866.866-.884-.884zm1.783.9a.626.626 0 0 0-.899-.017l-1.637 1.637 2.998 2.998 1.565-1.565a.625.625 0 0 0 .015-.867z" clip-rule="evenodd"/>
</svg>
