<svg xmlns="http://www.w3.org/2000/svg" viewBox="0 0 16 16"
 width="16" height="16" fill="none"
 role="presentation" aria-hidden="true">
<path fill="currentColor" fill-rule="evenodd" d="M13.5 3A1.5 1.5 0 0 1 15 4.5v7a1.5 1.5 0 0 1-1.5 1.5h-11A1.5 1.5 0 0 1 1 11.5v-7A1.5 1.5 0 0 1 2.5 3zm.043 2.164-.013.014-.013.012-.028.028-.012.013-.014.013-.334.334-.012.013-.013.012-.157.157-.011.012-.013.012-.094.094-.01.012-.012.01-.036.036-.01.011-.012.011-.012.012-.01.011-.012.011-.09.09-.01.012-.013.01-.01.011-.01.012-.013.01-.021.022-.01.012-.013.01-.171.173-.01.01-.011.01-.156.156-.01.011-.01.01-.052.05-.01.011-.01.01-.19.19-.01.01q-.004.006-.01.01l-.185.186-.01.01-.01.008-.068.068-.008.01-.01.01-.461.46-.009.01-.01.009-.068.068-.009.01-.01.008-.185.186-.01.01-.01.01-.19.19-.01.01-.01.01-.051.051-.01.011-.01.01-.157.156-.01.01-.01.01-.172.172-.011.012-.012.01-.021.022-.011.012-.012.01-.01.012-.011.011-.012.011-.09.09-.01.012-.012.01-.012.012-.01.012-.012.01-.036.036-.01.011-.012.011-.094.094-.012.013-.012.011-.157.157-.012.013-.013.012-.334.334-.013.014-.013.012-.028.028-.012.013-.014.013-.638.638-.014.015-.016.015-.031.031-.016.017-.016.015-.08.08a.5.5 0 0 1-.707 0L2 4.707V11.5a.5.5 0 0 0 .5.5h11a.5.5 0 0 0 .5-.5V4.707zM8 9.293l.457-.457.013-.014.013-.012.028-.028.012-.013.014-.013.334-.334.012-.013.013-.012.157-.157.011-.012.013-.012.094-.094.01-.012.012-.01.036-.036.01-.011.012-.011.012-.012.01-.011.012-.011.09-.09.01-.012.012-.01.011-.011.011-.012.012-.01.021-.022.01-.012.013-.01.171-.173.01-.01.011-.01.156-.156.01-.011.01-.01.052-.05.01-.011.01-.01.19-.19.01-.01q.004-.006.01-.01l.185-.186.01-.01.01-.008.068-.068.008-.01.01-.01.461-.46.009-.01.01-.009.068-.068.009-.01.01-.008.185-.186.01-.01.01-.01.19-.19.01-.01.01-.01.051-.051.01-.011.01-.01.157-.156.01-.01.01-.01.172-.172.011-.012.012-.01.021-.022.011-.012.012-.01.01-.012.011-.011.012-.011.09-.09.01-.012.012-.01.012-.012.01-.012.013-.01.035-.036.01-.011.012-.011.094-.094.011-.013q.008-.005.013-.011l.158-.157.011-.013.013-.012.334-.334.013-.014.013-.012.028-.028.012-.013.014-.013.457-.457H2.707z" clip-rule="evenodd"/>
</svg>
