<svg xmlns="http://www.w3.org/2000/svg" viewBox="0 0 20 20"
 width="20" height="20" fill="none"
 role="presentation" aria-hidden="true">
<path fill="currentColor" fill-rule="evenodd" d="M16.875 3.75c1.035 0 1.875.84 1.875 1.875v8.75c0 1.036-.84 1.875-1.875 1.875H3.125a1.875 1.875 0 0 1-1.875-1.875v-8.75c0-1.036.84-1.875 1.875-1.875zm.054 2.705-.016.017-.017.016-.034.034-.016.017-.017.016-.418.418-.015.016-.015.014-.197.197-.015.016-.015.014-.118.117-.013.015-.015.013-.044.044-.013.015-.015.014-.014.014-.014.015-.014.013-.113.113-.013.014-.015.014-.013.013-.014.015-.014.013-.027.027-.014.015-.014.013-.215.215-.012.013-.014.013-.195.195-.012.013-.014.012-.063.064-.012.013-.014.013-.237.236-.012.014-.013.012-.232.232-.011.012-.012.011-.086.086q-.006.005-.01.012l-.013.01-.576.577-.011.012-.012.011-.086.086q-.006.005-.01.012l-.013.01-.232.233-.012.013-.014.012-.236.237-.013.014-.013.012-.064.063-.012.014-.013.012-.196.195q-.005.008-.012.014l-.013.012-.215.215-.013.014-.015.014-.027.027-.013.014-.015.014-.013.013-.014.015-.015.013-.112.113-.013.014-.015.014-.014.014-.014.015-.015.013-.043.044-.014.015-.015.013-.117.118-.014.015-.016.015-.197.197-.014.015-.016.015-.418.418-.016.017-.017.016-.034.034-.016.017-.017.016-.797.797-.018.02-.02.018-.039.039-.02.02-.02.02-.1.099a.625.625 0 0 1-.883 0L2.5 5.884v8.491c0 .345.28.625.625.625h13.75c.345 0 .625-.28.625-.625V5.884zM10 11.616l.571-.571.016-.017.017-.016.034-.034.016-.017.017-.016.418-.418.014-.015.016-.015.197-.197.015-.016.015-.014.118-.117.013-.015.015-.014.044-.043.013-.015.015-.014.014-.014.014-.015.014-.013.113-.113.013-.014.015-.014.013-.013.014-.015.014-.013.027-.027.014-.015.014-.013.215-.215.012-.013.014-.013.195-.195.012-.013.014-.012.063-.064.012-.013.014-.013.237-.236.012-.014.013-.012.232-.232.011-.012.012-.011.086-.086q.006-.005.01-.012l.013-.01.576-.577.011-.012.012-.011.086-.086q.006-.005.01-.012l.013-.01.232-.233.012-.013.014-.012.236-.237.013-.014.013-.012.064-.063.012-.014.013-.012.196-.195q.005-.008.012-.014l.013-.012.215-.215.013-.014.015-.014.027-.027.013-.014.015-.014.013-.013.014-.015.015-.013.112-.113.013-.014.015-.014.014-.014.014-.015.015-.013.043-.044.014-.015.015-.013.117-.118.014-.015.016-.015.197-.197.014-.015.016-.015.418-.418.016-.017.017-.016.034-.034.016-.017.017-.016.571-.571H3.384z" clip-rule="evenodd"/>
</svg>
