<svg xmlns="http://www.w3.org/2000/svg" viewBox="0 0 20 20"
 width="20" height="20" fill="none"
 role="presentation" aria-hidden="true">
<g fill="currentColor" fill-rule="evenodd" clip-rule="evenodd"><path d="M10.626 12.187a2.189 2.189 0 0 1 0 4.375 2.188 2.188 0 0 1 0-4.375m0 1.25a.938.938 0 1 0 0 1.876.938.938 0 0 0 0-1.876m3.75-5a2.189 2.189 0 0 1 0 4.375 2.188 2.188 0 0 1 0-4.375m0 1.25a.938.938 0 1 0 0 1.876.938.938 0 0 0 0-1.876"/><path d="M9.376 1.251c1.035 0 1.875.84 1.875 1.875V6.25h5.625c1.035 0 1.875.84 1.875 1.875v8.75c0 1.035-.84 1.874-1.875 1.875h-8.75a1.875 1.875 0 0 1-1.875-1.875V11.25H3.126a1.876 1.876 0 0 1-1.875-1.875v-6.25c0-1.035.84-1.875 1.875-1.875zM8.126 7.5a.625.625 0 0 0-.625.625v3.125h1.9l-.025.001-1.875-.001v5.625c0 .345.28.625.625.625h8.75c.345 0 .625-.28.625-.625v-8.75a.626.626 0 0 0-.625-.625h-5.625v1.876l-.001.023.001-1.9zm-5-4.999a.625.625 0 0 0-.625.625v6.25c0 .345.28.625.625.625h3.125v-1.25H3.583a.627.627 0 0 1-.534-.95l2.667-4.376.048-.067a.626.626 0 0 1 1.028.083L8.398 6.25h1.603V3.126a.626.626 0 0 0-.625-.625zm1.57 5H6.36c.14-.4.412-.737.764-.96L6.23 4.98z"/></g>
</svg>
