<svg xmlns="http://www.w3.org/2000/svg" viewBox="0 0 20 20"
 width="20" height="20" fill="none"
 role="presentation" aria-hidden="true">
<g fill="currentColor"><path d="m13.287 6.031-3.75 4.376a.626.626 0 0 1-.916.035L6.746 8.567l.883-.884 1.398 1.398 3.31-3.862z"/><path fill-rule="evenodd" d="M10 1.25a6.25 6.25 0 0 1 3.75 11.25v5.625a.625.625 0 0 1-.925.548L10 17.13l-2.825 1.544a.626.626 0 0 1-.925-.548V12.5A6.25 6.25 0 0 1 10 1.25m2.5 11.979a6.2 6.2 0 0 1-2.5.521 6.2 6.2 0 0 1-2.5-.521v3.841l2.2-1.2.072-.035a.63.63 0 0 1 .528.034l2.2 1.201zM10 2.5a5 5 0 1 0 0 10 5 5 0 0 0 0-10" clip-rule="evenodd"/></g>
</svg>
