<svg xmlns="http://www.w3.org/2000/svg" viewBox="0 0 16 16"
 width="16" height="16" fill="none"
 role="presentation" aria-hidden="true">
<g fill="currentColor"><path d="m10.63 4.825-3 3.5a.5.5 0 0 1-.734.029l-1.5-1.5.708-.708 1.118 1.119 2.648-3.09z"/><path fill-rule="evenodd" d="M8 1a5 5 0 0 1 3 9v4.5a.5.5 0 0 1-.74.438L8 13.704 5.74 14.94A.5.5 0 0 1 5 14.5V10a5 5 0 0 1 3-9m2 9.583A5 5 0 0 1 8 11c-.711 0-1.387-.15-2-.417v3.073l1.76-.96.057-.028a.5.5 0 0 1 .423.027l1.76.961zM8 2a4 4 0 1 0 0 8 4 4 0 0 0 0-8" clip-rule="evenodd"/></g>
</svg>
