<svg xmlns="http://www.w3.org/2000/svg" viewBox="0 0 16 16"
 width="16" height="16" fill="none"
 role="presentation" aria-hidden="true">
<g fill="currentColor" fill-rule="evenodd" clip-rule="evenodd"><path d="M8.501 9.75a1.75 1.75 0 1 1-.002 3.502 1.75 1.75 0 0 1 .002-3.502m0 1a.75.75 0 1 0 0 1.5.75.75 0 0 0 0-1.5m3-4a1.75 1.75 0 1 1-.002 3.502 1.75 1.75 0 0 1 .002-3.502m0 1a.75.75 0 1 0 0 1.5.75.75 0 0 0 0-1.5"/><path d="M7.501 1.001a1.5 1.5 0 0 1 1.5 1.5V5h4.5a1.5 1.5 0 0 1 1.5 1.5v7a1.5 1.5 0 0 1-1.5 1.5h-7a1.5 1.5 0 0 1-1.5-1.5V9.001h-2.5a1.5 1.5 0 0 1-1.5-1.5v-5a1.5 1.5 0 0 1 1.5-1.5zM6.501 6a.5.5 0 0 0-.5.5V9h1.52l-.02.001L6.001 9v4.5a.5.5 0 0 0 .5.5h7a.5.5 0 0 0 .5-.5v-7a.5.5 0 0 0-.5-.5h-4.5v1.501L9 7.52 9.001 6zm-4-3.999a.5.5 0 0 0-.5.5v5a.5.5 0 0 0 .5.5h2.5v-1H2.866a.502.502 0 0 1-.427-.76l2.134-3.5.038-.054a.5.5 0 0 1 .823.066L6.719 5H8V2.501a.5.5 0 0 0-.5-.5zm1.256 4h1.33c.114-.32.33-.59.612-.769l-.714-1.248z"/></g>
</svg>
