<svg xmlns="http://www.w3.org/2000/svg" viewBox="0 0 20 20"
 width="20" height="20" fill="none"
 role="presentation" aria-hidden="true">
<path fill="currentColor" d="M7.885 13.27H4.673A6.25 6.25 0 0 0 10 16.25v1.25a7.5 7.5 0 0 1-6.251-3.354v3.26h-1.25v-4.761c0-.345.28-.625.625-.625h4.76zM15 14.72l.454.43a7.5 7.5 0 0 1-2.727 1.84l-.227-.583-.228-.581a6.3 6.3 0 0 0 2.273-1.535zM17.5 10c0 1.113-.242 2.17-.677 3.12l-.57-.26-.567-.26c.362-.791.564-1.67.564-2.6zM4.346 7.33A6.2 6.2 0 0 0 3.749 10h-1.25c0-1.145.257-2.232.718-3.205zM10 2.5a7.5 7.5 0 0 1 6.252 3.356v-3.26h1.25v4.76c0 .345-.28.625-.625.626h-4.761v-1.25h3.211A6.25 6.25 0 0 0 10 3.75zM7.5 3.593l.227.583A6.2 6.2 0 0 0 5.454 5.71L5 5.28l-.455-.428A7.5 7.5 0 0 1 7.272 3.01z"/>
</svg>
