<svg xmlns="http://www.w3.org/2000/svg" viewBox="0 0 16 16"
 width="16" height="16" fill="none"
 role="presentation" aria-hidden="true">
<path fill="currentColor" d="M6.308 10.616h-2.57A5 5 0 0 0 8 13v1a6 6 0 0 1-5.001-2.684v2.607h-1v-3.808a.5.5 0 0 1 .5-.5h3.809zM12 11.776l.363.344a6 6 0 0 1-2.181 1.471L10 13.126l-.183-.465a5 5 0 0 0 1.819-1.228zM14 8a6 6 0 0 1-.542 2.497l-.455-.208-.454-.21A5 5 0 0 0 13 8zM3.477 5.864A5 5 0 0 0 2.999 8h-1c0-.916.206-1.786.574-2.564zM8 2a6 6 0 0 1 5.001 2.685V2.077h1v3.808a.5.5 0 0 1-.5.5H9.692v-1h2.57A5 5 0 0 0 8 3zm-2 .875.182.465a5 5 0 0 0-1.819 1.228L4 4.224l-.364-.343A6 6 0 0 1 5.817 2.41z"/>
</svg>
