<svg xmlns="http://www.w3.org/2000/svg" viewBox="0 0 16 16"
 width="16" height="16" fill="none"
 role="presentation" aria-hidden="true">
<path fill="currentColor" fill-rule="evenodd" d="M8.598 1.01a.5.5 0 0 1 .256.136l4 4A.5.5 0 0 1 13 5.5v8a1.5 1.5 0 0 1-1.5 1.5h-7A1.5 1.5 0 0 1 3 13.5V12h-.5l-.1-.01a.5.5 0 0 1-.4-.49v-3a.5.5 0 0 1 .4-.49L2.5 8H3V2.5A1.5 1.5 0 0 1 4.5 1h4zM4.5 2a.5.5 0 0 0-.5.5V8h5.5a.5.5 0 0 1 .5.5v3a.5.5 0 0 1-.5.5H4v1.5a.5.5 0 0 0 .5.5h7a.5.5 0 0 0 .5-.5V6H9.501A1.5 1.5 0 0 1 8 4.5V2zM3 11h6V9H3zm6-6.5a.5.5 0 0 0 .501.5h1.792L9 2.707z" clip-rule="evenodd"/>
</svg>
