<svg xmlns="http://www.w3.org/2000/svg" viewBox="0 0 16 16"
 width="16" height="16" fill="none"
 role="presentation" aria-hidden="true">
<g fill="currentColor"><path d="M9 11H5v-1h4zm2-2H5V8h6z"/><path fill-rule="evenodd" d="M8.598 1.01a.5.5 0 0 1 .256.136l4 4A.5.5 0 0 1 13 5.5v8a1.5 1.5 0 0 1-1.5 1.5h-7A1.5 1.5 0 0 1 3 13.5v-11A1.5 1.5 0 0 1 4.5 1h4zM4.5 2a.5.5 0 0 0-.5.5v11a.5.5 0 0 0 .5.5h7a.5.5 0 0 0 .5-.5V6H9.501A1.5 1.5 0 0 1 8 4.5V2zM9 4.5a.5.5 0 0 0 .501.5h1.792L9 2.707z" clip-rule="evenodd"/></g>
</svg>
