<svg xmlns="http://www.w3.org/2000/svg" viewBox="0 0 20 20"
 width="20" height="20" fill="none"
 role="presentation" aria-hidden="true">
<path fill="currentColor" fill-rule="evenodd" d="M10.747 1.262c.12.024.232.083.32.171l5 5a.63.63 0 0 1 .183.442v10c0 1.035-.84 1.875-1.875 1.875h-8.75a1.875 1.875 0 0 1-1.875-1.875V15h-.625l-.126-.012a.626.626 0 0 1-.499-.613v-3.75c0-.302.214-.555.5-.613L3.124 10h.625V3.125c0-1.035.84-1.875 1.875-1.875h5zM5.625 2.5A.625.625 0 0 0 5 3.125V10h6.875c.345 0 .625.28.625.625v3.75c0 .345-.28.625-.625.625H5v1.875c0 .345.28.625.625.625h8.75c.345 0 .625-.28.625-.625V7.5h-3.124A1.876 1.876 0 0 1 10 5.625V2.5zM3.75 13.75h7.5v-2.5h-7.5zm7.5-8.125c0 .345.28.625.626.625h2.24L11.25 3.384z" clip-rule="evenodd"/>
</svg>
