<svg xmlns="http://www.w3.org/2000/svg" viewBox="0 0 20 20"
 width="20" height="20" fill="none"
 role="presentation" aria-hidden="true">
<g fill="currentColor"><path d="M3.75 15.625c0 .345.28.625.625.625h11.25c.345 0 .625-.28.625-.625V15h1.25v.625c0 1.035-.84 1.875-1.875 1.875H4.375A1.875 1.875 0 0 1 2.5 15.625V15h1.25zm2.666-4.077h.088l1.943-5.156h1.69v7.046H8.823V8.643h-.096l-1.808 4.794h-.923L4.192 8.644h-.1v4.794H2.778V6.393h1.69z"/><path fill-rule="evenodd" d="M14.224 6.392q1.05 0 1.787.41.736.405 1.128 1.181.39.777.39 1.88v.01q0 1.138-.39 1.934-.387.795-1.123 1.216-.739.414-1.792.415H11.45V6.392zm-1.3 5.83h1.065q.654 0 1.109-.269.454-.268.688-.786.24-.522.24-1.27v-.01q0-.726-.245-1.235-.24-.512-.698-.776-.454-.269-1.094-.269h-1.064z" clip-rule="evenodd"/><path d="M15.625 2.5c1.035 0 1.875.84 1.875 1.875V5h-1.25v-.625a.625.625 0 0 0-.625-.625H4.375a.625.625 0 0 0-.625.625V5H2.5v-.625c0-1.036.84-1.875 1.875-1.875z"/></g>
</svg>
