<svg xmlns="http://www.w3.org/2000/svg" viewBox="0 0 16 16"
 width="16" height="16" fill="none"
 role="presentation" aria-hidden="true">
<g fill="currentColor"><path d="M3 12.5a.5.5 0 0 0 .5.5h9a.5.5 0 0 0 .5-.5V12h1v.5a1.5 1.5 0 0 1-1.5 1.5h-9A1.5 1.5 0 0 1 2 12.5V12h1zm2.133-3.262h.07l1.555-4.125h1.351v5.637H7.06V6.914h-.08L5.535 10.75h-.738L3.354 6.914h-.08v3.836H2.222V5.113h1.351z"/><path fill-rule="evenodd" d="M11.379 5.113q.84 0 1.43.328.59.325.902.946.312.62.312 1.504v.007q0 .91-.312 1.547a2.2 2.2 0 0 1-.899.973q-.589.332-1.433.332H9.16V5.113zm-1.04 4.664h.852q.524 0 .887-.214.364-.215.55-.63.193-.417.192-1.015V7.91q0-.582-.195-.988a1.36 1.36 0 0 0-.559-.621q-.363-.215-.875-.215h-.851z" clip-rule="evenodd"/><path d="M12.5 2A1.5 1.5 0 0 1 14 3.5V4h-1v-.5a.5.5 0 0 0-.5-.5h-9a.5.5 0 0 0-.5.5V4H2v-.5A1.5 1.5 0 0 1 3.5 2z"/></g>
</svg>
