<svg xmlns="http://www.w3.org/2000/svg" viewBox="0 0 20 20"
 width="20" height="20" fill="none"
 role="presentation" aria-hidden="true">
<path fill="currentColor" d="M1.25 14.375v-8.75c0-1.036.84-1.875 1.875-1.875h4.334l.12.012a.63.63 0 0 1 .318.167l2.36 2.321h6.618c1.035 0 1.875.84 1.875 1.875v6.25c0 1.036-.84 1.875-1.875 1.875H3.125a1.875 1.875 0 0 1-1.875-1.875m1.25 0c0 .345.28.625.625.625h13.75c.345 0 .625-.28.625-.625v-6.25a.625.625 0 0 0-.625-.625H10a.63.63 0 0 1-.438-.18L7.202 5H3.125a.625.625 0 0 0-.625.625z"/>
</svg>
