<svg xmlns="http://www.w3.org/2000/svg" viewBox="0 0 20 20"
 width="20" height="20" fill="none"
 role="presentation" aria-hidden="true">
<g fill="currentColor"><path fill-rule="evenodd" d="M5.625 8.75c.345 0 .625.28.625.625v6.25a.625.625 0 0 1-.625.625h-3.75l-.122-.012a.625.625 0 0 1-.503-.613v-6.25c0-.345.28-.625.625-.625zM2.5 15H5v-5H2.5zm9.375-8.75c.345 0 .625.28.625.625v8.75a.625.625 0 0 1-.625.625h-3.75l-.122-.012a.625.625 0 0 1-.503-.613v-8.75c0-.345.28-.625.625-.625zM8.75 15h2.5V7.5h-2.5z" clip-rule="evenodd"/><path d="M18.75 15.625c0 .345-.28.625-.625.625h-3.75l-.122-.012a.625.625 0 0 1-.503-.613v-2.5H15V15h2.5v-1.875h1.25zM15 11.25h-1.25v-2.5H15zm3.75 0H17.5v-2.5h1.25zm-.625-7.5c.345 0 .625.28.625.625v2.5H17.5V5H15v1.875h-1.25v-2.5c0-.345.28-.625.625-.625z"/></g>
</svg>
