<svg xmlns="http://www.w3.org/2000/svg" viewBox="0 0 16 16"
 width="16" height="16" fill="none"
 role="presentation" aria-hidden="true">
<path fill="currentColor" d="M12 2a1 1 0 0 0-1 1v1h1V3h2v1h1V3a1 1 0 0 0-1-1zM15 13a1 1 0 0 1-1 1h-2a1 1 0 0 1-1-1v-1h1v1h2v-1h1zM14 5.5v2h1v-2zM14 10.5v-2h1v2zM11 5.5v2h1v-2zM11 10.5v-2h1v2z"/><path fill="currentColor" fill-rule="evenodd" d="M6 6a1 1 0 0 1 1-1h2a1 1 0 0 1 1 1v7a1 1 0 0 1-1 1H7a1 1 0 0 1-1-1zm3 0H7v7h2zM2 8a1 1 0 0 0-1 1v4a1 1 0 0 0 1 1h2a1 1 0 0 0 1-1V9a1 1 0 0 0-1-1zm0 1h2v4H2z" clip-rule="evenodd"/>
</svg>
