<svg xmlns="http://www.w3.org/2000/svg" viewBox="0 0 20 20"
 width="20" height="20" fill="none"
 role="presentation" aria-hidden="true">
<g fill="currentColor"><path d="M3.75 8.75H7.5V5h1.875v10H7.5v-4.375H3.75V15H1.875V5H3.75z"/><path fill-rule="evenodd" d="M17.5 6.875h-3.75a.625.625 0 0 0-.625.625v1.563h3.125c1.035 0 1.875.839 1.875 1.874v2.188c0 1.036-.84 1.875-1.875 1.875h-3.125a1.875 1.875 0 0 1-1.875-1.875v-6.25c0-1.036.84-1.875 1.875-1.875H17.5zm-3.75 4.063a.625.625 0 0 0-.625.624v.938c0 .345.28.625.625.625h1.875c.345 0 .625-.28.625-.625v-.937a.625.625 0 0 0-.625-.626z" clip-rule="evenodd"/></g>
</svg>
