<svg xmlns="http://www.w3.org/2000/svg" viewBox="0 0 20 20"
 width="20" height="20" fill="none"
 role="presentation" aria-hidden="true">
<g fill="currentColor"><path d="M18.75 17.5H1.25v-1.25h17.5zM4.375 7.5h2.5V3.75H8.75v8.75H6.875V9.375h-2.5V12.5H2.5V3.75h1.875z"/><path fill-rule="evenodd" d="M15 3.75a2.5 2.5 0 0 1 2.5 2.5v.625c0 .82-.397 1.546-1.007 2.002a2.02 2.02 0 0 1 1.007 1.748V12.5h-1.875v-1.875c0-.39-.195-.754-.52-.97l-.42-.28h-1.56V12.5H11.25V3.75zM13.125 7.5H15c.345 0 .625-.28.625-.625V6.25A.625.625 0 0 0 15 5.625h-1.875z" clip-rule="evenodd"/></g>
</svg>
