<svg xmlns="http://www.w3.org/2000/svg" viewBox="0 0 16 16"
 width="16" height="16" fill="none"
 role="presentation" aria-hidden="true">
<path fill="currentColor" d="M14 8.651h-2.793c.198.365.293.796.293 1.304C11.5 11.854 10.181 13 8.003 13 5.89 13 4.565 11.914 4.5 10.115h1.732c.084.833.743 1.313 1.803 1.313 1.008 0 1.649-.5 1.649-1.28 0-.652-.414-1-1.494-1.246l-.97-.232-.07-.019H2v-1h12zM8.01 3c1.952 0 3.264 1.126 3.322 2.845H9.6c-.072-.793-.66-1.28-1.57-1.28-.925 0-1.5.447-1.5 1.166 0 .5.223.832.74 1.064H4.83a3 3 0 0 1-.123-.863C4.707 4.139 5.993 3 8.01 3"/>
</svg>
