<svg xmlns="http://www.w3.org/2000/svg" viewBox="0 0 20 20"
 width="20" height="20" fill="none"
 role="presentation" aria-hidden="true">
<path fill="currentColor" d="M6.25 5c1.264 0 2.351.752 2.843 1.832l.007-.008c.731 1.564.868 6.394-3.795 8.153-1.156.436-1.437-.593-.409-1.28.91-.609 1.771-1.424 2.388-2.626a3.1 3.1 0 0 1-1.034.179 3.125 3.125 0 1 1 0-6.25m7.5 0c1.264 0 2.351.752 2.843 1.832l.007-.008c.731 1.564.868 6.394-3.795 8.153-1.156.436-1.437-.593-.409-1.28.91-.609 1.771-1.424 2.388-2.626a3.1 3.1 0 0 1-1.034.179 3.125 3.125 0 1 1 0-6.25"/>
</svg>
