<svg xmlns="http://www.w3.org/2000/svg" viewBox="0 0 16 16"
 width="16" height="16" fill="none"
 role="presentation" aria-hidden="true">
<path fill="currentColor" d="M5 4c1.012 0 1.88.602 2.274 1.466l.006-.007c.585 1.252.694 5.116-3.036 6.522-.925.35-1.15-.474-.327-1.024.727-.486 1.417-1.138 1.91-2.1A2.49 2.49 0 0 1 2.5 6.5 2.5 2.5 0 0 1 5 4m6 0a2.5 2.5 0 0 1 2.274 1.466l.006-.007c.585 1.252.694 5.116-3.036 6.522-.925.35-1.15-.474-.327-1.024.727-.486 1.417-1.138 1.91-2.1A2.5 2.5 0 1 1 11 4"/>
</svg>
