<svg xmlns="http://www.w3.org/2000/svg" viewBox="0 0 20 20"
 width="20" height="20" fill="none"
 role="presentation" aria-hidden="true">
<path fill="currentColor" d="M3.75 8.75H7.5V5h1.875v10H7.5v-4.375H3.75V15H1.875V5H3.75zM16.25 5c1.035 0 1.875.84 1.875 1.875v2.188l-.01.191a1.9 1.9 0 0 1-.243.746c.16.276.253.596.253.938v2.187c0 1.036-.84 1.875-1.875 1.875h-3.125a1.875 1.875 0 0 1-1.875-1.875V12.5h1.875c0 .345.28.625.625.625h1.875c.345 0 .625-.28.625-.625v-.937a.625.625 0 0 0-.625-.626H13.75V9.064h1.875c.345 0 .625-.28.625-.626V7.5a.625.625 0 0 0-.625-.625H13.75a.625.625 0 0 0-.625.625H11.25v-.625c0-1.036.84-1.875 1.875-1.875z"/>
</svg>
