<svg xmlns="http://www.w3.org/2000/svg" viewBox="0 0 20 20"
 width="20" height="20" fill="none"
 role="presentation" aria-hidden="true">
<g fill="currentColor"><path d="M15.625 2.5c1.035 0 1.875.84 1.875 1.875v11.25c0 1.035-.84 1.875-1.875 1.875H4.375A1.875 1.875 0 0 1 2.5 15.625V8.75h1.25v6.875c0 .345.28.625.625.625h11.25c.345 0 .625-.28.625-.625V4.375a.625.625 0 0 0-.625-.625H12.5V2.5zM5.442 2.322 3.384 4.38l2.058 2.058-.884.884L1.616 4.38l2.942-2.942z"/><path d="M10.884 4.378 7.942 7.322l-.884-.884L9.116 4.38 7.058 2.322l.884-.885z"/></g>
</svg>
