<svg xmlns="http://www.w3.org/2000/svg" viewBox="0 0 16 16"
 width="16" height="16" fill="none"
 role="presentation" aria-hidden="true">
<path fill="currentColor" d="M3 7h3V4h1.5v8H6V8.5H3V12H1.5V4H3zm10-3a1.5 1.5 0 0 1 1.5 1.5v1.75l-.008.153a1.5 1.5 0 0 1-.194.597c.128.22.202.477.202.75v1.75A1.5 1.5 0 0 1 13 12h-2.5A1.5 1.5 0 0 1 9 10.5V10h1.5a.5.5 0 0 0 .5.5h1.5a.5.5 0 0 0 .5-.5v-.75a.5.5 0 0 0-.5-.5H11v-1.5h1.5a.5.5 0 0 0 .5-.5V6a.5.5 0 0 0-.5-.5H11a.5.5 0 0 0-.5.5H9v-.5A1.5 1.5 0 0 1 10.5 4z"/>
</svg>
