<svg xmlns="http://www.w3.org/2000/svg" viewBox="0 0 20 20"
 width="20" height="20" fill="none"
 role="presentation" aria-hidden="true">
<path fill="currentColor" d="M17.5 10.814h-3.491c.247.456.366.995.366 1.63 0 2.373-1.649 3.806-4.371 3.806-2.642 0-4.298-1.358-4.379-3.606h2.166c.105 1.04.928 1.64 2.253 1.64 1.26 0 2.06-.624 2.06-1.599 0-.816-.517-1.249-1.866-1.557l-1.212-.29-.09-.024H2.5v-1.25h15zM10.012 3.75c2.44 0 4.08 1.407 4.153 3.556H12c-.09-.991-.824-1.6-1.963-1.6-1.156 0-1.875.559-1.875 1.458 0 .624.28 1.04.926 1.33H6.036Q5.885 8 5.884 7.414c0-2.24 1.607-3.664 4.128-3.664"/>
</svg>
