<svg xmlns="http://www.w3.org/2000/svg" viewBox="0 0 16 16"
 width="16" height="16" fill="none"
 role="presentation" aria-hidden="true">
<path fill="currentColor" d="M8.5 2a2 2 0 0 1 2 2h-1a1 1 0 0 0-1-1h-.102c-.55 0-1.017.407-1.091.953L6.892 7H8.5v1H6.755l-.57 4.183A2.1 2.1 0 0 1 4.102 14H4a2 2 0 0 1-2-2h1a1 1 0 0 0 1 1h.102c.55 0 1.017-.407 1.091-.953L5.745 8H4V7h1.882l.433-3.183A2.1 2.1 0 0 1 8.398 2zm5.354 6.854L11.707 11l2.146 2.146-.707.707L11 11.708l-2.146 2.146-.708-.707L10.293 11 8.146 8.854l.708-.708L11 10.293l2.146-2.147z"/>
</svg>
