<svg xmlns="http://www.w3.org/2000/svg" viewBox="0 0 20 20"
 width="20" height="20" fill="none"
 role="presentation" aria-hidden="true">
<path fill="currentColor" d="M10.625 2.5a2.5 2.5 0 0 1 2.5 2.5h-1.25c0-.69-.56-1.25-1.25-1.25h-.127c-.689 0-1.272.509-1.365 1.191L8.615 8.75h2.01V10H8.444l-.713 5.228A2.63 2.63 0 0 1 5.127 17.5H5A2.5 2.5 0 0 1 2.5 15h1.25c0 .69.56 1.25 1.25 1.25h.127c.689 0 1.272-.509 1.365-1.191L7.182 10H5V8.75h2.352l.542-3.978A2.63 2.63 0 0 1 10.498 2.5zm6.692 8.567-2.683 2.683 2.683 2.683-.884.884-2.683-2.683-2.683 2.683-.884-.884 2.683-2.683-2.683-2.683.884-.884 2.683 2.683 2.683-2.683z"/>
</svg>
