<svg xmlns="http://www.w3.org/2000/svg" viewBox="0 0 16 16"
 width="16" height="16" fill="none"
 role="presentation" aria-hidden="true">
<path fill="currentColor" d="M13.28 6.387a5.5 5.5 0 0 0-1.653-2.665l-.025.024.004-.03a5.47 5.47 0 0 0-8.9 2.67c.022-.008.047-.008.07-.016a3.953 3.953 0 0 0-.215 6.421l.005-.004-.005.017A4.1 4.1 0 0 0 5 13.63l6.033-.014a3.954 3.954 0 0 0 2.246-7.228m-2.247 4.795h-6.08c-.216 0-.433-.064-.63-.153h.002a1.52 1.52 0 1 1 2.01-2.012l1.764-1.764a3.95 3.95 0 0 0-2.379-1.47c.013-.007.025-.018.035-.016a3.04 3.04 0 0 1 2.015-.983c.772-.059 1.57.18 2.172.667a3.04 3.04 0 0 1 1.091 2.387v.303a1.52 1.52 0 1 1 0 3.04"/>
</svg>
