<svg xmlns="http://www.w3.org/2000/svg" viewBox="0 0 20 20"
 width="20" height="20" fill="none"
 role="presentation" aria-hidden="true">
<path fill="currentColor" d="M16.599 7.983a6.86 6.86 0 0 0-2.066-3.33l-.03.03.004-.037A6.84 6.84 0 0 0 3.383 7.983c.027-.011.058-.011.087-.02a4.94 4.94 0 0 0-.268 8.026l.005-.005-.005.02c.858.65 1.972 1.036 3.048 1.031l7.54-.016a4.942 4.942 0 0 0 2.81-9.036m-2.807 5.994h-7.6c-.27 0-.542-.08-.788-.191h.002a1.9 1.9 0 1 1 2.513-2.515l2.205-2.205A4.93 4.93 0 0 0 7.15 7.227c.016-.008.03-.02.044-.018a3.8 3.8 0 0 1 2.518-1.23 3.9 3.9 0 0 1 2.715.835 3.8 3.8 0 0 1 1.365 2.983v.38a1.9 1.9 0 0 1 0 3.8"/>
</svg>
