<svg xmlns="http://www.w3.org/2000/svg" viewBox="0 0 16 16"
 width="16" height="16" fill="none"
 role="presentation" aria-hidden="true">
<g clipPath="url(#s0-prefix__a)"><path fill="currentColor" d="M13.645.004c.605.05 1.127.462 1.31 1.05l.875 2.799q.515.244.993.549l.314.209 2.868-.643a1.5 1.5 0 0 1 1.627.714l1.523 2.637a1.5 1.5 0 0 1-.197 1.766l-1.99 2.16Q21 11.62 21 12l-.01.38q-.008.188-.024.374l1.992 2.162a1.5 1.5 0 0 1 .195 1.766l-1.523 2.637-.065.103a1.5 1.5 0 0 1-1.442.632l-.12-.021-2.867-.644q-.62.431-1.307.756l-.874 2.803-.041.115a1.5 1.5 0 0 1-1.27.933l-.122.004h-3.044l-.122-.005a1.5 1.5 0 0 1-1.31-1.047l-.877-2.804a9 9 0 0 1-1.305-.756l-2.867.645-.12.021a1.5 1.5 0 0 1-1.443-.632l-.065-.103-1.523-2.637a1.5 1.5 0 0 1 .116-1.673l.08-.093 1.992-2.164q-.016-.185-.025-.374L3.001 12q.001-.38.034-.753L1.042 9.085A1.5 1.5 0 0 1 .79 7.427l.056-.108L2.37 4.682a1.5 1.5 0 0 1 1.627-.713l2.868.643a9 9 0 0 1 1.306-.757l.877-2.803a1.5 1.5 0 0 1 1.31-1.048L10.479 0h3.044zM10.479 1.5l-.877 2.803-.197.628-.596.28q-.57.27-1.088.631l-.542.378-.643-.144-2.869-.643v-.001L2.145 8.069l1.992 2.162.446.484-.054.656a9 9 0 0 0-.02.32L4.5 12q0 .304.028.627l.054.656-.445.484-1.992 2.164 1.522 2.637 2.868-.645.644-.144.542.378q.387.27.806.489l.281.14.596.28.197.629.877 2.803v.001h3.044l.874-2.801.196-.63.597-.281q.573-.27 1.09-.63l.542-.377.643.144 2.866.644 1.523-2.637-1.99-2.161-.447-.485.055-.656q.015-.165.022-.322L19.5 12q0-.3-.029-.63l-.055-.657.447-.484 1.99-2.16-1.521-2.637-2.869.643-.643.144-.541-.377a7.5 7.5 0 0 0-1.09-.632l-.596-.28-.197-.63-.874-2.8zm1.522 6a4.5 4.5 0 1 1 0 9.001 4.5 4.5 0 0 1 0-9m0 1.5a3 3 0 1 0 0 6 3 3 0 0 0 0-6"/></g><defs><clipPath id="s0-prefix__a"><path fill="#fff" d="M0 0h24v24H0z"/></clipPath></defs>
</svg>
