<svg xmlns="http://www.w3.org/2000/svg" viewBox="0 0 20 20"
 width="20" height="20" fill="none"
 role="presentation" aria-hidden="true">
<g fill="currentColor" fill-rule="evenodd" clip-rule="evenodd"><path d="M10.49 6.58a3.28 3.28 0 0 1 2.946 3.264l-.017.334a3.28 3.28 0 0 1-3.263 2.946l-.335-.017a3.28 3.28 0 0 1-2.929-2.929l-.017-.334a3.28 3.28 0 0 1 3.281-3.281zm-.334 1.233a2.032 2.032 0 1 0 0 4.063 2.032 2.032 0 0 0 0-4.063"/><path d="M11.112 1.25c.547 0 1.03.356 1.194.878l.603 1.932q.502.237.953.552l1.979-.443a1.25 1.25 0 0 1 1.356.594l.995 1.724c.273.473.207 1.07-.163 1.472l-1.375 1.49q.024.272.026.55-.001.279-.026.55l1.375 1.492c.37.402.435.999.162 1.472l-.995 1.723a1.25 1.25 0 0 1-1.356.595l-1.978-.445q-.451.314-.953.552l-.603 1.933a1.25 1.25 0 0 1-1.194.878h-1.99a1.25 1.25 0 0 1-1.192-.878l-.606-1.933a6.6 6.6 0 0 1-.952-.552l-1.978.444a1.25 1.25 0 0 1-1.357-.594l-.994-1.723a1.25 1.25 0 0 1 .163-1.472l1.374-1.493a7 7 0 0 1-.024-.55q.001-.276.024-.547L2.206 7.959a1.25 1.25 0 0 1-.164-1.472l.995-1.723a1.25 1.25 0 0 1 1.356-.595l1.979.443q.45-.316.952-.552l.606-1.932a1.25 1.25 0 0 1 1.192-.878zm-1.99 1.251-.769 2.456-.495.233a5.3 5.3 0 0 0-.772.447l-.45.315-.537-.12-1.98-.444-.994 1.724 1.747 1.896-.045.545q-.02.233-.021.446.001.213.02.445l.046.547-1.747 1.897.995 1.723 2.516-.566.45.315q.276.192.571.347l.2.1.496.233.77 2.458h1.99l.767-2.458.497-.233a5.3 5.3 0 0 0 .771-.447l.452-.315 2.513.566.995-1.723-1.745-1.896.046-.546q.02-.24.02-.447 0-.206-.02-.446l-.046-.548.372-.403 1.374-1.49-.995-1.724-1.978.443-.537.121-.45-.315a5.3 5.3 0 0 0-.772-.447l-.497-.233-.767-2.457z"/></g>
</svg>
