<svg xmlns="http://www.w3.org/2000/svg" viewBox="0 0 16 16"
 width="16" height="16" fill="none"
 role="presentation" aria-hidden="true">
<g fill="currentColor" fill-rule="evenodd" clip-rule="evenodd"><path d="M8.393 5.264a2.625 2.625 0 0 1 2.356 2.611l-.014.268a2.624 2.624 0 0 1-2.61 2.356l-.269-.014a2.625 2.625 0 0 1-2.342-2.342L5.5 7.875A2.625 2.625 0 0 1 8.125 5.25zm-.268.986a1.625 1.625 0 1 0 0 3.25 1.625 1.625 0 0 0 0-3.25"/><path d="M8.89 1c.437 0 .824.285.955.702l.482 1.546q.402.19.763.441l1.583-.354c.426-.095.866.097 1.085.476l.796 1.378c.218.38.165.857-.131 1.178l-1.1 1.193q.019.216.02.439-.001.222-.02.44l1.1 1.194c.296.322.348.799.13 1.178l-.796 1.377a1 1 0 0 1-1.085.477l-1.582-.356q-.36.251-.763.441l-.482 1.547c-.13.417-.518.702-.955.702H7.298a1 1 0 0 1-.954-.702l-.485-1.547a5 5 0 0 1-.761-.441l-1.582.355a1 1 0 0 1-1.086-.476l-.795-1.378a1 1 0 0 1 .13-1.177l1.1-1.195A5 5 0 0 1 2.844 8q0-.222.02-.438l-1.1-1.194a1 1 0 0 1-.131-1.178l.796-1.377a1 1 0 0 1 1.085-.477l1.583.354q.36-.251.761-.44l.485-1.547A1 1 0 0 1 7.298 1zM7.298 2.001l-.615 1.965-.397.186a4 4 0 0 0-.617.358l-.36.252-.43-.097-1.583-.354L2.5 5.689l1.397 1.517-.036.437a4 4 0 0 0-.016.356q0 .171.016.356l.036.438L2.5 10.311l.796 1.377 2.013-.452.36.252q.22.153.457.278l.16.08.397.186.615 1.966 1.593.001.613-1.967.397-.186a4 4 0 0 0 .617-.358l.362-.252 2.01.452.797-1.378-1.397-1.516.037-.438q.016-.191.017-.357 0-.165-.017-.356l-.037-.439.298-.322 1.1-1.193-.796-1.378-1.583.354-.43.097-.36-.252a4 4 0 0 0-.618-.358l-.397-.186L8.89 2z"/></g>
</svg>
