<svg xmlns="http://www.w3.org/2000/svg" viewBox="0 0 20 20"
 width="20" height="20" fill="none"
 role="presentation" aria-hidden="true">
<path fill="currentColor" fill-rule="evenodd" d="M8.12 3.125a.63.63 0 0 1 .552.321l2.37 4.269a5 5 0 1 1-3.385 6.035H3.125a.626.626 0 0 1-.552-.92l5-9.374.045-.072a.63.63 0 0 1 .502-.259M12.5 8.75c-.285 0-.563.034-.83.094l2.21 3.977a.627.627 0 0 1-.546.929H8.967a3.748 3.748 0 0 0 7.283-1.25 3.75 3.75 0 0 0-3.75-3.75m-1.992.576A3.74 3.74 0 0 0 8.75 12.5h3.52zM4.168 12.5H7.5a5 5 0 0 1 2.397-4.271L8.136 5.057z" clip-rule="evenodd"/>
</svg>
