<svg xmlns="http://www.w3.org/2000/svg" viewBox="0 0 20 20"
 width="20" height="20" fill="none"
 role="presentation" aria-hidden="true">
<path fill="currentColor" fill-rule="evenodd" d="M17.5 5h-3.75v1.343a1.83 1.83 0 0 1 1.167.998l3.773 8.018a.625.625 0 0 1-.565.891H1.875a.625.625 0 0 1-.582-.853l4.462-11.4c.622-1.588 2.869-1.588 3.49 0l1.788 4.567.446-1.118A1.83 1.83 0 0 1 12.5 6.41V1.25h5zM7.847 9.27a.625.625 0 0 1-.694 0L5.472 8.148 2.791 15h9.419L9.528 8.148zm5.94-1.396a.625.625 0 0 0-1.146.034l-.837 2.103L13.568 15h3.573zm-5.705-3.42a.626.626 0 0 0-1.164 0l-1.05 2.68.104-.154L7.5 7.998 9.028 6.98l.103.155zm5.668-.704h2.5V2.5h-2.5z" clip-rule="evenodd"/>
</svg>
