<svg xmlns="http://www.w3.org/2000/svg" viewBox="0 0 16 16"
 width="16" height="16" fill="none"
 role="presentation" aria-hidden="true">
<path fill="currentColor" fill-rule="evenodd" d="M14 4h-3v1.074c.386.11.734.374.934.8l3.018 6.413A.5.5 0 0 1 14.5 13h-13a.5.5 0 0 1-.466-.683l3.57-9.12c.497-1.27 2.295-1.27 2.793 0l1.43 3.655.356-.895c.163-.41.467-.686.817-.83V1h4zM6.277 7.416a.5.5 0 0 1-.554 0l-1.346-.897L2.234 12h7.534L7.622 6.519zm4.752-1.117a.5.5 0 0 0-.917.027L9.444 8.01l1.41 3.99h2.859zM6.466 3.562a.5.5 0 0 0-.932 0l-.84 2.145.083-.123L6 6.398l1.223-.814.082.124zM11 3h2V2h-2z" clip-rule="evenodd"/>
</svg>
