<svg xmlns="http://www.w3.org/2000/svg" viewBox="0 0 16 16"
 width="16" height="16" fill="none"
 role="presentation" aria-hidden="true">
<path fill="currentColor" fill-rule="evenodd" d="M9.4 2.8C10.554 1.263 13 2.078 13 4l-.01.204c-.03.295-.125.57-.27.813A1.5 1.5 0 0 1 14 6.5v6.036a1.5 1.5 0 0 1-1.5 1.5h-9a1.5 1.5 0 0 1-1.5-1.5V6.5a1.5 1.5 0 0 1 1.28-1.483A2 2 0 0 1 3 4c0-1.922 2.446-2.738 3.6-1.2L8 4.666zM8.955 6c.166.152.37.303.608.442.584.34 1.29.558 1.937.558v1c-.853 0-1.73-.281-2.438-.692a5 5 0 0 1-.562-.384v6.112h4a.5.5 0 0 0 .5-.5V6.5a.5.5 0 0 0-.5-.5zM3.5 6a.5.5 0 0 0-.5.5v6.036a.5.5 0 0 0 .5.5h4V6.924a5 5 0 0 1-.562.384C6.231 7.718 5.353 8 4.5 8V7c.647 0 1.353-.219 1.937-.558.239-.139.442-.29.608-.442zm2.3-2.6C5.223 2.631 4 3.04 4 4a1 1 0 0 0 1 1h2zM12 4c0-.961-1.223-1.369-1.8-.6L9 5h2a1 1 0 0 0 1-1" clip-rule="evenodd"/>
</svg>
