<svg xmlns="http://www.w3.org/2000/svg" viewBox="0 0 20 20"
 width="20" height="20" fill="none"
 role="presentation" aria-hidden="true">
<path fill="currentColor" fill-rule="evenodd" d="M11.75 3.5c1.442-1.922 4.5-.903 4.5 1.5l-.013.255a2.5 2.5 0 0 1-.336 1.017A1.874 1.874 0 0 1 17.5 8.125v7.545c0 1.035-.84 1.875-1.875 1.875H4.375A1.875 1.875 0 0 1 2.5 15.67V8.125c0-.942.695-1.72 1.6-1.853A2.5 2.5 0 0 1 3.75 5c0-2.403 3.058-3.422 4.5-1.5L10 5.832zm-.556 4c.207.19.461.38.76.553.73.423 1.612.697 2.421.697V10c-1.066 0-2.163-.352-3.048-.866a6 6 0 0 1-.702-.48v7.641h5c.345 0 .625-.28.625-.625V8.125a.625.625 0 0 0-.625-.625zm-6.819 0a.625.625 0 0 0-.625.625v7.545c0 .345.28.625.625.625h5v-7.64a6 6 0 0 1-.702.48c-.885.513-1.982.865-3.048.865V8.75c.809 0 1.691-.274 2.42-.697.3-.174.554-.363.761-.553zM7.25 4.25C6.529 3.29 5 3.8 5 5c0 .69.56 1.25 1.25 1.25h2.5zM15 5c0-1.201-1.529-1.71-2.25-.75l-1.5 2h2.5C14.44 6.25 15 5.69 15 5" clip-rule="evenodd"/>
</svg>
