<svg xmlns="http://www.w3.org/2000/svg" viewBox="0 0 20 20"
 width="20" height="20" fill="none"
 role="presentation" aria-hidden="true">
<path fill="currentColor" fill-rule="evenodd" d="M9.974 1.25c-4.824 0-8.724 4.01-8.724 8.972 0 3.966 2.499 7.323 5.965 8.511.434.09.592-.193.592-.43 0-.209-.014-.922-.014-1.664-2.427.535-2.932-1.07-2.932-1.07-.39-1.04-.968-1.307-.968-1.307-.794-.55.058-.55.058-.55.881.06 1.343.922 1.343.922.78 1.366 2.037.98 2.542.742.072-.58.304-.98.55-1.203-1.936-.208-3.973-.98-3.973-4.427 0-.98.347-1.782.896-2.406-.087-.223-.39-1.144.086-2.377 0 0 .737-.237 2.398.921a8.2 8.2 0 0 1 2.18-.297 8.2 8.2 0 0 1 2.182.297c1.66-1.158 2.398-.92 2.398-.92.476 1.232.173 2.153.086 2.376.564.624.896 1.426.896 2.406 0 3.447-2.037 4.204-3.987 4.427.318.282.592.817.592 1.664 0 1.203-.014 2.168-.014 2.465 0 .238.159.52.592.431 3.467-1.188 5.965-4.545 5.965-8.511.015-4.962-3.9-8.972-8.71-8.972" clip-rule="evenodd"/>
</svg>
