<svg xmlns="http://www.w3.org/2000/svg" viewBox="0 0 16 16"
 width="16" height="16" fill="none"
 role="presentation" aria-hidden="true">
<path fill="currentColor" fill-rule="evenodd" d="M8.006 1C4.132 1 1 4.208 1 8.177c0 3.173 2.007 5.859 4.79 6.81.348.07.476-.155.476-.345 0-.166-.012-.737-.012-1.331-1.948.428-2.354-.856-2.354-.856-.313-.832-.777-1.045-.777-1.045-.638-.44.046-.44.046-.44.708.047 1.079.737 1.079.737.626 1.093 1.635.784 2.041.594.058-.464.244-.784.44-.963-1.553-.166-3.189-.784-3.189-3.54 0-.785.278-1.427.72-1.926-.07-.178-.314-.915.069-1.901 0 0 .591-.19 1.925.737a6.6 6.6 0 0 1 1.752-.238 6.6 6.6 0 0 1 1.751.238c1.334-.927 1.926-.737 1.926-.737.383.986.139 1.723.07 1.901.452.5.718 1.14.718 1.925 0 2.757-1.635 3.363-3.201 3.541.255.226.476.654.476 1.331 0 .963-.012 1.735-.012 1.973 0 .19.128.416.476.345 2.783-.951 4.79-3.637 4.79-6.81C15.011 4.208 11.868 1 8.006 1" clip-rule="evenodd"/>
</svg>
