<svg xmlns="http://www.w3.org/2000/svg" viewBox="0 0 16 16"
 width="16" height="16" fill="none"
 role="presentation" aria-hidden="true">
<path fill="currentColor" d="M14.736 7.376 8.624 1.264a.9.9 0 0 0-1.275 0l-1.27 1.27 1.61 1.61a1.071 1.071 0 0 1 1.356 1.365l1.552 1.551a1.07 1.07 0 0 1 1.341 1.424 1.072 1.072 0 0 1-1.983-.819L8.507 6.218v3.809a1.073 1.073 0 1 1-.882-.032V6.152a1.07 1.07 0 0 1-.645-.786 1.07 1.07 0 0 1 .063-.621L5.455 3.157l-4.19 4.19a.9.9 0 0 0 0 1.276l6.112 6.113a.9.9 0 0 0 1.275 0l6.084-6.084a.903.903 0 0 0 0-1.276"/>
</svg>
