<svg xmlns="http://www.w3.org/2000/svg" viewBox="0 0 20 20"
 width="20" height="20" fill="none"
 role="presentation" aria-hidden="true">
<path fill="currentColor" d="m18.42 9.22-7.64-7.64a1.126 1.126 0 0 0-1.594 0L7.599 3.167 9.61 5.18a1.339 1.339 0 0 1 1.696 1.707l1.94 1.94a1.338 1.338 0 0 1 1.676 1.78 1.341 1.341 0 0 1-2.48-1.025l-1.809-1.808v4.76a1.34 1.34 0 1 1-1.102-.039V7.69a1.33 1.33 0 0 1-.807-.982 1.34 1.34 0 0 1 .078-.777L6.82 3.947 1.58 9.185a1.127 1.127 0 0 0 0 1.594l7.641 7.641a1.127 1.127 0 0 0 1.594 0l7.605-7.605a1.13 1.13 0 0 0 0-1.594"/>
</svg>
