<svg xmlns="http://www.w3.org/2000/svg" viewBox="0 0 20 20"
 width="20" height="20" fill="none"
 role="presentation" aria-hidden="true">
<g fill="currentColor"><path d="M10.625 13.75c.345 0 .625.28.625.625v3.75a.625.625 0 0 1-.972.52l-1.528-1.02-1.528 1.02a.626.626 0 0 1-.972-.52v-3.75c0-.345.28-.625.625-.625z"/><path fill-rule="evenodd" d="M15 1.25c.69 0 1.25.56 1.25 1.25v10.099c-1.227.851-1.227 2.7 0 3.55V17.5H12.5v-1.25h2.133a3.46 3.46 0 0 1 0-3.75H6.875C5.839 12.5 5 13.34 5 14.375v2.495a3.12 3.12 0 0 1-1.25-2.495V3.75a2.5 2.5 0 0 1 2.5-2.5zM6.25 2.5C5.56 2.5 5 3.06 5 3.75v8.129a3.1 3.1 0 0 1 1.875-.629H15V2.5z" clip-rule="evenodd"/></g>
</svg>
