<svg xmlns="http://www.w3.org/2000/svg" viewBox="0 0 16 16"
 width="16" height="16" fill="none"
 role="presentation" aria-hidden="true">
<path fill="currentColor" fill-rule="evenodd" d="M8.36 1.009A7 7 0 0 1 15.001 8l-.01.36A7 7 0 0 1 8 15.001l-.36-.01A7.001 7.001 0 0 1 8 1zM5.807 10.75c.157.666.366 1.26.613 1.753.544 1.087 1.119 1.451 1.505 1.493l.075.005c.384 0 1-.338 1.581-1.498a8 8 0 0 0 .613-1.753zm-3.139 0a6.02 6.02 0 0 0 3.254 2.88c-.498-.735-.894-1.728-1.14-2.88zm8.55 0c-.245 1.152-.642 2.144-1.139 2.88a6.02 6.02 0 0 0 3.253-2.88zM2.225 6.375A6 6 0 0 0 2.26 9.75h2.35a13.7 13.7 0 0 1-.014-3.375zm3.379 0A12.7 12.7 0 0 0 5.62 9.75h4.76a12.8 12.8 0 0 0 .018-3.375zm5.801 0a13.8 13.8 0 0 1-.014 3.375h2.35a6 6 0 0 0 .036-3.375zM5.921 2.369a6.02 6.02 0 0 0-3.317 3.006h2.15C5 4.17 5.407 3.132 5.922 2.369M8 2c-.384 0-1 .337-1.58 1.497a8.2 8.2 0 0 0-.642 1.878h4.445a8.2 8.2 0 0 0-.642-1.878C9.001 2.337 8.384 2 8 2m2.08.37c.514.761.92 1.8 1.164 3.005h2.154a6.02 6.02 0 0 0-3.319-3.006" clip-rule="evenodd"/>
</svg>
