<svg xmlns="http://www.w3.org/2000/svg" viewBox="0 0 20 20"
 width="20" height="20" fill="none"
 role="presentation" aria-hidden="true">
<path fill="currentColor" fill-rule="evenodd" d="M10.45 1.261A8.75 8.75 0 0 1 18.751 10l-.012.45A8.75 8.75 0 0 1 10 18.751l-.45-.012A8.751 8.751 0 0 1 10 1.249zM7.258 13.438c.197.832.458 1.574.767 2.19.68 1.36 1.399 1.815 1.881 1.867l.094.006c.48 0 1.251-.422 1.976-1.872.309-.617.57-1.358.767-2.191zm-3.923 0a7.53 7.53 0 0 0 4.067 3.6c-.622-.92-1.117-2.16-1.425-3.6zm10.688 0c-.307 1.439-.803 2.68-1.424 3.6a7.53 7.53 0 0 0 4.066-3.6zM2.78 7.968a7.5 7.5 0 0 0 .045 4.22h2.938a17.2 17.2 0 0 1-.018-4.219zm4.223 0A16 16 0 0 0 6.875 10c0 .765.054 1.498.15 2.188h5.95a16 16 0 0 0 .15-2.188c0-.707-.045-1.388-.128-2.031zm7.252 0a17.3 17.3 0 0 1-.018 4.22h2.938a7.5 7.5 0 0 0 .046-4.22zM7.401 2.962A7.53 7.53 0 0 0 3.254 6.72h2.69c.305-1.507.813-2.805 1.457-3.758M10 2.5c-.48 0-1.25.421-1.975 1.871-.328.656-.602 1.45-.802 2.348h5.555c-.199-.897-.474-1.692-.802-2.348C11.251 2.921 10.48 2.501 10 2.5m2.599.461c.644.953 1.151 2.251 1.456 3.758h2.692a7.53 7.53 0 0 0-4.148-3.758" clip-rule="evenodd"/>
</svg>
