<svg xmlns="http://www.w3.org/2000/svg" viewBox="0 0 20 20"
 width="20" height="20" fill="none"
 role="presentation" aria-hidden="true">
<path fill="currentColor" fill-rule="evenodd" d="M9.408 2.88c.31-.2.875-.2 1.185 0L17.78 7.5h.345c.345 0 .625.28.625.625v4.778l.699 2.094h-2.643l.273-.822.421-1.263V8.927l-1.25.803v3.357c0 .141-.04.28-.114.4-2.785 4.465-9.256 4.553-12.161.165l-.099-.149a.76.76 0 0 1-.126-.419V9.731L1.676 8.398c-.245-.158-.245-.39 0-.548zm1.185 10.489-.127.066c-.32.13-.786.108-1.058-.066L5 10.534v2.401l.018.027c2.378 3.592 7.641 3.556 9.982-.025v-2.404zM3.56 8.125 10 12.263l5.465-3.513H10V7.5h5.467L10 3.985z" clip-rule="evenodd"/>
</svg>
