<svg xmlns="http://www.w3.org/2000/svg" viewBox="0 0 16 16"
 width="16" height="16" fill="none"
 role="presentation" aria-hidden="true">
<path fill="currentColor" fill-rule="evenodd" d="M7.526 2.304c.248-.16.7-.16.948 0L14.224 6h.276a.5.5 0 0 1 .5.5v3.822l.559 1.676h-2.115l.219-.658.337-1.01V7.14l-1 .643v2.686a.6.6 0 0 1-.092.32c-2.228 3.572-7.404 3.642-9.728.132l-.08-.12a.6.6 0 0 1-.1-.334V7.785L1.34 6.719c-.196-.127-.196-.313 0-.439zm.948 8.391-.102.053c-.256.105-.629.087-.846-.053L4 8.428v1.92l.014.022c1.902 2.873 6.113 2.845 7.986-.02V8.427zM2.849 6.5l5.15 3.31L12.373 7H8V6h4.373L8 3.188z" clip-rule="evenodd"/>
</svg>
