<svg xmlns="http://www.w3.org/2000/svg" viewBox="0 0 20 20"
 width="20" height="20" fill="none"
 role="presentation" aria-hidden="true">
<path fill="currentColor" fill-rule="evenodd" d="M8.125 3.013c.723.09 1.428.34 2.063.747l-.008-.006a5 5 0 0 1 4.553 6.604l2.767 2.767v3.125h-3.733L12.514 15l-1.387-1.38a5 5 0 0 1-1.127.13v2.5l-2.504 2.5-2.518-2.5L4.976 15l-.01-2.499v-.216a5 5 0 0 1 1.91-9.272V1.25h1.25zm-1.25 1.264a3.75 3.75 0 0 0-1.276 6.93l.617.363v.925l.01 2.499v.002l.002.733 1.266 1.256L8.75 15.73v-3.429l-.001-.721.625-.36q.418-.242.775-.596a3.75 3.75 0 0 0-2.024-6.346v1.73q.138.08.256.197a1.25 1.25 0 1 1-1.506-.2zm5.05 1.371A5 5 0 0 1 10 12.302v.198q.433-.001.846-.098l.673-.155 1.876 1.867.001.001.888.885h1.966v-1.357l-2.95-2.95.249-.737a3.74 3.74 0 0 0-1.718-4.477z" clip-rule="evenodd"/>
</svg>
