<svg xmlns="http://www.w3.org/2000/svg" viewBox="0 0 16 16"
 width="16" height="16" fill="none"
 role="presentation" aria-hidden="true">
<path fill="currentColor" fill-rule="evenodd" d="M6.5 2.41a4 4 0 0 1 1.65.598l-.007-.005a4 4 0 0 1 3.643 5.283L14 10.5V13h-2.987l-1.003-1-1.109-1.104Q8.466 10.999 8 11v2l-2.003 2-2.015-2-.002-1-.008-1.999v-.173A4 4 0 0 1 5.5 2.41V1h1zm-1 1.012a3 3 0 0 0-1.02 5.544l.492.29v.74l.008 2v.001l.002.586 1.013 1.005L7 12.585V9.842l-.001-.577.5-.288q.334-.194.62-.477a3 3 0 0 0-1.62-5.077v1.385q.111.063.206.157a1 1 0 1 1-1.205-.16zm4.04 1.097A4 4 0 0 1 8 9.842V10q.346 0 .676-.078l.539-.124 1.5 1.493.002.001.71.708H13v-1.086l-2.36-2.36.199-.59a3 3 0 0 0-1.374-3.582z" clip-rule="evenodd"/>
</svg>
