<svg xmlns="http://www.w3.org/2000/svg" viewBox="0 0 16 16"
 width="16" height="16" fill="none"
 role="presentation" aria-hidden="true">
<path fill="currentColor" fill-rule="evenodd" d="M13.653 3.008a1.5 1.5 0 0 1 0 2.984L13.499 6h-2a1.5 1.5 0 0 1-1.413-1H9v6h1.086a1.5 1.5 0 0 1 1.413-1h2l.154.008a1.5 1.5 0 0 1 0 2.984l-.154.008h-2a1.5 1.5 0 0 1-1.413-1H8.5a.5.5 0 0 1-.5-.5v-3H5.913a1.5 1.5 0 0 1-1.413 1h-2a1.5 1.5 0 0 1-1.493-1.347L1 8a1.5 1.5 0 0 1 1.5-1.5h2a1.5 1.5 0 0 1 1.413 1H8v-3a.5.5 0 0 1 .5-.5h1.586A1.5 1.5 0 0 1 11.5 3h2zM11.499 11a.5.5 0 0 0 0 1h2a.5.5 0 1 0 0-1zm-9-3.5a.5.5 0 0 0 0 1h2a.5.5 0 0 0 0-1zm9-3.5a.5.5 0 0 0 0 1h2a.5.5 0 1 0 0-1z" clip-rule="evenodd"/>
</svg>
