<svg xmlns="http://www.w3.org/2000/svg" viewBox="0 0 20 20"
 width="20" height="20" fill="none"
 role="presentation" aria-hidden="true">
<path fill="currentColor" fill-rule="evenodd" d="M11.875 3.75a1.875 1.875 0 0 1 0 3.75h-1.25V10h5c.345 0 .625.28.625.625V12.5h.625l.192.01a1.875 1.875 0 0 1 0 3.73l-.192.01h-2.5a1.875 1.875 0 0 1 0-3.75H15v-1.25H5v1.25h.625l.192.01a1.875 1.875 0 0 1 0 3.73l-.192.01h-2.5a1.875 1.875 0 0 1 0-3.75h.625v-1.875c0-.345.28-.625.625-.625h5V7.5h-1.25a1.875 1.875 0 0 1 0-3.75zm2.5 10a.625.625 0 1 0 0 1.25h2.5a.625.625 0 1 0 0-1.25zm-11.25 0a.625.625 0 1 0 0 1.25h2.5a.625.625 0 1 0 0-1.25zm5-8.75a.625.625 0 1 0 0 1.25h3.75a.625.625 0 1 0 0-1.25z" clip-rule="evenodd"/>
</svg>
