<svg xmlns="http://www.w3.org/2000/svg" viewBox="0 0 20 20"
 width="20" height="20" fill="none"
 role="presentation" aria-hidden="true">
<path fill="currentColor" fill-rule="evenodd" d="M17.066 3.76a1.875 1.875 0 0 1 0 3.73l-.191.01h-2.5a1.87 1.87 0 0 1-1.767-1.25H11.25v7.5h1.36c.257-.728.95-1.25 1.765-1.25h2.5l.192.01a1.875 1.875 0 0 1 0 3.73l-.191.01h-2.5A1.87 1.87 0 0 1 12.608 15h-1.984a.625.625 0 0 1-.624-.625v-3.75H7.39a1.87 1.87 0 0 1-1.765 1.25h-2.5c-.971 0-1.77-.738-1.866-1.683L1.25 10c0-1.035.84-1.875 1.876-1.875h2.5c.816 0 1.508.522 1.766 1.25H10v-3.75A.626.626 0 0 1 10.624 5h1.984c.258-.728.95-1.25 1.766-1.25h2.5zm-2.691 9.99a.625.625 0 0 0 0 1.25h2.5a.625.625 0 1 0 0-1.25zM3.124 9.375a.625.625 0 0 0 0 1.25h2.5a.625.625 0 0 0 0-1.25zM14.375 5a.625.625 0 0 0 0 1.25h2.5a.625.625 0 1 0 0-1.25z" clip-rule="evenodd"/>
</svg>
