<svg xmlns="http://www.w3.org/2000/svg" viewBox="0 0 20 20"
 width="20" height="20" fill="none"
 role="presentation" aria-hidden="true">
<g fill="currentColor" fill-rule="evenodd" clip-rule="evenodd"><path d="M13.329 5.867a.627.627 0 0 1 .794.788l-1.76 5.31a.63.63 0 0 1-.399.397l-5.309 1.761a.625.625 0 0 1-.79-.792l1.756-5.278a.63.63 0 0 1 .393-.394zm-5.884 6.676 3.158-1.049L8.49 9.402zm1.929-4.025 2.118 2.096 1.05-3.164z"/><path d="M10 1.25a8.75 8.75 0 1 1 0 17.5 8.75 8.75 0 0 1 0-17.5m0 1.25a7.5 7.5 0 1 0 0 15 7.5 7.5 0 0 0 0-15"/></g>
</svg>
