<svg xmlns="http://www.w3.org/2000/svg" viewBox="0 0 16 16"
 width="16" height="16" fill="none"
 role="presentation" aria-hidden="true">
<g fill="currentColor" fill-rule="evenodd" clip-rule="evenodd"><path d="M10.663 4.693a.502.502 0 0 1 .636.631l-1.41 4.247a.5.5 0 0 1-.318.319l-4.247 1.409a.5.5 0 0 1-.632-.634l1.405-4.223a.5.5 0 0 1 .314-.315zm-4.707 5.341 2.526-.839-1.69-1.674zM7.5 6.814l1.694 1.677.84-2.531z"/><path d="M8 1a7 7 0 1 1 0 14A7 7 0 0 1 8 1m0 1a6 6 0 1 0 0 12A6 6 0 0 0 8 2"/></g>
</svg>
