<svg xmlns="http://www.w3.org/2000/svg" viewBox="0 0 20 20"
 width="20" height="20" fill="none"
 role="presentation" aria-hidden="true">
<g fill="currentColor"><path d="M10 13.125A.937.937 0 1 1 10 15a.937.937 0 0 1 0-1.875M10.182 5a2.943 2.943 0 0 1 1.316 5.575l-.385.193a.88.88 0 0 0-.488.788v.319h-1.25v-.319c0-.807.457-1.545 1.18-1.906l.385-.193a1.693 1.693 0 0 0-.758-3.207H10c-1.036 0-1.875.84-1.875 1.875h-1.25C6.875 6.399 8.275 5 10 5z"/><path fill-rule="evenodd" d="M10 1.25a8.75 8.75 0 1 1 0 17.5 8.75 8.75 0 0 1 0-17.5m0 1.25a7.5 7.5 0 1 0 0 15 7.5 7.5 0 0 0 0-15" clip-rule="evenodd"/></g>
</svg>
