<svg xmlns="http://www.w3.org/2000/svg" viewBox="0 0 16 16"
 width="16" height="16" fill="none"
 role="presentation" aria-hidden="true">
<path fill="currentColor" d="M8.382 9.167h-.866v-.06c.006-1.164.339-1.519.902-1.877.36-.232.642-.561.642-1.029 0-.556-.418-.91-.933-.91-.463 0-.92.292-.957.957h-.92c.04-1.13.857-1.748 1.877-1.748 1.111 0 1.856.69 1.856 1.71 0 .707-.333 1.184-.875 1.522-.514.33-.714.653-.726 1.375zM8 11.4a.704.704 0 0 0 .702-.702A.705.705 0 0 0 8 10a.703.703 0 0 0-.702.698c0 .39.316.702.702.702"/><path fill="currentColor" fill-rule="evenodd" d="M14 8A6 6 0 1 1 2 8a6 6 0 0 1 12 0m-1 0A5 5 0 1 1 3 8a5 5 0 0 1 10 0" clip-rule="evenodd"/>
</svg>
