<svg xmlns="http://www.w3.org/2000/svg" viewBox="0 0 16 16"
 width="16" height="16" fill="none"
 role="presentation" aria-hidden="true">
<g fill="currentColor"><path d="M8 10.5A.75.75 0 1 1 8 12a.75.75 0 0 1 0-1.5M8.146 4a2.355 2.355 0 0 1 1.052 4.46l-.307.154a.71.71 0 0 0-.391.631V9.5h-1v-.255c0-.646.365-1.236.943-1.525l.309-.155A1.354 1.354 0 0 0 8.146 5H8a1.5 1.5 0 0 0-1.5 1.5h-1A2.5 2.5 0 0 1 8 4z"/><path fill-rule="evenodd" d="M8 1a7 7 0 1 1 0 14A7 7 0 0 1 8 1m0 1a6 6 0 1 0 0 12A6 6 0 0 0 8 2" clip-rule="evenodd"/></g>
</svg>
