<svg xmlns="http://www.w3.org/2000/svg" viewBox="0 0 20 20"
 width="20" height="20" fill="none"
 role="presentation" aria-hidden="true">
<g fill="currentColor"><path fill-rule="evenodd" d="m16.508 15.625-.883.884-2.167-2.167c-1 .4-2.152.658-3.458.658-2.987 0-5.164-1.345-6.577-2.668a11.6 11.6 0 0 1-1.574-1.818 10 10 0 0 1-.492-.783l-.026-.05-.009-.014-.002-.005-.002-.001.557-.286-.557-.286h.002l.002-.006.009-.014.026-.05.1-.176c.088-.149.22-.359.392-.607.346-.496.868-1.157 1.574-1.818.343-.32.731-.643 1.164-.947L3.491 4.375l.883-.883zM5.488 6.371c-.455.302-.859.63-1.212.96a10.3 10.3 0 0 0-1.68 2.044q.106.173.279.424c.307.44.773 1.031 1.401 1.62C5.533 12.595 7.42 13.749 10 13.75c.912 0 1.737-.148 2.48-.387l-1.605-1.604A2.5 2.5 0 0 1 7.74 8.623z" clip-rule="evenodd"/><path d="M10 3.75c2.987 0 5.164 1.345 6.577 2.668a11.6 11.6 0 0 1 1.574 1.818 10 10 0 0 1 .492.783l.026.05.009.014.002.005.002.001-.557.286.557.286h-.002l-.002.006-.009.014-.026.05-.1.176a10 10 0 0 1-.392.607 11.6 11.6 0 0 1-1.574 1.818q-.393.37-.867.728l-.893-.893c.332-.241.635-.494.907-.748a10.4 10.4 0 0 0 1.401-1.62 9 9 0 0 0 .277-.424 9 9 0 0 0-.277-.424 10.4 10.4 0 0 0-1.401-1.62C14.467 6.156 12.58 5.002 10 5c-.752 0-1.445.1-2.081.269L6.92 4.27A9.3 9.3 0 0 1 10 3.75"/><path d="M10.125 6.875a2.5 2.5 0 0 1 2.438 3.038L9.586 6.935q.261-.06.54-.06m-8.251 2.5-.557.286a.63.63 0 0 1 0-.572zm16.807-.285a.63.63 0 0 1 0 .57l-.557-.285z"/></g>
</svg>
