<svg xmlns="http://www.w3.org/2000/svg" viewBox="0 0 16 16"
 width="16" height="16" fill="none"
 role="presentation" aria-hidden="true">
<g fill="currentColor"><path fill-rule="evenodd" d="m13.206 12.5-.706.707-1.733-1.733A7.4 7.4 0 0 1 8 12c-2.39 0-4.13-1.076-5.262-2.135A9.3 9.3 0 0 1 1.48 8.411a8 8 0 0 1-.393-.626l-.022-.04-.006-.012-.002-.004h-.001L1.5 7.5l-.445-.229.003-.004.006-.012.022-.04q.027-.052.08-.14a8 8 0 0 1 .313-.486 9.3 9.3 0 0 1 1.26-1.454 8.5 8.5 0 0 1 .93-.758L2.794 3.5l.706-.706zM4.39 5.097a7.5 7.5 0 0 0-.97.768A8.3 8.3 0 0 0 2.078 7.5a8.3 8.3 0 0 0 1.344 1.635C4.426 10.075 5.936 11 8 11c.73 0 1.39-.119 1.983-.31L8.7 9.407a2 2 0 0 1-2.509-2.509z" clip-rule="evenodd"/><path d="M8 3c2.39 0 4.13 1.076 5.262 2.135a9.3 9.3 0 0 1 1.258 1.454 8 8 0 0 1 .394.626l.021.04.007.012.002.004h.001L14.5 7.5l.445.229-.003.004-.007.012-.02.04-.081.14c-.07.12-.175.288-.313.486a9.3 9.3 0 0 1-1.26 1.454q-.314.297-.693.583l-.714-.715q.398-.29.725-.598A8.3 8.3 0 0 0 13.922 7.5a8.3 8.3 0 0 0-1.343-1.635C11.574 4.925 10.064 4 8 4c-.602 0-1.156.08-1.665.215l-.799-.799A7.4 7.4 0 0 1 8 3"/><path d="M8.1 5.5a2 2 0 0 1 1.95 2.43L7.669 5.549q.208-.046.432-.048M1.5 7.5l-.445.229a.5.5 0 0 1 0-.458zm13.445-.229a.5.5 0 0 1 0 .458L14.5 7.5z"/></g>
</svg>
