<svg xmlns="http://www.w3.org/2000/svg" viewBox="0 0 20 20"
 width="20" height="20" fill="none"
 role="presentation" aria-hidden="true">
<path fill="currentColor" fill-rule="evenodd" d="M16.875 2.5a1.875 1.875 0 0 1 0 3.75h-.625V10c0 .345-.28.625-.625.625h-2.609a1.87 1.87 0 0 1-1.766 1.25h-2.5a1.87 1.87 0 0 1-1.766-1.25H5v3.125h.625a1.875 1.875 0 0 1 0 3.75h-2.5a1.875 1.875 0 0 1 0-3.75h.625V10c0-.345.28-.625.625-.625h2.609c.257-.728.95-1.25 1.766-1.25h2.5c.816 0 1.509.522 1.766 1.25H15V6.25h-.625a1.875 1.875 0 0 1 0-3.75zM3.125 15a.625.625 0 0 0 0 1.25h2.5a.625.625 0 1 0 0-1.25zM8.75 9.375a.625.625 0 0 0 0 1.25h2.5a.625.625 0 1 0 0-1.25zm5.625-5.625a.625.625 0 0 0 0 1.25h2.5a.625.625 0 1 0 0-1.25z" clip-rule="evenodd"/>
</svg>
