<svg xmlns="http://www.w3.org/2000/svg" viewBox="0 0 16 16"
 width="16" height="16" fill="none"
 role="presentation" aria-hidden="true">
<path fill="currentColor" fill-rule="evenodd" d="M7.36 2.247c.406-.19.877-.188 1.282.005l4.504 2.146c.521.25.854.777.854 1.355V12.5a1.5 1.5 0 0 1-1.5 1.5H9v-4H7v4H3.5A1.5 1.5 0 0 1 2 12.5V5.708a1.5 1.5 0 0 1 .864-1.358zm.85.907a.5.5 0 0 0-.426 0l-4.496 2.1A.5.5 0 0 0 3 5.709V12.5a.5.5 0 0 0 .5.5H6V9.5a.5.5 0 0 1 .5-.5h3a.5.5 0 0 1 .5.5V13h2.5a.5.5 0 0 0 .5-.5V5.753a.5.5 0 0 0-.285-.451z" clip-rule="evenodd"/>
</svg>
