<svg xmlns="http://www.w3.org/2000/svg" viewBox="0 0 20 20"
 width="20" height="20" fill="none"
 role="presentation" aria-hidden="true">
<path fill="currentColor" fill-rule="evenodd" d="M9.2 2.809a1.88 1.88 0 0 1 1.602.006l5.63 2.683c.652.311 1.068.97 1.068 1.693v8.434c0 1.035-.84 1.875-1.875 1.875H11.25v-5h-2.5v5H4.375A1.875 1.875 0 0 1 2.5 15.625v-8.49c0-.728.421-1.39 1.08-1.698zm1.064 1.134a.63.63 0 0 0-.534-.001L4.11 6.568a.63.63 0 0 0-.36.567v8.49c0 .345.28.625.625.625H7.5v-4.375c0-.345.28-.625.625-.625h3.75c.345 0 .625.28.625.625v4.375h3.125c.345 0 .625-.28.625-.625V7.19c0-.24-.139-.46-.356-.564z" clip-rule="evenodd"/>
</svg>
