<svg xmlns="http://www.w3.org/2000/svg" viewBox="0 0 16 16"
 width="16" height="16" fill="none"
 role="presentation" aria-hidden="true">
<path fill="currentColor" d="M4.5 1a.5.5 0 0 1 .5.5v1h6v-1a.5.5 0 0 1 1 0v1h.5A2.5 2.5 0 0 1 15 5v3.671a4.5 4.5 0 0 0-1-.913V5a1.5 1.5 0 0 0-1.5-1.5H12v1a.5.5 0 0 1-1 0v-1H5v1a.5.5 0 0 1-1 0v-1h-.5A1.5 1.5 0 0 0 2 5v7.5A1.5 1.5 0 0 0 3.5 14h4.258c.253.378.561.715.913 1H3.5A2.5 2.5 0 0 1 1 12.5V5a2.5 2.5 0 0 1 2.5-2.5H4v-1a.5.5 0 0 1 .5-.5"/><path fill="currentColor" fill-rule="evenodd" d="M11.5 8a3.5 3.5 0 1 1 0 7 3.5 3.5 0 0 1 0-7m2.5 3.5a2.5 2.5 0 1 1-3-2.45v2.45a.5.5 0 0 0 1 0V9.05a2.5 2.5 0 0 1 2 2.45" clip-rule="evenodd"/>
</svg>
