<svg xmlns="http://www.w3.org/2000/svg" viewBox="0 0 16 16"
 width="16" height="16" fill="none"
 role="presentation" aria-hidden="true">
<g fill="currentColor"><path d="m9.187 13.338-.917.583-.064.034a.5.5 0 0 1-.474-.034l-.917-.583.538-.844.648.414.648-.414zm-2.75-1.428-.538.844-1.834-1.166.538-.844zm5.5-.322-1.835 1.166-.537-.843 1.834-1.167zm-8.25-1.75L3.434 10l.253.162-.538.843-.917-.583A.5.5 0 0 1 2 10c0-.17.09-.33.233-.422l.917-.583zm10.083-.261a.502.502 0 0 1 0 .844l-.918.583-.537-.843.254-.162-.254-.16.537-.845z"/><path fill-rule="evenodd" d="M7.732 2.077a.5.5 0 0 1 .538 0l5.5 3.5a.502.502 0 0 1 0 .844l-2.48 1.577.647.412-.538.844-1.042-.663-2.087 1.33-.064.034a.5.5 0 0 1-.474-.034l-2.09-1.33-1.04.663-.537-.844.646-.412-2.479-1.577a.5.5 0 0 1 0-.844zM3.432 6l4.569 2.908L12.571 6 8 3.092z" clip-rule="evenodd"/></g>
</svg>
