<svg xmlns="http://www.w3.org/2000/svg" viewBox="0 0 20 20"
 width="20" height="20" fill="none"
 role="presentation" aria-hidden="true">
<g fill="currentColor"><path d="m11.483 16.673-1.146.729-.08.042a.63.63 0 0 1-.591-.042l-1.146-.73.67-1.054.812.516.81-.516zm-3.437-1.785-.671 1.055-2.293-1.458.671-1.054zm6.874-.403-2.292 1.458-.671-1.055 2.292-1.457zM4.608 12.298l-.316.201.316.202-.671 1.054-1.146-.728a.63.63 0 0 1-.292-.528c0-.213.112-.412.292-.527l1.146-.729zm12.604-.326a.628.628 0 0 1 0 1.055l-1.146.728-.671-1.054.317-.202-.317-.201.67-1.055z"/><path fill-rule="evenodd" d="M9.666 2.597a.63.63 0 0 1 .671 0l6.875 4.375a.627.627 0 0 1 0 1.055l-3.1 1.971.809.515-.671 1.055-1.303-.829-2.61 1.663-.08.042a.63.63 0 0 1-.591-.042l-2.613-1.663-1.3.829-.671-1.055.807-.515L2.79 8.027a.626.626 0 0 1 0-1.055zM4.29 7.499 10 11.133 15.714 7.5l-5.711-3.634z" clip-rule="evenodd"/></g>
</svg>
