<svg xmlns="http://www.w3.org/2000/svg" viewBox="0 0 16 16"
 width="16" height="16" fill="none"
 role="presentation" aria-hidden="true">
<path fill="currentColor" d="M8 1a7 7 0 0 1 .426.014l.075.006a7 7 0 0 1 .412.04c.618.08 1.209.24 1.765.471l.012.005.102.044.188.086.085.04.238.121.103.058.138.079a7.03 7.03 0 0 1 2.558 2.608l.07.124a7 7 0 0 1 .234.483 6.96 6.96 0 0 1 .586 3.108 6.96 6.96 0 0 1-.905 3.166l-.04.07a7.03 7.03 0 0 1-2.524 2.524l-.07.04a7 7 0 0 1-.611.31A7 7 0 0 1 8 15q-.465-.002-.914-.062l.129-.989a6 6 0 0 0 1.492.007 5.96 5.96 0 0 0 4.077-2.338 5.96 5.96 0 0 0 1.172-2.911Q13.998 8.359 14 8a6.1 6.1 0 0 0-.465-2.317 6.03 6.03 0 0 0-3.219-3.219 6.1 6.1 0 0 0-3.102-.413l-.128-.99Q7.536 1 8 1M4.348 12.76a6 6 0 0 0 1.355.785l-.383.923a7 7 0 0 1-1.582-.916zm-1.893-2.463c.202.487.467.942.784 1.355l-.792.609a7 7 0 0 1-.916-1.582zM2.05 7.215a6 6 0 0 0 0 1.57l-.99.128a7 7 0 0 1 0-1.827zm1.19-2.867a6 6 0 0 0-.785 1.355l-.924-.383c.236-.569.546-1.1.916-1.582zm2.463-1.893a6 6 0 0 0-1.355.784l-.61-.792a7 7 0 0 1 1.582-.916z"/>
</svg>
