<svg xmlns="http://www.w3.org/2000/svg" viewBox="0 0 20 20"
 width="20" height="20" fill="none"
 role="presentation" aria-hidden="true">
<g fill="currentColor"><path d="M6.875 3.75c.345 0 .625.28.625.625V6.25a.625.625 0 0 0 1.25 0V4.375c0-.345.28-.625.625-.625H10v2.5a1.875 1.875 0 0 1-3.75 0V5H4.375a.625.625 0 0 0-.625.625V8.75H5a1.875 1.875 0 0 1 0 3.75H3.75v3.125c0 .345.28.625.625.625H7.5V15a1.875 1.875 0 0 1 3.75 0v1.25h1.875c.345 0 .625-.28.625-.625v-2.5c0-.345.28-.625.625-.625h1.875a.625.625 0 0 0 0-1.25h-1.875a.625.625 0 0 1-.625-.625V8.75H15V10h1.25a1.875 1.875 0 0 1 0 3.75H15v1.875c0 1.035-.84 1.875-1.875 1.875h-2.5a.625.625 0 0 1-.625-.625V15a.625.625 0 0 0-1.25 0v1.875c0 .345-.28.625-.625.625h-3.75A1.875 1.875 0 0 1 2.5 15.625v-3.75c0-.345.28-.625.625-.625H5A.625.625 0 0 0 5 10H3.125a.625.625 0 0 1-.625-.625v-3.75c0-1.035.84-1.875 1.875-1.875z"/><path d="M16.875 2.5c.345 0 .625.28.625.625V8.75h-1.25V4.634l-6.433 6.433-.884-.884 6.433-6.433H11.25V2.5z"/></g>
</svg>
