<svg xmlns="http://www.w3.org/2000/svg" viewBox="0 0 16 16"
 width="16" height="16" fill="none"
 role="presentation" aria-hidden="true">
<g fill="currentColor"><path d="M5.5 3a.5.5 0 0 1 .5.5V5a.5.5 0 0 0 1 0V3.5a.5.5 0 0 1 .5-.5H8v2a1.5 1.5 0 0 1-3 0V4H3.5a.5.5 0 0 0-.5.5V7h1a1.5 1.5 0 0 1 0 3H3v2.5a.5.5 0 0 0 .5.5H6v-1a1.5 1.5 0 0 1 3 0v1h1.5a.5.5 0 0 0 .5-.5v-2a.5.5 0 0 1 .5-.5H13a.5.5 0 0 0 0-1h-1.5a.5.5 0 0 1-.5-.5V7h1v1h1a1.5 1.5 0 0 1 0 3h-1v1.5a1.5 1.5 0 0 1-1.5 1.5h-2a.5.5 0 0 1-.5-.5V12a.5.5 0 0 0-1 0v1.5a.5.5 0 0 1-.5.5h-3A1.5 1.5 0 0 1 2 12.5v-3a.5.5 0 0 1 .5-.5H4a.5.5 0 0 0 0-1H2.5a.5.5 0 0 1-.5-.5v-3A1.5 1.5 0 0 1 3.5 3z"/><path d="M13.5 2a.5.5 0 0 1 .5.5V7h-1V3.707L7.854 8.854l-.708-.708L12.293 3H9V2z"/></g>
</svg>
