<svg xmlns="http://www.w3.org/2000/svg" viewBox="0 0 20 20"
 width="20" height="20" fill="none"
 role="presentation" aria-hidden="true">
<g fill="currentColor"><path fill-rule="evenodd" d="M13.489 11.725c1.485 0 2.734.976 3.159 2.318a2.983 2.983 0 0 1 .049 5.939l-.016.002h-.016l-.24.012-.016.002h-5.76l-.015-.002-.208-.01h-.015l-.015-.003a2.646 2.646 0 0 1-2.364-2.378l-.012-.254c0-1.296.933-2.374 2.164-2.601a3.32 3.32 0 0 1 3.305-3.025m0 1.25a2.07 2.07 0 0 0-2.07 2.07l.013.225.08.743-.745-.052-.1-.006c-.771 0-1.397.625-1.397 1.396l.006.134a1.396 1.396 0 0 0 1.237 1.253l.163.01h5.71l.191-.011a1.733 1.733 0 0 0-.361-3.449l-.597.061-.084-.596a2.07 2.07 0 0 0-2.046-1.778" clip-rule="evenodd"/><path d="M6.875 1.25c.345 0 .625.28.625.625V3.75a.625.625 0 0 0 1.25 0V1.875c0-.345.28-.625.625-.625h2.5c1.036 0 1.875.84 1.875 1.875V5H15a1.875 1.875 0 0 1 0 3.75h-1.25V10H12.5V8.125c0-.345.28-.625.625-.625H15a.625.625 0 0 0 0-1.25h-1.875a.625.625 0 0 1-.625-.625v-2.5a.625.625 0 0 0-.625-.625H10v1.25a1.875 1.875 0 0 1-3.75 0V2.5H3.125a.625.625 0 0 0-.625.625V6.25h1.25a1.875 1.875 0 0 1 0 3.75H2.5v3.125c0 .345.28.625.625.625H6.25V12.5a1.875 1.875 0 0 1 3.75 0H8.75a.625.625 0 0 0-1.25 0v1.875c0 .345-.28.625-.625.625h-3.75a1.875 1.875 0 0 1-1.875-1.875v-3.75c0-.345.28-.625.625-.625H3.75a.625.625 0 0 0 0-1.25H1.875a.625.625 0 0 1-.625-.625v-3.75c0-1.035.84-1.875 1.875-1.875z"/></g>
</svg>
