<svg xmlns="http://www.w3.org/2000/svg" viewBox="0 0 16 16"
 width="16" height="16" fill="none"
 role="presentation" aria-hidden="true">
<g fill="currentColor"><path fill-rule="evenodd" d="M10.791 9.38a2.65 2.65 0 0 1 2.527 1.854 2.386 2.386 0 0 1 .04 4.751l-.013.002h-.013l-.192.01-.013.001h-4.62l-.166-.01h-.012l-.013-.002c-1-.102-1.795-.9-1.89-1.902l-.01-.203c0-1.037.747-1.9 1.731-2.081a2.655 2.655 0 0 1 2.644-2.42m0 1c-.914 0-1.655.742-1.655 1.656l.01.18.064.595-.597-.042-.08-.005c-.617 0-1.117.5-1.117 1.117l.005.107c.05.526.466.945.99 1.002l.13.008h4.567l.154-.009a1.386 1.386 0 0 0-.29-2.759l-.477.05-.067-.477a1.654 1.654 0 0 0-1.637-1.423" clip-rule="evenodd"/><path d="M5.5 1a.5.5 0 0 1 .5.5V3a.5.5 0 0 0 1 0V1.5a.5.5 0 0 1 .5-.5h2A1.5 1.5 0 0 1 11 2.5V4h1a1.5 1.5 0 0 1 0 3h-1v1h-1V6.5a.5.5 0 0 1 .5-.5H12a.5.5 0 0 0 0-1h-1.5a.5.5 0 0 1-.5-.5v-2a.5.5 0 0 0-.5-.5H8v1a1.5 1.5 0 0 1-3 0V2H2.5a.5.5 0 0 0-.5.5V5h1a1.5 1.5 0 0 1 0 3H2v2.5a.5.5 0 0 0 .5.5H5v-1a1.5 1.5 0 0 1 3 0H7a.5.5 0 0 0-1 0v1.5a.5.5 0 0 1-.5.5h-3A1.5 1.5 0 0 1 1 10.5v-3a.5.5 0 0 1 .5-.5H3a.5.5 0 0 0 0-1H1.5a.5.5 0 0 1-.5-.5v-3A1.5 1.5 0 0 1 2.5 1z"/></g>
</svg>
