<svg xmlns="http://www.w3.org/2000/svg" viewBox="0 0 16 16"
 width="16" height="16" fill="none"
 role="presentation" aria-hidden="true">
<g fill="currentColor"><path d="M10.5 7.75a.75.75 0 1 1 0 1.5.75.75 0 0 1 0-1.5M9 9H5V8h4zm1.5-4.25a.75.75 0 1 1 0 1.5.75.75 0 0 1 0-1.5M9 6H5V5h4z"/><path fill-rule="evenodd" d="M12.5 1a.5.5 0 0 1 .5.5v13a.5.5 0 0 1-.777.416L11 14.101l-1.223.815a.5.5 0 0 1-.554 0L8 14.101l-1.223.815a.5.5 0 0 1-.554 0L5 14.101l-1.223.815A.5.5 0 0 1 3 14.5v-13a.5.5 0 0 1 .5-.5zM4 13.565l.723-.481.065-.037a.5.5 0 0 1 .49.037l1.222.814 1.223-.814.065-.037a.5.5 0 0 1 .49.037l1.222.814 1.223-.814.065-.037a.5.5 0 0 1 .49.037l.722.481V2H4z" clip-rule="evenodd"/></g>
</svg>
