<svg xmlns="http://www.w3.org/2000/svg" viewBox="0 0 16 16"
 width="16" height="16" fill="none"
 role="presentation" aria-hidden="true">
<path fill="currentColor" fill-rule="evenodd" d="M8 11.742a4.5 4.5 0 1 1 0-7.484 4.5 4.5 0 1 1 0 7.484m-.8-.682a3.5 3.5 0 1 1 0-6.12A4.48 4.48 0 0 0 6 8c0 1.182.455 2.257 1.2 3.06m1.6-6.12a3.5 3.5 0 1 1 0 6.12A4.48 4.48 0 0 0 10 8a4.48 4.48 0 0 0-1.2-3.06m-.8.61c.619.632 1 1.496 1 2.45s-.381 1.818-1 2.45A3.5 3.5 0 0 1 7 8c0-.954.381-1.818 1-2.45" clip-rule="evenodd"/>
</svg>
