<svg xmlns="http://www.w3.org/2000/svg" viewBox="0 0 20 20"
 width="20" height="20" fill="none"
 role="presentation" aria-hidden="true">
<path fill="currentColor" fill-rule="evenodd" d="M10 14.678a5.625 5.625 0 1 1 0-9.356 5.625 5.625 0 1 1 0 9.356m-1-.853a4.375 4.375 0 1 1 0-7.65A5.6 5.6 0 0 0 7.5 10c0 1.477.57 2.821 1.5 3.825m2-7.65a4.375 4.375 0 1 1 0 7.65A5.6 5.6 0 0 0 12.5 10c0-1.477-.57-2.821-1.5-3.825m-1 .763c.773.79 1.25 1.87 1.25 3.062A4.36 4.36 0 0 1 10 13.062 4.36 4.36 0 0 1 8.75 10 4.36 4.36 0 0 1 10 6.938" clip-rule="evenodd"/>
</svg>
