<svg xmlns="http://www.w3.org/2000/svg" viewBox="0 0 20 20"
 width="20" height="20" fill="none"
 role="presentation" aria-hidden="true">
<path fill="currentColor" d="M8.726 17.195a1.07 1.07 0 0 1-.76.313c-.299 0-.565-.12-.756-.313h-.005a1.07 1.07 0 0 1-.312-.76c0-.299.12-.566.312-.757l.005-.005c.19-.193.457-.311.755-.311.3 0 .568.118.76.311l.004.005c.193.191.311.458.311.757 0 .298-.118.567-.311.76zm-.76-14.688c.298 0 .567.121.76.312l.003.005c.193.19.311.46.311.755 0 .3-.118.567-.311.761h-.003a1.06 1.06 0 0 1-.76.314c-.299 0-.565-.118-.756-.314h-.005a1.075 1.075 0 0 1 0-1.516l.005-.005c.19-.19.457-.312.755-.312m5.846 3.25c.266.07.506.24.653.499l.02.037c.13.245.154.527.085.778a1.06 1.06 0 0 1-.5.653l-.016.01c-.25.137-.536.167-.799.096a1.05 1.05 0 0 1-.652-.5 1.07 1.07 0 0 1-.108-.815 1.1 1.1 0 0 1 .5-.654h.001a1.08 1.08 0 0 1 .816-.104m-4.746 5.35a1.55 1.55 0 0 1-2.652-1.097c0-.431.173-.82.453-1.103a1.556 1.556 0 0 1 2.2 2.2m-.619 1.829a2.95 2.95 0 0 0 1.614-.834h.004q.102-.104.196-.218l1.071.62c-.144.435-.15.89-.035 1.317a2.3 2.3 0 0 0 1.079 1.404l.018.01a2.31 2.31 0 0 0 3.143-.857 2.31 2.31 0 0 0-.847-3.16l-.146-.086h-.015a2.32 2.32 0 0 0-2.717.542l-1.07-.618a3 3 0 0 0 0-2.098l1.07-.616c.306.342.696.575 1.122.688.57.156 1.203.09 1.756-.233l.036-.017v-.002a2.3 2.3 0 0 0 1.043-1.388c.152-.566.087-1.2-.232-1.752l-.019-.039-.002.003a2.33 2.33 0 0 0-1.383-1.046 2.33 2.33 0 0 0-1.757.231v.005a2.3 2.3 0 0 0-1.079 1.404 2.27 2.27 0 0 0 .035 1.315l-1.071.618a3 3 0 0 0-.196-.215l-.004-.003a2.94 2.94 0 0 0-1.614-.828V5.845a2.3 2.3 0 0 0 1.156-.628l.002-.003a2.3 2.3 0 0 0 .677-1.635 2.3 2.3 0 0 0-.678-1.63l-.001-.007a2.313 2.313 0 0 0-3.272 0H6.33v.006a2.3 2.3 0 0 0 0 3.266v.003h.001a2.3 2.3 0 0 0 1.155.628v1.238c-.625.1-1.184.398-1.612.828l-.005.003a2.96 2.96 0 0 0 0 4.188h.005a2.94 2.94 0 0 0 1.612.834v1.232a2.35 2.35 0 0 0-1.155.63H6.33v.003a2.307 2.307 0 0 0 0 3.268l.001.003a2.31 2.31 0 0 0 3.272 0v-.003h.002a2.31 2.31 0 0 0 0-3.268l-.002-.004a2.35 2.35 0 0 0-1.156-.629zm6.018.822-.009.013a1.08 1.08 0 0 1-1.462.38h.002a1.07 1.07 0 0 1-.393-1.468l.005-.006c.148-.253.384-.422.647-.49a1.05 1.05 0 0 1 .814.104l.014.007a1.08 1.08 0 0 1 .382 1.46"/>
</svg>
