<svg xmlns="http://www.w3.org/2000/svg" viewBox="0 0 16 16"
 width="16" height="16" fill="none"
 role="presentation" aria-hidden="true">
<path fill="currentColor" d="M6.98 13.756a.85.85 0 0 1-.608.25.84.84 0 0 1-.604-.25h-.004a.86.86 0 0 1-.25-.608.85.85 0 0 1 .25-.606l.004-.004a.84.84 0 0 1 .604-.249c.24 0 .455.095.609.25l.002.003c.155.153.25.367.25.606a.86.86 0 0 1-.25.608zm-.608-11.75a.86.86 0 0 1 .609.249l.002.004c.155.153.25.368.25.604 0 .24-.095.454-.25.609h-.002a.85.85 0 0 1-.609.251.84.84 0 0 1-.604-.251h-.004a.86.86 0 0 1 0-1.213l.004-.004a.85.85 0 0 1 .604-.25m4.677 2.6a.85.85 0 0 1 .523.398l.016.03a.85.85 0 0 1 .068.622.85.85 0 0 1-.4.523l-.013.008a.86.86 0 0 1-.848-1.498h.002a.86.86 0 0 1 .652-.083m-3.796 4.28a1.244 1.244 0 0 1-1.76 0 1.25 1.25 0 0 1 0-1.76 1.245 1.245 0 0 1 1.76 1.76m-.495 1.463a2.36 2.36 0 0 0 1.291-.667h.003q.082-.084.157-.175l.857.496a1.8 1.8 0 0 0-.028 1.053c.122.458.418.867.862 1.124l.015.008a1.85 1.85 0 0 0 2.515-.686 1.85 1.85 0 0 0-.678-2.527l-.117-.07h-.012a1.85 1.85 0 0 0-2.174.433l-.855-.493a2.4 2.4 0 0 0 0-1.679l.856-.493c.244.274.556.46.897.55.456.125.963.072 1.405-.186l.028-.013v-.002c.428-.258.715-.659.835-1.11.122-.453.07-.96-.185-1.402l-.015-.03-.002.002a1.86 1.86 0 0 0-1.107-.837A1.86 1.86 0 0 0 9.9 3.83v.003a1.845 1.845 0 0 0-.834 2.176l-.857.494a2 2 0 0 0-.157-.172l-.003-.002a2.35 2.35 0 0 0-1.291-.663v-.99a1.85 1.85 0 0 0 .924-.502l.002-.003a1.84 1.84 0 0 0 0-2.612l-.002-.006a1.854 1.854 0 0 0-2.617 0h-.001v.006a1.84 1.84 0 0 0 0 2.612v.003h.001c.25.25.569.427.924.502v.99c-.5.08-.948.319-1.29.663l-.004.002a2.37 2.37 0 0 0 0 3.35H4.7c.342.346.79.585 1.29.668v.986a1.9 1.9 0 0 0-.924.503h-.001v.002a1.845 1.845 0 0 0 0 2.615l.001.002a1.847 1.847 0 0 0 2.617 0v-.002h.002a1.85 1.85 0 0 0 0-2.615l-.002-.002a1.9 1.9 0 0 0-.924-.503zm4.814.657-.007.01a.863.863 0 0 1-1.17.305h.002a.86.86 0 0 1-.315-1.174l.004-.006a.85.85 0 0 1 .518-.392.84.84 0 0 1 .651.084l.011.005a.86.86 0 0 1 .306 1.168"/>
</svg>
