<svg xmlns="http://www.w3.org/2000/svg" viewBox="0 0 16 16"
 width="16" height="16" fill="none"
 role="presentation" aria-hidden="true">
<path fill="currentColor" d="M11 11H5v-1h6zM3.5 5H5v1.5H3.5zM6 5h1.5v1.5H6zM8.5 5H10v1.5H8.5zM11 5h1.5v1.5H11zM3.5 7.5H5V9H3.5zM6 7.5h1.5V9H6zM8.5 7.5H10V9H8.5zM11 7.5h1.5V9H11z"/><path fill="currentColor" fill-rule="evenodd" d="M3.2 3A2.2 2.2 0 0 0 1 5.2v5.6A2.2 2.2 0 0 0 3.2 13h9.6a2.2 2.2 0 0 0 2.2-2.2V5.2A2.2 2.2 0 0 0 12.8 3zm9.6 1H3.2A1.2 1.2 0 0 0 2 5.2v5.6A1.2 1.2 0 0 0 3.2 12h9.6a1.2 1.2 0 0 0 1.2-1.2V5.2A1.2 1.2 0 0 0 12.8 4" clip-rule="evenodd"/>
</svg>
