<svg xmlns="http://www.w3.org/2000/svg" viewBox="0 0 16 16"
 width="16" height="16" fill="none"
 role="presentation" aria-hidden="true">
<g fill="currentColor"><path fill-rule="evenodd" d="M10.505 5.944a.5.5 0 0 1 .457.297L14.41 14h-1.095l-.888-2H8.583l-.889 2H6.6l3.448-7.759.034-.064a.5.5 0 0 1 .423-.233M9.027 11h2.955l-1.477-3.325z" clip-rule="evenodd"/><path d="M6 3h3v1H7.981c-.107 1.542-.708 2.936-1.663 4.128.562.506 1.095.894 1.461 1.14l-.279.415-.28.415a14 14 0 0 1-1.57-1.226c-.816.817-1.81 1.517-2.926 2.075l-.448-.894c1.035-.518 1.933-1.152 2.66-1.88-.767-.81-1.515-1.83-1.91-3.015l.949-.316c.323.971.942 1.846 1.627 2.58C6.392 6.408 6.877 5.25 6.979 4H2V3h3V1.5h1z"/></g>
</svg>
