<svg xmlns="http://www.w3.org/2000/svg" viewBox="0 0 20 20"
 width="20" height="20" fill="none"
 role="presentation" aria-hidden="true">
<g fill="currentColor"><path fill-rule="evenodd" d="M13.131 7.43c.247 0 .471.146.571.372l4.31 9.698h-1.368l-1.11-2.5h-4.805l-1.111 2.5H8.25l4.31-9.698.042-.081a.63.63 0 0 1 .53-.29m-1.847 6.32h3.694l-1.847-4.156z" clip-rule="evenodd"/><path d="M7.5 3.75h3.75V5H9.977c-.134 1.928-.885 3.67-2.08 5.16a17 17 0 0 0 1.827 1.426l-.349.517-.35.52a18 18 0 0 1-1.962-1.533c-1.021 1.021-2.263 1.896-3.658 2.594l-.56-1.118c1.294-.647 2.416-1.44 3.326-2.349-.96-1.012-1.895-2.287-2.39-3.77l1.187-.395C5.373 7.266 6.147 8.36 7.002 9.28 7.989 8.009 8.596 6.562 8.724 5H2.5V3.75h3.75V1.875H7.5z"/></g>
</svg>
