<svg xmlns="http://www.w3.org/2000/svg" viewBox="0 0 20 20"
 width="20" height="20" fill="none"
 role="presentation" aria-hidden="true">
<path fill="currentColor" fill-rule="evenodd" d="M8.125 2.5c.345 0 .625.28.625.625v13.75c0 .345-.28.625-.625.625h-5a.625.625 0 0 1-.625-.625V3.125c0-.345.28-.625.625-.625zM3.75 16.25H7.5V3.75H3.75zm13.125-5c.345 0 .625.28.625.625v5c0 .345-.28.625-.625.625h-5a.625.625 0 0 1-.625-.625v-5c0-.345.28-.625.625-.625zm-4.375 5h3.75V12.5H12.5zM16.875 2.5c.345 0 .625.28.625.625v5c0 .345-.28.625-.625.625h-5a.625.625 0 0 1-.625-.625v-5c0-.345.28-.625.625-.625zm-4.375 5h3.75V3.75H12.5z" clip-rule="evenodd"/>
</svg>
