<svg xmlns="http://www.w3.org/2000/svg" viewBox="0 0 20 20"
 width="20" height="20" fill="none"
 role="presentation" aria-hidden="true">
<path fill="currentColor" fill-rule="evenodd" d="M10 1.249A8.75 8.75 0 0 1 18.751 10l-.012.45A8.75 8.75 0 0 1 10 18.751l-.45-.012A8.751 8.751 0 0 1 10 1.249m-7.473 9.376a7.5 7.5 0 0 0 6.848 6.847v-3.143a4.375 4.375 0 0 1-3.705-3.704zm11.803 0a4.38 4.38 0 0 1-3.705 3.704v3.143a7.5 7.5 0 0 0 6.848-6.847zM10 6.875a3.125 3.125 0 1 0 0 6.25 3.125 3.125 0 0 0 0-6.25m.625-1.206-.038-.005a4.38 4.38 0 0 1 3.743 3.711h3.143a7.5 7.5 0 0 0-6.848-6.848zm-1.25-3.142a7.5 7.5 0 0 0-6.848 6.848H5.67a4.38 4.38 0 0 1 3.74-3.71q-.018 0-.035.004z" clip-rule="evenodd"/>
</svg>
