<svg xmlns="http://www.w3.org/2000/svg" viewBox="0 0 16 16"
 width="16" height="16" fill="none"
 role="presentation" aria-hidden="true">
<path fill="currentColor" fill-rule="evenodd" d="M8 1a5 5 0 0 1 4.32 7.518l-.473.824c-.461.836-.847 1.712-.847 2.655V13a2 2 0 0 1-2 2H7a2 2 0 0 1-2-2v-1.003c0-.943-.386-1.819-.847-2.655l-.473-.824A5 5 0 0 1 8 1M6 13a1 1 0 0 0 1 1h2a1 1 0 0 0 1-1zM8 2a4 4 0 0 0-3.457 6.013C5.139 9.033 6 10.416 6 11.997V12h.293l1-1-.232-.232C6.224 9.93 6.817 8.5 8 8.5s1.776 1.43.94 2.268L8.706 11l1 1H10v-.003c0-1.582.861-2.965 1.457-3.984A4 4 0 0 0 8 2m-.293 10h.586L8 11.707zM8 9.5a.328.328 0 0 0-.232.56l.232.233.232-.232A.328.328 0 0 0 8 9.5" clip-rule="evenodd"/>
</svg>
