<svg xmlns="http://www.w3.org/2000/svg" viewBox="0 0 20 20"
 width="20" height="20" fill="none"
 role="presentation" aria-hidden="true">
<path fill="currentColor" fill-rule="evenodd" d="M10 1.25a6.25 6.25 0 0 1 5.4 9.397l-.592 1.03c-.575 1.046-1.058 2.14-1.058 3.32v1.253a2.5 2.5 0 0 1-2.5 2.5h-2.5a2.5 2.5 0 0 1-2.5-2.5v-1.254c0-1.179-.482-2.273-1.058-3.319l-.592-1.03A6.25 6.25 0 0 1 10 1.25m-2.5 15c0 .69.56 1.25 1.25 1.25h2.5c.69 0 1.25-.56 1.25-1.25zM10 2.5a5 5 0 0 0-4.321 7.516c.744 1.274 1.821 3.003 1.821 4.98V15h.366l1.25-1.25-.29-.29C7.78 12.413 8.52 10.625 10 10.625s2.22 1.788 1.174 2.835l-.29.29 1.25 1.25h.366v-.004c0-1.977 1.077-3.706 1.821-4.98A5 5 0 0 0 10 2.5M9.634 15h.732L10 14.634zM10 11.875a.41.41 0 0 0-.29.7l.29.291.29-.29a.41.41 0 0 0-.29-.701" clip-rule="evenodd"/>
</svg>
