<svg xmlns="http://www.w3.org/2000/svg" viewBox="0 0 20 20"
 width="20" height="20" fill="none"
 role="presentation" aria-hidden="true">
<path fill="currentColor" fill-rule="evenodd" d="M10.625 2.5c1.036 0 1.875.84 1.875 1.875V5h3.125c1.035 0 1.875.84 1.875 1.875v8.75c0 1.035-.84 1.875-1.875 1.875h-6.25A1.875 1.875 0 0 1 7.5 15.625V15H4.375A1.875 1.875 0 0 1 2.5 13.125v-8.75c0-1.036.84-1.875 1.875-1.875zM12.5 13.125c0 1.036-.84 1.875-1.875 1.875H8.75v.625c0 .345.28.625.625.625h6.25c.345 0 .625-.28.625-.625v-8.75a.625.625 0 0 0-.625-.625H12.5zM4.375 3.75a.625.625 0 0 0-.625.625v8.75c0 .345.28.625.625.625H7.5V6.875C7.5 5.839 8.34 5 9.375 5h1.875v-.625a.625.625 0 0 0-.625-.625zm4.634 10h1.616c.345 0 .625-.28.625-.625v-1.616zm-.259-3.179v1.67l2.5-2.5v-1.67zm.625-4.321a.625.625 0 0 0-.625.625v1.929l2.5-2.5V6.25z" clip-rule="evenodd"/>
</svg>
