<svg xmlns="http://www.w3.org/2000/svg" viewBox="0 0 20 20"
 width="20" height="20" fill="none"
 role="presentation" aria-hidden="true">
<g fill="currentColor"><path d="m5 16.875.012.126c.058.285.31.499.613.499h1.094v1.25H5.625c-.97 0-1.77-.738-1.865-1.683l-.01-.192v-1.146H5zm6.094 1.875H8.906V17.5h2.188zm5.156-1.875c0 1.035-.84 1.875-1.875 1.875h-1.094V17.5h1.094c.345 0 .625-.28.625-.625v-1.146h1.25zm-5-3.125h-5V12.5h5zM5 13.438H3.75v-2.292H5zm11.25 0H15v-2.292h1.25zm-2.5-2.188h-7.5V10h7.5zM5 8.854H3.75V6.563H5zm11.25 0H15V6.563h1.25z"/><path fill-rule="evenodd" d="M9.5 5.012c.286.058.5.31.5.613v2.5l-.012.126a.63.63 0 0 1-.487.487l-.126.012h-2.5a.626.626 0 0 1-.613-.5l-.012-.125v-2.5c0-.345.28-.625.625-.625h2.5zM7.5 7.5h1.25V6.25H7.5z" clip-rule="evenodd"/><path d="M6.719 2.5H5.625A.625.625 0 0 0 5 3.125v1.146H3.75V3.125c0-1.036.84-1.875 1.875-1.875h1.094zm7.656-1.25c1.036 0 1.875.84 1.875 1.875v1.146H15V3.125a.625.625 0 0 0-.625-.625h-1.094V1.25zM11.094 2.5H8.906V1.25h2.188z"/></g>
</svg>
