<svg xmlns="http://www.w3.org/2000/svg" viewBox="0 0 16 16"
 width="16" height="16" fill="none"
 role="presentation" aria-hidden="true">
<path fill="currentColor" fill-rule="evenodd" d="M8.5 2A1.5 1.5 0 0 1 10 3.5V4h2.5A1.5 1.5 0 0 1 14 5.5v7a1.5 1.5 0 0 1-1.5 1.5h-5A1.5 1.5 0 0 1 6 12.5V12H3.5A1.5 1.5 0 0 1 2 10.5v-7A1.5 1.5 0 0 1 3.5 2zm1.5 8.5A1.5 1.5 0 0 1 8.5 12H7v.5a.5.5 0 0 0 .5.5h5a.5.5 0 0 0 .5-.5v-7a.5.5 0 0 0-.5-.5H10zM3.5 3a.5.5 0 0 0-.5.5v7a.5.5 0 0 0 .5.5H6V5.5A1.5 1.5 0 0 1 7.5 4H9v-.5a.5.5 0 0 0-.5-.5zm3.707 8H8.5a.5.5 0 0 0 .5-.5V9.207zM7 8.457v1.336l2-2V6.457zM7.5 5a.5.5 0 0 0-.5.5v1.543l2-2V5z" clip-rule="evenodd"/>
</svg>
