<svg xmlns="http://www.w3.org/2000/svg" viewBox="0 0 16 16"
 width="16" height="16" fill="none"
 role="presentation" aria-hidden="true">
<g fill="currentColor"><path d="M9 11H5v-1h4zm2-2H5V8h6z"/><path fill-rule="evenodd" d="M7.6 4.01a.5.5 0 0 1 .4.49v2l-.01.1a.5.5 0 0 1-.39.39L7.5 7h-2a.5.5 0 0 1-.49-.4L5 6.5v-2a.5.5 0 0 1 .5-.5h2zM6 6h1V5H6z" clip-rule="evenodd"/><path fill-rule="evenodd" d="M11.5 1A1.5 1.5 0 0 1 13 2.5v11a1.5 1.5 0 0 1-1.5 1.5h-7A1.5 1.5 0 0 1 3 13.5v-11A1.5 1.5 0 0 1 4.5 1zm-7 1a.5.5 0 0 0-.5.5v11a.5.5 0 0 0 .5.5h7a.5.5 0 0 0 .5-.5v-11a.5.5 0 0 0-.5-.5z" clip-rule="evenodd"/></g>
</svg>
