<svg xmlns="http://www.w3.org/2000/svg" viewBox="0 0 20 20"
 width="20" height="20" fill="none"
 role="presentation" aria-hidden="true">
<g fill="currentColor"><path d="M11.25 13.75h-5V12.5h5zm2.5-2.5h-7.5V10h7.5z"/><path fill-rule="evenodd" d="M9.5 5.012c.286.058.5.311.5.613v2.5l-.012.126a.63.63 0 0 1-.487.487l-.126.012h-2.5a.626.626 0 0 1-.613-.5l-.012-.125v-2.5c0-.345.28-.625.625-.625h2.5zM7.5 7.5h1.25V6.25H7.5z" clip-rule="evenodd"/><path fill-rule="evenodd" d="M14.375 1.25c1.036 0 1.875.84 1.875 1.875v13.75c0 1.035-.84 1.875-1.875 1.875h-8.75a1.875 1.875 0 0 1-1.875-1.875V3.125c0-1.035.84-1.875 1.875-1.875zM5.625 2.5A.625.625 0 0 0 5 3.125v13.75c0 .345.28.625.625.625h8.75c.345 0 .625-.28.625-.625V3.125a.625.625 0 0 0-.625-.625z" clip-rule="evenodd"/></g>
</svg>
