<svg xmlns="http://www.w3.org/2000/svg" viewBox="0 0 16 16"
 width="16" height="16" fill="none"
 role="presentation" aria-hidden="true">
<g fill="currentColor" fill-rule="evenodd" clip-rule="evenodd"><path d="M8 4a2.5 2.5 0 1 1 0 5 2.5 2.5 0 0 1 0-5m0 1a1.5 1.5 0 1 0 0 3 1.5 1.5 0 0 0 0-3"/><path d="M4.284 3.382a5 5 0 0 1 7.433 0c.822.914 1.304 2.111 1.268 3.361-.043 1.485-.214 2.458-.907 3.61-.663 1.102-1.806 2.37-3.707 4.482a.5.5 0 0 1-.743 0c-1.901-2.112-3.044-3.38-3.706-4.482-.693-1.152-.864-2.125-.907-3.61-.037-1.25.447-2.447 1.27-3.361m6.69.669a4 4 0 0 0-5.947 0c-.665.739-1.04 1.69-1.012 2.663.04 1.395.193 2.177.763 3.125.56.932 1.521 2.02 3.221 3.911 1.7-1.891 2.662-2.98 3.223-3.912.57-.948.723-1.729.763-3.124.029-.972-.347-1.924-1.011-2.663"/></g>
</svg>
