<svg xmlns="http://www.w3.org/2000/svg" viewBox="0 0 20 20"
 width="20" height="20" fill="none"
 role="presentation" aria-hidden="true">
<g fill="currentColor" fill-rule="evenodd" clip-rule="evenodd"><path d="M10 5a3.125 3.125 0 1 1 0 6.25A3.125 3.125 0 0 1 10 5m0 1.25A1.875 1.875 0 1 0 10 10a1.875 1.875 0 0 0 0-3.75"/><path d="M5.355 4.227a6.25 6.25 0 0 1 9.29 0c1.029 1.143 1.632 2.64 1.586 4.202-.053 1.856-.268 3.073-1.134 4.513-.828 1.377-2.257 2.961-4.633 5.602a.625.625 0 0 1-.93 0c-2.376-2.64-3.804-4.225-4.632-5.602-.866-1.44-1.08-2.657-1.134-4.513-.045-1.563.559-3.06 1.587-4.202m8.362.837a5 5 0 0 0-7.433 0c-.831.923-1.301 2.113-1.266 3.328.05 1.745.242 2.722.955 3.907.7 1.165 1.901 2.526 4.025 4.889 2.126-2.364 3.328-3.725 4.029-4.89.712-1.185.904-2.161.954-3.906.036-1.215-.433-2.405-1.264-3.328"/></g>
</svg>
