<svg xmlns="http://www.w3.org/2000/svg" viewBox="0 0 20 20"
 width="20" height="20" fill="none"
 role="presentation" aria-hidden="true">
<path fill="currentColor" fill-rule="evenodd" d="M10 2.5a3.75 3.75 0 0 1 3.75 3.75v2.5h.625c1.036 0 1.875.84 1.875 1.875v5c0 1.035-.84 1.875-1.875 1.875h-8.75c-.97 0-1.77-.738-1.865-1.683l-.01-.192v-5c0-1.035.84-1.875 1.875-1.875h.625v-2.5A3.75 3.75 0 0 1 10 2.5M5.625 10a.625.625 0 0 0-.625.625v5l.012.126c.058.285.31.499.613.499h8.75c.345 0 .625-.28.625-.625v-5a.625.625 0 0 0-.625-.625zM10 3.75a2.5 2.5 0 0 0-2.5 2.5v2.5h5v-2.5a2.5 2.5 0 0 0-2.5-2.5" clip-rule="evenodd"/>
</svg>
