<svg xmlns="http://www.w3.org/2000/svg" viewBox="0 0 16 16"
 width="16" height="16" fill="none"
 role="presentation" aria-hidden="true">
<path fill="currentColor" fill-rule="evenodd" d="M8 1a2.5 2.5 0 0 1 2.5 2.5c0 .378-.087.735-.237 1.056l1.18 1.18A2.5 2.5 0 1 1 12.5 10.5c-.378 0-.735-.087-1.057-.237l-1.18 1.18a2.5 2.5 0 1 1-4.526 0l-1.181-1.18c-.321.15-.678.237-1.056.237a2.5 2.5 0 1 1 1.056-4.764l1.18-1.18A2.5 2.5 0 0 1 8 1m0 10a1.5 1.5 0 1 0 0 3 1.5 1.5 0 0 0 0-3m1.658-5.635a2.486 2.486 0 0 1-3.317 0l-.976.976a2.487 2.487 0 0 1 0 3.317l.976.976a2.49 2.49 0 0 1 3.317 0l.976-.976a2.487 2.487 0 0 1 0-3.317zM3.5 6.5a1.5 1.5 0 1 0 0 3 1.5 1.5 0 0 0 0-3m9 0a1.5 1.5 0 1 0 0 3 1.5 1.5 0 0 0 0-3M8 2a1.5 1.5 0 1 0 0 3 1.5 1.5 0 0 0 0-3" clip-rule="evenodd"/>
</svg>
