<svg xmlns="http://www.w3.org/2000/svg" viewBox="0 0 20 20"
 width="20" height="20" fill="none"
 role="presentation" aria-hidden="true">
<path fill="currentColor" fill-rule="evenodd" d="M10 1.25c1.726 0 3.125 1.4 3.125 3.125 0 .472-.109.918-.297 1.32l1.476 1.475a3.125 3.125 0 1 1 1.32 5.955c-.472 0-.918-.109-1.32-.297l-1.476 1.476c.188.402.297.848.297 1.321a3.125 3.125 0 1 1-5.955-1.32l-1.475-1.477a3.1 3.1 0 0 1-1.32.297 3.125 3.125 0 1 1 0-6.25c.472 0 .918.108 1.32.295L7.17 5.695a3.1 3.1 0 0 1-.295-1.32c0-1.726 1.4-3.125 3.125-3.125m0 12.5a1.875 1.875 0 1 0 0 3.75 1.875 1.875 0 0 0 0-3.75m2.073-7.043a3.11 3.11 0 0 1-4.147 0l-1.22 1.219a3.11 3.11 0 0 1 0 4.147l1.22 1.22a3.11 3.11 0 0 1 4.147 0l1.22-1.22a3.11 3.11 0 0 1 0-4.147zM4.375 8.125a1.875 1.875 0 1 0 0 3.75 1.875 1.875 0 0 0 0-3.75m11.25 0a1.875 1.875 0 1 0 0 3.75 1.875 1.875 0 0 0 0-3.75M10 2.5a1.875 1.875 0 1 0 0 3.75 1.875 1.875 0 0 0 0-3.75" clip-rule="evenodd"/>
</svg>
