<svg xmlns="http://www.w3.org/2000/svg" viewBox="0 0 20 20"
 width="20" height="20" fill="none"
 role="presentation" aria-hidden="true">
<g fill="currentColor"><path d="M10 5.447a1.488 1.488 0 1 1 0 2.976 1.488 1.488 0 0 1 0-2.976"/><path fill-rule="evenodd" d="M6.883 3.8c1.763-1.637 4.507-1.608 6.26.02 1.263 1.174 1.835 2.995 1.327 4.68a17 17 0 0 1-.521 1.5h1.676l.11.01a.63.63 0 0 1 .503.493l1.25 6.25a.626.626 0 0 1-.613.747H3.125a.626.626 0 0 1-.613-.747l1.25-6.25A.626.626 0 0 1 4.375 10H6.1a19 19 0 0 1-.508-1.456c-.525-1.697.001-3.545 1.291-4.744m-1.995 7.45-1.001 5h12.226l-1-5H13.36c-.631 1.158-1.53 2.323-2.943 3.586a.626.626 0 0 1-.833 0c-1.406-1.257-2.288-2.428-2.907-3.586zm7.404-6.514c-1.283-1.191-3.285-1.204-4.559-.02-.949.881-1.325 2.235-.946 3.459.565 1.827 1.256 3.47 3.213 5.344 1.992-1.899 2.715-3.528 3.273-5.378.36-1.194-.04-2.53-.98-3.405" clip-rule="evenodd"/></g>
</svg>
