<svg xmlns="http://www.w3.org/2000/svg" viewBox="0 0 16 16"
 width="16" height="16" fill="none"
 role="presentation" aria-hidden="true">
<g fill="currentColor"><path d="M8 4.357a1.19 1.19 0 1 1 0 2.381 1.19 1.19 0 0 1 0-2.38"/><path fill-rule="evenodd" d="M5.507 3.04c1.41-1.31 3.605-1.286 5.008.017 1.01.938 1.467 2.395 1.061 3.744-.123.407-.258.805-.417 1.199h1.34l.089.008a.5.5 0 0 1 .402.394l1 5a.5.5 0 0 1-.49.598h-11a.5.5 0 0 1-.49-.598l1-5A.5.5 0 0 1 3.5 8h1.38a15 15 0 0 1-.407-1.165c-.42-1.357.001-2.836 1.034-3.795M3.91 9l-.8 4h9.78l-.8-4h-1.402c-.505.926-1.224 1.859-2.354 2.869a.5.5 0 0 1-.667 0c-1.124-1.005-1.83-1.943-2.325-2.87zm5.924-5.211c-1.027-.953-2.628-.963-3.648-.017A2.71 2.71 0 0 0 5.43 6.54C5.882 8.002 6.435 9.316 8 10.815c1.594-1.519 2.172-2.823 2.618-4.302.288-.956-.031-2.025-.784-2.724" clip-rule="evenodd"/></g>
</svg>
