<svg xmlns="http://www.w3.org/2000/svg" viewBox="0 0 20 20"
 width="20" height="20" fill="none"
 role="presentation" aria-hidden="true">
<path fill="currentColor" fill-rule="evenodd" d="M16.874 2.5c.28 0 .524.185.6.453l.578 2.019c.222.776.471 1.699.502 2.587.031.9-.16 1.848-.9 2.59-.049.05-.103.094-.155.14v5.336c0 1.035-.84 1.875-1.875 1.875h-3.75a.626.626 0 0 1-.625-.625V13.75h-2.5v3.125c0 .345-.28.625-.625.625h-3.75A1.876 1.876 0 0 1 2.5 15.625v-5.336q-.08-.067-.155-.14c-.74-.742-.93-1.69-.9-2.59.031-.888.28-1.81.502-2.587l.578-2.02.036-.096a.63.63 0 0 1 .564-.356zM12.5 10.287a3.724 3.724 0 0 1-5 0 3.72 3.72 0 0 1-3.75.744v4.594c0 .345.28.625.625.625H7.5v-3.125c0-.345.28-.625.625-.625h3.75a.626.626 0 0 1 .625.625v3.125h3.125c.345 0 .625-.28.625-.625v-4.594a3.72 3.72 0 0 1-3.75-.745M3.15 5.315c-.225.787-.43 1.571-.456 2.286-.024.703.128 1.256.536 1.665a2.49 2.49 0 0 0 3.645-.125V6.25h1.25v2.89c.46.526 1.127.86 1.875.86s1.416-.334 1.875-.86V6.25h1.25v2.89a2.483 2.483 0 0 0 3.645.126c.408-.409.56-.962.536-1.665-.025-.715-.23-1.5-.455-2.286l-.447-1.565H3.595z" clip-rule="evenodd"/>
</svg>
