<svg xmlns="http://www.w3.org/2000/svg" viewBox="0 0 16 16"
 width="16" height="16" fill="none"
 role="presentation" aria-hidden="true">
<g fill="currentColor"><path d="M5.25 7.25a.5.5 0 0 1 .5.5v.5l-.01.1a.5.5 0 0 1-.49.4h-.5a.5.5 0 0 1-.5-.5v-.5a.5.5 0 0 1 .5-.5zm3 0a.5.5 0 0 1 .5.5v.5l-.01.1a.5.5 0 0 1-.49.4h-.5a.5.5 0 0 1-.5-.5v-.5a.5.5 0 0 1 .5-.5zm-2.9-2.99a.5.5 0 0 1 .4.49v.5l-.01.1a.5.5 0 0 1-.49.4h-.5a.5.5 0 0 1-.5-.5v-.5a.5.5 0 0 1 .5-.5h.5zm3 0a.5.5 0 0 1 .4.49v.5l-.01.1a.5.5 0 0 1-.49.4h-.5a.5.5 0 0 1-.5-.5v-.5a.5.5 0 0 1 .5-.5h.5z"/><path fill-rule="evenodd" d="M9.5 2A1.5 1.5 0 0 1 11 3.5V6h1.5A1.5 1.5 0 0 1 14 7.5v6a.5.5 0 0 1-.5.5h-6a.5.5 0 0 1-.5-.5V11H6v2.5a.5.5 0 0 1-.5.5h-3a.5.5 0 0 1-.5-.5v-10A1.5 1.5 0 0 1 3.5 2zm-6 1a.5.5 0 0 0-.5.5V13h2v-2.5a.5.5 0 0 1 .5-.5h2a.5.5 0 0 1 .5.5V13h2V3.5a.5.5 0 0 0-.5-.5zM11 13h2V7.5a.5.5 0 0 0-.5-.5H11z" clip-rule="evenodd"/></g>
</svg>
