<svg xmlns="http://www.w3.org/2000/svg" viewBox="0 0 16 16"
 width="16" height="16" fill="none"
 role="presentation" aria-hidden="true">
<path fill="currentColor" fill-rule="evenodd" d="M13.5 2a.5.5 0 0 1 .48.362l.462 1.616c.178.62.377 1.359.401 2.069.025.72-.127 1.479-.72 2.072q-.06.058-.123.112V12.5a1.5 1.5 0 0 1-1.5 1.5h-3a.5.5 0 0 1-.5-.5V11H7v2.5a.5.5 0 0 1-.5.5h-3A1.5 1.5 0 0 1 2 12.5V8.231q-.064-.054-.124-.112c-.592-.593-.745-1.352-.72-2.072.025-.71.224-1.448.401-2.07l.462-1.615.03-.077A.5.5 0 0 1 2.498 2zM10 8.23a2.98 2.98 0 0 1-4 0 2.98 2.98 0 0 1-3 .595V12.5a.5.5 0 0 0 .5.5H6v-2.5a.5.5 0 0 1 .5-.5h3a.5.5 0 0 1 .5.5V13h2.5a.5.5 0 0 0 .5-.5V8.825a2.98 2.98 0 0 1-3-.596M2.52 4.251c-.18.63-.345 1.257-.365 1.83-.02.561.102 1.004.429 1.331a1.993 1.993 0 0 0 2.916-.1V5h1v2.312c.367.42.9.688 1.5.688.598 0 1.132-.267 1.5-.687V5h1v2.312a1.993 1.993 0 0 0 2.916.102c.326-.328.448-.77.428-1.333-.02-.572-.184-1.2-.364-1.83L13.123 3H2.877z" clip-rule="evenodd"/>
</svg>
