<svg xmlns="http://www.w3.org/2000/svg" viewBox="0 0 20 20"
 width="20" height="20" fill="none"
 role="presentation" aria-hidden="true">
<path fill="currentColor" fill-rule="evenodd" d="M14.558 7.402q.45 0 .952.108.509.102.947.38.445.28.728.797.283.512.283 1.333V15h-1.425v-1.025h-.06a2.1 2.1 0 0 1-.424.556 2.3 2.3 0 0 1-.729.454q-.444.18-1.063.181-.713 0-1.289-.264a2.17 2.17 0 0 1-.913-.776q-.332-.508-.332-1.245 0-.635.244-1.045t.66-.65.927-.36q.513-.123 1.045-.186l1.094-.127q.42-.054.61-.171t.19-.381v-.034q0-.64-.36-.991-.358-.352-1.065-.352-.739 0-1.162.327-.42.322-.582.718l-1.372-.313q.244-.683.713-1.103a2.9 2.9 0 0 1 1.09-.615q.614-.195 1.293-.196m1.45 3.926q-.078.078-.302.147-.22.063-.503.112-.283.044-.552.083-.268.034-.45.059a3.6 3.6 0 0 0-.776.18 1.33 1.33 0 0 0-.556.366q-.206.235-.207.625 0 .543.402.82.4.274 1.02.274.607 0 1.036-.24.435-.239.659-.624.23-.39.23-.835zM6.251 5c.247 0 .471.146.572.371L11.103 15h-1.37l-1.11-2.5H3.879L2.77 15H1.4l4.28-9.629.045-.08A.63.63 0 0 1 6.25 5m-1.816 6.25h3.633L6.25 7.163z" clip-rule="evenodd"/>
</svg>
