<svg xmlns="http://www.w3.org/2000/svg" viewBox="0 0 16 16"
 width="16" height="16" fill="none"
 role="presentation" aria-hidden="true">
<path fill="currentColor" fill-rule="evenodd" d="M11.647 5.922q.359 0 .761.086.406.082.758.305.355.222.582.636.227.411.227 1.067V12h-1.141v-.82h-.047q-.113.226-.34.445a1.8 1.8 0 0 1-.583.363q-.355.145-.85.145-.57 0-1.032-.211a1.74 1.74 0 0 1-.73-.621q-.266-.407-.266-.996 0-.508.196-.836.195-.328.527-.52.332-.191.742-.289t.836-.148l.875-.102q.336-.042.488-.137.153-.093.153-.304V7.94q0-.51-.29-.793-.285-.28-.85-.28-.591 0-.93.26a1.4 1.4 0 0 0-.465.575l-1.098-.25q.195-.546.57-.883.38-.339.871-.492a3.4 3.4 0 0 1 1.035-.156m1.16 3.14a.6.6 0 0 1-.242.118 4 4 0 0 1-.403.09l-.441.066-.36.047a3 3 0 0 0-.62.144 1.1 1.1 0 0 0-.446.293q-.165.188-.165.5 0 .434.321.657.32.218.817.218.484 0 .828-.191.347-.192.527-.5.184-.312.184-.668zM5.001 4c.197 0 .377.117.457.297L8.882 12H7.787l-.889-2H3.104l-.89 2H1.12l3.425-7.703.035-.065A.5.5 0 0 1 5.001 4M3.548 9h2.906L5.001 5.73z" clip-rule="evenodd"/>
</svg>
