<svg xmlns="http://www.w3.org/2000/svg" viewBox="0 0 20 20"
 width="20" height="20" fill="none"
 role="presentation" aria-hidden="true">
<path fill="currentColor" d="M11.27 1.25c.819 0 1.605.32 2.192.891a3 3 0 0 1 .879 2.582 3.14 3.14 0 0 1 2.63.86l.037.036a3 3 0 0 1 .673 3.319c-.156.37-.385.704-.673.984l-6.348 6.224a.2.2 0 0 0-.06.143.2.2 0 0 0 .06.144l1.304 1.278a.603.603 0 0 1 0 .86.63.63 0 0 1-.878 0l-1.303-1.277a1.4 1.4 0 0 1 0-2.008l6.349-6.226a1.8 1.8 0 0 0 0-2.58l-.037-.037a1.89 1.89 0 0 0-2.63-.003l-5.23 5.13-.001.001-.072.07a.628.628 0 0 1-1.012-.196.6.6 0 0 1 .134-.664l5.304-5.2a1.804 1.804 0 0 0-.003-2.58 1.887 1.887 0 0 0-2.633 0L2.933 9.886a.63.63 0 0 1-1.01-.196.605.605 0 0 1 .134-.664L9.076 2.14a3.15 3.15 0 0 1 2.194-.891m0 2.434a.63.63 0 0 1 .573.375.6.6 0 0 1-.135.664l-5.192 5.09a1.803 1.803 0 0 0 0 2.582 1.89 1.89 0 0 0 2.633 0l5.19-5.092a.63.63 0 0 1 .878 0 .603.603 0 0 1 0 .861l-5.191 5.092a3.145 3.145 0 0 1-4.386 0 3.003 3.003 0 0 1 0-4.303l5.19-5.09a.63.63 0 0 1 .44-.179"/>
</svg>
