<svg xmlns="http://www.w3.org/2000/svg" viewBox="0 0 16 16"
 width="16" height="16" fill="none"
 role="presentation" aria-hidden="true">
<path fill="currentColor" d="M9.016 1c.655 0 1.284.256 1.754.713a2.4 2.4 0 0 1 .703 2.065 2.5 2.5 0 0 1 2.104.688l.03.03a2.4 2.4 0 0 1 0 3.441l-5.079 4.98a.16.16 0 0 0-.049.114.16.16 0 0 0 .05.115L9.57 14.17a.484.484 0 0 1-.35.831.5.5 0 0 1-.352-.143l-1.043-1.022a1.12 1.12 0 0 1 0-1.607l5.08-4.98a1.44 1.44 0 0 0 0-2.064l-.03-.03a1.51 1.51 0 0 0-2.104-.002L6.587 9.256h-.001l-.058.057a.503.503 0 0 1-.81-.157.48.48 0 0 1 .108-.531l4.243-4.16a1.44 1.44 0 0 0-.002-2.064 1.51 1.51 0 0 0-2.106 0L2.347 7.908a.503.503 0 0 1-.809-.157.48.48 0 0 1 .108-.531L7.26 1.713A2.52 2.52 0 0 1 9.016 1m0 1.947a.5.5 0 0 1 .459.3.48.48 0 0 1-.109.531L5.213 7.851a1.443 1.443 0 0 0 0 2.065 1.51 1.51 0 0 0 2.106 0l4.153-4.073a.504.504 0 0 1 .702 0 .48.48 0 0 1 0 .688L8.02 10.605a2.516 2.516 0 0 1-3.51 0 2.4 2.4 0 0 1 0-3.443L8.665 3.09a.5.5 0 0 1 .352-.143"/>
</svg>
