<svg xmlns="http://www.w3.org/2000/svg" viewBox="0 0 16 16"
 width="16" height="16" fill="none"
 role="presentation" aria-hidden="true">
<path fill="currentColor" d="M8 4c3.866 0 7 3.022 7 6.75 0 .138-.114.25-.252.25H11a2.98 2.98 0 0 0-.557-1.737L8.965 10.74a1 1 0 1 1-.707-.707l2.889-2.888.707.708-.696.694c.33.424.578.916.716 1.452h2.073C13.565 7.204 11.077 5 8 5s-5.565 2.204-5.947 5h2.073A4.002 4.002 0 0 1 9.56 7.318l-.786.786A3 3 0 0 0 5 11H1.252A.25.25 0 0 1 1 10.75C1 7.022 4.134 4 8 4"/>
</svg>
