<svg xmlns="http://www.w3.org/2000/svg" viewBox="0 0 20 20"
 width="20" height="20" fill="none"
 role="presentation" aria-hidden="true">
<path fill="currentColor" d="M10 5c4.833 0 8.75 3.778 8.75 8.438a.315.315 0 0 1-.315.312H13.75c0-.81-.258-1.56-.696-2.172l-1.848 1.849q.043.155.044.323a1.25 1.25 0 1 1-.928-1.207l3.611-3.61.884.884-.87.868c.414.53.723 1.145.896 1.815h2.591C16.956 9.005 13.847 6.25 10 6.25S3.044 9.005 2.566 12.5h2.591a5.002 5.002 0 0 1 6.793-3.352l-.982.981a3.75 3.75 0 0 0-4.718 3.62H1.565a.315.315 0 0 1-.315-.312C1.25 8.778 5.168 5 10 5"/>
</svg>
