<svg xmlns="http://www.w3.org/2000/svg" viewBox="0 0 16 16"
 width="16" height="16" fill="none"
 role="presentation" aria-hidden="true">
<g fill="currentColor" fill-rule="evenodd" clip-rule="evenodd"><path d="M8 5.5a2 2 0 0 1 2 2v1l-.01.204A2 2 0 0 1 6 8.5v-1a2 2 0 0 1 2-2m0 1a1 1 0 0 0-1 1v1a1 1 0 0 0 2 0v-1a1 1 0 0 0-1-1"/><path d="M14.5 3a.5.5 0 0 1 .5.5v9a.5.5 0 0 1-.5.5h-13a.5.5 0 0 1-.5-.5v-9l.01-.098A.5.5 0 0 1 1.5 3zM3.913 4A1.496 1.496 0 0 1 2 5.912v4.175q.237-.085.5-.087a1.5 1.5 0 0 1 1.413 2h8.174A1.5 1.5 0 0 1 14 10.087V5.912A1.494 1.494 0 0 1 12.087 4zm9.587 7a.5.5 0 1 0 0 1 .5.5 0 0 0 0-1m-11 0a.5.5 0 1 0 0 1 .5.5 0 0 0 0-1m0-7a.5.5 0 1 0 0 1 .5.5 0 0 0 0-1m11 0a.5.5 0 1 0 0 1 .5.5 0 0 0 0-1"/></g>
</svg>
