<svg xmlns="http://www.w3.org/2000/svg" viewBox="0 0 20 20"
 width="20" height="20" fill="none"
 role="presentation" aria-hidden="true">
<g fill="currentColor" fill-rule="evenodd" clip-rule="evenodd"><path d="M10 6.875a2.5 2.5 0 0 1 2.5 2.5v1.25l-.012.255a2.501 2.501 0 0 1-4.988-.255v-1.25a2.5 2.5 0 0 1 2.5-2.5m0 1.25c-.69 0-1.25.56-1.25 1.25v1.25a1.25 1.25 0 0 0 2.5 0v-1.25c0-.69-.56-1.25-1.25-1.25"/><path d="M18.125 3.75c.345 0 .625.28.625.625v11.25a.625.625 0 0 1-.625.625H1.875a.625.625 0 0 1-.625-.625V4.375l.012-.122a.625.625 0 0 1 .613-.503zM4.891 5q.107.295.109.625A1.875 1.875 0 0 1 2.5 7.39v5.219A1.87 1.87 0 0 1 4.891 15H15.11a1.87 1.87 0 0 1 2.391-2.391V7.39A1.868 1.868 0 0 1 15.109 5zm11.984 8.75a.625.625 0 1 0 0 1.25.625.625 0 0 0 0-1.25m-13.75 0a.625.625 0 1 0 0 1.25.625.625 0 0 0 0-1.25m0-8.75a.625.625 0 1 0 0 1.25.625.625 0 0 0 0-1.25m13.75 0a.625.625 0 1 0 0 1.25.625.625 0 0 0 0-1.25"/></g>
</svg>
