<svg xmlns="http://www.w3.org/2000/svg" viewBox="0 0 20 20"
 width="20" height="20" fill="none"
 role="presentation" aria-hidden="true">
<g fill="currentColor"><path fill-rule="evenodd" d="m17.759 16.875-.884.884-1.509-1.509H1.875a.625.625 0 0 1-.625-.625V4.375l.012-.122a.625.625 0 0 1 .613-.503h.991l-.625-.625.884-.884zM3.125 13.75a.625.625 0 1 0 0 1.25.625.625 0 0 0 0-1.25m1.857-7.885A1.87 1.87 0 0 1 3.125 7.5c-.22 0-.43-.04-.625-.11v5.219A1.87 1.87 0 0 1 4.891 15h9.225l-2.485-2.485a2.48 2.48 0 0 1-1.631.61 2.5 2.5 0 0 1-2.5-2.5v-1.25c0-.296.053-.58.148-.844zm3.768 4.76a1.25 1.25 0 0 0 1.993 1.002L8.75 9.634zM3.125 5a.625.625 0 1 0 0 1.25.625.625 0 0 0 0-1.25m15-1.25c.345 0 .625.28.625.625v11.25c0 .13-.043.254-.117.359l-1.249-1.249a.625.625 0 0 0-.87-.87l-.887-.888a1.87 1.87 0 0 1 1.873-.368V7.39A1.868 1.868 0 0 1 15.109 5H7.65L6.4 3.75zM16.875 5a.625.625 0 1 0 0 1.25.625.625 0 0 0 0-1.25" clip-rule="evenodd"/><path d="M10 6.875a2.5 2.5 0 0 1 2.5 2.5v.475L9.564 6.915q.213-.039.436-.04"/></g>
</svg>
