<svg xmlns="http://www.w3.org/2000/svg" viewBox="0 0 16 16"
 width="16" height="16" fill="none"
 role="presentation" aria-hidden="true">
<g fill="currentColor"><path fill-rule="evenodd" d="m14.207 13.5-.707.707L12.293 13H1.5a.5.5 0 0 1-.5-.5v-9l.01-.098A.5.5 0 0 1 1.5 3h.793l-.5-.5.707-.707zM2.5 11a.5.5 0 1 0 0 1 .5.5 0 0 0 0-1m1.485-6.308A1.498 1.498 0 0 1 2 5.912v4.175q.237-.085.5-.087a1.5 1.5 0 0 1 1.413 2h7.38l-1.988-1.988c-.35.303-.805.488-1.305.488a2 2 0 0 1-2-2v-1q.002-.357.118-.675zM7 8.5a1 1 0 0 0 1.595.802L7 7.707zM2.5 4a.5.5 0 1 0 0 1 .5.5 0 0 0 0-1m12-1a.5.5 0 0 1 .5.5v9a.5.5 0 0 1-.094.287l-.999-.999a.5.5 0 0 0-.696-.696l-.709-.71A1.49 1.49 0 0 1 14 10.087V5.912A1.494 1.494 0 0 1 12.087 4H6.12l-1-1zm-1 1a.5.5 0 1 0 0 1 .5.5 0 0 0 0-1" clip-rule="evenodd"/><path d="M8 5.5a2 2 0 0 1 2 2v.38L7.651 5.532q.17-.031.349-.032"/></g>
</svg>
