<svg xmlns="http://www.w3.org/2000/svg" viewBox="0 0 20 20"
 width="20" height="20" fill="none"
 role="presentation" aria-hidden="true">
<path fill="currentColor" fill-rule="evenodd" d="M15.625 2.5c1.035 0 1.875.84 1.875 1.875v11.25c0 1.035-.84 1.875-1.875 1.875h-10a1.875 1.875 0 0 1-1.875-1.875V15H2.5v-1.25h1.25v-3.125H2.5v-1.25h1.25V6.25H2.5V5h1.25v-.625c0-1.036.84-1.875 1.875-1.875zm-10 1.25A.625.625 0 0 0 5 4.375V5h1.25v1.25H5v3.125h1.25v1.25H5v3.125h1.25V15H5v.625c0 .345.28.625.625.625H7.5V3.75zm3.125 12.5h6.875c.345 0 .625-.28.625-.625V4.375a.625.625 0 0 0-.625-.625H8.75z" clip-rule="evenodd"/>
</svg>
