<svg xmlns="http://www.w3.org/2000/svg" viewBox="0 0 20 20"
 width="20" height="20" fill="none"
 role="presentation" aria-hidden="true">
<g fill="currentColor"><path fill-rule="evenodd" d="m17.759 16.875-.884.884-3.812-3.812A4.97 4.97 0 0 1 10 15a5 5 0 0 1-3.949-8.065l-3.81-3.81.884-.884zM6.945 7.828A3.75 3.75 0 0 0 10 13.75c.81 0 1.557-.26 2.17-.697z" clip-rule="evenodd"/><path d="M10 5a5 5 0 0 1 4.602 6.953l-.984-.984c.083-.31.132-.633.132-.969A3.75 3.75 0 0 0 10 6.25c-.336 0-.66.048-.97.13l-.984-.984A5 5 0 0 1 10 5"/></g>
</svg>
