<svg xmlns="http://www.w3.org/2000/svg" viewBox="0 0 20 20"
 width="20" height="20" fill="none"
 role="presentation" aria-hidden="true">
<path fill="currentColor" d="m16.25 7.387-5.625 3.58v6.019l5.336-3.395a.63.63 0 0 0 .289-.527zM10.336 2.83a.63.63 0 0 0-.672 0L4.288 6.25 10 9.885l5.71-3.634zM3.75 13.064c0 .213.11.412.29.527l5.335 3.395v-6.018L3.75 7.388zm13.75 0c0 .64-.327 1.238-.868 1.582l-6.296 4.006a.63.63 0 0 1-.672 0l-6.296-4.006a1.88 1.88 0 0 1-.868-1.582V6.25c0-.214.11-.413.29-.528l6.203-3.947a1.88 1.88 0 0 1 2.014 0l6.204 3.947c.18.115.289.314.289.528z"/>
</svg>
