<svg xmlns="http://www.w3.org/2000/svg" viewBox="0 0 16 16"
 width="16" height="16" fill="none"
 role="presentation" aria-hidden="true">
<path fill="currentColor" d="M13 5.91 8.5 8.774v4.815l4.269-2.716A.5.5 0 0 0 13 10.45zM8.269 2.263a.5.5 0 0 0-.538 0L3.431 5 8 7.907 12.568 5zM3 10.451a.5.5 0 0 0 .231.422L7.5 13.589V8.773L3 5.91zm11 0a1.5 1.5 0 0 1-.694 1.265l-5.037 3.206a.5.5 0 0 1-.538 0l-5.037-3.206A1.5 1.5 0 0 1 2 10.451V5a.5.5 0 0 1 .231-.422L7.194 1.42a1.5 1.5 0 0 1 1.612 0l4.963 3.158A.5.5 0 0 1 14 5z"/>
</svg>
