<svg xmlns="http://www.w3.org/2000/svg" viewBox="0 0 16 16"
 width="16" height="16" fill="none"
 role="presentation" aria-hidden="true">
<g fill="currentColor"><path fill-rule="evenodd" d="M11.5 8.5a3 3 0 0 1 2.443 4.736l1.91 1.91-.707.707-1.91-1.91A3 3 0 1 1 11.5 8.5m0 1a2 2 0 1 0 0 4 2 2 0 0 0 0-4" clip-rule="evenodd"/><path d="M12.5 2A1.5 1.5 0 0 1 14 3.5V7h-1V3.5a.5.5 0 0 0-.5-.5h-9a.5.5 0 0 0-.5.5v9.036a.5.5 0 0 0 .5.5H7v1H3.5a1.5 1.5 0 0 1-1.5-1.5V3.5A1.5 1.5 0 0 1 3.5 2z"/><path d="M7 11H5v-1h2zm1-2.5H5v-1h3zM11 6H5V5h6z"/></g>
</svg>
