<svg xmlns="http://www.w3.org/2000/svg" viewBox="0 0 20 20"
 width="20" height="20" fill="none"
 role="presentation" aria-hidden="true">
<g fill="currentColor"><path d="M6.875 12.5c.345 0 .625.28.625.625v5.625H6.25v-4.116l-5.183 5.183-.884-.884 5.183-5.183H1.25V12.5z"/><path fill-rule="evenodd" d="M10.747 1.262c.12.024.232.083.32.171l5 5a.63.63 0 0 1 .183.442v10c0 1.035-.84 1.875-1.875 1.875H8.75V17.5h5.625c.345 0 .625-.28.625-.625V7.5h-3.125A1.875 1.875 0 0 1 10 5.625V2.5H5.625A.625.625 0 0 0 5 3.125v8.125H3.75V3.125c0-1.035.84-1.875 1.875-1.875h5zm.503 4.363c0 .345.28.625.625.625h2.241L11.25 3.384z" clip-rule="evenodd"/><path d="M13.125 8.75c.345 0 .625.28.625.625v6.25c0 .345-.28.625-.625.625H8.75V15h3.75v-2.5H8.75v-1.25h3.75V10h-5v1.25H6.25V9.375c0-.345.28-.625.625-.625z"/></g>
</svg>
