<svg xmlns="http://www.w3.org/2000/svg" viewBox="0 0 16 16"
 width="16" height="16" fill="none"
 role="presentation" aria-hidden="true">
<g fill="currentColor"><path d="M5.5 10a.5.5 0 0 1 .5.5V15H5v-3.293L.854 15.854l-.708-.707L4.293 11H1v-1z"/><path fill-rule="evenodd" d="M8.598 1.01a.5.5 0 0 1 .256.136l4 4A.5.5 0 0 1 13 5.5v8a1.5 1.5 0 0 1-1.5 1.5H7v-1h4.5a.5.5 0 0 0 .5-.5V6H9.5A1.5 1.5 0 0 1 8 4.5V2H4.5a.5.5 0 0 0-.5.5V9H3V2.5A1.5 1.5 0 0 1 4.5 1h4zM9 4.5a.5.5 0 0 0 .5.5h1.793L9 2.707z" clip-rule="evenodd"/><path d="M10.5 7a.5.5 0 0 1 .5.5v5a.5.5 0 0 1-.5.5H7v-1h3v-2H7V9h3V8H6v1H5V7.5a.5.5 0 0 1 .5-.5z"/></g>
</svg>
