<svg xmlns="http://www.w3.org/2000/svg" viewBox="0 0 20 20"
 width="20" height="20" fill="none"
 role="presentation" aria-hidden="true">
<g fill="currentColor"><path fill-rule="evenodd" d="M14.375 10.625a3.75 3.75 0 0 1 3.75 3.75c0 .81-.26 1.557-.696 2.17l2.388 2.388-.884.884-2.388-2.388a3.73 3.73 0 0 1-2.17.696 3.75 3.75 0 1 1 0-7.5m0 1.25a2.5 2.5 0 1 0 0 5 2.5 2.5 0 0 0 0-5" clip-rule="evenodd"/><path d="M15.625 2.5c1.035 0 1.875.84 1.875 1.875V8.75h-1.25V4.375a.625.625 0 0 0-.625-.625H4.375a.625.625 0 0 0-.625.625V15.67c0 .345.28.625.625.625H8.75v1.25H4.375A1.875 1.875 0 0 1 2.5 15.67V4.375c0-1.036.84-1.875 1.875-1.875z"/><path d="M8.75 13.75h-2.5V12.5h2.5zM10 10.625H6.25v-1.25H10zM13.75 7.5h-7.5V6.25h7.5z"/></g>
</svg>
