<svg xmlns="http://www.w3.org/2000/svg" viewBox="0 0 20 20"
 width="20" height="20" fill="none"
 role="presentation" aria-hidden="true">
<g fill="currentColor"><path d="M6.563 9.063a.625.625 0 0 1 .625.624v.626l-.013.125a.626.626 0 0 1-.612.5h-.625a.625.625 0 0 1-.625-.626v-.624c0-.346.28-.626.625-.626zm3.75 0c.345 0 .624.28.624.624v.626l-.012.125a.626.626 0 0 1-.613.5h-.624a.625.625 0 0 1-.626-.626v-.624a.625.625 0 0 1 .626-.626zM6.688 5.325c.285.058.5.31.5.612v.625l-.013.126a.626.626 0 0 1-.612.5h-.625a.625.625 0 0 1-.625-.625v-.625c0-.346.28-.625.625-.625h.625zm3.75 0c.285.058.5.31.5.612v.625l-.013.126a.626.626 0 0 1-.613.5h-.624a.625.625 0 0 1-.626-.625v-.625c0-.346.28-.625.626-.625h.624z"/><path fill-rule="evenodd" d="M11.875 2.5c1.036 0 1.875.84 1.875 1.875V7.5h1.875c1.035 0 1.875.84 1.875 1.875v7.5c0 .345-.28.625-.625.625h-7.5a.625.625 0 0 1-.625-.625V13.75H7.5v3.125c0 .345-.28.625-.625.625h-3.75a.625.625 0 0 1-.625-.625v-12.5c0-1.036.84-1.875 1.875-1.875zm-7.5 1.25a.625.625 0 0 0-.625.625V16.25h2.5v-3.125c0-.345.28-.625.625-.625h2.5a.625.625 0 0 1 .625.625v3.125h2.5V4.375a.625.625 0 0 0-.625-.625zm9.375 12.5h2.5V9.375a.625.625 0 0 0-.625-.625H13.75z" clip-rule="evenodd"/></g>
</svg>
