<svg xmlns="http://www.w3.org/2000/svg" viewBox="0 0 20 20"
 width="20" height="20" fill="none"
 role="presentation" aria-hidden="true">
<g fill="currentColor"><path d="M6.875 5.625a1.25 1.25 0 1 1 0 2.5 1.25 1.25 0 0 1 0-2.5"/><path fill-rule="evenodd" d="M8.125 2.5a5.625 5.625 0 0 1 5.22 7.72l4.155 4.155V17.5h-3.733l-1.254-1.25H10v-2.5l-.242-.242A5.625 5.625 0 1 1 8.125 2.5m0 1.25a4.375 4.375 0 1 0 1.27 8.562l.717-.217 1.138 1.137V15h1.78l1.253 1.25h1.967v-1.357l-4.373-4.373.308-.767a4.375 4.375 0 0 0-4.06-6.003" clip-rule="evenodd"/></g>
</svg>
