<svg xmlns="http://www.w3.org/2000/svg" viewBox="0 0 20 20"
 width="20" height="20" fill="none"
 role="presentation" aria-hidden="true">
<path fill="currentColor" fill-rule="evenodd" d="M4.375 17.5A1.875 1.875 0 0 1 2.5 15.625V4.375c0-1.036.84-1.875 1.875-1.875h11.25c1.035 0 1.875.84 1.875 1.875v11.25c0 1.035-.84 1.875-1.875 1.875zm11.875-5V4.375a.625.625 0 0 0-.625-.625H4.375a.625.625 0 0 0-.625.625V12.5zm-.625 3.75c.345 0 .625-.28.625-.625V13.75H3.75v1.875c0 .345.28.625.625.625z" clip-rule="evenodd"/>
</svg>
