<svg xmlns="http://www.w3.org/2000/svg" viewBox="0 0 20 20"
 width="20" height="20" fill="none"
 role="presentation" aria-hidden="true">
<path fill="currentColor" fill-rule="evenodd" d="M17.5 15.625c0 1.035-.84 1.875-1.875 1.875H4.375A1.875 1.875 0 0 1 2.5 15.625V4.375c0-1.036.84-1.875 1.875-1.875h11.25c1.035 0 1.875.84 1.875 1.875zM6.25 3.75H4.375a.625.625 0 0 0-.625.625v11.25c0 .345.28.625.625.625H6.25zm1.25 0v12.5h5V3.75zm8.75.625a.625.625 0 0 0-.625-.625H13.75v12.5h1.875c.345 0 .625-.28.625-.625z" clip-rule="evenodd"/>
</svg>
