<svg xmlns="http://www.w3.org/2000/svg" viewBox="0 0 20 20"
 width="20" height="20" fill="none"
 role="presentation" aria-hidden="true">
<path fill="currentColor" fill-rule="evenodd" d="M9.697 1.847a.63.63 0 0 1 .592-.008l4.188 2.185a.63.63 0 0 1 .336.555v3.754l3.601 1.88a.63.63 0 0 1 .336.555v3.902a.63.63 0 0 1-.309.538l-4.187 2.456-.075.037a.63.63 0 0 1-.556-.037l-3.76-2.19-3.734 2.19-.076.037a.63.63 0 0 1-.555-.037L1.56 15.371a.63.63 0 0 1-.31-.541v-4.062c0-.228.124-.437.322-.547l3.866-2.146V4.579c0-.227.124-.437.323-.547zM2.5 14.472l2.688 1.566v-2.714L2.5 11.83zm8.125 0 2.688 1.566v-2.714l-2.688-1.493zm-4.187-1.137v2.699l2.937-1.722V11.8zm8.125 0v2.699l2.937-1.722V11.8zm-11.4-2.566 2.659 1.477 2.734-1.43-1.614-.938-1.12-.585zm8.245.066 2.539 1.41 2.828-1.476-2.78-1.452zm-4.72-2.552.839.489 1.85.964V7.135l-2.69-1.493zm3.938-1.137v2.557l2.937-1.628V5.61zM7.351 4.58l2.659 1.477 2.828-1.477-2.827-1.476z" clip-rule="evenodd"/>
</svg>
