<svg xmlns="http://www.w3.org/2000/svg" viewBox="0 0 16 16"
 width="16" height="16" fill="none"
 role="presentation" aria-hidden="true">
<path fill="currentColor" fill-rule="evenodd" d="M7.758 1.477a.5.5 0 0 1 .473-.005l3.351 1.748a.5.5 0 0 1 .269.443v3.004l2.88 1.504a.5.5 0 0 1 .269.443v3.122a.5.5 0 0 1-.247.43l-3.35 1.966-.06.03a.5.5 0 0 1-.445-.03L7.89 12.379l-2.987 1.753-.06.03a.5.5 0 0 1-.445-.03l-3.15-1.835A.5.5 0 0 1 1 11.864v-3.25c0-.181.1-.35.258-.437L4.35 6.46V3.663a.5.5 0 0 1 .257-.437zM2 11.578l2.15 1.253v-2.172L2 9.465zm6.5 0 2.15 1.253v-2.172L8.5 9.465zm-3.35-.91v2.16L7.5 11.45V9.44zm6.5 0v2.16L14 11.45V9.44zM2.53 8.615l2.127 1.182 2.188-1.144-1.291-.75-.896-.469zm6.596.053 2.031 1.129 2.263-1.182-2.224-1.161zM5.351 6.627l.67.39 1.48.772V5.708l-2.15-1.194zm3.15-.91v2.046l2.35-1.303V4.49zm-2.62-2.053 2.127 1.182 2.263-1.182-2.262-1.18z" clip-rule="evenodd"/>
</svg>
