<svg xmlns="http://www.w3.org/2000/svg" viewBox="0 0 16 16"
 width="16" height="16" fill="none"
 role="presentation" aria-hidden="true">
<g fill="currentColor"><path d="M3 12.5a.5.5 0 0 0 .5.5h9a.5.5 0 0 0 .5-.5V12h1v.5a1.5 1.5 0 0 1-1.5 1.5h-9A1.5 1.5 0 0 1 2 12.5V12h1z"/><path fill-rule="evenodd" d="M3.844 5.568q.52 0 .909.212.389.21.604.588.22.38.22.885v.007q0 .51-.22.888a1.5 1.5 0 0 1-.604.588 1.9 1.9 0 0 1-.91.21h-1V10.5H1.81V5.568zm-1.002 2.57h.749q.444 0 .69-.225.25-.229.25-.65v-.006q0-.42-.25-.647-.246-.225-.69-.225h-.75zm5.346-2.57q.735 0 1.251.287.516.285.79.828.273.543.273 1.315v.007q0 .796-.274 1.353-.27.558-.786.852-.516.29-1.254.29h-1.94V5.568zM7.28 9.65h.745a1.5 1.5 0 0 0 .776-.188 1.2 1.2 0 0 0 .482-.55q.168-.366.167-.889v-.006q0-.51-.17-.866a1.2 1.2 0 0 0-.489-.543 1.5 1.5 0 0 0-.766-.188H7.28z" clip-rule="evenodd"/><path d="M14.433 6.419h-2.198v1.323h2.006v.817h-2.006V10.5h-1.032V5.568h3.23zM12.5 2A1.5 1.5 0 0 1 14 3.5V4h-1v-.5a.5.5 0 0 0-.5-.5h-9a.5.5 0 0 0-.5.5V4H2v-.5A1.5 1.5 0 0 1 3.5 2z"/></g>
</svg>
