<svg xmlns="http://www.w3.org/2000/svg" viewBox="0 0 20 20"
 width="20" height="20" fill="none"
 role="presentation" aria-hidden="true">
<g fill="currentColor"><path d="M3.75 15.625c0 .345.28.625.625.625h11.25c.345 0 .625-.28.625-.625V15h1.25v.625c0 1.035-.84 1.875-1.875 1.875H4.375A1.875 1.875 0 0 1 2.5 15.625V15h1.25z"/><path fill-rule="evenodd" d="M4.804 6.96q.65 0 1.137.265.486.262.756.735.273.474.273 1.106v.009q0 .636-.273 1.11a1.86 1.86 0 0 1-.756.735 2.4 2.4 0 0 1-1.137.262H3.552v1.943h-1.29V6.96zm-1.252 3.213h.936q.555 0 .863-.282.311-.285.312-.811v-.01q0-.525-.312-.808-.308-.282-.863-.282h-.936zm6.683-3.213q.92 0 1.564.36.645.354.986 1.033.342.68.342 1.645v.008q0 .996-.342 1.692-.337.697-.982 1.064-.645.363-1.568.363H7.81V6.96zM9.1 12.062h.931q.573-.001.97-.236t.602-.687q.21-.457.21-1.11v-.01q0-.636-.214-1.081a1.5 1.5 0 0 0-.61-.679q-.398-.235-.958-.235H9.1z" clip-rule="evenodd"/><path d="M18.04 8.024h-2.746v1.654H17.8v1.02h-2.507v2.427h-1.29V6.96h4.037zM15.625 2.5c1.035 0 1.875.84 1.875 1.875V5h-1.25v-.625a.625.625 0 0 0-.625-.625H4.375a.625.625 0 0 0-.625.625V5H2.5v-.625c0-1.036.84-1.875 1.875-1.875z"/></g>
</svg>
