<svg xmlns="http://www.w3.org/2000/svg" viewBox="0 0 16 16"
 width="16" height="16" fill="none"
 role="presentation" aria-hidden="true">
<path fill="currentColor" fill-rule="evenodd" d="M8 1a7 7 0 1 1 0 14A7 7 0 0 1 8 1m.977 11.905a5 5 0 0 1-1.954 0l-.194.98a6 6 0 0 0 2.34 0l-.013-.073-.082-.416zM3.01 11.333a6 6 0 0 0 1.655 1.655l.026-.038.252-.376.279-.416a5 5 0 0 1-1.381-1.38zm9.147-.556a5 5 0 0 1-1.38 1.381l.278.415.252.377.025.038a6 6 0 0 0 1.655-1.655l-.414-.277zM2.114 6.83a6 6 0 0 0 0 2.34l.49-.095.49-.097a5 5 0 0 1 0-1.954l-.49-.097zm11.282.097-.49.097a5 5 0 0 1 0 1.954l.979.193a6 6 0 0 0 0-2.34zM7.5 8a.5.5 0 0 0 .5.5h3v-1H8.5V5h-1zM4.666 3.01a6 6 0 0 0-1.655 1.656l.83.557a5 5 0 0 1 1.382-1.381zm6.405.393-.294.439a5 5 0 0 1 1.381 1.38l.83-.556a6 6 0 0 0-1.655-1.655zM8 2q-.601.002-1.17.114l.094.48.1.5a5 5 0 0 1 1.953 0l.1-.5.093-.48A6 6 0 0 0 8 2" clip-rule="evenodd"/>
</svg>
