<svg xmlns="http://www.w3.org/2000/svg" viewBox="0 0 20 20"
 width="20" height="20" fill="none"
 role="presentation" aria-hidden="true">
<path fill="currentColor" fill-rule="evenodd" d="M10 1.25a8.75 8.75 0 1 1 0 17.5 8.75 8.75 0 0 1 0-17.5m1.22 14.882a6.3 6.3 0 0 1-1.22.118q-.63 0-1.22-.118l-.244 1.224a7.5 7.5 0 0 0 2.926 0l-.017-.092-.102-.52zm-7.457-1.966a7.5 7.5 0 0 0 2.07 2.07l.032-.048.315-.47v-.001l.348-.52a6.3 6.3 0 0 1-1.726-1.725zm11.435-.694a6.3 6.3 0 0 1-1.726 1.726l.348.519.314.47.032.048a7.5 7.5 0 0 0 2.07-2.069l-.518-.346zM2.643 8.536a7.5 7.5 0 0 0 0 2.926l.613-.12h-.002l.614-.121a6.3 6.3 0 0 1 0-2.442l-.614-.122zm14.101.121-.612.122q.117.592.118 1.221t-.118 1.22l1.224.242a7.5 7.5 0 0 0 0-2.926zM9.375 10c0 .345.28.625.625.625h3.75v-1.25h-3.125V6.25h-1.25zM5.833 3.763a7.5 7.5 0 0 0-2.07 2.07l1.04.695a6.3 6.3 0 0 1 1.725-1.726zm8.006.491-.367.548a6.3 6.3 0 0 1 1.726 1.726l1.037-.695a7.5 7.5 0 0 0-2.069-2.07zM10 2.5q-.751.002-1.464.143l.119.6.124.625a6.3 6.3 0 0 1 2.442 0l.124-.625.117-.6A7.5 7.5 0 0 0 10 2.5" clip-rule="evenodd"/>
</svg>
