<svg xmlns="http://www.w3.org/2000/svg" viewBox="0 0 20 20"
 width="20" height="20" fill="none"
 role="presentation" aria-hidden="true">
<g fill="currentColor"><path d="M10.625 13.75c1.036 0 1.875.84 1.875 1.875V17.5h-1.25v-1.875a.625.625 0 0 0-.625-.625h-7.5a.625.625 0 0 0-.625.625V17.5H1.25v-1.875c0-1.036.84-1.875 1.875-1.875zm6.25-2.5c1.035 0 1.875.84 1.875 1.875V15H17.5v-1.875a.625.625 0 0 0-.625-.625H13.75v-1.25z"/><path fill-rule="evenodd" d="M6.875 3.75a4.375 4.375 0 1 1 0 8.75 4.375 4.375 0 0 1 0-8.75m0 1.25a3.125 3.125 0 1 0 0 6.25 3.125 3.125 0 0 0 0-6.25" clip-rule="evenodd"/><path d="M13.75 2.5a3.75 3.75 0 1 1 0 7.5c-.441 0-.863-.08-1.256-.22l-.004-1.03h.015l-.001-.336c.367.212.792.336 1.246.336a2.5 2.5 0 1 0-1.686-4.343l-.754-1.001a3.73 3.73 0 0 1 2.44-.906"/></g>
</svg>
