<svg xmlns="http://www.w3.org/2000/svg" viewBox="0 0 16 16"
 width="16" height="16" fill="none"
 role="presentation" aria-hidden="true">
<g fill="currentColor"><path d="M8.5 11a1.5 1.5 0 0 1 1.5 1.5V14H9v-1.5a.5.5 0 0 0-.5-.5h-6a.5.5 0 0 0-.5.5V14H1v-1.5A1.5 1.5 0 0 1 2.5 11zm5-2a1.5 1.5 0 0 1 1.5 1.5V12h-1v-1.5a.5.5 0 0 0-.5-.5H11V9z"/><path fill-rule="evenodd" d="M5.5 3a3.5 3.5 0 1 1 0 7 3.5 3.5 0 0 1 0-7m0 1a2.5 2.5 0 1 0 0 5 2.5 2.5 0 0 0 0-5" clip-rule="evenodd"/><path d="M11 2a3 3 0 1 1-1.005 5.824L9.992 7h.012l-.001-.269a2 2 0 1 0-.352-3.206l-.603-.8A3 3 0 0 1 11 2"/></g>
</svg>
