<svg xmlns="http://www.w3.org/2000/svg" viewBox="0 0 16 16"
 width="16" height="16" fill="none"
 role="presentation" aria-hidden="true">
<path fill="currentColor" fill-rule="evenodd" d="M12.5 4c.81 0 1.444.57 1.849 1.277C14.76 6 15 6.963 15 8s-.239 2-.651 2.723C13.944 11.43 13.309 12 12.5 12H4c-.894 0-1.656-.508-2.175-1.234C1.305 10.038 1 9.059 1 8s.306-2.038.825-2.766C2.345 4.508 3.106 4 4 4zM4 5c-.487 0-.975.275-1.361.815S2 7.125 2 8c0 .874.253 1.645.639 2.185S3.513 11 4 11h6.828a4 4 0 0 1-.177-.277C10.24 10 10 9.037 10 8s.239-2 .651-2.723q.082-.143.177-.277zm8.5 0c-.295 0-.661.214-.98.773C11.208 6.318 11 7.105 11 8s.208 1.682.52 2.227c.319.559.685.773.98.773s.661-.214.98-.773C13.792 9.682 14 8.895 14 8s-.208-1.682-.52-2.227C13.161 5.214 12.795 5 12.5 5" clip-rule="evenodd"/>
</svg>
