<svg xmlns="http://www.w3.org/2000/svg" viewBox="0 0 20 20"
 width="20" height="20" fill="none"
 role="presentation" aria-hidden="true">
<path fill="currentColor" fill-rule="evenodd" d="M15.626 5c1.01 0 1.805.712 2.31 1.597.516.902.814 2.106.814 3.403s-.298 2.501-.814 3.403c-.505.885-1.3 1.597-2.31 1.597H5c-1.117 0-2.07-.635-2.718-1.543-.65-.91-1.032-2.134-1.032-3.457s.382-2.548 1.032-3.457C2.931 5.635 3.883 5 5 5zM5 6.25c-.608 0-1.219.344-1.701 1.02C2.817 7.942 2.5 8.906 2.5 10s.317 2.057.799 2.73c.482.676 1.093 1.02 1.701 1.02h8.536a4 4 0 0 1-.221-.347c-.516-.902-.814-2.107-.814-3.403 0-1.297.298-2.501.814-3.403q.102-.18.22-.347zm10.626 0c-.37 0-.827.268-1.226.967-.39.681-.65 1.664-.65 2.783 0 1.12.26 2.102.65 2.783.4.7.856.967 1.226.967.369 0 .826-.268 1.225-.967.39-.681.65-1.664.65-2.783 0-1.12-.26-2.102-.65-2.783-.4-.7-.856-.967-1.225-.967" clip-rule="evenodd"/>
</svg>
