<svg xmlns="http://www.w3.org/2000/svg" viewBox="0 0 16 16"
 width="16" height="16" fill="none"
 role="presentation" aria-hidden="true">
<g fill="currentColor" fill-rule="evenodd" clip-rule="evenodd"><path d="M10 4a2 2 0 1 1 0 4 2 2 0 0 1 0-4m0 1a1 1 0 1 0 0 2 1 1 0 0 0 0-2"/><path d="M12.5 2A1.5 1.5 0 0 1 14 3.5v9a1.5 1.5 0 0 1-1.5 1.5h-9A1.5 1.5 0 0 1 2 12.5v-9A1.5 1.5 0 0 1 3.5 2zM3 11.687v.813a.5.5 0 0 0 .5.5h9a.5.5 0 0 0 .128-.02L6.073 8.174zM3.5 3a.5.5 0 0 0-.5.5v6.669L5.624 7.17l.07-.066a.5.5 0 0 1 .602-.008L13 12.013V3.5a.5.5 0 0 0-.5-.5z"/></g>
</svg>
