<svg xmlns="http://www.w3.org/2000/svg" viewBox="0 0 20 20"
 width="20" height="20" fill="none"
 role="presentation" aria-hidden="true">
<g fill="currentColor" fill-rule="evenodd" clip-rule="evenodd"><path d="M12.5 5a2.5 2.5 0 1 1 0 5 2.5 2.5 0 0 1 0-5m0 1.25a1.25 1.25 0 1 0 0 2.5 1.25 1.25 0 0 0 0-2.5"/><path d="M15.625 2.5c1.035 0 1.875.84 1.875 1.875v11.25c0 1.035-.84 1.875-1.875 1.875H4.375A1.875 1.875 0 0 1 2.5 15.625V4.375c0-1.036.84-1.875 1.875-1.875zM3.75 14.608v1.017c0 .345.28.625.625.625h11.25q.084-.002.16-.024l-8.193-6.009zM4.375 3.75a.625.625 0 0 0-.625.625v8.336l3.28-3.747.087-.082a.625.625 0 0 1 .753-.011l8.38 6.145V4.375a.625.625 0 0 0-.625-.625z"/></g>
</svg>
