<svg xmlns="http://www.w3.org/2000/svg" viewBox="0 0 20 20"
 width="20" height="20" fill="none"
 role="presentation" aria-hidden="true">
<g fill="currentColor"><path fill-rule="evenodd" d="M15 6.25a5 5 0 0 1 3.75 8.304v4.654a.625.625 0 0 1-.925.548L15 18.212l-2.825 1.544a.626.626 0 0 1-.925-.548v-4.654A5 5 0 0 1 15 6.25m2.5 9.329a5 5 0 0 1-2.5.671 5 5 0 0 1-2.5-.671v2.574l2.2-1.201.072-.034a.63.63 0 0 1 .528.034l2.2 1.201zM15 7.5a3.75 3.75 0 1 0 0 7.5 3.75 3.75 0 0 0 0-7.5" clip-rule="evenodd"/><path d="M14.375 1.25c1.036 0 1.875.84 1.875 1.875V5H15V3.125a.625.625 0 0 0-.625-.625h-8.75A.625.625 0 0 0 5 3.125v13.75c0 .345.28.625.625.625H8.75v1.25H5.625a1.875 1.875 0 0 1-1.875-1.875V3.125c0-1.036.84-1.875 1.875-1.875z"/></g>
</svg>
