<svg xmlns="http://www.w3.org/2000/svg" viewBox="0 0 16 16"
 width="16" height="16" fill="none"
 role="presentation" aria-hidden="true">
<g fill="currentColor"><path fill-rule="evenodd" d="M12 5a4 4 0 0 1 3 6.644v3.722a.5.5 0 0 1-.74.439L12 14.569l-2.26 1.236a.5.5 0 0 1-.74-.439v-3.722A4 4 0 0 1 12 5m2 7.463A4 4 0 0 1 12 13a4 4 0 0 1-2-.537v2.06l1.76-.961.057-.028a.5.5 0 0 1 .423.027l1.76.962zM12 6a3 3 0 1 0 0 6 3 3 0 0 0 0-6" clip-rule="evenodd"/><path d="M11.5 1A1.5 1.5 0 0 1 13 2.5V4h-1V2.5a.5.5 0 0 0-.5-.5h-7a.5.5 0 0 0-.5.5v11a.5.5 0 0 0 .5.5H7v1H4.5A1.5 1.5 0 0 1 3 13.5v-11A1.5 1.5 0 0 1 4.5 1z"/></g>
</svg>
