<svg xmlns="http://www.w3.org/2000/svg" viewBox="0 0 20 20"
 width="20" height="20" fill="none"
 role="presentation" aria-hidden="true">
<g fill="currentColor"><path d="M15.625 7.188a.938.938 0 1 1 0 1.875.938.938 0 0 1 0-1.875"/><path fill-rule="evenodd" d="M5.32 1.057a1.88 1.88 0 0 1 1.86 0l3.27 1.868c.155.088.34.106.508.05l.388-.13c3.643-1.213 7.404 1.498 7.404 5.338l.001 6.194a4.375 4.375 0 0 1-4.375 4.373H11.25V15h3.125c.345 0 .625-.28.625-.625v-.625h-3.086c-.623 0-1.205-.31-1.554-.826L10 12.39v2.23a.92.92 0 0 1-1.141.89A10.04 10.04 0 0 1 1.25 5.773V3.958c0-.356.192-.684.5-.86zm1.24 1.086a.63.63 0 0 0-.62 0L2.5 4.108v1.664a8.79 8.79 0 0 0 6.25 8.412V10H10v.156l1.395 2.068a.63.63 0 0 0 .52.276h3.584a.75.75 0 0 1 .751.75v1.125c0 1.036-.84 1.875-1.875 1.875h-1.876v1.25h1.877a3.125 3.125 0 0 0 3.125-3.123L17.5 8.183c0-2.986-2.925-5.095-5.758-4.15l-.39.129A1.88 1.88 0 0 1 9.83 4.01z" clip-rule="evenodd"/></g>
</svg>
