<svg xmlns="http://www.w3.org/2000/svg" viewBox="0 0 16 16"
 width="16" height="16" fill="none"
 role="presentation" aria-hidden="true">
<g fill="currentColor"><path d="M12.5 5.75a.75.75 0 1 1 0 1.5.75.75 0 0 1 0-1.5"/><path fill-rule="evenodd" d="M4.256.846a1.5 1.5 0 0 1 1.488 0L8.36 2.34c.124.07.272.085.407.04l.31-.103C11.991 1.305 15 3.475 15 6.547l.001 4.954a3.5 3.5 0 0 1-3.5 3.5H8.999L9 12h2.5a.5.5 0 0 0 .5-.5V11H9.531c-.498 0-.964-.249-1.243-.662L8 9.912v1.784c0 .478-.45.828-.913.712A8.03 8.03 0 0 1 1 4.618V3.165c0-.284.153-.547.4-.688zm.992.868a.5.5 0 0 0-.496 0L2 3.286v1.331a7.03 7.03 0 0 0 5 6.73V8h1v.125L9.116 9.78c.093.137.25.22.415.22H12.4a.6.6 0 0 1 .601.6v.9a1.5 1.5 0 0 1-1.5 1.5H9.999v1h1.502a2.5 2.5 0 0 0 2.5-2.499L14 6.546c0-2.389-2.34-4.076-4.606-3.32l-.312.103a1.5 1.5 0 0 1-1.218-.12z" clip-rule="evenodd"/></g>
</svg>
