<svg xmlns="http://www.w3.org/2000/svg" viewBox="0 0 16 16"
 width="16" height="16" fill="none"
 role="presentation" aria-hidden="true">
<g fill="currentColor"><path fill-rule="evenodd" d="M10.48 10.634c1.002 0 1.829.802 1.829 1.807a1.82 1.82 0 0 1-1.828 1.807c-1.002 0-1.828-.801-1.829-1.807s.827-1.807 1.829-1.807m0 1a.82.82 0 0 0-.828.807c0 .438.364.807.829.807a.82.82 0 0 0 .828-.807.82.82 0 0 0-.828-.807" clip-rule="evenodd"/><path fill-rule="evenodd" d="M10.481 9c1.962 0 3.324.801 4.19 1.604.43.4.737.799.938 1.1a5 5 0 0 1 .285.48l.015.032.005.01.001.003.001.002-.453.21.453.21-.001.002v.004l-.006.01-.015.032-.059.11c-.05.091-.125.219-.226.37-.2.3-.508.7-.938 1.1-.866.803-2.228 1.604-4.19 1.604-1.96 0-3.323-.801-4.189-1.605a6.3 6.3 0 0 1-.94-1.1 5 5 0 0 1-.283-.479l-.015-.032-.008-.016a.5.5 0 0 1 0-.42l.008-.015.015-.032.058-.11c.05-.091.125-.22.226-.37.2-.301.509-.7.939-1.1C7.158 9.801 8.52 9 10.482 9m0 1c-1.66 0-2.79.67-3.508 1.337a5.2 5.2 0 0 0-.788.922c-.045.067-.08.13-.112.181q.046.081.112.183c.167.25.426.587.788.923.719.667 1.847 1.337 3.508 1.337s2.79-.67 3.51-1.337c.361-.336.62-.673.787-.923q.066-.102.11-.183-.044-.08-.11-.181a5.2 5.2 0 0 0-.788-.922c-.72-.667-1.848-1.337-3.51-1.337" clip-rule="evenodd"/><path d="M11.5 1A1.5 1.5 0 0 1 13 2.5v5h-1v-5a.5.5 0 0 0-.5-.5h-7a.5.5 0 0 0-.5.5v11a.5.5 0 0 0 .5.5H5v1h-.5A1.5 1.5 0 0 1 3 13.5v-11A1.5 1.5 0 0 1 4.5 1zm4.417 11.231a.5.5 0 0 1-.001.42l-.453-.21z"/><path d="M8 8H5V7h3zm3-2H5V5h6z"/></g>
</svg>
