<svg xmlns="http://www.w3.org/2000/svg" viewBox="0 0 20 20"
 width="20" height="20" fill="none"
 role="presentation" aria-hidden="true">
<g fill="currentColor"><path fill-rule="evenodd" d="M13.1 13.292c1.253 0 2.286 1.003 2.286 2.26S14.353 17.81 13.1 17.81s-2.285-1.002-2.286-2.258 1.033-2.26 2.286-2.26m0 1.25c-.58 0-1.034.462-1.035 1.01 0 .547.455 1.008 1.036 1.008.58 0 1.034-.46 1.035-1.008s-.454-1.01-1.035-1.01" clip-rule="evenodd"/><path fill-rule="evenodd" d="M13.102 11.25c2.451 0 4.154 1.001 5.237 2.006.537.499.922.998 1.173 1.374a6 6 0 0 1 .355.6l.02.04.006.012v.005l.002.001c-.001.001-.03.016-.566.264l.566.262-.001.003-.001.005-.006.012-.02.04-.073.137a6 6 0 0 1-.282.462 7.8 7.8 0 0 1-1.173 1.375c-1.083 1.004-2.786 2.005-5.237 2.006s-4.155-1.002-5.237-2.006a7.8 7.8 0 0 1-1.174-1.375 6 6 0 0 1-.354-.599l-.02-.04-.01-.02a.63.63 0 0 1 0-.525h.002l.008-.02.02-.04q.024-.05.072-.136c.063-.115.156-.274.282-.463a7.8 7.8 0 0 1 1.174-1.374c1.082-1.005 2.785-2.006 5.237-2.006m0 1.25c-2.077 0-3.487.837-4.386 1.671-.452.42-.777.84-.985 1.152-.056.084-.1.162-.14.227.04.066.084.145.14.229.208.313.532.734.985 1.153.899.834 2.31 1.672 4.386 1.672s3.487-.838 4.386-1.672c.452-.42.776-.84.985-1.153.056-.084.099-.163.138-.229-.04-.065-.082-.143-.138-.227a6.6 6.6 0 0 0-.985-1.152c-.899-.834-2.31-1.67-4.386-1.671" clip-rule="evenodd"/><path d="M14.375 1.25c1.036 0 1.875.84 1.875 1.875v6.25H15v-6.25a.625.625 0 0 0-.625-.625h-8.75A.625.625 0 0 0 5 3.125v13.75c0 .345.28.625.625.625h.625v1.25h-.625a1.875 1.875 0 0 1-1.875-1.875V3.125c0-1.036.84-1.875 1.875-1.875zm5.521 14.04a.63.63 0 0 1-.001.524l-.566-.262z"/><path d="M10 10H6.25V8.75H10zm3.75-2.5h-7.5V6.25h7.5z"/></g>
</svg>
