<svg xmlns="http://www.w3.org/2000/svg" viewBox="0 0 16 16"
 width="16" height="16" fill="none"
 role="presentation" aria-hidden="true">
<path fill="currentColor" fill-rule="evenodd" d="M12 2.5A2 2 0 1 1 10.065 5H7c-.943 0-1.784.435-2.334 1.115l-.014-.005a2 2 0 0 1 .014 3.774C5.216 10.564 6.056 11 7 11h5.293l-2.146-2.146.707-.708 3 3a.5.5 0 0 1 0 .707l-3 3-.707-.707L12.293 12H7a4 4 0 0 1-3.502-2.066 1.998 1.998 0 0 1 .023-3.874l-.023.005A4 4 0 0 1 7 4h3.065A2 2 0 0 1 12 2.5M4 7a1 1 0 1 0 0 2 1 1 0 0 0 0-2m8-3.5a1 1 0 0 0-.999.98v.04A1 1 0 1 0 12 3.5" clip-rule="evenodd"/>
</svg>
