<svg xmlns="http://www.w3.org/2000/svg" viewBox="0 0 20 20"
 width="20" height="20" fill="none"
 role="presentation" aria-hidden="true">
<path fill="currentColor" fill-rule="evenodd" d="M15 3.125a2.5 2.5 0 1 1-2.418 3.125H8.75c-1.178 0-2.23.544-2.917 1.394l-.018-.006a2.498 2.498 0 0 1 .017 4.717A3.74 3.74 0 0 0 8.75 13.75h6.616l-2.683-2.683.884-.884 3.75 3.75a.626.626 0 0 1 0 .884l-3.75 3.75-.884-.884L15.366 15H8.75a5 5 0 0 1-4.377-2.583 2.498 2.498 0 0 1 .029-4.843l-.03.008A5 5 0 0 1 8.75 5h3.832A2.5 2.5 0 0 1 15 3.125M5 8.75a1.25 1.25 0 1 0 0 2.5 1.25 1.25 0 0 0 0-2.5m10-4.375a1.25 1.25 0 0 0-1.249 1.224v.052A1.25 1.25 0 1 0 15 4.375" clip-rule="evenodd"/>
</svg>
