<svg xmlns="http://www.w3.org/2000/svg" viewBox="0 0 20 20"
 width="20" height="20" fill="none"
 role="presentation" aria-hidden="true">
<g fill="currentColor"><path d="M13.75 13.75h-5V12.5h5zM10.259 10l-3.567 3.567-.884-.884L8.491 10 5.808 7.317l.884-.884z"/><path fill-rule="evenodd" d="M15.486 2.5c1.035 0 1.875.84 1.875 1.875v11.25c0 1.035-.84 1.875-1.875 1.875H4.375A1.875 1.875 0 0 1 2.5 15.625V4.375c0-1.036.84-1.875 1.875-1.875zM4.375 3.75a.625.625 0 0 0-.625.625v11.25c0 .345.28.625.625.625h11.11c.346 0 .626-.28.626-.625V4.375a.625.625 0 0 0-.625-.625z" clip-rule="evenodd"/></g>
</svg>
