<svg xmlns="http://www.w3.org/2000/svg" viewBox="0 0 20 20"
 width="20" height="20" fill="none"
 role="presentation" aria-hidden="true">
<g fill="currentColor"><path d="M10 1.25a9 9 0 0 1 .532.017l.094.007a9 9 0 0 1 .515.052c.772.1 1.511.3 2.206.588l.016.006.127.055q.12.052.236.108l.106.05q.15.072.296.15l.13.073q.087.048.172.099a8.8 8.8 0 0 1 3.198 3.26q.045.077.087.155a9 9 0 0 1 .293.603 8.7 8.7 0 0 1 .732 3.886 8.7 8.7 0 0 1-1.131 3.957l-.05.088a8.8 8.8 0 0 1-3.155 3.155l-.088.05A8.7 8.7 0 0 1 10 18.75q-.58-.002-1.143-.077l.162-1.236q.48.062.981.063.45-.002.884-.055a7.45 7.45 0 0 0 3.639-1.465 7.54 7.54 0 0 0 2.396-3.085 7.5 7.5 0 0 0 .526-2.011q.053-.435.055-.884a7.6 7.6 0 0 0-.581-2.897 7.54 7.54 0 0 0-4.023-4.023 7.6 7.6 0 0 0-3.877-.516l-.162-1.238A9 9 0 0 1 10 1.25m-4.565 14.7a7.5 7.5 0 0 0 1.694.981l-.479 1.154a8.7 8.7 0 0 1-1.977-1.145zm-2.366-3.079c.252.609.583 1.178.98 1.694l-.99.76a8.7 8.7 0 0 1-1.145-1.977z"/><path d="m14.84 7.294-5.625 6.25a.627.627 0 0 1-.907.023l-3.125-3.125.884-.884 2.657 2.658 5.186-5.76zM2.563 9.019a7.6 7.6 0 0 0 0 1.962l-1.237.16A9 9 0 0 1 1.25 10q.001-.581.076-1.143zM4.05 5.435a7.5 7.5 0 0 0-.981 1.694L1.914 6.65A8.7 8.7 0 0 1 3.06 4.673zm3.079-2.366a7.5 7.5 0 0 0-1.694.98l-.762-.99A8.7 8.7 0 0 1 6.65 1.914z"/></g>
</svg>
