<svg xmlns="http://www.w3.org/2000/svg" viewBox="0 0 20 20"
 width="20" height="20" fill="none"
 role="presentation" aria-hidden="true">
<g fill="currentColor"><path d="M6.37 13.783c.976.976.857 2.116-.12 3.092-.969.97-3.713.63-3.749.625 0 0-.351-2.773.625-3.75.977-.976 2.268-.943 3.244.033"/><path fill-rule="evenodd" d="M17.506 3.739a12.5 12.5 0 0 1-2.079 6.901l-.428.646a12.5 12.5 0 0 1-4.818 4.271l-.77.386L4.11 10.64l.001-.006-.03-.03.57-1.056a12.5 12.5 0 0 1 3.525-4.064l.294-.212L8.86 5l.078-.001.341-.238a12.5 12.5 0 0 1 7.166-2.258h1.062zm-3.75 2.557a1.875 1.875 0 1 0-2.652 2.652 1.875 1.875 0 0 0 2.651-2.652" clip-rule="evenodd"/><path d="M14.998 16.989c0 1.668-2.016 2.506-3.198 1.328l-1.484-1.478.393-.196A13.75 13.75 0 0 0 15 13.28zM6.773 4.999a13.8 13.8 0 0 0-3.22 3.954l-.395.726-1.476-1.481C.504 7.016 1.342 5 3.011 5z"/></g>
</svg>
