<svg xmlns="http://www.w3.org/2000/svg" viewBox="0 0 16 16"
 width="16" height="16" fill="none"
 role="presentation" aria-hidden="true">
<g fill="currentColor"><path d="M5.096 11.027c.78.78.685 1.692-.095 2.473-.776.776-2.972.504-3 .5 0 0-.281-2.219.5-3 .78-.78 1.814-.755 2.595.027"/><path fill-rule="evenodd" d="M14.004 2.99a10 10 0 0 1-1.662 5.522l-.343.517a10 10 0 0 1-3.854 3.417l-.616.308-4.242-4.242.001-.005-.025-.024.457-.844a10 10 0 0 1 2.82-3.252l.235-.17L7.087 4h.062l.273-.19a10 10 0 0 1 5.733-1.807h.85zm-3 2.047a1.5 1.5 0 1 0-2.121 2.121 1.5 1.5 0 0 0 2.121-2.121" clip-rule="evenodd"/><path d="M11.998 13.591c0 1.335-1.612 2.005-2.558 1.063L8.253 13.47l.314-.157a11 11 0 0 0 3.431-2.69zm-6.58-9.592a11 11 0 0 0-2.576 3.163l-.316.581-1.18-1.185C.403 5.612 1.073 4 2.408 4z"/></g>
</svg>
