<svg xmlns="http://www.w3.org/2000/svg" viewBox="0 0 16 16"
 width="16" height="16" fill="none"
 role="presentation" aria-hidden="true">
<g fill="currentColor"><path d="M3 12.5a.5.5 0 0 0 .5.5h9a.5.5 0 0 0 .5-.5V12h1v.5a1.5 1.5 0 0 1-1.5 1.5h-9A1.5 1.5 0 0 1 2 12.5V12h1z"/><path fill-rule="evenodd" d="M5.75 5.113q.593 0 1.04.242.444.24.69.672.25.435.25 1.012v.008q0 .582-.25 1.016a1.7 1.7 0 0 1-.69.671 2.2 2.2 0 0 1-1.04.239H4.605v1.777h-1.18V5.113zM4.605 8.051h.856q.508 0 .789-.258.285-.262.285-.742v-.008q0-.48-.285-.738-.28-.258-.79-.258h-.855z" clip-rule="evenodd"/><path d="M10.395 7.484h.07l1.238-2.37h1.277l-1.964 3.53v2.106h-1.18V8.645L7.875 5.113h1.277zM12.5 2A1.5 1.5 0 0 1 14 3.5V4h-1v-.5a.5.5 0 0 0-.5-.5h-9a.5.5 0 0 0-.5.5V4H2v-.5A1.5 1.5 0 0 1 3.5 2z"/></g>
</svg>
