<svg xmlns="http://www.w3.org/2000/svg" viewBox="0 0 20 20"
 width="20" height="20" fill="none"
 role="presentation" aria-hidden="true">
<g fill="currentColor"><path d="M3.75 15.625c0 .345.28.625.625.625h11.25c.345 0 .625-.28.625-.625V15h1.25v.625c0 1.035-.84 1.875-1.875 1.875H4.375A1.875 1.875 0 0 1 2.5 15.625V15h1.25z"/><path fill-rule="evenodd" d="M7.188 6.392q.741 0 1.298.302.557.298.865.84.312.542.312 1.265v.01q0 .727-.312 1.27a2.13 2.13 0 0 1-.865.839q-.556.298-1.299.298h-1.43v2.222H4.282V6.392zm-1.431 3.671h1.07q.633 0 .986-.322.356-.327.356-.928v-.01q0-.6-.357-.922-.351-.322-.986-.322h-1.07z" clip-rule="evenodd"/><path d="M12.993 9.355h.088l1.548-2.963h1.597l-2.456 4.414v2.632h-1.475v-2.632L9.844 6.392h1.596zM15.625 2.5c1.035 0 1.875.84 1.875 1.875V5h-1.25v-.625a.625.625 0 0 0-.625-.625H4.375a.625.625 0 0 0-.625.625V5H2.5v-.625c0-1.036.84-1.875 1.875-1.875z"/></g>
</svg>
