<svg xmlns="http://www.w3.org/2000/svg" viewBox="0 0 20 20"
 width="20" height="20" fill="none"
 role="presentation" aria-hidden="true">
<g fill="currentColor"><path d="M4.696 4.697a7.5 7.5 0 0 1 10.61 0l.946.948v-1.8h1.25v3.511c0 .345-.28.625-.625.625h-3.51v-1.25h2.204l-1.15-1.15a6.25 6.25 0 1 0-.001 8.84 6.2 6.2 0 0 0 1.353-2.016l.576.24.577.24a7.5 7.5 0 0 1-1.622 2.42A7.5 7.5 0 0 1 4.696 4.697"/><path d="M7.811 6.96a.63.63 0 0 1 .624-.003l4.375 2.5a.627.627 0 0 1 0 1.086l-4.375 2.5A.626.626 0 0 1 7.5 12.5v-5l.005-.083a.63.63 0 0 1 .306-.458"/></g>
</svg>
