<svg xmlns="http://www.w3.org/2000/svg" viewBox="0 0 20 20"
 width="20" height="20" fill="none"
 role="presentation" aria-hidden="true">
<g fill="currentColor"><path d="M4.817 4.192a8.214 8.214 0 0 0 0 11.616l-.883.884a9.464 9.464 0 0 1 0-13.384zm11.25-.884a9.464 9.464 0 0 1 0 13.384l-.883-.884a8.214 8.214 0 0 0 0-11.616zM7.5 13.75a1.25 1.25 0 1 1 0 2.5 1.25 1.25 0 0 1 0-2.5"/><path d="m12.508 7.046 2.313-1.334.626 1.08-2.313 1.334 2.31 1.334-.624 1.083-2.312-1.335v2.666l-1.25.002V9.21l-2.306 1.332-.626-1.082 2.31-1.334-2.31-1.333.622-1.084 2.31 1.333V4.376l1.25-.002z"/></g>
</svg>
