<svg xmlns="http://www.w3.org/2000/svg" viewBox="0 0 16 16"
 width="16" height="16" fill="none"
 role="presentation" aria-hidden="true">
<g fill="currentColor"><path d="M3.854 3.354a6.57 6.57 0 0 0 0 9.293l-.707.707a7.57 7.57 0 0 1 0-10.708zm9-.708a7.57 7.57 0 0 1 0 10.708l-.707-.707a6.57 6.57 0 0 0 0-9.293zM6 11a1 1 0 1 1 0 2 1 1 0 0 1 0-2"/><path d="m10.006 5.637 1.85-1.068.502.865-1.85 1.067 1.847 1.067-.5.867-1.849-1.069V9.5l-1 .002V7.368L7.161 8.434l-.5-.866 1.847-1.067L6.66 5.435l.498-.868 1.848 1.067V3.5l1-.002z"/></g>
</svg>
