<svg xmlns="http://www.w3.org/2000/svg" viewBox="0 0 20 20"
 width="20" height="20" fill="none"
 role="presentation" aria-hidden="true">
<path fill="currentColor" fill-rule="evenodd" d="M8.812 2.664a1.876 1.876 0 0 1 2.376 0l5.625 4.602c.435.356.687.889.687 1.451v6.908c0 1.036-.84 1.875-1.875 1.875H4.375A1.875 1.875 0 0 1 2.5 15.625V8.717c0-.562.252-1.095.687-1.451zM3.75 15.625c0 .345.28.625.625.625h11.25c.345 0 .625-.28.625-.625V9.54l-5.821 5.299a.626.626 0 0 1-.842 0L3.75 9.536zm6.646-11.993a.625.625 0 0 0-.792 0L4.081 8.15l5.925 5.38 5.912-5.38z" clip-rule="evenodd"/>
</svg>
