<svg xmlns="http://www.w3.org/2000/svg" viewBox="0 0 16 16"
 width="16" height="16" fill="none"
 role="presentation" aria-hidden="true">
<path fill="currentColor" fill-rule="evenodd" d="M6 1c2.21 0 4 1.12 4 2.5V6c2.21 0 4 1.12 4 2.5v3.625C14 13.782 12.21 15 10 15s-4-1.218-4-2.875V10c-2.21 0-4-1.218-4-2.875V3.5C2 2.12 3.79 1 6 1m7 9.15c-.733.52-1.804.85-3 .85s-2.267-.33-3-.85v1.975c0 .432.226.873.749 1.242.53.375 1.32.633 2.251.633s1.721-.258 2.251-.633c.523-.37.749-.81.749-1.242zM9.651 7.01A5 5 0 0 0 9 7.096c-.516.1-.96.274-1.298.485-.277.173-.453.348-.558.507A.76.76 0 0 0 7 8.5c0 .221.146.573.701.92.541.338 1.352.58 2.299.58s1.758-.242 2.299-.58c.555-.347.701-.699.701-.92s-.146-.573-.701-.92C11.758 7.242 10.947 7 10 7q-.177 0-.349.01M9 5.15C8.267 5.67 7.196 6 6 6s-2.267-.33-3-.85v1.975c0 .432.226.872.749 1.242C4.279 8.742 5.069 9 6 9v-.5c0-1.175 1.297-2.158 3.045-2.426L9 6.081zM5.651 2.01A5 5 0 0 0 5 2.096c-.516.1-.96.274-1.298.485-.277.173-.453.348-.558.507A.76.76 0 0 0 3 3.5c0 .221.146.573.701.92C4.242 4.758 5.053 5 6 5s1.758-.242 2.299-.58c.555-.347.701-.7.701-.92s-.146-.573-.701-.92C7.758 2.242 6.947 2 6 2q-.178 0-.349.01" clip-rule="evenodd"/>
</svg>
