<svg xmlns="http://www.w3.org/2000/svg" viewBox="0 0 20 20"
 width="20" height="20" fill="none"
 role="presentation" aria-hidden="true">
<path fill="currentColor" fill-rule="evenodd" d="M7.5 1.25c2.761 0 5 1.4 5 3.125V7.5c2.761 0 5 1.4 5 3.125v4.531c0 2.071-2.239 3.594-5 3.594s-5-1.523-5-3.594V12.5c-2.761 0-5-1.523-5-3.594V4.375c0-1.726 2.239-3.125 5-3.125m8.75 11.437c-.916.65-2.255 1.063-3.75 1.063s-2.834-.413-3.75-1.063v2.47c0 .54.282 1.09.936 1.552.663.468 1.65.791 2.814.791s2.151-.323 2.814-.791c.653-.462.936-1.012.936-1.553zm-4.186-3.924a6 6 0 0 0-.815.105c-.645.126-1.2.343-1.623.607-.346.217-.565.435-.698.634a.95.95 0 0 0-.178.516c0 .276.183.716.876 1.15.677.423 1.69.725 2.874.725s2.197-.302 2.874-.725c.693-.434.876-.874.876-1.15s-.183-.716-.876-1.15c-.677-.423-1.69-.725-2.874-.725q-.222 0-.436.013m-.814-2.326C10.334 7.087 8.995 7.5 7.5 7.5s-2.834-.413-3.75-1.063v2.47c0 .54.282 1.09.936 1.552.663.468 1.65.791 2.814.791v-.625c0-1.469 1.621-2.698 3.806-3.032l-.056.008zM7.064 2.513a6 6 0 0 0-.815.105c-.645.126-1.2.343-1.623.607-.346.217-.565.435-.698.634a.95.95 0 0 0-.178.516c0 .276.183.716.876 1.15.677.423 1.69.725 2.874.725s2.197-.302 2.874-.725c.694-.434.876-.874.876-1.15s-.182-.716-.876-1.15C9.697 2.802 8.684 2.5 7.5 2.5q-.222 0-.436.013" clip-rule="evenodd"/>
</svg>
