<svg xmlns="http://www.w3.org/2000/svg" viewBox="0 0 16 16"
 width="16" height="16" fill="none"
 role="presentation" aria-hidden="true">
<g fill="currentColor" fill-rule="evenodd" clip-rule="evenodd"><path d="M8 3.5a2.5 2.5 0 1 1 0 5 2.5 2.5 0 0 1 0-5m0 1a1.5 1.5 0 1 0 0 3 1.5 1.5 0 0 0 0-3"/><path d="M6.977 1.454a1.5 1.5 0 0 1 2.047 0l.154.145A1.5 1.5 0 0 0 10.202 2h.296A1.5 1.5 0 0 1 12 3.502l-.001.296c0 .38.144.747.403 1.025l.145.154c.537.576.537 1.47 0 2.047l-.145.154-.092.108a1.5 1.5 0 0 0-.311.916v.296a1.5 1.5 0 0 1-.998 1.413V14.5a.502.502 0 0 1-.757.429L8 13.581l-2.243 1.347A.5.5 0 0 1 5 14.499V9.911a1.5 1.5 0 0 1-.993-1.258L4 8.499v-.298a1.5 1.5 0 0 0-.404-1.023l-.144-.154a1.5 1.5 0 0 1 0-2.047l.144-.154a1.5 1.5 0 0 0 .397-.882L4 3.799v-.298A1.5 1.5 0 0 1 5.348 2.01l.154-.008h.297c.332 0 .654-.11.916-.31l.108-.092zm3.024 8.559a1.5 1.5 0 0 0-.823.389l-.154.144-.112.095a1.5 1.5 0 0 1-1.823 0l-.112-.095-.154-.144a1.5 1.5 0 0 0-.822-.39v3.605l1.743-1.046.06-.032a.5.5 0 0 1 .454.032L10 13.617zM8.34 2.186a.5.5 0 0 0-.681 0l-.154.143a2.5 2.5 0 0 1-1.708.672H5.5a.5.5 0 0 0-.5.5V3.8c0 .633-.24 1.242-.672 1.705l-.145.155a.5.5 0 0 0 0 .682l.145.155A2.5 2.5 0 0 1 5 8.201V8.5a.5.5 0 0 0 .5.5h.297c.633 0 1.244.24 1.708.672l.154.144a.5.5 0 0 0 .681 0l.155-.144A2.5 2.5 0 0 1 10.203 9h.296a.5.5 0 0 0 .5-.5v-.297c0-.633.24-1.243.672-1.707l.144-.154a.5.5 0 0 0 0-.682l-.144-.154a2.5 2.5 0 0 1-.66-1.47l-.012-.237v-.296l-.01-.101a.5.5 0 0 0-.49-.4h-.296c-.634 0-1.244-.24-1.707-.672z"/></g>
</svg>
