<svg xmlns="http://www.w3.org/2000/svg" viewBox="0 0 20 20"
 width="20" height="20" fill="none"
 role="presentation" aria-hidden="true">
<g fill="currentColor" fill-rule="evenodd" clip-rule="evenodd"><path d="M10 4.375a3.125 3.125 0 1 1 0 6.25 3.125 3.125 0 0 1 0-6.25m0 1.25a1.875 1.875 0 1 0 0 3.75 1.875 1.875 0 0 0 0-3.75"/><path d="M8.72 1.818a1.876 1.876 0 0 1 2.56 0l.192.18c.348.324.805.504 1.28.503h.37c1.036 0 1.877.84 1.877 1.877l-.001.37c0 .474.18.933.504 1.28l.18.193c.672.72.672 1.838 0 2.558l-.18.193-.115.136c-.251.327-.39.73-.39 1.145l.002.37c0 .816-.522 1.508-1.249 1.766v5.735a.625.625 0 0 1-.946.536L10 16.977 7.196 18.66a.625.625 0 0 1-.946-.536v-5.735a1.87 1.87 0 0 1-1.24-1.573L5 10.624v-.372c0-.475-.18-.933-.504-1.28l-.18-.193a1.876 1.876 0 0 1 0-2.558l.18-.193a1.88 1.88 0 0 0 .496-1.102L5 4.749v-.373c0-.97.739-1.77 1.685-1.865l.191-.01h.371c.416 0 .819-.136 1.145-.388l.136-.115zm3.78 10.698c-.383.052-.742.22-1.028.486l-.193.18-.14.119a1.88 1.88 0 0 1-2.279 0l-.14-.118-.192-.181a1.87 1.87 0 0 0-1.028-.486v4.504l2.179-1.307.076-.039a.63.63 0 0 1 .566.04l2.18 1.306zm-2.074-9.784a.625.625 0 0 0-.852 0l-.193.18c-.579.54-1.343.84-2.135.84h-.37a.625.625 0 0 0-.626.624v.373c0 .79-.3 1.553-.84 2.131l-.18.194a.625.625 0 0 0 0 .852l.18.194c.54.579.84 1.34.84 2.132v.372c0 .345.28.625.625.625h.371c.792 0 1.556.3 2.135.84l.193.18c.24.223.612.223.852 0l.193-.18a3.13 3.13 0 0 1 2.134-.84h.37c.345 0 .626-.28.626-.626l-.001-.37c0-.792.3-1.555.84-2.134l.18-.193a.625.625 0 0 0 0-.852l-.18-.193a3.13 3.13 0 0 1-.826-1.838l-.014-.295v-.37l-.013-.127a.625.625 0 0 0-.612-.5h-.37c-.792 0-1.555-.3-2.134-.84z"/></g>
</svg>
