<svg xmlns="http://www.w3.org/2000/svg" viewBox="0 0 16 16"
 width="16" height="16" fill="none"
 role="presentation" aria-hidden="true">
<g fill="currentColor"><path d="M9.124 9.92a.5.5 0 0 1 .752.66 2.492 2.492 0 0 1-3.752 0 .5.5 0 0 1 .752-.66 1.492 1.492 0 0 0 2.248 0M6 7.25a.75.75 0 1 1 0 1.5.75.75 0 0 1 0-1.5m4 0a.75.75 0 1 1 0 1.5.75.75 0 0 1 0-1.5"/><path fill-rule="evenodd" d="M8 1a1.5 1.5 0 0 1 .5 2.912V4H12l.102.005A1 1 0 0 1 13 5v1.565a1.998 1.998 0 0 1 0 3.868V13l-.005.102A1 1 0 0 1 12 14H4a1 1 0 0 1-.995-.898L3 13v-2.566a1.998 1.998 0 0 1 0-3.869V5a1 1 0 0 1 1-1h3.5v-.088A1.498 1.498 0 0 1 8 1M4 13h8V5H4zM3 7.635a1 1 0 0 0 0 1.73zm10 1.73a.998.998 0 0 0 0-1.73zM8 2a.5.5 0 1 0 0 1 .5.5 0 0 0 0-1" clip-rule="evenodd"/></g>
</svg>
