<svg xmlns="http://www.w3.org/2000/svg" viewBox="0 0 20 20"
 width="20" height="20" fill="none"
 role="presentation" aria-hidden="true">
<g fill="currentColor"><path d="M11.405 12.401a.625.625 0 0 1 .94.823 3.115 3.115 0 0 1-4.69 0 .625.625 0 0 1 .94-.823c.743.85 2.067.85 2.81 0M7.5 9.063a.937.937 0 1 1 0 1.874.937.937 0 0 1 0-1.874m5 0a.937.937 0 1 1 0 1.874.937.937 0 0 1 0-1.874"/><path fill-rule="evenodd" d="M10 1.25a1.873 1.873 0 0 1 .625 3.64V5H15l.128.006A1.25 1.25 0 0 1 16.25 6.25v1.957a2.497 2.497 0 0 1 0 4.835v3.208l-.006.128A1.25 1.25 0 0 1 15 17.5H5a1.25 1.25 0 0 1-1.244-1.122l-.006-.128v-3.208a2.497 2.497 0 0 1 0-4.835V6.25C3.75 5.56 4.31 5 5 5h4.375v-.11A1.873 1.873 0 0 1 10 1.25m-5 15h10v-10H5zM3.75 9.543a1.25 1.25 0 0 0 0 2.162zm12.5 2.162a1.248 1.248 0 0 0 0-2.162zM10 2.5a.625.625 0 1 0 0 1.25.625.625 0 0 0 0-1.25" clip-rule="evenodd"/></g>
</svg>
