<svg xmlns="http://www.w3.org/2000/svg" viewBox="0 0 16 16"
 width="16" height="16" fill="none"
 role="presentation" aria-hidden="true">
<g fill="currentColor" clipPath="url(#s0-prefix__a)"><path fill-rule="evenodd" d="M12 7c2.21 0 4 1.12 4 2.5v3.625c0 1.657-1.79 3-4 3s-4-1.343-4-3V9.5C8 8.12 9.79 7 12 7m3 4.15c-.733.52-1.804.85-3 .85s-2.267-.33-3-.85v1.975c0 .443.237.92.771 1.321.535.401 1.32.679 2.229.679.91 0 1.694-.278 2.229-.679.534-.4.771-.878.771-1.321zm-3.349-3.14a5 5 0 0 0-.652.085c-.516.1-.96.274-1.298.485-.277.173-.453.348-.558.507A.76.76 0 0 0 9 9.5c0 .221.146.573.701.92.541.338 1.352.58 2.299.58s1.758-.242 2.299-.58c.555-.347.701-.699.701-.92s-.146-.573-.701-.92C13.758 8.242 12.947 8 12 8q-.177 0-.349.01" clip-rule="evenodd"/><path d="M12.5 2.001a1.5 1.5 0 0 1 1.5 1.5V6h-1V3.501a.5.5 0 0 0-.5-.5h-9a.5.5 0 0 0-.5.5v9a.5.5 0 0 0 .5.5H4v-1.5a1.5 1.5 0 0 1 1.5-1.5H7v1H5.5a.5.5 0 0 0-.5.5v1.5h2v1H3.5a1.5 1.5 0 0 1-1.5-1.5v-9a1.5 1.5 0 0 1 1.5-1.5z"/><path d="M8.256 4.014A2.5 2.5 0 0 1 10.448 6H9.412A1.498 1.498 0 1 0 7 7.616V8.79a2.5 2.5 0 0 1-1.487-2.032L5.5 6.5A2.5 2.5 0 0 1 8 4z"/></g><defs><clipPath id="s0-prefix__a"><path fill="#fff" d="M0 0h16v16H0z"/></clipPath></defs>
</svg>
