<svg xmlns="http://www.w3.org/2000/svg" viewBox="0 0 20 20"
 width="20" height="20" fill="none"
 role="presentation" aria-hidden="true">
<g fill="currentColor" clipPath="url(#s0-prefix__a)"><path fill-rule="evenodd" d="M15 8.75c2.761 0 5 1.4 5 3.125v4.531c0 2.071-2.239 3.75-5 3.75s-5-1.679-5-3.75v-4.531c0-1.726 2.239-3.125 5-3.125m3.75 5.187C17.834 14.587 16.495 15 15 15s-2.834-.413-3.75-1.063v2.47c0 .553.296 1.15.964 1.65.669.502 1.65.85 2.786.85s2.117-.348 2.786-.85c.668-.5.964-1.097.964-1.65zm-4.186-3.924a6 6 0 0 0-.815.105c-.645.126-1.2.343-1.623.607-.346.217-.565.435-.698.634a.95.95 0 0 0-.178.516c0 .276.183.716.877 1.15.676.423 1.69.725 2.873.725s2.197-.302 2.874-.725c.694-.434.876-.874.876-1.15s-.183-.716-.876-1.15C17.197 10.302 16.183 10 15 10q-.222 0-.436.013" clip-rule="evenodd"/><path d="M15.625 2.501c1.035 0 1.875.84 1.875 1.875V7.5h-1.25V4.376a.625.625 0 0 0-.625-.625H4.375a.625.625 0 0 0-.625.625v11.25c0 .345.28.625.625.625H5v-1.875c0-1.035.84-1.875 1.875-1.875H8.75v1.25H6.875a.625.625 0 0 0-.625.625v1.875h2.5v1.25H4.375A1.876 1.876 0 0 1 2.5 15.626V4.376c0-1.035.84-1.875 1.875-1.875z"/><path d="M10.32 5.017A3.125 3.125 0 0 1 13.06 7.5h-1.295A1.873 1.873 0 1 0 8.75 9.52v1.466a3.13 3.13 0 0 1-1.86-2.54l-.015-.32c0-1.726 1.4-3.125 3.125-3.125z"/></g><defs><clipPath id="s0-prefix__a"><path fill="#fff" d="M0 0h20v20H0z"/></clipPath></defs>
</svg>
