<svg xmlns="http://www.w3.org/2000/svg" viewBox="0 0 16 16"
 width="16" height="16" fill="none"
 role="presentation" aria-hidden="true">
<g fill="currentColor" fill-rule="evenodd" clip-rule="evenodd"><path d="M8.256 4.013A2.5 2.5 0 0 1 10.5 6.5l-.013.256A2.5 2.5 0 0 1 8 9l-.256-.012a2.5 2.5 0 0 1-2.231-2.232L5.5 6.5A2.5 2.5 0 0 1 8 4zM8 5a1.5 1.5 0 1 0 0 3 1.5 1.5 0 0 0 0-3"/><path d="M12.5 2A1.5 1.5 0 0 1 14 3.5v9a1.5 1.5 0 0 1-1.5 1.5h-9A1.5 1.5 0 0 1 2 12.5v-9A1.5 1.5 0 0 1 3.5 2zm-9 1a.5.5 0 0 0-.5.5v9a.5.5 0 0 0 .5.5H4v-1.5A1.5 1.5 0 0 1 5.5 10h5l.153.008A1.5 1.5 0 0 1 12 11.501V13h.5a.5.5 0 0 0 .5-.5v-9a.5.5 0 0 0-.5-.5zm2 8a.5.5 0 0 0-.5.5V13h6v-1.5a.5.5 0 0 0-.4-.49l-.1-.01z"/></g>
</svg>
