<svg xmlns="http://www.w3.org/2000/svg" viewBox="0 0 20 20"
 width="20" height="20" fill="none"
 role="presentation" aria-hidden="true">
<g fill="currentColor" fill-rule="evenodd" clip-rule="evenodd"><path d="M10.32 5.016a3.126 3.126 0 0 1 2.805 3.11l-.016.32A3.126 3.126 0 0 1 10 11.25l-.32-.016a3.13 3.13 0 0 1-2.79-2.79l-.015-.32C6.875 6.4 8.275 5 10 5zM10 6.25A1.875 1.875 0 1 0 10 10a1.875 1.875 0 0 0 0-3.75"/><path d="M15.625 2.5c1.035 0 1.875.84 1.875 1.875v11.25c0 1.036-.84 1.875-1.875 1.875H4.375A1.876 1.876 0 0 1 2.5 15.626V4.376C2.5 3.34 3.34 2.5 4.375 2.5zM4.375 3.75a.625.625 0 0 0-.625.625v11.25c0 .345.28.625.625.625H5v-1.874c0-1.036.84-1.875 1.875-1.875h6.25l.192.01A1.875 1.875 0 0 1 15 14.375v1.874h.625c.345 0 .625-.28.625-.624V4.376a.625.625 0 0 0-.625-.626zm2.5 10a.625.625 0 0 0-.625.626v1.874h7.5v-1.874a.626.626 0 0 0-.5-.613l-.125-.012z"/></g>
</svg>
