<svg xmlns="http://www.w3.org/2000/svg" viewBox="0 0 16 16"
 width="16" height="16" fill="none"
 role="presentation" aria-hidden="true">
<path fill="currentColor" fill-rule="evenodd" d="M12.5 11a.5.5 0 0 1 .5.5v3a.5.5 0 0 1-.5.5h-9l-.1-.01a.5.5 0 0 1-.4-.49v-3l.01-.098A.5.5 0 0 1 3.5 11zM4 14h8v-2H4zm8.5-8a.5.5 0 0 1 .5.5v3a.5.5 0 0 1-.5.5h-9l-.1-.01A.5.5 0 0 1 3 9.5v-3l.01-.098A.5.5 0 0 1 3.5 6zM4 9h8V7H4zm8.5-8a.5.5 0 0 1 .5.5v3a.5.5 0 0 1-.5.5h-9l-.1-.01A.5.5 0 0 1 3 4.5v-3l.01-.098A.5.5 0 0 1 3.5 1zM4 4h8V2H4z" clip-rule="evenodd"/>
</svg>
