<svg xmlns="http://www.w3.org/2000/svg" viewBox="0 0 20 20"
 width="20" height="20" fill="none"
 role="presentation" aria-hidden="true">
<path fill="currentColor" fill-rule="evenodd" d="M15.625 13.75c.345 0 .625.28.625.625v3.75c0 .345-.28.625-.625.625H4.375l-.126-.012a.626.626 0 0 1-.499-.613v-3.75l.012-.122a.625.625 0 0 1 .613-.503zM5 17.5h10V15H5zm10.625-10c.345 0 .625.28.625.625v3.75c0 .345-.28.625-.625.625H4.375l-.126-.012a.626.626 0 0 1-.499-.613v-3.75l.012-.122a.625.625 0 0 1 .613-.503zM5 11.25h10v-2.5H5zm10.625-10c.345 0 .625.28.625.625v3.75c0 .345-.28.625-.625.625H4.375l-.126-.012a.626.626 0 0 1-.499-.613v-3.75l.012-.122a.625.625 0 0 1 .613-.503zM5 5h10V2.5H5z" clip-rule="evenodd"/>
</svg>
