<svg xmlns="http://www.w3.org/2000/svg" viewBox="0 0 16 16"
 width="16" height="16" fill="none"
 role="presentation" aria-hidden="true">
<path fill="currentColor" d="M2.268 3.057a.5.5 0 0 1 .516.032l6.5 4.5a.5.5 0 0 1 0 .822l-6.5 4.5A.501.501 0 0 1 2 12.5v-9l.005-.07a.5.5 0 0 1 .263-.373m8.773-1.338a.491.491 0 0 1 .918 0 3.92 3.92 0 0 0 2.342 2.295l.064.023a.496.496 0 0 1 0 .935 3.97 3.97 0 0 0-2.397 2.394.497.497 0 0 1-.936 0 3.97 3.97 0 0 0-2.397-2.394.496.496 0 0 1 0-.935l.064-.023a3.93 3.93 0 0 0 2.342-2.295"/>
</svg>
