<svg xmlns="http://www.w3.org/2000/svg" viewBox="0 0 20 20"
 width="20" height="20" fill="none"
 role="presentation" aria-hidden="true">
<path fill="currentColor" d="M2.834 3.821a.63.63 0 0 1 .646.04l8.125 5.625a.626.626 0 0 1 0 1.028L3.48 16.14a.626.626 0 0 1-.98-.514V4.375l.006-.086a.63.63 0 0 1 .328-.468m10.967-1.672a.614.614 0 0 1 1.148 0 4.9 4.9 0 0 0 2.927 2.868l.08.03a.62.62 0 0 1 0 1.168 4.97 4.97 0 0 0-2.996 2.993.622.622 0 0 1-1.17 0 4.97 4.97 0 0 0-2.996-2.993.62.62 0 0 1 0-1.168l.08-.03a4.9 4.9 0 0 0 2.927-2.868"/>
</svg>
