<svg xmlns="http://www.w3.org/2000/svg" viewBox="0 0 20 20"
 width="20" height="20" fill="none"
 role="presentation" aria-hidden="true">
<path fill="currentColor" fill-rule="evenodd" d="M10.625 3.75H17.5V5h-1.816l2.387 5.371a.6.6 0 0 1 .054.254 3.125 3.125 0 1 1-6.25 0q.002-.136.054-.254L14.316 5h-3.691v11.25H17.5v1.25h-15v-1.25h6.875V5h-3.7a42 42 0 0 0 1.139 2.543c.38.794.766 1.602 1.259 2.832a.6.6 0 0 1 .052.25 3.125 3.125 0 1 1-6.25 0q.002-.136.054-.254L4.316 5H2.5V3.75h6.875V2.5h1.25zm-7.391 7.5a1.874 1.874 0 0 0 3.532 0zm10 0a1.874 1.874 0 0 0 3.532 0zM3.462 10h3.104c-.32-.75-.599-1.33-.88-1.918a55 55 0 0 1-.702-1.51zm10 0h3.076L15 6.54z" clip-rule="evenodd"/>
</svg>
