<svg xmlns="http://www.w3.org/2000/svg" viewBox="0 0 20 20"
 width="20" height="20" fill="none"
 role="presentation" aria-hidden="true">
<g fill="currentColor" clipPath="url(#s0-prefix__a)"><path d="M12.5 13.75h-2.38a2.513 2.513 0 1 0 0 5.026h2.38v1.25h-2.38a3.763 3.763 0 1 1 0-7.526h2.38zm3.737-1.25a3.763 3.763 0 1 1 0 7.526h-2.411v-1.25h2.41a2.513 2.513 0 0 0 0-5.026h-2.41V12.5z"/><path d="M15.625 2.5c1.035 0 1.875.84 1.875 1.875V10h-1.25V4.375a.625.625 0 0 0-.625-.625h-7.5a.625.625 0 0 0-.625.625V6.25h4.375c1.035 0 1.875.84 1.875 1.875V10H12.5V8.125a.625.625 0 0 0-.625-.625h-7.5a.625.625 0 0 0-.625.625V10H7.5v1.25H3.75v4.375c0 .345.28.625.625.625H5v1.25h-.625A1.875 1.875 0 0 1 2.5 15.625v-7.5c0-1.035.84-1.875 1.875-1.875H6.25V4.375c0-1.035.84-1.875 1.875-1.875zm.625 14.375H10v-1.25h6.25z"/></g><defs><clipPath id="s0-prefix__a"><path fill="#fff" d="M0 0h20v20H0z"/></clipPath></defs>
</svg>
