<svg xmlns="http://www.w3.org/2000/svg" viewBox="0 0 20 20"
 width="20" height="20" fill="none"
 role="presentation" aria-hidden="true">
<path fill="currentColor" fill-rule="evenodd" d="M15.625 2.5c1.035 0 1.875.84 1.875 1.875v7.5c0 1.035-.84 1.875-1.875 1.875H13.75v1.875c0 1.035-.84 1.875-1.875 1.875h-7.5A1.875 1.875 0 0 1 2.5 15.625v-7.5c0-1.036.84-1.875 1.875-1.875H6.25V4.375c0-1.036.84-1.875 1.875-1.875zM3.75 11.25v4.375c0 .345.28.625.625.625h7.5c.345 0 .625-.28.625-.625V11.25zm4.375-7.5a.625.625 0 0 0-.625.625V6.25h4.375c1.036 0 1.875.84 1.875 1.875V12.5h1.875c.345 0 .625-.28.625-.625v-7.5a.625.625 0 0 0-.625-.625zM4.375 7.5a.625.625 0 0 0-.625.625V10h8.75V8.125a.625.625 0 0 0-.625-.625z" clip-rule="evenodd"/>
</svg>
