<svg xmlns="http://www.w3.org/2000/svg" viewBox="0 0 16 16"
 width="16" height="16" fill="none"
 role="presentation" aria-hidden="true">
<g fill="currentColor" clipPath="url(#s0-prefix__a)"><path d="M10 11H8.096a2.011 2.011 0 0 0 0 4.02H10v1H8.096a3.01 3.01 0 1 1 0-6.02H10zm2.99-1a3.01 3.01 0 1 1 0 6.02h-1.93v-1h1.93a2.01 2.01 0 1 0 0-4.02h-1.93v-1z"/><path d="M12.5 2A1.5 1.5 0 0 1 14 3.5V8h-1V3.5a.5.5 0 0 0-.5-.5h-6a.5.5 0 0 0-.5.5V5h3.5A1.5 1.5 0 0 1 11 6.5V8h-1V6.5a.5.5 0 0 0-.5-.5h-6a.5.5 0 0 0-.5.5V8h3v1H3v3.5a.5.5 0 0 0 .5.5H4v1h-.5A1.5 1.5 0 0 1 2 12.5v-6A1.5 1.5 0 0 1 3.5 5H5V3.5A1.5 1.5 0 0 1 6.5 2zm.5 11.5H8v-1h5z"/></g><defs><clipPath id="s0-prefix__a"><path fill="#fff" d="M0 0h16v16H0z"/></clipPath></defs>
</svg>
