<svg xmlns="http://www.w3.org/2000/svg" viewBox="0 0 16 16"
 width="16" height="16" fill="none"
 role="presentation" aria-hidden="true">
<path fill="currentColor" fill-rule="evenodd" d="M12.5 2A1.5 1.5 0 0 1 14 3.5v6a1.5 1.5 0 0 1-1.5 1.5H11v1.5A1.5 1.5 0 0 1 9.5 14h-6A1.5 1.5 0 0 1 2 12.5v-6A1.5 1.5 0 0 1 3.5 5H5V3.5A1.5 1.5 0 0 1 6.5 2zM3 9v3.5a.5.5 0 0 0 .5.5h6a.5.5 0 0 0 .5-.5V9zm3.5-6a.5.5 0 0 0-.5.5V5h3.5A1.5 1.5 0 0 1 11 6.5V10h1.5a.5.5 0 0 0 .5-.5v-6a.5.5 0 0 0-.5-.5zm-3 3a.5.5 0 0 0-.5.5V8h7V6.5a.5.5 0 0 0-.5-.5z" clip-rule="evenodd"/>
</svg>
