<svg xmlns="http://www.w3.org/2000/svg" viewBox="0 0 16 16"
 width="16" height="16" fill="none"
 role="presentation" aria-hidden="true">
<g fill="currentColor"><path d="M9.519 10.145a4.9 4.9 0 0 0-2.528 1.252 5.2 5.2 0 0 0-.788.921q-.065.102-.111.182.045.081.111.183c.167.25.426.587.788.922a4.9 4.9 0 0 0 2.528 1.251v1.014a5.93 5.93 0 0 1-3.208-1.532 6.2 6.2 0 0 1-.94-1.1 5 5 0 0 1-.283-.48l-.016-.031-.008-.016a.5.5 0 0 1 0-.42l.001-.001.007-.015.016-.032.058-.11c.05-.09.125-.219.225-.37.201-.3.51-.7.94-1.099a5.93 5.93 0 0 1 3.208-1.533zm2-1.009a5.93 5.93 0 0 1 3.17 1.528c.43.4.738.799.939 1.1a5 5 0 0 1 .284.48l.016.031.005.01v.004l.002.001-.454.211.454.21-.001.002-.001.004-.005.01-.016.032-.059.11c-.05.09-.125.219-.225.37-.201.3-.509.7-.938 1.099a5.93 5.93 0 0 1-3.171 1.527v-1.014a4.9 4.9 0 0 0 2.49-1.246c.361-.335.62-.672.788-.922q.065-.102.11-.183-.045-.08-.11-.182a5.2 5.2 0 0 0-.788-.921 4.9 4.9 0 0 0-2.49-1.247z"/><path fill-rule="evenodd" d="M10.5 10.693c1.002 0 1.828.803 1.828 1.808a1.82 1.82 0 0 1-1.828 1.807A1.82 1.82 0 0 1 8.672 12.5c0-1.005.826-1.807 1.828-1.808m0 1a.82.82 0 0 0-.828.808c0 .438.363.806.828.807a.82.82 0 0 0 .828-.807.82.82 0 0 0-.828-.808" clip-rule="evenodd"/><path d="M12.5 2A1.5 1.5 0 0 1 14 3.5V8h-1V3.5a.5.5 0 0 0-.5-.5h-6a.5.5 0 0 0-.5.5V5h3.5A1.5 1.5 0 0 1 11 6.5V8h-1V6.5a.5.5 0 0 0-.5-.5h-6a.5.5 0 0 0-.5.5V8h3v1H3v3.5a.5.5 0 0 0 .5.5H4v1h-.5A1.5 1.5 0 0 1 2 12.5v-6A1.5 1.5 0 0 1 3.5 5H5V3.5A1.5 1.5 0 0 1 6.5 2zm3.436 10.291a.5.5 0 0 1-.001.42l-.454-.21z"/></g>
</svg>
