<svg xmlns="http://www.w3.org/2000/svg" viewBox="0 0 20 20"
 width="20" height="20" fill="none"
 role="presentation" aria-hidden="true">
<g fill="currentColor"><path fill-rule="evenodd" d="M13.125 13.367c1.252 0 2.285 1.002 2.285 2.26 0 1.256-1.033 2.257-2.285 2.257s-2.285-1.001-2.285-2.258 1.033-2.26 2.285-2.26m0 1.25c-.581 0-1.035.461-1.035 1.01 0 .547.454 1.007 1.035 1.007.58 0 1.035-.46 1.035-1.008 0-.547-.454-1.01-1.035-1.01" clip-rule="evenodd"/><path fill-rule="evenodd" d="M13.125 11.325c2.451 0 4.154 1 5.237 2.005.537.499.922.998 1.173 1.375a6 6 0 0 1 .355.599l.02.04.006.012.001.005.001.002-.566.263.566.263-.001.002-.001.005-.006.012-.02.04-.073.137a6 6 0 0 1-.282.463 7.8 7.8 0 0 1-1.173 1.374c-1.083 1.005-2.786 2.006-5.237 2.006s-4.154-1.001-5.237-2.006a7.8 7.8 0 0 1-1.174-1.374 6 6 0 0 1-.354-.6l-.02-.04-.01-.02a.63.63 0 0 1 0-.524l.002-.002.008-.018.02-.04q.025-.05.072-.137c.063-.114.156-.274.282-.462a7.8 7.8 0 0 1 1.174-1.375c1.083-1.004 2.786-2.005 5.237-2.005m0 1.25c-2.076 0-3.487.837-4.386 1.67a6.6 6.6 0 0 0-.985 1.153c-.056.083-.1.162-.14.227.04.066.084.144.14.228.209.313.533.734.985 1.154.899.833 2.31 1.67 4.386 1.671 2.076 0 3.487-.838 4.386-1.671a6.6 6.6 0 0 0 .985-1.154c.056-.083.099-.162.138-.228-.04-.065-.082-.144-.138-.227a6.6 6.6 0 0 0-.985-1.152c-.899-.834-2.31-1.671-4.386-1.671" clip-rule="evenodd"/><path d="M15.625 2.5c1.035 0 1.875.84 1.875 1.875V10h-1.25V4.375a.625.625 0 0 0-.625-.625h-7.5a.625.625 0 0 0-.625.625V6.25h4.375c1.035 0 1.875.84 1.875 1.875V10H12.5V8.125a.625.625 0 0 0-.625-.625h-7.5a.625.625 0 0 0-.625.625V10H7.5v1.25H3.75v4.375c0 .345.28.625.625.625H5v1.25h-.625A1.875 1.875 0 0 1 2.5 15.625v-7.5c0-1.035.84-1.875 1.875-1.875H6.25V4.375c0-1.035.84-1.875 1.875-1.875zm4.295 12.864a.63.63 0 0 1-.002.525l-.566-.263z"/></g>
</svg>
