<svg xmlns="http://www.w3.org/2000/svg" viewBox="0 0 20 20"
 width="20" height="20" fill="none"
 role="presentation" aria-hidden="true">
<path fill="currentColor" d="M5 2.5a2.497 2.497 0 0 1 1.057 4.762l2.81 1.974 7.65-5.372.717 1.022L9.954 10l7.28 5.114-.718 1.023-7.649-5.374-2.81 1.975A2.497 2.497 0 0 1 5 17.5 2.5 2.5 0 0 1 2.5 15c0-.9.478-1.688 1.193-2.128L7.78 10 3.693 7.128A2.5 2.5 0 0 1 2.5 5 2.5 2.5 0 0 1 5 2.5m0 11.25a1.25 1.25 0 1 0 0 2.5 1.25 1.25 0 0 0 0-2.5m0-10a1.25 1.25 0 1 0 0 2.5 1.25 1.25 0 0 0 0-2.5"/>
</svg>
