<svg xmlns="http://www.w3.org/2000/svg" viewBox="0 0 16 16"
 width="16" height="16" fill="none"
 role="presentation" aria-hidden="true">
<g fill="currentColor"><path d="M5.938 11h-1V5h1z"/><path fill-rule="evenodd" d="M9 5a2 2 0 0 1 2 2v2a2 2 0 0 1-3.99.204L7 9V7a2 2 0 0 1 2-2m0 1a1 1 0 0 0-1 1v2a1 1 0 0 0 2 0V7a1 1 0 0 0-1-1" clip-rule="evenodd"/><path fill-rule="evenodd" d="M12.5 2A1.5 1.5 0 0 1 14 3.5v9a1.5 1.5 0 0 1-1.5 1.5h-9A1.5 1.5 0 0 1 2 12.5v-9A1.5 1.5 0 0 1 3.5 2zm-9 1a.5.5 0 0 0-.5.5v9a.5.5 0 0 0 .5.5h9a.5.5 0 0 0 .5-.5v-9a.5.5 0 0 0-.5-.5z" clip-rule="evenodd"/></g>
</svg>
