<svg xmlns="http://www.w3.org/2000/svg" viewBox="0 0 20 20"
 width="20" height="20" fill="none"
 role="presentation" aria-hidden="true">
<g fill="currentColor" fill-rule="evenodd" clip-rule="evenodd"><path d="M14.375 10.625a3.75 3.75 0 0 1 3.75 3.75c0 .81-.26 1.557-.696 2.17l2.388 2.388-.884.884-2.388-2.388a3.73 3.73 0 0 1-2.17.696 3.75 3.75 0 0 1 0-7.5m0 1.25a2.5 2.5 0 1 0 0 5 2.5 2.5 0 0 0 0-5"/><path d="M8.993 1.775a1.88 1.88 0 0 1 2.014 0l6.204 3.948c.18.114.289.314.289.527V10h-1.25V7.39l-5.243 3.336c-.614.391-1.4.391-2.014 0l-2.118-1.35v2.268l1.875 1.193v1.483l-1.875-1.194v2.198L10 17.246v1.467l-6.608-4.065a1.88 1.88 0 0 1-.892-1.596V6.25c0-.213.11-.413.29-.527zM3.75 13.052c0 .217.113.418.298.532l1.577.97v-2.222L3.75 11.138zm0-3.396 1.875 1.194V8.582L3.75 7.389zm6.586-6.826a.63.63 0 0 0-.672 0L4.288 6.25l5.376 3.42c.205.13.467.13.672 0l5.374-3.42z"/></g>
</svg>
