<svg xmlns="http://www.w3.org/2000/svg" viewBox="0 0 16 16"
 width="16" height="16" fill="none"
 role="presentation" aria-hidden="true">
<g fill="currentColor" fill-rule="evenodd" clip-rule="evenodd"><path d="M11.5 8.5a3 3 0 0 1 3 3c0 .648-.208 1.246-.557 1.736l1.91 1.91-.707.708-1.91-1.91A3 3 0 1 1 11.5 8.5m0 1a2 2 0 1 0 0 4 2 2 0 0 0 0-4"/><path d="M7.194 1.42a1.5 1.5 0 0 1 1.612 0l4.963 3.158A.5.5 0 0 1 14 5v3h-1V5.911l-4.194 2.67a1.5 1.5 0 0 1-1.612 0L5.5 7.5v1.814l1.5.955v1.186L5.5 10.5v1.758L8 13.797v1.174l-5.286-3.252A1.5 1.5 0 0 1 2 10.442V5a.5.5 0 0 1 .231-.422zM3 10.442a.5.5 0 0 0 .238.425l1.262.777V9.865L3 8.91zm0-2.717 1.5.955V6.865L3 5.911zm5.269-5.461a.5.5 0 0 0-.538 0L3.431 5l4.3 2.736a.5.5 0 0 0 .538 0L12.569 5z"/></g>
</svg>
