<svg xmlns="http://www.w3.org/2000/svg" viewBox="0 0 20 20"
 width="20" height="20" fill="none"
 role="presentation" aria-hidden="true">
<path fill="currentColor" fill-rule="evenodd" d="M7.656 1.25A2.344 2.344 0 0 1 10 3.594V5h.769c.956 0 1.73.775 1.731 1.731V7.5h5.384l.175.018c.338.07.605.335.674.673l.017.174v4.832a.866.866 0 0 1-.69.848l-.175.018h-1.83a1.73 1.73 0 0 1-1.182.902l-1.123 1.121v1.258c0 .776-.63 1.406-1.406 1.406A2.344 2.344 0 0 1 10 16.406V15h-.769c-.956 0-1.73-.775-1.731-1.731v-2.307A3.46 3.46 0 0 1 10.962 7.5h.288v-.769a.48.48 0 0 0-.481-.481H10c-.69 0-1.25-.56-1.25-1.25V3.594c0-.604-.49-1.094-1.094-1.094a.157.157 0 0 0-.156.156v1.258c0 .331-.132.649-.366.883L6.01 5.92a1.25 1.25 0 0 1-.63.34.48.48 0 0 0-.381.472v4.519h1.25v1.25H2.115l-.174-.018a.87.87 0 0 1-.674-.673l-.017-.175V6.803c0-.418.297-.768.69-.848l.175-.018h1.83a1.73 1.73 0 0 1 1.182-.902L6.25 3.914V2.656c0-.776.63-1.406 1.406-1.406m3.306 7.5c-1.145 0-2.088.87-2.201 1.986l-.011.226v2.307c0 .265.216.481.481.481H10c.69 0 1.25.56 1.25 1.25v1.406c0 .604.49 1.094 1.094 1.094.086 0 .156-.07.156-.156v-1.258c0-.331.132-.649.366-.883l1.123-1.122a1.25 1.25 0 0 1 .63-.34.48.48 0 0 0 .381-.472V8.75zm5.288 4.063h1.25V8.75h-1.25zM2.5 11.25h1.25V7.188H2.5z" clip-rule="evenodd"/>
</svg>
