<svg xmlns="http://www.w3.org/2000/svg" viewBox="0 0 16 16"
 width="16" height="16" fill="none"
 role="presentation" aria-hidden="true">
<path fill="currentColor" fill-rule="evenodd" d="M6.125 1C7.16 1 8 1.84 8 2.875V4h.615C9.38 4 10 4.62 10 5.385V6h4.308l.14.015a.69.69 0 0 1 .538.538l.014.14v3.865a.69.69 0 0 1-.553.678l-.14.014h-1.462a1.39 1.39 0 0 1-.947.722l-.898.897v1.006C11 14.496 10.496 15 9.875 15A1.875 1.875 0 0 1 8 13.125V12h-.615C6.62 12 6 11.38 6 10.615V8.77A2.77 2.77 0 0 1 8.77 6H9v-.615A.385.385 0 0 0 8.615 5H8a1 1 0 0 1-1-1V2.875A.875.875 0 0 0 6.125 2 .125.125 0 0 0 6 2.125v1.006a1 1 0 0 1-.293.707l-.898.897a1 1 0 0 1-.504.273.386.386 0 0 0-.305.377V9h1v1H1.692l-.14-.015a.69.69 0 0 1-.538-.538L1 9.307V5.443c0-.334.237-.614.553-.678l.14-.014h1.462c.189-.365.533-.636.947-.722L5 3.131V2.125C5 1.504 5.504 1 6.125 1M8.77 7a1.77 1.77 0 0 0-1.761 1.589L7 8.769v1.846c0 .213.172.385.385.385H8a1 1 0 0 1 1 1v1.125c0 .483.392.875.875.875a.125.125 0 0 0 .125-.125v-1.006a1 1 0 0 1 .293-.707l.898-.897c.138-.138.314-.233.504-.273a.386.386 0 0 0 .305-.377V7zM13 10.25h1V7h-1zM2 9h1V5.75H2z" clip-rule="evenodd"/>
</svg>
