<svg xmlns="http://www.w3.org/2000/svg" viewBox="0 0 20 20"
 width="20" height="20" fill="none"
 role="presentation" aria-hidden="true">
<path fill="currentColor" d="M3.75 5a1.25 1.25 0 1 1 2.5 0 1.25 1.25 0 0 1-2.5 0m0 5a1.25 1.25 0 1 1 2.5 0 1.25 1.25 0 0 1-2.5 0M5 13.75a1.25 1.25 0 1 0 0 2.5 1.25 1.25 0 0 0 0-2.5M8.75 5a1.25 1.25 0 1 1 2.5 0 1.25 1.25 0 0 1-2.5 0M10 8.75a1.25 1.25 0 1 0 0 2.5 1.25 1.25 0 0 0 0-2.5M8.75 15a1.25 1.25 0 1 1 2.5 0 1.25 1.25 0 0 1-2.5 0M15 3.75a1.25 1.25 0 1 0 0 2.5 1.25 1.25 0 0 0 0-2.5M13.75 10a1.25 1.25 0 1 1 2.5 0 1.25 1.25 0 0 1-2.5 0M15 13.75a1.25 1.25 0 1 0 0 2.5 1.25 1.25 0 0 0 0-2.5"/>
</svg>
