<svg xmlns="http://www.w3.org/2000/svg" viewBox="0 0 16 16"
 width="16" height="16" fill="none"
 role="presentation" aria-hidden="true">
<path fill="currentColor" d="M8.913 14.939A7 7 0 0 1 8 15q-.465-.002-.914-.062l.129-.989a6 6 0 0 0 1.57 0zM4.348 12.76a6 6 0 0 0 1.355.785l-.383.923a7 7 0 0 1-1.582-.916zm7.912.792c-.481.37-1.012.68-1.581.916l-.382-.923a6 6 0 0 0 1.355-.784zm-9.805-3.255c.202.487.467.942.784 1.355l-.792.609a7 7 0 0 1-.916-1.582zm12.013.382a7 7 0 0 1-.916 1.582l-.791-.609c.317-.413.582-.868.784-1.355zM2.05 7.215a6 6 0 0 0 0 1.57l-.99.128a7 7 0 0 1 0-1.827zM8 1a7 7 0 0 1 .426.014l.075.006a7 7 0 0 1 .412.04c.618.08 1.209.24 1.765.471l.012.005.102.044.188.086.085.04.238.121.103.058.138.079a7.03 7.03 0 0 1 2.558 2.608l.07.124a7 7 0 0 1 .234.483 6.96 6.96 0 0 1 .532 3.734l-.989-.128a6 6 0 0 0 .007-1.5 5.96 5.96 0 0 0-1.172-2.904 6.03 6.03 0 0 0-2.468-1.917 6.1 6.1 0 0 0-3.102-.413l-.128-.99Q7.536 1 8 1m.5 6.5H12v1H8a.5.5 0 0 1-.5-.5V4h1zM3.24 4.348a6 6 0 0 0-.785 1.355l-.924-.383c.236-.569.546-1.1.916-1.582zm2.463-1.893a6 6 0 0 0-1.355.784l-.61-.792a7 7 0 0 1 1.582-.916z"/>
</svg>
