<svg xmlns="http://www.w3.org/2000/svg" viewBox="0 0 20 20"
 width="20" height="20" fill="none"
 role="presentation" aria-hidden="true">
<g fill="currentColor" clipPath="url(#s0-prefix__a)"><path fill-rule="evenodd" d="M15.625 8.75c1.726 0 3.125 1.4 3.125 3.125v1.875h.625c.345 0 .625.28.625.625v5c0 .345-.28.625-.625.625h-7.5a.625.625 0 0 1-.625-.625v-5c0-.345.28-.625.625-.625h.625v-1.875c0-1.726 1.4-3.125 3.125-3.125m-3.125 10h6.25V15H12.5zM15.625 10c-1.036 0-1.875.84-1.875 1.875v1.875h3.75v-1.875c0-1.035-.84-1.875-1.875-1.875" clip-rule="evenodd"/><path d="M8.993 1.775a1.88 1.88 0 0 1 2.014 0l6.204 3.948-.672 1.054-6.203-3.947a.63.63 0 0 0-.672 0L4.29 6.25l6.046 3.848-.672 1.054L3.75 7.39v5.675c0 .214.11.413.29.527l5.313 3.382-.671 1.055-5.314-3.382a1.88 1.88 0 0 1-.868-1.582V6.25c0-.213.11-.413.29-.527z"/></g><defs><clipPath id="s0-prefix__a"><path fill="#fff" d="M0 0h20v20H0z"/></clipPath></defs>
</svg>
