<svg xmlns="http://www.w3.org/2000/svg" viewBox="0 0 16 16"
 width="16" height="16" fill="none"
 role="presentation" aria-hidden="true">
<g fill="currentColor" clipPath="url(#s0-prefix__a)"><path d="M14.507 13a1.5 1.5 0 0 1 1.5 1.507L16 16.002l-1-.004.007-1.496a.5.5 0 0 0-.5-.502h-4a.5.5 0 0 0-.5.498L10 16.002l-1-.004.007-1.505a1.5 1.5 0 0 1 1.5-1.493zM7.194 1.42a1.5 1.5 0 0 1 1.612 0l4.963 3.16A.5.5 0 0 1 14 5v1.5h-1V5.275L8.269 2.264a.5.5 0 0 0-.538 0L3.431 5l4.52 2.876-.268.42-.269.423L3 5.912v4.523a.5.5 0 0 0 .242.428l4.515 2.708-.514.858L2.73 11.72A1.5 1.5 0 0 1 2 10.435V5a.5.5 0 0 1 .231-.422z"/><path fill-rule="evenodd" d="M12.5 7.5a2.5 2.5 0 1 1 0 5 2.5 2.5 0 0 1 0-5m0 1a1.5 1.5 0 1 0 0 3 1.5 1.5 0 0 0 0-3" clip-rule="evenodd"/></g><defs><clipPath id="s0-prefix__a"><path fill="#fff" d="M0 0h16v16H0z"/></clipPath></defs>
</svg>
