<svg xmlns="http://www.w3.org/2000/svg" viewBox="0 0 20 20"
 width="20" height="20" fill="none"
 role="presentation" aria-hidden="true">
<path fill="currentColor" d="M9.786 1.913a.63.63 0 0 1 .428 0l6.875 2.5c.247.09.411.325.411.587v3.75c0 3.681-1.853 6.036-3.68 7.448a12 12 0 0 1-3.32 1.8q-.154.051-.24.077l-.067.02-.02.006-.005.001-.002.001a.6.6 0 0 1-.249.016l-.082-.016h-.003l-.005-.002-.02-.006-.067-.02a11 11 0 0 1-1.066-.403 12 12 0 0 1-2.494-1.474C4.353 14.786 2.5 12.43 2.5 8.75V5c0-.262.164-.497.411-.587z"/>
</svg>
