<svg xmlns="http://www.w3.org/2000/svg" viewBox="0 0 20 20"
 width="20" height="20" fill="none"
 role="presentation" aria-hidden="true">
<g fill="currentColor" fill-rule="evenodd" clip-rule="evenodd"><path d="M10.32 5.016a3.126 3.126 0 0 1 2.805 3.109l-.016.32A3.126 3.126 0 0 1 10 11.25l-.32-.016a3.13 3.13 0 0 1-2.79-2.79l-.015-.319C6.875 6.399 8.275 5 10 5zM10 6.25A1.875 1.875 0 1 0 10 10a1.875 1.875 0 0 0 0-3.75"/><path d="M9.786 1.913a.63.63 0 0 1 .428 0l6.875 2.5c.247.09.411.324.411.587v5c0 2.505-1.945 4.544-3.68 5.885a20.2 20.2 0 0 1-3.537 2.173l-.017.007-.005.003h-.001a.63.63 0 0 1-.392.044l-.127-.043-.007-.004-.017-.007-.062-.03-.23-.112a20.2 20.2 0 0 1-3.245-2.031C4.445 14.545 2.5 12.505 2.5 10V5c0-.263.164-.497.411-.587zM6.875 13.75a.623.623 0 0 0-.621.577q.337.296.69.57a19 19 0 0 0 3.04 1.901l.016.008.016-.008a19 19 0 0 0 3.04-1.902q.353-.274.69-.57a.62.62 0 0 0-.495-.564l-.126-.012zM3.75 5.437V10c0 1.215.631 2.36 1.54 3.377a1.87 1.87 0 0 1 1.585-.877h6.25l.192.01c.587.06 1.094.39 1.394.865.907-1.015 1.539-2.16 1.539-3.375V5.437L10 3.164z"/></g>
</svg>
