<svg xmlns="http://www.w3.org/2000/svg" viewBox="0 0 20 20"
 width="20" height="20" fill="none"
 role="presentation" aria-hidden="true">
<g fill="currentColor"><path d="m14.218 7.915-5 5.625a.627.627 0 0 1-.91.027l-2.5-2.5.884-.884 2.03 2.03 4.56-5.128z"/><path fill-rule="evenodd" d="M9.786 1.913a.63.63 0 0 1 .428 0l6.875 2.5c.247.09.411.324.411.587v3.75c0 3.68-1.853 6.035-3.68 7.447a12 12 0 0 1-3.32 1.8l-.24.078-.067.02-.02.005-.005.002h-.002a.6.6 0 0 1-.249.017l-.082-.016-.003-.001-.005-.002-.02-.006q-.024-.006-.067-.02a11 11 0 0 1-1.066-.403 12 12 0 0 1-2.494-1.474C4.353 14.785 2.5 12.431 2.5 8.75V5c0-.263.164-.498.411-.587zM3.75 5.437V8.75c0 3.194 1.585 5.214 3.195 6.459a10.8 10.8 0 0 0 2.963 1.606l.092.03.092-.03a10.8 10.8 0 0 0 2.964-1.607c1.61-1.244 3.194-3.264 3.194-6.458V5.437L10 3.164z" clip-rule="evenodd"/></g>
</svg>
