<svg xmlns="http://www.w3.org/2000/svg" viewBox="0 0 16 16"
 width="16" height="16" fill="none"
 role="presentation" aria-hidden="true">
<g fill="currentColor"><path d="m11.374 6.332-4 4.5a.5.5 0 0 1-.728.021l-2-2 .708-.707L6.978 9.77l3.648-4.102z"/><path fill-rule="evenodd" d="M7.83 1.53a.5.5 0 0 1 .34 0l5.5 2A.5.5 0 0 1 14 4v3c0 2.945-1.482 4.828-2.944 5.958a9.6 9.6 0 0 1-2.657 1.44l-.191.062-.054.015-.015.005-.004.001-.002.001a.5.5 0 0 1-.2.013l-.065-.013h-.003l-.004-.002-.015-.005-.054-.015-.191-.063a9.6 9.6 0 0 1-2.656-1.44C3.481 11.829 2 9.946 2 7V4a.5.5 0 0 1 .33-.47zM3 4.35V7c0 2.555 1.268 4.172 2.556 5.167a8.6 8.6 0 0 0 2.37 1.285q.04.014.074.023l.073-.023a8.6 8.6 0 0 0 2.371-1.285C11.732 11.172 13 9.555 13 7V4.35L8 2.53z" clip-rule="evenodd"/></g>
</svg>
