<svg xmlns="http://www.w3.org/2000/svg" viewBox="0 0 16 16"
 width="16" height="16" fill="none"
 role="presentation" aria-hidden="true">
<path fill="currentColor" d="M13 4.35 8 2.53 3 4.35V7c0 2.555 1.268 4.172 2.556 5.167a8.6 8.6 0 0 0 2.37 1.285l.074.024.073-.024a8.6 8.6 0 0 0 2.371-1.285C11.732 11.172 13 9.555 13 7zM14 7c0 2.945-1.482 4.828-2.944 5.958a9.6 9.6 0 0 1-2.657 1.44l-.191.062-.054.016-.015.004-.004.002h-.002a.5.5 0 0 1-.2.013l-.065-.012-.003-.002h-.004l-.015-.005-.054-.016-.191-.062a9.6 9.6 0 0 1-2.656-1.44C3.481 11.828 2 9.945 2 7V4a.5.5 0 0 1 .33-.47l5.5-2a.5.5 0 0 1 .34 0l5.5 2A.5.5 0 0 1 14 4z"/>
</svg>
