<svg xmlns="http://www.w3.org/2000/svg" viewBox="0 0 16 16"
 width="16" height="16" fill="none"
 role="presentation" aria-hidden="true">
<g fill="currentColor" fill-rule="evenodd" clip-rule="evenodd"><path d="M8 4.5a2 2 0 0 1 2 2V7h.5a.5.5 0 0 1 .5.5v3a.5.5 0 0 1-.5.5h-5a.5.5 0 0 1-.5-.5v-3a.5.5 0 0 1 .5-.5H6v-.5a2 2 0 0 1 2-2M6 10h4V8H6zm2-4.5a1 1 0 0 0-1 1V7h2v-.5a1 1 0 0 0-1-1"/><path d="M7.83 1.53a.5.5 0 0 1 .34 0l5.5 2A.5.5 0 0 1 14 4v3c0 2.945-1.482 4.829-2.944 5.958a9.6 9.6 0 0 1-2.657 1.44q-.122.041-.191.062l-.054.016-.015.005h-.004l-.002.002a.5.5 0 0 1-.2.012l-.065-.012-.003-.001-.004-.001-.015-.005-.054-.016-.191-.062a9.6 9.6 0 0 1-2.656-1.44C3.481 11.828 2 9.945 2 7V4a.5.5 0 0 1 .33-.47zM3 4.35V7c0 2.555 1.268 4.172 2.556 5.167a8.6 8.6 0 0 0 2.37 1.286l.074.023q.034-.01.073-.024a8.6 8.6 0 0 0 2.371-1.285C11.732 11.172 13 9.555 13 7V4.35L8 2.532z"/></g>
</svg>
