<svg xmlns="http://www.w3.org/2000/svg" viewBox="0 0 20 20"
 width="20" height="20" fill="none"
 role="presentation" aria-hidden="true">
<g fill="currentColor" fill-rule="evenodd" clip-rule="evenodd"><path d="M10 5.625a2.5 2.5 0 0 1 2.5 2.5v.625h.625c.345 0 .625.28.625.625v3.75c0 .345-.28.625-.625.625h-6.25a.625.625 0 0 1-.625-.625v-3.75c0-.345.28-.625.625-.625H7.5v-.625a2.5 2.5 0 0 1 2.5-2.5M7.5 12.5h5V10h-5zM10 6.875c-.69 0-1.25.56-1.25 1.25v.625h2.5v-.625c0-.69-.56-1.25-1.25-1.25"/><path d="M9.786 1.913a.63.63 0 0 1 .428 0l6.875 2.5c.247.09.411.325.411.587v3.75c0 3.681-1.853 6.036-3.68 7.448a12 12 0 0 1-3.32 1.8q-.154.051-.24.077l-.067.02-.02.006-.005.001-.002.001a.6.6 0 0 1-.249.016l-.082-.016h-.003l-.005-.002-.02-.006-.067-.02a11 11 0 0 1-1.066-.403 12 12 0 0 1-2.494-1.474C4.353 14.786 2.5 12.43 2.5 8.75V5c0-.262.164-.497.411-.587zM3.75 5.437V8.75c0 3.194 1.585 5.215 3.195 6.459a10.8 10.8 0 0 0 2.963 1.607l.092.029.092-.03a10.8 10.8 0 0 0 2.964-1.607c1.61-1.243 3.194-3.264 3.194-6.458V5.437L10 3.164z"/></g>
</svg>
