<svg xmlns="http://www.w3.org/2000/svg" viewBox="0 0 20 20"
 width="20" height="20" fill="none"
 role="presentation" aria-hidden="true">
<path fill="currentColor" d="M16.25 5.437 10 3.164 3.75 5.437V8.75c0 3.194 1.585 5.215 3.195 6.459a10.8 10.8 0 0 0 2.963 1.606l.092.03.092-.03a10.8 10.8 0 0 0 2.964-1.606c1.61-1.244 3.194-3.265 3.194-6.459zM17.5 8.75c0 3.681-1.853 6.035-3.68 7.448a12 12 0 0 1-3.32 1.799q-.154.052-.24.078l-.067.02-.02.006h-.005l-.002.002a.6.6 0 0 1-.249.016l-.082-.016-.003-.001-.005-.001-.02-.006-.067-.02a11 11 0 0 1-1.066-.403 12 12 0 0 1-2.494-1.474C4.353 14.785 2.5 12.43 2.5 8.75V5c0-.263.164-.497.411-.587l6.875-2.5a.63.63 0 0 1 .428 0l6.875 2.5c.247.09.411.324.411.587z"/>
</svg>
