<svg xmlns="http://www.w3.org/2000/svg" viewBox="0 0 16 16"
 width="16" height="16" fill="none"
 role="presentation" aria-hidden="true">
<g fill="currentColor" fill-rule="evenodd" clip-rule="evenodd"><path d="M8.256 4.013A2.5 2.5 0 0 1 10.5 6.5l-.013.256A2.5 2.5 0 0 1 8 9l-.256-.013a2.5 2.5 0 0 1-2.231-2.231L5.5 6.5A2.5 2.5 0 0 1 8 4zM8 5a1.5 1.5 0 1 0 0 3 1.5 1.5 0 0 0 0-3"/><path d="M7.83 1.53a.5.5 0 0 1 .34 0l5.5 2A.5.5 0 0 1 14 4v4c0 2.004-1.556 3.636-2.944 4.708a16.2 16.2 0 0 1-2.78 1.715l-.05.023-.013.006-.004.002-.001.001a.5.5 0 0 1-.313.034l-.102-.034-.006-.003-.014-.006-.05-.023q-.064-.03-.183-.09a16 16 0 0 1-2.596-1.625C3.556 11.636 2 10.004 2 8V4a.5.5 0 0 1 .33-.47zM5.5 11a.5.5 0 0 0-.497.462q.27.236.553.455a15 15 0 0 0 2.431 1.522l.013.005.013-.005a15 15 0 0 0 2.432-1.521q.282-.22.551-.457a.5.5 0 0 0-.395-.451L10.5 11zM3 4.35V8c0 .972.505 1.889 1.231 2.701a1.5 1.5 0 0 1 1.269-.7h5l.153.007a1.5 1.5 0 0 1 1.116.692c.726-.812 1.23-1.729 1.231-2.7V4.35L8 2.53z"/></g>
</svg>
