<svg xmlns="http://www.w3.org/2000/svg" viewBox="0 0 16 16"
 width="16" height="16" fill="none"
 role="presentation" aria-hidden="true">
<g fill="currentColor"><path fill-rule="evenodd" d="M8.1 5.5a2 2 0 1 1 0 4 2 2 0 0 1 0-4m0 1a1 1 0 1 0 0 2 1 1 0 0 0 0-2" clip-rule="evenodd"/><path fill-rule="evenodd" d="M8 3c2.39 0 4.13 1.076 5.262 2.135a9.3 9.3 0 0 1 1.259 1.454 8 8 0 0 1 .393.626l.022.04.007.012.001.004h.001L14.5 7.5l.445.229-.002.004-.007.012-.022.04-.08.14c-.07.12-.175.287-.313.486a9.3 9.3 0 0 1-1.26 1.454C12.132 10.924 10.39 12 8.002 12c-2.39 0-4.132-1.076-5.263-2.135A9.3 9.3 0 0 1 1.48 8.411a8 8 0 0 1-.394-.626l-.021-.04-.007-.012-.002-.004h-.001L1.5 7.5l-.445-.229.003-.004.007-.012.021-.04q.027-.052.08-.14c.07-.12.175-.287.314-.486a9.3 9.3 0 0 1 1.258-1.454C3.87 4.076 5.611 3 8 3m0 1c-2.064 0-3.574.924-4.579 1.865A8.3 8.3 0 0 0 2.077 7.5a8.3 8.3 0 0 0 1.344 1.635C4.426 10.075 5.936 11 8.001 11c2.063 0 3.573-.924 4.578-1.865A8.3 8.3 0 0 0 13.922 7.5a8.3 8.3 0 0 0-1.343-1.635C11.574 4.925 10.064 4 8 4" clip-rule="evenodd"/><path d="m1.5 7.5-.445.229a.5.5 0 0 1 0-.458zm13.445-.229a.5.5 0 0 1 0 .458L14.5 7.5z"/></g>
</svg>
