<svg xmlns="http://www.w3.org/2000/svg" viewBox="0 0 20 20"
 width="20" height="20" fill="none"
 role="presentation" aria-hidden="true">
<g fill="currentColor"><path fill-rule="evenodd" d="M10.125 6.875a2.5 2.5 0 1 1 0 5 2.5 2.5 0 0 1 0-5m0 1.25a1.25 1.25 0 1 0 0 2.5 1.25 1.25 0 0 0 0-2.5" clip-rule="evenodd"/><path fill-rule="evenodd" d="M10 3.75c2.987 0 5.164 1.345 6.577 2.668a11.6 11.6 0 0 1 1.574 1.818 10 10 0 0 1 .492.783l.026.05.01.014q0 .003.002.005v.001l-.556.286.557.286h-.002l-.002.006-.009.014-.026.05-.1.176a10 10 0 0 1-.392.607 11.6 11.6 0 0 1-1.574 1.818C15.164 13.655 12.987 15 10 15s-5.163-1.345-6.577-2.668a11.6 11.6 0 0 1-1.574-1.818 10 10 0 0 1-.491-.783q-.018-.031-.027-.05l-.009-.014-.002-.005-.002-.001.557-.286-.557-.286h.002l.002-.006.009-.014q.009-.019.027-.05.034-.065.1-.176a10 10 0 0 1 .391-.607c.346-.496.868-1.157 1.574-1.818C4.837 5.095 7.013 3.75 10 3.75M10 5C7.42 5 5.533 6.155 4.276 7.332a10.3 10.3 0 0 0-1.68 2.043q.106.173.279.424c.307.44.773 1.03 1.401 1.62C5.533 12.595 7.42 13.75 10 13.75s4.467-1.155 5.724-2.331a10.4 10.4 0 0 0 1.401-1.62 9 9 0 0 0 .277-.424 9 9 0 0 0-.277-.424 10.4 10.4 0 0 0-1.401-1.62C14.467 6.156 12.581 5.002 10 5" clip-rule="evenodd"/><path d="m1.875 9.375-.557.286a.63.63 0 0 1 0-.572zm16.807-.285a.63.63 0 0 1 0 .57l-.557-.285z"/></g>
</svg>
