<svg xmlns="http://www.w3.org/2000/svg" viewBox="0 0 20 20"
 width="20" height="20" fill="none"
 role="presentation" aria-hidden="true">
<g fill="currentColor" fill-rule="evenodd" clipPath="url(#s0-prefix__a)" clip-rule="evenodd"><path d="m10.725 10.148-.613.612a.21.21 0 0 1-.296 0l-.612-.612a.21.21 0 0 1 0-.296l.612-.612a.21.21 0 0 1 .296 0l.613.612a.21.21 0 0 1 0 .296m1.28-.77-1.418-1.419a.88.88 0 0 0-1.246 0L7.923 9.377a.88.88 0 0 0 0 1.246l1.418 1.418a.88.88 0 0 0 1.246 0l1.418-1.418a.88.88 0 0 0 0-1.246M7.608 0C6.91 0 6.344.566 6.344 1.264v2.618L4.059 2.563a1.264 1.264 0 1 0-1.264 2.19l4.01 2.316a1.264 1.264 0 0 0 2.067-.977V1.264C8.872.566 8.306 0 7.608 0m-.994 10.48a1.2 1.2 0 0 0 .09-.362 1.3 1.3 0 0 0 0-.236 1.2 1.2 0 0 0-.09-.362l-.023-.054-.035-.067-.016-.031-.007-.011-.045-.07-.025-.036q-.022-.03-.047-.06l-.033-.039-.044-.045-.046-.045q-.019-.017-.04-.032-.028-.025-.058-.048l-.037-.025-.07-.045-.01-.007-4.181-2.414a1.264 1.264 0 1 0-1.265 2.19L2.917 10 .632 11.319a1.264 1.264 0 1 0 1.265 2.19l4.18-2.414.012-.007.069-.045.037-.025q.03-.023.059-.048.02-.014.04-.032l.045-.045.044-.045.033-.04q.024-.028.047-.059.014-.018.025-.036.024-.034.045-.07l.007-.01.016-.031.035-.068zm.994 2.164a1.26 1.26 0 0 0-.803.287l-4.01 2.316a1.264 1.264 0 0 0 1.264 2.19l2.285-1.32v2.619a1.264 1.264 0 0 0 2.528 0v-4.828c0-.698-.566-1.264-1.264-1.264m9.526 2.603-4.011-2.316a1.264 1.264 0 0 0-2.067.977v4.828a1.264 1.264 0 1 0 2.529 0v-2.618l2.284 1.319a1.265 1.265 0 0 0 1.265-2.19m2.162-3.928L17.012 10l2.284-1.319a1.264 1.264 0 1 0-1.264-2.19L13.85 8.905l-.011.007-.07.045-.036.025-.06.047-.039.033-.045.045-.045.045-.033.04q-.024.028-.047.059l-.025.036-.045.07-.007.01-.016.032a1.3 1.3 0 0 0-.08.178 1.2 1.2 0 0 0-.059.236 1.3 1.3 0 0 0 .024.494l.014.05a1.2 1.2 0 0 0 .101.245l.016.03.007.011.045.07.025.036.048.06q.014.02.032.039l.045.045.045.045.04.032q.028.025.059.048l.036.025.07.045.01.007 4.182 2.414a1.264 1.264 0 1 0 1.264-2.19m-1.698-8.293a1.264 1.264 0 0 0-1.728-.463l-2.284 1.32v-2.62a1.264 1.264 0 1 0-2.529 0v4.828a1.264 1.264 0 0 0 2.067.977l4.01-2.316a1.264 1.264 0 0 0 .464-1.727"/></g><defs><clipPath id="s0-prefix__a"><path fill="#fff" d="M0 0h20v20H0z"/></clipPath></defs>
</svg>
