<svg
  width="105"
  height="24"
  viewBox="0 0 140 32"
  fill="none"
  xmlns="http://www.w3.org/2000/svg"
>
  <g clip-path="url(#snowflake-wordmark-clip)">
    <path
      fill-rule="evenodd"
      clip-rule="evenodd"
      d="M40.7468 9.97503C41.5392 9.97503 42.5345 10.3734 43.3217 10.9526C44.1239 11.5429 44.5045 12.1694 44.1131 12.5128C44.0536 12.565 43.9924 12.6024 43.9285 12.6249C43.741 12.691 43.5626 12.6314 43.3266 12.4621C43.2519 12.4085 42.8098 12.0495 42.656 11.9391C42.0496 11.5038 41.4187 11.2711 40.5794 11.2711C40.0665 11.2711 39.4222 11.4385 38.9279 11.728C38.3329 12.0765 37.9925 12.5645 37.9925 13.1728C37.9925 13.5865 38.2121 13.9042 38.6554 14.1791C39.0114 14.3998 39.4122 14.5549 40.2521 14.8264C40.2454 14.8242 40.4464 14.8891 40.503 14.9074C40.6108 14.9424 40.6989 14.9713 40.7832 14.9994C40.8634 15.0262 40.9445 15.0531 41.0555 15.0898C41.0852 15.0995 41.1235 15.1122 41.1913 15.1345C41.2453 15.1524 41.2865 15.166 41.3265 15.1792C42.5983 15.6003 43.2233 15.864 43.7785 16.2796C44.5005 16.8201 44.8714 17.5288 44.8714 18.5019C44.8714 19.4984 44.3953 20.4008 43.5591 21.0339C42.7424 21.6341 41.7715 21.9147 40.5725 21.9147C39.7849 21.9047 38.7947 21.6896 38.0804 21.3522C37.4497 21.0543 36.9959 20.7638 36.7454 20.4866C36.4516 20.1616 36.4286 19.8347 36.7155 19.5652C36.8864 19.4046 37.079 19.4106 37.3501 19.5416C37.4373 19.5837 37.9864 19.902 38.1899 20.0033C38.8827 20.3482 39.623 20.5377 40.5739 20.5377C41.1018 20.5377 41.7939 20.378 42.3252 20.0923C43.0009 19.7289 43.3834 19.2004 43.3761 18.5031C43.3709 18.0007 43.0833 17.6029 42.5277 17.2596C42.1006 16.9956 41.6643 16.8235 40.7103 16.5043C40.6991 16.5005 40.6877 16.4967 40.676 16.4929C40.615 16.473 39.3467 16.1166 38.9215 15.9644C37.3251 15.3931 36.4558 14.5597 36.4953 13.1695C36.5284 12.0041 36.9125 11.3674 37.8123 10.7472C38.5414 10.2446 39.5532 9.97503 40.7468 9.97503ZM48.2196 21.6579C48.1048 21.8227 47.9091 21.9147 47.7 21.9147H47.5405L47.525 21.9103C47.3347 21.8559 47.1683 21.7228 47.079 21.5556C47.0489 21.5204 47.0383 21.4862 47.0358 21.4418L47.0112 21.4172V10.6874C47.0112 10.3055 47.3093 9.99893 47.7 9.99893C48.0715 9.99893 48.3649 10.31 48.3649 10.6874V11.5094C49.2686 10.5595 50.538 9.99893 51.8844 9.99893C54.57 9.99893 56.7577 12.193 56.7577 14.8695V21.2262C56.7577 21.6169 56.4509 21.9147 56.0689 21.9147C55.6868 21.9147 55.3801 21.6169 55.3801 21.2262V14.8695C55.3801 12.9411 53.8211 11.3759 51.8844 11.3759C49.9748 11.3759 48.4115 12.9383 48.3649 14.8695V21.336L48.3624 21.3459L48.3615 21.3497C48.322 21.5075 48.2933 21.5814 48.2196 21.6579ZM64.2997 9.97503C67.4243 9.97503 69.962 12.6779 69.962 15.9449C69.962 19.2119 67.4243 21.9147 64.2997 21.9147C61.1909 21.9147 58.6375 19.2032 58.6375 15.9449C58.6375 12.6866 61.1909 9.97503 64.2997 9.97503ZM93.6903 6.39544C93.668 6.39787 93.6452 6.39929 93.6204 6.39969C92.9031 6.3947 92.4783 6.53073 92.2372 6.80047C91.965 7.12004 91.7981 7.7278 91.7865 8.6745V9.80959L93.3225 9.80967C93.717 9.79451 94.0408 10.1046 94.0304 10.4732C94.0402 10.8748 93.7347 11.1938 93.3269 11.216H91.7864L91.7864 21.2436C91.8021 21.6288 91.4935 21.9515 91.1197 21.9515C90.7156 21.9515 90.4 21.6356 90.4162 21.2483V11.216L88.9797 11.2158C88.5872 11.1937 88.2826 10.8758 88.2826 10.476C88.2826 10.1032 88.605 9.79448 88.9861 9.80958H90.4162V8.67352C90.4274 7.35947 90.6565 6.50185 91.2169 5.87847C91.7463 5.26914 92.572 4.99331 93.6212 4.99331C93.6459 4.99331 93.6705 4.99458 93.6949 4.9971C93.7191 4.99458 93.7436 4.99331 93.7682 4.99331H93.9528C94.3407 4.99331 94.6558 5.30828 94.6557 5.69852L94.6553 5.72161C94.642 6.0989 94.3317 6.39969 93.9533 6.39969H93.7679C93.7418 6.39969 93.716 6.39826 93.6903 6.39544ZM78.8654 15.2381L76.2605 21.4588L76.2517 21.4676L76.2483 21.4777C76.1645 21.7291 75.8903 21.9147 75.6372 21.9147C75.5639 21.9147 75.51 21.902 75.4007 21.866C75.3661 21.863 75.3345 21.8527 75.3061 21.8356C75.2886 21.8251 75.2767 21.8159 75.2614 21.8014C75.1302 21.7417 75.0405 21.634 74.9795 21.4814L71.0597 10.9449C70.9186 10.6064 71.0801 10.2029 71.4086 10.0537C71.7583 9.90808 72.1866 10.0849 72.3019 10.4308L75.6204 19.4549L78.2102 13.2933C78.3217 13.0424 78.5981 12.8666 78.8651 12.8666C79.1521 12.8666 79.4308 13.0387 79.545 13.2955L82.1334 19.454L85.4283 10.4311L85.4302 10.4263C85.5732 10.0832 85.9994 9.90725 86.3217 10.0537C86.6681 10.198 86.8381 10.6003 86.6961 10.9407L82.7976 21.4362C82.7421 21.5749 82.6575 21.6877 82.5446 21.7723C82.4157 21.8689 82.2978 21.9147 82.1409 21.9147H82.0692L82.055 21.9138C81.8057 21.8827 81.5638 21.6993 81.485 21.462L78.8654 15.2381ZM97.3814 4.95654C97.7751 4.95654 98.0941 5.26648 98.0941 5.64503V21.2262C98.0941 21.6048 97.7751 21.9147 97.3814 21.9147C97.0071 21.9147 96.6926 21.6004 96.6926 21.2262V5.64503C96.6926 5.27086 97.0071 4.95654 97.3814 4.95654ZM110.061 19.8198C108.996 21.1268 107.436 21.9147 105.776 21.9147C102.644 21.9147 100.114 19.2276 100.114 15.9449C100.114 12.6622 102.644 9.97503 105.776 9.97503C107.444 9.97503 109.001 10.7496 110.061 12.0464V10.6635C110.061 10.2729 110.367 9.97503 110.749 9.97503C111.131 9.97503 111.438 10.2729 111.438 10.6635V21.2262C111.438 21.6004 111.124 21.9147 110.749 21.9147C110.375 21.9147 110.061 21.6004 110.061 21.2262V19.8198ZM64.2997 11.3281C61.9633 11.3281 60.0151 13.4133 60.0151 15.9449C60.0151 18.4719 61.9588 20.5377 64.2997 20.5377C66.6406 20.5377 68.5844 18.4719 68.5844 15.9449C68.5844 13.4133 66.6362 11.3281 64.2997 11.3281ZM115.253 16.6282L121.991 10.0601C122.275 9.77631 122.682 9.77631 122.962 10.056C123.251 10.3161 123.251 10.7507 122.965 11.0366L118.522 15.3324L122.998 20.7711C123.249 21.0781 123.225 21.4794 122.942 21.7616L122.933 21.7701C122.805 21.8725 122.65 21.9147 122.479 21.9147C122.241 21.9147 122.04 21.8343 121.93 21.6509L117.521 16.3304L115.253 18.5973V21.2262C115.253 21.6048 114.934 21.9147 114.54 21.9147C114.166 21.9147 113.851 21.6004 113.851 21.2262V5.64503C113.851 5.27086 114.166 4.95654 114.54 4.95654C114.934 4.95654 115.253 5.26648 115.253 5.64503V16.6282ZM125.325 16.2749C125.495 18.6798 127.392 20.518 129.708 20.5376C129.713 20.5376 129.814 20.5377 129.972 20.5377L130.261 20.5377C131.681 20.5377 133.111 19.5903 133.939 18.2105C134.131 17.8828 134.553 17.7929 134.863 17.9787L134.871 17.9843C135.188 18.2144 135.288 18.6154 135.092 18.9509C133.977 20.729 132.156 21.9147 130.261 21.9147C130.209 21.9147 130.14 21.9147 130.056 21.9147C129.923 21.9147 129.817 21.9146 129.757 21.9146L129.703 21.9146C126.512 21.8913 123.94 19.2287 123.94 15.9688C123.94 12.6525 126.529 9.97503 129.746 9.97503C132.794 9.97503 135.258 12.3854 135.504 15.5625V15.6342C135.504 16.0028 135.196 16.2749 134.815 16.2749H125.325ZM105.776 11.3281C103.432 11.3281 101.491 13.3976 101.491 15.9449C101.491 18.4875 103.427 20.5377 105.776 20.5377C108.14 20.5377 110.061 18.4963 110.061 15.9449C110.061 13.3888 108.136 11.3281 105.776 11.3281ZM125.416 14.9218H134.007C133.583 12.851 131.801 11.352 129.746 11.352C127.652 11.352 125.884 12.8201 125.416 14.9218Z"
      fill="#29B5E8"
      stroke="#29B5E8"
      stroke-width="0.5"
    />
  </g>
  <defs>
    <clipPath id="snowflake-wordmark-clip">
      <rect width="135.54" height="32" fill="white" />
    </clipPath>
  </defs>
</svg>

