<svg xmlns="http://www.w3.org/2000/svg" viewBox="0 0 20 20"
 width="20" height="20" fill="none"
 role="presentation" aria-hidden="true">
<g fill="currentColor"><path d="M3.75 15.625c0 .345.28.625.625.625h11.25c.345 0 .625-.28.625-.625V15h1.25v.625c0 1.035-.84 1.875-1.875 1.875H4.375A1.875 1.875 0 0 1 2.5 15.625V15h1.25z"/><path fill-rule="evenodd" d="M10.668 6.802q.909 0 1.572.393.666.393 1.029 1.12.363.725.364 1.722v.008q0 .995-.364 1.721-.256.516-.668.865l.83 1.106h-1.2l-.47-.627q-.494.173-1.093.174-.915 0-1.581-.393a2.66 2.66 0 0 1-1.03-1.125q-.36-.726-.36-1.72v-.01q0-.999.364-1.722a2.66 2.66 0 0 1 1.034-1.12q.667-.392 1.572-.392m0 1.094q-.5 0-.872.264-.372.261-.577.744-.206.479-.206 1.133v.008q0 .65.202 1.132.205.483.572.748.372.265.88.265c.13 0 .251-.02.368-.046l-.786-1.048h1.2l.398.531q.156-.194.265-.45.204-.483.205-1.132v-.008q0-.654-.205-1.133a1.66 1.66 0 0 0-.573-.744 1.47 1.47 0 0 0-.871-.264" clip-rule="evenodd"/><path d="M4.608 6.802q.718 0 1.23.235.518.231.808.636.29.402.329.92l.005.054H5.766l-.008-.05a.77.77 0 0 0-.188-.389.96.96 0 0 0-.393-.261 1.5 1.5 0 0 0-.57-.098q-.315 0-.555.094a.85.85 0 0 0-.37.265.62.62 0 0 0-.134.397v.005q0 .298.24.49.243.188.786.3l.654.132q.654.133 1.063.36.415.226.612.567.195.342.196.825v.004q0 .61-.304 1.06-.298.443-.858.692-.556.244-1.324.244-.736 0-1.278-.223a2 2 0 0 1-.855-.623 1.74 1.74 0 0 1-.345-.954l-.005-.068h1.244l.003.043q.026.231.188.406.167.17.445.269.278.098.637.099.346 0 .607-.103a.96.96 0 0 0 .405-.282q.15-.183.15-.419v-.004a.58.58 0 0 0-.248-.488q-.244-.183-.82-.302l-.65-.133q-.961-.197-1.397-.645-.435-.449-.436-1.15v-.003q0-.573.304-1 .303-.427.833-.663a2.9 2.9 0 0 1 1.213-.24m11.19 5.261h2.743v1.063h-4.033V6.96h1.29zM15.625 2.5c1.035 0 1.875.84 1.875 1.875V5h-1.25v-.625a.625.625 0 0 0-.625-.625H4.375a.625.625 0 0 0-.625.625V5H2.5v-.625c0-1.036.84-1.875 1.875-1.875z"/></g>
</svg>
