<svg xmlns="http://www.w3.org/2000/svg" viewBox="0 0 20 20"
 width="20" height="20" fill="none"
 role="presentation" aria-hidden="true">
<g fill="currentColor"><path d="M18.125 17.5c1.035 0 1.875.84 1.875 1.875V20h-1.25v-.625a.625.625 0 0 0-.625-.625h-7.5a.625.625 0 0 0-.625.625V20H8.75v-.625c0-1.035.84-1.875 1.875-1.875zm-3.75-13.75c1.036 0 1.875.84 1.875 1.875v.625h.625c1.035 0 1.875.84 1.875 1.875v.625H17.5v-.625a.625.625 0 0 0-.625-.625H13.75v1.25H12.5V6.875c0-.345.28-.625.625-.625H15v-.625A.625.625 0 0 0 14.375 5h-8.75A.625.625 0 0 0 5 5.625v.625h1.875c.345 0 .625.28.625.625V8.75H10V10H6.875a.625.625 0 0 1-.625-.625V7.5H3.125a.625.625 0 0 0-.625.625v6.25c0 .345.28.625.625.625H7.5v1.25H3.125a1.875 1.875 0 0 1-1.875-1.875v-6.25c0-1.035.84-1.875 1.875-1.875h.625v-.625c0-1.035.84-1.875 1.875-1.875z"/><path fill-rule="evenodd" d="M14.375 10a3.125 3.125 0 1 1 0 6.25 3.125 3.125 0 0 1 0-6.25m0 1.25a1.875 1.875 0 1 0 0 3.75 1.875 1.875 0 0 0 0-3.75" clip-rule="evenodd"/></g>
</svg>
