<svg xmlns="http://www.w3.org/2000/svg" viewBox="0 0 16 16"
 width="16" height="16" fill="none"
 role="presentation" aria-hidden="true">
<g fill="currentColor"><path d="M14.5 14a1.5 1.5 0 0 1 1.5 1.5v.5h-1v-.5a.5.5 0 0 0-.5-.5h-6a.5.5 0 0 0-.5.5v.5H7v-.5A1.5 1.5 0 0 1 8.5 14zm-3-11A1.5 1.5 0 0 1 13 4.5V5h.5A1.5 1.5 0 0 1 15 6.5V7h-1v-.5a.5.5 0 0 0-.5-.5H11v1h-1V5.5a.5.5 0 0 1 .5-.5H12v-.5a.5.5 0 0 0-.5-.5h-7a.5.5 0 0 0-.5.5V5h1.5a.5.5 0 0 1 .5.5V7h2v1H5.5a.5.5 0 0 1-.5-.5V6H2.5a.5.5 0 0 0-.5.5v5a.5.5 0 0 0 .5.5H6v1H2.5A1.5 1.5 0 0 1 1 11.5v-5A1.5 1.5 0 0 1 2.5 5H3v-.5A1.5 1.5 0 0 1 4.5 3z"/><path fill-rule="evenodd" d="M11.5 8a2.5 2.5 0 1 1 0 5 2.5 2.5 0 0 1 0-5m0 1a1.5 1.5 0 1 0 0 3 1.5 1.5 0 0 0 0-3" clip-rule="evenodd"/></g>
</svg>
