<svg xmlns="http://www.w3.org/2000/svg" viewBox="0 0 16 16"
 width="16" height="16" fill="none"
 role="presentation" aria-hidden="true">
<g fill="currentColor" fill-rule="evenodd" clip-rule="evenodd"><path d="M14.5 9a1.5 1.5 0 0 1 1.5 1.5v4a1.5 1.5 0 0 1-1.5 1.5h-6a1.5 1.5 0 0 1-1.492-1.347L7 14.5v-4A1.5 1.5 0 0 1 8.5 9zM8 14.5l.01.1a.5.5 0 0 0 .49.4h6a.5.5 0 0 0 .5-.5V12H8zm.5-4.5a.5.5 0 0 0-.5.5v.5h7v-.5a.5.5 0 0 0-.5-.5z"/><path d="M11.5 3A1.5 1.5 0 0 1 13 4.5V5h.5A1.5 1.5 0 0 1 15 6.5V7h-1v-.5a.5.5 0 0 0-.5-.5H11v1.5a.5.5 0 0 1-.5.5h-5a.5.5 0 0 1-.5-.5V6H2.5a.5.5 0 0 0-.5.5v5a.5.5 0 0 0 .5.5H5v1H2.5A1.5 1.5 0 0 1 1 11.5v-5A1.5 1.5 0 0 1 2.5 5H3v-.5A1.5 1.5 0 0 1 4.5 3zm-7 1a.5.5 0 0 0-.5.5V5h1.5a.5.5 0 0 1 .5.5V7h4V5.5a.5.5 0 0 1 .5-.5H12v-.5a.5.5 0 0 0-.5-.5z"/></g>
</svg>
