<svg xmlns="http://www.w3.org/2000/svg" viewBox="0 0 20 20"
 width="20" height="20" fill="none"
 role="presentation" aria-hidden="true">
<g fill="currentColor" fill-rule="evenodd" clip-rule="evenodd"><path d="M12.5 11.25a.62.62 0 0 1 .39.137l1.392 1.113h3.843c1.035 0 1.875.84 1.875 1.875v3.75C20 19.16 19.16 20 18.125 20h-7.5c-.97 0-1.77-.738-1.865-1.683l-.01-.192v-5c0-1.036.84-1.875 1.875-1.875zm-1.875 1.25a.625.625 0 0 0-.625.625v5l.012.126c.058.285.31.499.613.499h7.5c.345 0 .625-.28.625-.625v-3.75a.625.625 0 0 0-.625-.625h-4.062a.63.63 0 0 1-.391-.137L12.28 12.5z"/><path d="M14.375 3.75c1.036 0 1.875.84 1.875 1.875v.625h.625c1.035 0 1.875.84 1.875 1.875V10H17.5V8.125a.625.625 0 0 0-.625-.625H13.75v1.875c0 .345-.28.625-.625.625h-6.25a.625.625 0 0 1-.625-.625V7.5H3.125a.625.625 0 0 0-.625.625v6.25c0 .345.28.625.625.625H6.25v1.25H3.125a1.875 1.875 0 0 1-1.875-1.875v-6.25c0-1.035.84-1.875 1.875-1.875h.625v-.625c0-1.035.84-1.875 1.875-1.875zM5.625 5A.625.625 0 0 0 5 5.625v.625h1.875c.345 0 .625.28.625.625V8.75h5V6.875c0-.345.28-.625.625-.625H15v-.625A.625.625 0 0 0 14.375 5z"/></g>
</svg>
