<svg xmlns="http://www.w3.org/2000/svg" viewBox="0 0 16 16"
 width="16" height="16" fill="none"
 role="presentation" aria-hidden="true">
<g fill="currentColor"><path d="M9.5 10a.5.5 0 0 1 .5.5V14H9v-2.293l-4.146 4.147-.708-.707L8.293 11H6v-1z"/><path fill-rule="evenodd" d="M11.5 3A1.5 1.5 0 0 1 13 4.5V5h.5A1.5 1.5 0 0 1 15 6.5v5a1.5 1.5 0 0 1-1.5 1.5H12v-1h1.5a.5.5 0 0 0 .5-.5v-5a.5.5 0 0 0-.5-.5H11v1.5a.5.5 0 0 1-.5.5h-5a.5.5 0 0 1-.5-.5V6H2.5a.5.5 0 0 0-.5.5v5a.5.5 0 0 0 .5.5H3v1h-.5A1.5 1.5 0 0 1 1 11.5v-5A1.5 1.5 0 0 1 2.5 5H3v-.5A1.5 1.5 0 0 1 4.5 3zm-7 1a.5.5 0 0 0-.5.5V5h1.5a.5.5 0 0 1 .5.5V7h4V5.5a.5.5 0 0 1 .5-.5H12v-.5a.5.5 0 0 0-.5-.5z" clip-rule="evenodd"/></g>
</svg>
