<svg xmlns="http://www.w3.org/2000/svg" viewBox="0 0 20 20"
 width="20" height="20" fill="none"
 role="presentation" aria-hidden="true">
<g fill="currentColor"><path d="M12.5 13.125h-5v-1.25h5z"/><path fill-rule="evenodd" d="M14.375 3.75c1.036 0 1.875.84 1.875 1.875v.625h.625c1.035 0 1.875.84 1.875 1.875v6.25c0 1.036-.84 1.875-1.875 1.875H3.125a1.875 1.875 0 0 1-1.875-1.875v-6.25c0-1.035.84-1.875 1.875-1.875h.625v-.625c0-1.035.84-1.875 1.875-1.875zM3.125 7.5a.625.625 0 0 0-.625.625v6.25c0 .345.28.625.625.625h13.75c.345 0 .625-.28.625-.625v-6.25a.625.625 0 0 0-.625-.625H13.75v1.875c0 .345-.28.625-.625.625h-6.25a.625.625 0 0 1-.625-.625V7.5zm2.5-2.5A.625.625 0 0 0 5 5.625v.625h1.875c.345 0 .625.28.625.625V8.75h5V6.875c0-.345.28-.625.625-.625H15v-.625A.625.625 0 0 0 14.375 5z" clip-rule="evenodd"/></g>
</svg>
