<svg xmlns="http://www.w3.org/2000/svg" viewBox="0 0 16 16"
 width="16" height="16" fill="none"
 role="presentation" aria-hidden="true">
<g fill="currentColor"><path d="M10 10.5H6v-1h4z"/><path fill-rule="evenodd" d="M11.5 3A1.5 1.5 0 0 1 13 4.5V5h.5A1.5 1.5 0 0 1 15 6.5v5a1.5 1.5 0 0 1-1.5 1.5h-11A1.5 1.5 0 0 1 1 11.5v-5A1.5 1.5 0 0 1 2.5 5H3v-.5A1.5 1.5 0 0 1 4.5 3zm-9 3a.5.5 0 0 0-.5.5v5a.5.5 0 0 0 .5.5h11a.5.5 0 0 0 .5-.5v-5a.5.5 0 0 0-.5-.5H11v1.5a.5.5 0 0 1-.5.5h-5a.5.5 0 0 1-.5-.5V6zm2-2a.5.5 0 0 0-.5.5V5h1.5a.5.5 0 0 1 .5.5V7h4V5.5a.5.5 0 0 1 .5-.5H12v-.5a.5.5 0 0 0-.5-.5z" clip-rule="evenodd"/></g>
</svg>
