<svg xmlns="http://www.w3.org/2000/svg" viewBox="0 0 16 16"
 width="16" height="16" fill="none"
 role="presentation" aria-hidden="true">
<path fill="currentColor" d="M8.125 3.5a.5.5 0 0 1 .41.213l2.318 3.311 3.452-1.46a.502.502 0 0 1 .673.608l-1.689 5.447a1.4 1.4 0 0 1-1.024.967c-.73.164-2.173.414-4.211.414-2.025 0-3.462-.246-4.196-.41a1.4 1.4 0 0 1-1.036-.998L1.27 6.162a.5.5 0 0 1 .676-.599l3.45 1.461 2.32-3.311.08-.089a.5.5 0 0 1 .33-.124m-2.14 4.43a.5.5 0 0 1-.605.174L2.518 6.892l1.266 4.425a.4.4 0 0 0 .292.296c.67.15 2.034.387 3.978.387 1.957 0 3.326-.24 3.991-.39a.4.4 0 0 0 .29-.287l1.368-4.42-2.833 1.2a.5.5 0 0 1-.604-.173l-2.14-3.06z"/>
</svg>
