<svg xmlns="http://www.w3.org/2000/svg" viewBox="0 0 20 20"
 width="20" height="20" fill="none"
 role="presentation" aria-hidden="true">
<path fill="currentColor" d="M10.156 4.375c.204 0 .394.1.511.266l2.898 4.14 4.316-1.827a.627.627 0 0 1 .84.76l-2.11 6.81a1.75 1.75 0 0 1-1.28 1.208c-.913.206-2.716.518-5.264.518-2.532 0-4.328-.307-5.246-.513a1.76 1.76 0 0 1-1.293-1.247L1.586 7.7a.625.625 0 0 1 .844-.747L6.744 8.78l2.9-4.14.1-.111a.63.63 0 0 1 .41-.155M7.48 9.912a.625.625 0 0 1-.755.217L3.147 8.615l1.583 5.532a.5.5 0 0 0 .365.37c.838.187 2.542.483 4.972.483 2.446 0 4.157-.3 4.989-.487a.5.5 0 0 0 .361-.359L17.13 8.63l-3.542 1.5a.625.625 0 0 1-.755-.217L10.156 6.09z"/>
</svg>
