<svg xmlns="http://www.w3.org/2000/svg" viewBox="0 0 20 20"
 width="20" height="20" fill="none"
 role="presentation" aria-hidden="true">
<path fill="currentColor" fill-rule="evenodd" d="M2.932 2.51a1.876 1.876 0 0 0 0 3.73l.192.01h2.5c.816 0 1.509-.522 1.766-1.25H10v3.75H7.39A1.87 1.87 0 0 0 5.624 7.5h-2.5l-.192.01a1.876 1.876 0 0 0 0 3.73l.192.01h2.5c.816 0 1.509-.522 1.766-1.25H10v3.75H7.392a1.87 1.87 0 0 0-1.767-1.25h-2.5l-.191.01a1.875 1.875 0 0 0 0 3.73l.191.01h2.5c.816 0 1.51-.522 1.767-1.25h3.233c.345 0 .625-.28.625-.625V10h1.25v1.875c0 .345.28.625.625.625h5a.626.626 0 0 0 .613-.5l.012-.125v-5a.626.626 0 0 0-.625-.625h-5a.625.625 0 0 0-.625.625V8.75h-1.25V4.375a.625.625 0 0 0-.625-.625H7.39A1.87 1.87 0 0 0 5.624 2.5h-2.5zm2.693 11.24a.625.625 0 0 1 0 1.25h-2.5a.625.625 0 1 1 0-1.25zm11.875-2.5h-3.75V7.5h3.75zM5.624 8.75a.625.625 0 1 1 0 1.25h-2.5a.626.626 0 0 1 0-1.25zm0-5a.625.625 0 1 1 0 1.25h-2.5a.626.626 0 0 1 0-1.25z" clip-rule="evenodd"/>
</svg>
