<svg xmlns="http://www.w3.org/2000/svg" viewBox="0 0 16 16"
 width="16" height="16" fill="none"
 role="presentation" aria-hidden="true">
<path fill="currentColor" fill-rule="evenodd" d="M2.346 2.008a1.5 1.5 0 0 0 0 2.984L2.499 5h2a1.5 1.5 0 0 0 1.413-1H8v3H5.912A1.5 1.5 0 0 0 4.5 6h-2l-.153.008a1.5 1.5 0 0 0 0 2.984L2.499 9h2a1.5 1.5 0 0 0 1.413-1H8v3H5.913A1.5 1.5 0 0 0 4.5 10h-2l-.153.008a1.5 1.5 0 0 0 0 2.984L2.5 13h2a1.5 1.5 0 0 0 1.413-1H8.5a.5.5 0 0 0 .5-.5V8h1v1.5a.5.5 0 0 0 .5.5h4a.5.5 0 0 0 .49-.4l.01-.1v-4a.5.5 0 0 0-.5-.5h-4a.5.5 0 0 0-.5.5V7H9V3.5a.5.5 0 0 0-.5-.5H5.912A1.5 1.5 0 0 0 4.5 2h-2zM4.5 11a.5.5 0 0 1 0 1h-2a.5.5 0 0 1 0-1zM14 9h-3V6h3zM4.499 7a.5.5 0 1 1 0 1h-2a.5.5 0 0 1 0-1zm0-4a.5.5 0 1 1 0 1h-2a.5.5 0 0 1 0-1z" clip-rule="evenodd"/>
</svg>
