<svg xmlns="http://www.w3.org/2000/svg" viewBox="0 0 16 16"
 width="16" height="16" fill="none"
 role="presentation" aria-hidden="true">
<path fill="currentColor" fill-rule="evenodd" d="M3.5 2A2.5 2.5 0 0 0 1 4.5v7A2.5 2.5 0 0 0 3.5 14H8v-1H3.5A1.5 1.5 0 0 1 2 11.5V6h12v2h1V4.5A2.5 2.5 0 0 0 12.5 2zM2 4.5A1.5 1.5 0 0 1 3.5 3h9A1.5 1.5 0 0 1 14 4.5V5H2z" clip-rule="evenodd"/><path fill="currentColor" fill-rule="evenodd" d="M12.354 8.646a.5.5 0 0 0-.707 0L9.293 11H8v1h1.243l2.35 3.29a.5.5 0 0 0 .814 0l2.35-3.29H16v-1h-1.293zM12 14.14 10.472 12h3.056zm0-4.433L10.707 11h2.586z" clip-rule="evenodd"/>
</svg>
