<svg xmlns="http://www.w3.org/2000/svg" viewBox="0 0 20 20"
 width="20" height="20" fill="none"
 role="presentation" aria-hidden="true">
<g fill="currentColor" fill-rule="evenodd" clip-rule="evenodd"><path d="M13.933 8.933A.625.625 0 0 1 15 9.375V12.5h3.125a.625.625 0 0 1 .442 1.067l-6.25 6.25a.625.625 0 0 1-1.067-.442V16.25H8.125a.625.625 0 0 1-.442-1.067zM9.633 15h2.242c.345 0 .625.28.625.625v2.241l4.116-4.116h-2.241a.625.625 0 0 1-.625-.625v-2.241z"/><path d="M15.625 2.5c1.035 0 1.875.84 1.875 1.875V8.75h-1.25V7.5H7.5v3.75H6.25V7.5h-2.5v8.125c0 .345.28.625.625.625H5v1.25h-.625A1.875 1.875 0 0 1 2.5 15.625V4.375c0-1.036.84-1.875 1.875-1.875zM4.375 3.75a.625.625 0 0 0-.625.625V6.25h2.5v-2.5zM7.5 6.25h8.75V4.375a.625.625 0 0 0-.625-.625H7.5z"/></g>
</svg>
