<svg xmlns="http://www.w3.org/2000/svg" viewBox="0 0 20 20"
 width="20" height="20" fill="none"
 role="presentation" aria-hidden="true">
<g fill="currentColor" fill-rule="evenodd" clip-rule="evenodd"><path d="M18.317 15.01a1.875 1.875 0 0 1-.192 3.74h-5a1.875 1.875 0 0 1 0-3.75h5zm-5.192 1.24a.625.625 0 1 0 0 1.25h5a.625.625 0 0 0 .126-1.238l-.126-.012z"/><path d="M15.625 2.5c1.035 0 1.875.84 1.875 1.875V12.5h-1.25v-5H3.75v8.125c0 .345.28.625.625.625H8.75v1.25H4.375A1.875 1.875 0 0 1 2.5 15.625V4.375c0-1.036.84-1.875 1.875-1.875zM4.375 3.75a.625.625 0 0 0-.625.625V6.25h12.5V4.375a.625.625 0 0 0-.625-.625z"/><path d="M13.317 10.01a1.875 1.875 0 0 1-.192 3.74h-5a1.875 1.875 0 0 1 0-3.75h5zm-5.192 1.24a.625.625 0 1 0 0 1.25h5a.625.625 0 0 0 .126-1.238l-.126-.012z"/></g>
</svg>
