<svg xmlns="http://www.w3.org/2000/svg" viewBox="0 0 20 20"
 width="20" height="20" fill="none"
 role="presentation" aria-hidden="true">
<g fill="currentColor"><path fill-rule="evenodd" d="M13.125 13.367c1.252 0 2.285 1.002 2.285 2.26 0 1.256-1.033 2.257-2.285 2.257s-2.285-1.001-2.285-2.258 1.033-2.26 2.285-2.26m0 1.25c-.581 0-1.035.462-1.035 1.01 0 .547.454 1.007 1.035 1.007.58 0 1.035-.46 1.035-1.008 0-.547-.454-1.009-1.035-1.01" clip-rule="evenodd"/><path fill-rule="evenodd" d="M13.126 11.325c2.451 0 4.155 1 5.237 2.005a7.8 7.8 0 0 1 1.173 1.375 6 6 0 0 1 .355.599l.02.04.006.012.001.005.001.002s-.022.012-.566.263l.566.263v.002l-.002.005-.006.012-.02.04q-.024.051-.073.137a6 6 0 0 1-.282.463 7.8 7.8 0 0 1-1.173 1.374c-1.082 1.005-2.786 2.006-5.237 2.006s-4.154-1.001-5.237-2.006a7.8 7.8 0 0 1-1.174-1.374 6 6 0 0 1-.354-.6l-.02-.04-.01-.02a.63.63 0 0 1 0-.524l.002-.002.009-.018q.005-.015.02-.04.024-.05.071-.137c.063-.114.156-.274.282-.462A7.8 7.8 0 0 1 7.89 13.33c1.083-1.004 2.786-2.005 5.237-2.005m0 1.25c-2.076 0-3.487.837-4.386 1.67a6.6 6.6 0 0 0-.985 1.153q-.082.128-.139.227c.04.066.083.145.14.228.208.313.532.734.984 1.154.899.833 2.31 1.671 4.386 1.671s3.488-.838 4.386-1.671c.453-.42.777-.841.985-1.154.056-.083.099-.162.138-.228-.039-.065-.082-.144-.138-.227a6.6 6.6 0 0 0-.985-1.152c-.898-.834-2.31-1.671-4.386-1.671" clip-rule="evenodd"/><path fill-rule="evenodd" d="M15.625 2.5c1.035 0 1.875.84 1.875 1.875v5.721h-1.25V7.5H7.5v3.75H6.25V7.5h-2.5v8.125c0 .345.28.625.625.625H5v1.25h-.625A1.875 1.875 0 0 1 2.5 15.625V4.375c0-1.036.84-1.875 1.875-1.875zM4.375 3.75a.625.625 0 0 0-.625.625V6.25h2.5v-2.5zM7.5 6.25h8.75V4.375a.625.625 0 0 0-.625-.625H7.5z" clip-rule="evenodd"/><path d="M19.92 15.364a.63.63 0 0 1 0 .525l-.567-.263z"/></g>
</svg>
