<svg xmlns="http://www.w3.org/2000/svg" viewBox="0 0 16 16"
 width="16" height="16" fill="none"
 role="presentation" aria-hidden="true">
<g fill="currentColor" fill-rule="evenodd" clip-rule="evenodd"><path d="M14.653 12.008A1.5 1.5 0 0 1 14.5 15h-4a1.5 1.5 0 0 1 0-3h4zM10.5 13a.5.5 0 0 0 0 1h4a.5.5 0 0 0 .1-.99l-.1-.01z"/><path d="M12.5 2A1.5 1.5 0 0 1 14 3.5V10h-1V6H3v6.5a.5.5 0 0 0 .5.5H7v1H3.5A1.5 1.5 0 0 1 2 12.5v-9A1.5 1.5 0 0 1 3.5 2zm-9 1a.5.5 0 0 0-.5.5V5h10V3.5a.5.5 0 0 0-.5-.5z"/><path d="M10.653 8.008A1.5 1.5 0 0 1 10.5 11h-4a1.5 1.5 0 0 1 0-3h4zM6.5 9a.5.5 0 0 0 0 1h4a.5.5 0 0 0 .1-.99L10.5 9z"/></g>
</svg>
