<svg xmlns="http://www.w3.org/2000/svg" viewBox="0 0 20 20"
 width="20" height="20" fill="none"
 role="presentation" aria-hidden="true">
<g fill="currentColor" fill-rule="evenodd" clip-rule="evenodd"><path d="M14.375 10.625a3.75 3.75 0 0 1 3.75 3.75c0 .81-.26 1.557-.696 2.17l2.388 2.388-.884.884-2.388-2.388a3.73 3.73 0 0 1-2.17.696 3.75 3.75 0 1 1 0-7.5m0 1.25a2.5 2.5 0 1 0 0 5 2.5 2.5 0 0 0 0-5"/><path d="M15.625 2.5c1.035 0 1.875.84 1.875 1.875v5h-1.25V7.5H7.5v8.75h1.875v1.25h-5A1.875 1.875 0 0 1 2.5 15.625V4.375c0-1.036.84-1.875 1.875-1.875zM3.75 15.625c0 .345.28.625.625.625H6.25V7.5h-2.5zM4.375 3.75a.625.625 0 0 0-.625.625V6.25h2.5v-2.5zM7.5 6.25h8.75V4.375a.625.625 0 0 0-.625-.625H7.5z"/></g>
</svg>
