<svg xmlns="http://www.w3.org/2000/svg" viewBox="0 0 20 20"
 width="20" height="20" fill="none"
 role="presentation" aria-hidden="true">
<g fill="currentColor"><path d="M16.875 2.5c.345 0 .625.28.625.625V8.75h-1.25V4.634l-6.433 6.433-.884-.884 6.433-6.433H11.25V2.5z"/><path fill-rule="evenodd" d="M7.5 16.25h8.125c.345 0 .625-.28.625-.625V11.25h1.25v4.375c0 1.035-.84 1.875-1.875 1.875H4.375A1.875 1.875 0 0 1 2.5 15.625V4.375c0-1.036.84-1.875 1.875-1.875H8.75v1.25H7.5v2.5h1.25V7.5H7.5zM6.25 7.5h-2.5v8.125c0 .345.28.625.625.625H6.25zM4.375 3.75a.625.625 0 0 0-.625.625V6.25h2.5v-2.5z" clip-rule="evenodd"/></g>
</svg>
