<svg xmlns="http://www.w3.org/2000/svg" viewBox="0 0 16 16"
 width="16" height="16" fill="none"
 role="presentation" aria-hidden="true">
<g fill="currentColor" fill-rule="evenodd" clip-rule="evenodd"><path d="M11.5 8.5a3 3 0 0 1 2.443 4.736l1.91 1.91-.707.707-1.91-1.91A3 3 0 1 1 11.5 8.5m0 1a2 2 0 1 0 0 4 2 2 0 0 0 0-4"/><path d="M12.5 2A1.5 1.5 0 0 1 14 3.5v4h-1V6H6v7h1.5v1h-4A1.5 1.5 0 0 1 2 12.5v-9A1.5 1.5 0 0 1 3.5 2zM3 12.5a.5.5 0 0 0 .5.5H5V6H3zM3.5 3a.5.5 0 0 0-.5.5V5h2V3zM6 5h7V3.5a.5.5 0 0 0-.5-.5H6z"/></g>
</svg>
