<svg xmlns="http://www.w3.org/2000/svg" viewBox="0 0 20 20"
 width="20" height="20" fill="none"
 role="presentation" aria-hidden="true">
<g fill="currentColor" clipPath="url(#s0-prefix__a)"><path d="M12.5 13.75h-2.38a2.514 2.514 0 0 0 0 5.026h2.38v1.25h-2.38a3.764 3.764 0 0 1 0-7.526h2.38zm3.737-1.25a3.763 3.763 0 0 1 0 7.526h-2.411v-1.25h2.41a2.513 2.513 0 0 0 0-5.026h-2.41V12.5z"/><path fill-rule="evenodd" d="M15.625 2.5c1.035 0 1.875.84 1.875 1.875V10h-1.25V7.5H7.5v3.75H6.25V7.5h-2.5v8.125c0 .345.28.625.625.625H5v1.25h-.625A1.875 1.875 0 0 1 2.5 15.625V4.375c0-1.036.84-1.875 1.875-1.875zM4.375 3.75a.625.625 0 0 0-.625.625V6.25h2.5v-2.5zM7.5 6.25h8.75V4.375a.625.625 0 0 0-.625-.625H7.5z" clip-rule="evenodd"/><path d="M16.25 16.875H10v-1.25h6.25z"/></g><defs><clipPath id="s0-prefix__a"><path fill="#fff" d="M0 0h20v20H0z"/></clipPath></defs>
</svg>
