<svg xmlns="http://www.w3.org/2000/svg" viewBox="0 0 16 16"
 width="16" height="16" fill="none"
 role="presentation" aria-hidden="true">
<g fill="currentColor" fill-rule="evenodd" clip-rule="evenodd"><path d="M11.147 7.146A.5.5 0 0 1 12 7.5V10h2.5a.5.5 0 0 1 .354.854l-5 5A.5.5 0 0 1 9 15.5V13H6.5a.5.5 0 0 1-.354-.854zM7.707 12H9.5a.5.5 0 0 1 .5.5v1.793L13.293 11H11.5a.5.5 0 0 1-.5-.5V8.707z"/><path d="M12.5 2A1.5 1.5 0 0 1 14 3.5V7h-1V6H6v3H5V6H3v6.5a.5.5 0 0 0 .5.5H4v1h-.5A1.5 1.5 0 0 1 2 12.5v-9A1.5 1.5 0 0 1 3.5 2zm-9 1a.5.5 0 0 0-.5.5V5h2V3zM6 5h7V3.5a.5.5 0 0 0-.5-.5H6z"/></g>
</svg>
