<svg xmlns="http://www.w3.org/2000/svg" viewBox="0 0 20 20"
 width="20" height="20" fill="none"
 role="presentation" aria-hidden="true">
<g fill="currentColor"><path d="M11.9 12.68a6.15 6.15 0 0 0-3.16 1.566 6.6 6.6 0 0 0-.985 1.152c-.055.083-.1.162-.139.227.04.066.083.144.14.228.208.313.532.734.984 1.154a6.15 6.15 0 0 0 3.16 1.564v1.267a7.4 7.4 0 0 1-4.01-1.916 7.8 7.8 0 0 1-1.175-1.374 6 6 0 0 1-.354-.6l-.02-.04-.01-.02a.63.63 0 0 1 0-.524l.002-.002.009-.018q.005-.015.02-.04.024-.05.071-.137a6 6 0 0 1 .282-.462A7.8 7.8 0 0 1 7.89 13.33a7.4 7.4 0 0 1 4.01-1.916zm2.5-1.26a7.4 7.4 0 0 1 3.963 1.91c.538.499.922.998 1.173 1.375a6 6 0 0 1 .355.599l.02.04.006.012.001.005.001.002c-.004.002-.053.026-.566.263l.566.263v.002l-.002.005-.006.012-.02.04q-.025.051-.073.137a6 6 0 0 1-.282.463 7.8 7.8 0 0 1-1.173 1.374 7.4 7.4 0 0 1-3.964 1.91v-1.269a6.14 6.14 0 0 0 3.113-1.556c.452-.42.777-.841.985-1.154.056-.083.099-.162.138-.228-.039-.065-.082-.144-.138-.227a6.6 6.6 0 0 0-.985-1.152 6.14 6.14 0 0 0-3.113-1.558z"/><path fill-rule="evenodd" d="M13.126 13.367c1.253 0 2.285 1.003 2.285 2.26s-1.032 2.257-2.285 2.257c-1.252 0-2.285-1.001-2.285-2.258s1.033-2.26 2.285-2.26m0 1.25c-.58 0-1.035.461-1.035 1.01 0 .547.454 1.007 1.035 1.007s1.035-.46 1.035-1.008c0-.547-.454-1.009-1.035-1.01M15.625 2.5c1.035 0 1.875.84 1.875 1.875V10h-1.25V7.5H7.5v3.75H6.25V7.5h-2.5v8.125c0 .345.28.625.625.625H5v1.25h-.625A1.875 1.875 0 0 1 2.5 15.625V4.375c0-1.036.84-1.875 1.875-1.875zM4.375 3.75a.625.625 0 0 0-.625.625V6.25h2.5v-2.5zM7.5 6.25h8.75V4.375a.625.625 0 0 0-.625-.625H7.5z" clip-rule="evenodd"/><path d="M19.92 15.364a.63.63 0 0 1 0 .525l-.567-.263z"/></g>
</svg>
