<svg xmlns="http://www.w3.org/2000/svg" viewBox="0 0 20 20"
 width="20" height="20" fill="none"
 role="presentation" aria-hidden="true">
<g fill="currentColor" fill-rule="evenodd" clip-rule="evenodd"><path d="M13.472 10.066a.63.63 0 0 1 .642.05l4.212 3.009H20v1.25h-1.592l-4.188 4.786a.625.625 0 0 1-.94 0l-4.188-4.786H7.5v-1.25h1.674l4.212-3.009zm.278 7.736 2.997-3.427h-5.995zm-2.425-4.677h4.85l-2.425-1.732z"/><path d="M15.625 2.5c1.035 0 1.875.84 1.875 1.875V10h-1.25V7.5H7.5v3.75H6.25V7.5h-2.5v8.125c0 .345.28.625.625.625H5v1.25h-.625A1.875 1.875 0 0 1 2.5 15.625V4.375c0-1.036.84-1.875 1.875-1.875zM4.375 3.75a.625.625 0 0 0-.625.625V6.25h2.5v-2.5zM7.5 6.25h8.75V4.375a.625.625 0 0 0-.625-.625H7.5z"/></g>
</svg>
