<svg xmlns="http://www.w3.org/2000/svg" viewBox="0 0 16 16"
 width="16" height="16" fill="none"
 role="presentation" aria-hidden="true">
<g fill="currentColor"><path fill-rule="evenodd" d="M10.5 10.693c1.002 0 1.828.803 1.828 1.808a1.82 1.82 0 0 1-1.828 1.807A1.82 1.82 0 0 1 8.672 12.5c0-1.005.826-1.807 1.828-1.808m0 1a.82.82 0 0 0-.828.808c0 .438.363.806.828.807a.82.82 0 0 0 .828-.807.82.82 0 0 0-.828-.808" clip-rule="evenodd"/><path fill-rule="evenodd" d="M10.501 9.06c1.96 0 3.324.8 4.19 1.604.43.4.737.799.938 1.1a5 5 0 0 1 .284.48l.016.031.005.01v.004l.002.001c-.001 0-.019.01-.454.211l.454.21-.001.002-.001.004-.005.01-.016.032-.059.11c-.05.09-.124.219-.225.37-.201.3-.508.7-.939 1.099-.865.803-2.228 1.604-4.189 1.604s-3.323-.8-4.19-1.604a6.3 6.3 0 0 1-.939-1.1 5 5 0 0 1-.283-.48l-.016-.031-.008-.016a.5.5 0 0 1 0-.42l.001-.001.007-.015.016-.032.057-.11c.05-.09.125-.218.226-.37.201-.3.51-.7.94-1.099C7.177 9.861 8.54 9.06 10.5 9.06m0 1c-1.661 0-2.79.67-3.509 1.336a5.2 5.2 0 0 0-.788.922q-.065.102-.111.182c.031.052.066.116.111.183.167.25.427.587.788.922.72.667 1.848 1.337 3.509 1.337s2.79-.67 3.509-1.337a5.3 5.3 0 0 0 .788-.922q.066-.102.11-.183-.045-.08-.11-.182a5.3 5.3 0 0 0-.788-.921c-.72-.668-1.848-1.337-3.509-1.337" clip-rule="evenodd"/><path fill-rule="evenodd" d="M12.5 2A1.5 1.5 0 0 1 14 3.5v4.577h-1V6H6v3H5V6H3v6.5a.5.5 0 0 0 .5.5H4v1h-.5A1.5 1.5 0 0 1 2 12.5v-9A1.5 1.5 0 0 1 3.5 2zm-9 1a.5.5 0 0 0-.5.5V5h2V3zM6 5h7V3.5a.5.5 0 0 0-.5-.5H6z" clip-rule="evenodd"/><path d="M15.937 12.291a.5.5 0 0 1-.002.42l-.453-.21z"/></g>
</svg>
