<svg xmlns="http://www.w3.org/2000/svg" viewBox="0 0 16 16"
 width="16" height="16" fill="none"
 role="presentation" aria-hidden="true">
<g fill="currentColor" fill-rule="evenodd" clip-rule="evenodd"><path d="M10.777 8.053a.5.5 0 0 1 .514.04l3.37 2.407H16v1h-1.273l-3.351 3.83a.5.5 0 0 1-.752 0l-3.35-3.83H6v-1h1.339l3.37-2.407zM11 14.24l2.398-2.741H8.602zM9.06 10.5h3.88L11 9.114z"/><path d="M12.5 2A1.5 1.5 0 0 1 14 3.5V8h-1V6H6v3H5V6H3v6.5a.5.5 0 0 0 .5.5H4v1h-.5A1.5 1.5 0 0 1 2 12.5v-9A1.5 1.5 0 0 1 3.5 2zm-9 1a.5.5 0 0 0-.5.5V5h2V3zM6 5h7V3.5a.5.5 0 0 0-.5-.5H6z"/></g>
</svg>
