<svg xmlns="http://www.w3.org/2000/svg" viewBox="0 0 20 20"
 width="20" height="20" fill="none"
 role="presentation" aria-hidden="true">
<g fill="currentColor"><path d="M15 11.25a1.25 1.25 0 1 1 0 2.5 1.25 1.25 0 0 1 0-2.5"/><path fill-rule="evenodd" d="M14.837 3.75c.722 0 1.38.414 1.691 1.064l2.056 4.291a.6.6 0 0 1 .06.27v5a1.874 1.874 0 0 1-1.874 1.875H3.229a1.875 1.875 0 0 1-1.875-1.875v-5c0-.093.021-.186.062-.27l2.054-4.29A1.88 1.88 0 0 1 5.162 3.75zM2.604 14.375c0 .345.28.625.625.625h13.54c.346 0 .626-.28.626-.625V10H2.604zM5.162 5c-.24 0-.46.138-.564.355L2.971 8.75h14.058L15.4 5.355A.63.63 0 0 0 14.837 5z" clip-rule="evenodd"/></g>
</svg>
