<svg xmlns="http://www.w3.org/2000/svg" viewBox="0 0 20 20"
 width="20" height="20" fill="none"
 role="presentation" aria-hidden="true">
<g fill="currentColor"><path fill-rule="evenodd" d="M16.64 11.016a1.094 1.094 0 1 1 0 2.188 1.094 1.094 0 0 1 0-2.188m0 .937a.156.156 0 1 0 .001.313.156.156 0 0 0 0-.313" clip-rule="evenodd"/><path fill-rule="evenodd" d="M19.375 8.75c.345 0 .625.28.625.625v5.304c0 .169-.068.33-.19.448l-4.666 4.54a.625.625 0 0 1-.878-.006L9.09 14.484a.625.625 0 0 1 0-.884l4.667-4.667.095-.078a.63.63 0 0 1 .347-.105zm-8.96 5.292 4.298 4.298 4.037-3.926V10h-4.293z" clip-rule="evenodd"/><path d="M14.375 1.25c1.036 0 1.875.84 1.875 1.875V6.25H15V3.125a.625.625 0 0 0-.625-.625h-8.75A.625.625 0 0 0 5 3.125v13.75c0 .345.28.625.625.625h3.75v1.25h-3.75a1.875 1.875 0 0 1-1.875-1.875V3.125c0-1.035.84-1.875 1.875-1.875z"/><path d="M10 10H6.25V8.75H10zm2.5-2.5H6.25V6.25h6.25z"/></g>
</svg>
