<svg xmlns="http://www.w3.org/2000/svg" viewBox="0 0 16 16"
 width="16" height="16" fill="none"
 role="presentation" aria-hidden="true">
<g fill="currentColor"><path fill-rule="evenodd" d="M13.313 8.813a.875.875 0 1 1 0 1.75.875.875 0 0 1 0-1.75m0 .75a.125.125 0 1 0 0 .25.125.125 0 0 0 0-.25" clip-rule="evenodd"/><path fill-rule="evenodd" d="M15.5 7a.5.5 0 0 1 .5.5v4.243a.5.5 0 0 1-.151.359l-3.734 3.631a.5.5 0 0 1-.702-.005l-4.142-4.141a.5.5 0 0 1 0-.707l3.734-3.734.076-.062A.5.5 0 0 1 11.358 7zm-7.168 4.233 3.438 3.439 3.23-3.14V8h-3.435z" clip-rule="evenodd"/><path d="M11.5 1A1.5 1.5 0 0 1 13 2.5V5h-1V2.5a.5.5 0 0 0-.5-.5h-7a.5.5 0 0 0-.5.5v11a.5.5 0 0 0 .5.5h3v1h-3A1.5 1.5 0 0 1 3 13.5v-11A1.5 1.5 0 0 1 4.5 1z"/><path d="M8 8H5V7h3zm2-2H5V5h5z"/></g>
</svg>
