<svg xmlns="http://www.w3.org/2000/svg" viewBox="0 0 20 20"
 width="20" height="20" fill="none"
 role="presentation" aria-hidden="true">
<g fill="currentColor"><path d="M13.751 5a1.25 1.25 0 1 1-.001 2.501A1.25 1.25 0 0 1 13.751 5"/><path fill-rule="evenodd" d="M16.876 2.5c.345 0 .625.28.625.625v7.804a.63.63 0 0 1-.187.445l-7.166 7.04a.626.626 0 0 1-.88-.003L1.59 10.734a.625.625 0 0 1 0-.884l7.167-7.167.095-.078A.63.63 0 0 1 9.2 2.5zm-13.96 7.792 6.797 6.797 6.538-6.422V3.75H9.458z" clip-rule="evenodd"/></g>
</svg>
