<svg xmlns="http://www.w3.org/2000/svg" viewBox="0 0 16 16"
 width="16" height="16" fill="none"
 role="presentation" aria-hidden="true">
<g fill="currentColor"><path d="M10.424 12.69c.314 0 .568.255.568.569v2.172a.569.569 0 1 1-1.138 0v-1.178l-1.028.594a.569.569 0 0 1-.568-.986l1.805-1.042a.57.57 0 0 1 .36-.13m2.121.001c.137 0 .263.049.361.13l1.805 1.041a.57.57 0 1 1-.568.986l-1.029-.594v1.178a.57.57 0 0 1-1.137 0v-2.172a.57.57 0 0 1 .568-.57M13.501 2a.5.5 0 0 1 .5.5V6h-1V3H7.566L2.333 8.233 6 11.9v1.415L1.272 8.587a.5.5 0 0 1 0-.707l5.734-5.734.076-.062A.5.5 0 0 1 7.359 2z"/><path d="M7.076 10.129a.57.57 0 0 1 .778-.208l1.881 1.086.005.004.031.02.016.011.027.021.018.015.04.04.015.018a1 1 0 0 1 .052.075l.004.005.007.014a.6.6 0 0 1 .046.109l.006.023a1 1 0 0 1 .017.11v.056a1 1 0 0 1-.017.11l-.006.023-.01.03-.02.05-.016.03-.007.013-.004.006a1 1 0 0 1-.052.074l-.015.018-.04.04-.018.014-.027.022-.016.012-.03.02-.006.003-1.881 1.086a.57.57 0 0 1-.57-.985l1.029-.594-1.029-.594a.57.57 0 0 1-.208-.777m8.038-.209a.57.57 0 0 1 .57.986l-1.029.594 1.029.594a.57.57 0 0 1-.57.985l-1.882-1.086-.005-.004-.03-.02-.016-.011-.028-.021-.017-.015-.04-.04-.015-.018a.5.5 0 0 1-.053-.075l-.004-.005-.006-.014-.016-.03-.03-.079-.006-.022a1 1 0 0 1-.017-.11v-.057a1 1 0 0 1 .017-.11l.006-.023.03-.08.016-.03.006-.013.004-.005a1 1 0 0 1 .053-.075l.015-.018.04-.04.017-.014.028-.022.015-.012.031-.02.005-.003z"/><path fill-rule="evenodd" d="M11.204 10.582a.396.396 0 0 1 .56 0l.638.638a.396.396 0 0 1 0 .56l-.638.638a.395.395 0 0 1-.56 0l-.639-.638a.397.397 0 0 1 0-.56zm.347.576a.095.095 0 0 0-.134 0l-.275.276a.094.094 0 0 0 0 .132l.275.276a.095.095 0 0 0 .134 0l.275-.276a.094.094 0 0 0 0-.132z" clip-rule="evenodd"/><path d="M10.424 7c.314 0 .568.255.568.57v2.17a.569.569 0 0 1-.93.44L8.259 9.139a.568.568 0 1 1 .568-.986l1.028.594V7.57a.57.57 0 0 1 .57-.569M12.544 7a.57.57 0 0 1 .57.57v1.177l1.028-.594a.57.57 0 0 1 .568.986l-1.805 1.042a.568.568 0 0 1-.93-.44V7.57a.57.57 0 0 1 .569-.569M11.001 4a1 1 0 1 1-.002 2.002A1 1 0 0 1 11.001 4"/></g>
</svg>
