<svg xmlns="http://www.w3.org/2000/svg" viewBox="0 0 20 20"
 width="20" height="20" fill="none"
 role="presentation" aria-hidden="true">
<g fill="currentColor"><path d="M13.03 15.862c.392 0 .71.319.71.711v2.715a.711.711 0 1 1-1.422 0v-1.472l-1.285.742a.71.71 0 0 1-.71-1.231l2.255-1.303a.7.7 0 0 1 .452-.162m2.65 0a.7.7 0 0 1 .452.162l2.255 1.303a.712.712 0 1 1-.71 1.231l-1.285-.742v1.472a.712.712 0 0 1-1.422 0v-2.715a.71.71 0 0 1 .71-.711M16.876 2.5c.345 0 .625.28.625.625V7.5h-1.25V3.75H9.458l-6.542 6.542L7.5 14.876v1.767l-5.91-5.91a.63.63 0 0 1-.184-.441c0-.166.067-.325.185-.442l7.166-7.167.096-.078a.63.63 0 0 1 .346-.105z"/><path d="M8.845 12.661a.71.71 0 0 1 .972-.26l2.352 1.358.006.004.04.025.019.014.034.027.022.019.05.05.018.022a1 1 0 0 1 .066.094l.005.006.009.017a.7.7 0 0 1 .057.137l.007.029a1 1 0 0 1 .019.106l.002.03v.071l-.002.03a1 1 0 0 1-.019.108l-.007.028a.7.7 0 0 1-.057.137l-.009.017-.005.008a1 1 0 0 1-.066.092l-.018.022-.05.05-.022.019-.034.027-.02.014-.039.025-.006.005-2.352 1.357a.712.712 0 0 1-.712-1.232l1.286-.742-1.286-.742a.71.71 0 0 1-.26-.972m10.048-.26a.712.712 0 0 1 .712 1.232l-1.286.742 1.286.742a.712.712 0 0 1-.712 1.232l-2.352-1.357-.007-.005-.039-.025-.02-.014-.033-.027-.022-.019-.05-.05-.019-.022a1 1 0 0 1-.066-.094l-.005-.006-.008-.017a.7.7 0 0 1-.057-.137l-.008-.028-.008-.04-.013-.098v-.07l.008-.07.005-.028.008-.04.008-.028a1 1 0 0 1 .037-.1l.02-.037q.004-.01.009-.017l.004-.006a1 1 0 0 1 .066-.094l.019-.022.05-.05.022-.019.034-.027.02-.014.038-.025.007-.005z"/><path fill-rule="evenodd" d="M14.005 13.228a.496.496 0 0 1 .7 0l.798.797a.495.495 0 0 1 0 .7l-.798.798a.494.494 0 0 1-.7 0l-.798-.798a.495.495 0 0 1 0-.7zm.433.72a.12.12 0 0 0-.167 0l-.344.344a.12.12 0 0 0 0 .166l.344.344a.12.12 0 0 0 .167 0l.345-.344a.12.12 0 0 0 0-.166z" clip-rule="evenodd"/><path d="M13.03 8.75c.392 0 .71.319.71.712v2.715a.711.711 0 0 1-1.162.549l-2.256-1.303a.71.71 0 1 1 .71-1.231l1.286.742V9.462c0-.393.319-.712.712-.712m2.65 0c.393 0 .712.319.712.712v1.472l1.285-.742a.712.712 0 0 1 .71 1.231l-2.255 1.303a.71.71 0 0 1-1.163-.55V9.463c0-.393.318-.712.71-.712M13.751 5a1.251 1.251 0 0 1 0 2.5 1.25 1.25 0 0 1 0-2.5"/></g>
</svg>
