<svg xmlns="http://www.w3.org/2000/svg" viewBox="0 0 20 20"
 width="20" height="20" fill="none"
 role="presentation" aria-hidden="true">
<path fill="currentColor" fill-rule="evenodd" d="M15.625 3.75a3.126 3.126 0 0 0-3.063 2.5H11.25c-1.036 0-1.875.84-1.875 1.875v3.75c0 .345-.28.625-.625.625H7.438a3.126 3.126 0 0 0-6.188.625 3.125 3.125 0 0 0 6.188.625H8.75c1.036 0 1.875-.84 1.875-1.875v-3.75c0-.345.28-.625.625-.625h1.312a3.126 3.126 0 1 0 3.063-3.75m-11.25 7.5a1.875 1.875 0 1 1 0 3.75 1.875 1.875 0 0 1 0-3.75" clip-rule="evenodd"/>
</svg>
