<svg xmlns="http://www.w3.org/2000/svg" viewBox="0 0 20 20"
 width="20" height="20" fill="none"
 role="presentation" aria-hidden="true">
<path fill="currentColor" fill-rule="evenodd" d="M15.625 2.5a3.125 3.125 0 1 1-3.063 3.75h-1.93l-.012 3.751v3.749h1.942a3.126 3.126 0 1 1 0 1.25H9.995a.625.625 0 0 1-.625-.625v-3.75H7.438A3.126 3.126 0 0 1 1.25 10a3.125 3.125 0 0 1 6.188-.625h1.935l.01-3.751A.625.625 0 0 1 10.006 5h2.555a3.126 3.126 0 0 1 3.063-2.5m0 10a1.875 1.875 0 1 0 0 3.75 1.875 1.875 0 0 0 0-3.75m0-8.75a1.875 1.875 0 1 0 0 3.75 1.875 1.875 0 0 0 0-3.75" clip-rule="evenodd"/>
</svg>
