<svg xmlns="http://www.w3.org/2000/svg" viewBox="0 0 20 20"
 width="20" height="20" fill="none"
 role="presentation" aria-hidden="true">
<g fill="currentColor"><path d="m17.317 12.317-3.125 3.125a.625.625 0 0 1-.884 0l-2.102-2.106.442-.442.442-.44 1.66 1.661 2.683-2.682z"/><path fill-rule="evenodd" d="M14.375 7.5a5.625 5.625 0 1 1 0 11.25 5.625 5.625 0 0 1 0-11.25m0 1.25a4.375 4.375 0 1 0 0 8.75 4.375 4.375 0 0 0 0-8.75" clip-rule="evenodd"/><path d="M6.25 16.25H2.5V15h3.75zm0-5.625H2.5v-1.25h3.75zM17.5 5h-15V3.75h15z"/></g>
</svg>
