<svg xmlns="http://www.w3.org/2000/svg" viewBox="0 0 16 16"
 width="16" height="16" fill="none"
 role="presentation" aria-hidden="true">
<g fill="currentColor" clipPath="url(#s0-prefix__a)"><path d="M8.5 16h-1v-2h1zm-4.387-3.398L2.7 14.016l-.707-.707 1.414-1.414zm9.9.707-.707.707-1.414-1.414.707-.707z"/><path fill-rule="evenodd" d="M8 3a5 5 0 1 1 0 10A5 5 0 0 1 8 3m-.5 1.031a4 4 0 0 0 0 7.937z" clip-rule="evenodd"/><path d="M2.005 8.505h-2v-1h2zm14 0h-2v-1h2zM4.113 3.41l-.707.706-1.414-1.414.707-.707zm9.9-.708-1.414 1.414-.707-.707 1.414-1.414zM8.5 2h-1V0h1z"/></g><defs><clipPath id="s0-prefix__a"><path fill="#fff" d="M0 0h16v16H0z"/></clipPath></defs>
</svg>
