<svg xmlns="http://www.w3.org/2000/svg" viewBox="0 0 20 20"
 width="20" height="20" fill="none"
 role="presentation" aria-hidden="true">
<path fill="currentColor" fill-rule="evenodd" d="M10.625 2.5c1.726 0 3.125 1.4 3.125 3.125V7.5H15a2.5 2.5 0 0 1 2.5 2.5v2.5a5 5 0 0 1-5 5H3.75a1.25 1.25 0 0 1-1.244-1.122L2.5 16.25V10c0-.69.56-1.25 1.25-1.25h2.5l.128.006q.095.011.184.035.188-.336.464-.6L8.75 6.468V4.375c0-1.035.84-1.875 1.875-1.875M3.75 16.25h2.5V15h-2.5zm0-2.5h2.5V12.5h-2.5zm0-2.5h2.5V10h-2.5z" clip-rule="evenodd"/>
</svg>
