<svg xmlns="http://www.w3.org/2000/svg" viewBox="0 0 16 16"
 width="16" height="16" fill="none"
 role="presentation" aria-hidden="true">
<path fill="currentColor" fill-rule="evenodd" d="M8.5 14a2.5 2.5 0 0 0 2.5-2.5V10h1a2 2 0 0 0 2-2V6a4 4 0 0 0-4-4H3a1 1 0 0 0-.995.898L2 3v5a1 1 0 0 0 1 1h2l.103-.005q.076-.008.147-.027.15.268.371.48L7 10.826V12.5A1.5 1.5 0 0 0 8.5 14M3 3h2v5H3zm5.5 10a.5.5 0 0 1-.5-.5v-1.674a1 1 0 0 0-.293-.707L6.312 8.724A1 1 0 0 1 6 8V3h4a3 3 0 0 1 2.996 2.846L13 6v2a1 1 0 0 1-1 1h-1a1 1 0 0 0-1 1v1.5A1.5 1.5 0 0 1 8.5 13" clip-rule="evenodd"/>
</svg>
