<svg xmlns="http://www.w3.org/2000/svg" viewBox="0 0 20 20"
 width="20" height="20" fill="none"
 role="presentation" aria-hidden="true">
<path fill="currentColor" fill-rule="evenodd" d="M10.625 17.5a3.125 3.125 0 0 0 3.125-3.125V12.5H15a2.5 2.5 0 0 0 2.5-2.5V7.5a5 5 0 0 0-5-5H3.75a1.25 1.25 0 0 0-1.244 1.122L2.5 3.75V10c0 .69.56 1.25 1.25 1.25h2.5l.128-.006q.095-.01.184-.034.188.336.464.6l1.724 1.723v2.092c0 1.036.84 1.875 1.875 1.875M3.75 3.75h2.5V10h-2.5zm6.875 12.5a.625.625 0 0 1-.625-.625v-2.092c0-.332-.132-.65-.366-.884l-1.745-1.744A1.25 1.25 0 0 1 7.5 10V3.75h5a3.75 3.75 0 0 1 3.745 3.557l.005.193V10c0 .69-.56 1.25-1.25 1.25h-1.25c-.69 0-1.25.56-1.25 1.25v1.875c0 1.036-.84 1.875-1.875 1.875" clip-rule="evenodd"/>
</svg>
