<svg xmlns="http://www.w3.org/2000/svg" viewBox="0 0 20 20"
 width="20" height="20" fill="none"
 role="presentation" aria-hidden="true">
<g fill="currentColor"><path d="M10 12.188a.937.937 0 1 1 0 1.874.937.937 0 0 1 0-1.874m0-3.125a.937.937 0 1 1 0 1.874.937.937 0 0 1 0-1.874m0-3.125a.937.937 0 1 1 0 1.874.937.937 0 0 1 0-1.875"/><path fill-rule="evenodd" d="M18.125 3.75c.345 0 .625.28.625.625v3.573l-.012.076a.24.24 0 0 1-.158.152l-.164.056c-1.643.645-1.588 3.066.164 3.592.101.03.17.123.17.228v3.573a.626.626 0 0 1-.5.613l-.125.012H1.875l-.126-.012a.63.63 0 0 1-.487-.487l-.012-.126v-3.572c0-.105.071-.199.172-.23 1.744-.523 1.845-2.944.214-3.59l-.164-.058a.24.24 0 0 1-.155-.149l-.013-.074-.045-3.568a.625.625 0 0 1 .498-.62l.127-.014zM2.545 7.285c2.072 1.19 1.947 4.246-.045 5.421V15h15v-2.291c-2.035-1.184-2.035-4.236 0-5.419V5H2.517z" clip-rule="evenodd"/></g>
</svg>
