<svg xmlns="http://www.w3.org/2000/svg" viewBox="0 0 16 16"
 width="16" height="16" fill="none"
 role="presentation" aria-hidden="true">
<g fill="currentColor"><path d="M8 9.75a.75.75 0 1 1 0 1.5.75.75 0 0 1 0-1.5m0-2.5a.75.75 0 1 1 0 1.5.75.75 0 0 1 0-1.5m0-2.5a.75.75 0 1 1 0 1.5.75.75 0 0 1 0-1.5"/><path fill-rule="evenodd" d="M14.5 3a.5.5 0 0 1 .5.5v2.858l-.01.061a.19.19 0 0 1-.126.122l-.132.045c-1.314.516-1.27 2.452.132 2.873a.19.19 0 0 1 .136.183V12.5a.5.5 0 0 1-.4.49l-.1.01h-13l-.1-.01a.5.5 0 0 1-.39-.39L1 12.5V9.643c0-.085.057-.16.138-.184 1.395-.419 1.476-2.356.17-2.873l-.13-.046a.19.19 0 0 1-.124-.12l-.011-.059-.036-2.854a.5.5 0 0 1 .398-.496L1.507 3zM2.036 5.828c1.658.953 1.558 3.397-.036 4.337V12h12v-1.833c-1.628-.947-1.628-3.388 0-4.335V4H2.014z" clip-rule="evenodd"/></g>
</svg>
