<svg xmlns="http://www.w3.org/2000/svg" viewBox="0 0 20 20"
 width="20" height="20" fill="none"
 role="presentation" aria-hidden="true">
<g fill="currentColor"><path d="M3.75 15.625c0 .345.28.625.625.625h11.25c.345 0 .625-.28.625-.625V15h1.25v.625c0 1.035-.84 1.875-1.875 1.875H4.375A1.875 1.875 0 0 1 2.5 15.625V15h1.25z"/><path fill-rule="evenodd" d="M7.031 7.306q.749 0 1.292.323.547.323.846.92.298.595.298 1.413v.007q0 .82-.298 1.415a2.16 2.16 0 0 1-.842.923q-.548.322-1.296.322-.75 0-1.298-.322a2.2 2.2 0 0 1-.846-.923q-.295-.597-.294-1.415v-.007q0-.82.297-1.413.303-.596.85-.92.548-.323 1.291-.323m0 .898q-.41 0-.716.218a1.4 1.4 0 0 0-.474.611 2.35 2.35 0 0 0-.168.93v.006q0 .534.165.93.168.398.47.615.305.217.723.217.41 0 .716-.217.305-.218.47-.614.168-.398.168-.93v-.008q0-.536-.168-.929a1.36 1.36 0 0 0-.47-.611 1.2 1.2 0 0 0-.716-.218" clip-rule="evenodd"/><path d="M4.342 8.31h-1.52v4.19h-1.06V8.31H.244v-.875h4.1zm8.458 2.831h.064l1.396-3.706h1.215V12.5h-.944V9.054h-.07l-1.3 3.446H12.5l-1.296-3.446h-.072V12.5h-.945V7.435H11.4zm4.68.485h2.253v.874H16.42V7.435h1.06zM15.625 2.5c1.036 0 1.875.84 1.875 1.875V5h-1.25v-.625a.625.625 0 0 0-.625-.625H4.375a.625.625 0 0 0-.625.625V5H2.5v-.625c0-1.036.84-1.875 1.875-1.875z"/></g>
</svg>
