<svg xmlns="http://www.w3.org/2000/svg" viewBox="0 0 16 16"
 width="16" height="16" fill="none"
 role="presentation" aria-hidden="true">
<g fill="currentColor"><path d="M3 12.5a.5.5 0 0 0 .5.5h9a.5.5 0 0 0 .5-.5V12h1v.5a1.5 1.5 0 0 1-1.5 1.5h-9A1.5 1.5 0 0 1 2 12.5V12h1z"/><path fill-rule="evenodd" d="M5.625 5.845q.598 0 1.033.259.438.258.677.735.238.477.238 1.13v.007q0 .654-.238 1.131a1.73 1.73 0 0 1-.674.739q-.438.258-1.036.258-.6 0-1.04-.258a1.75 1.75 0 0 1-.676-.739q-.235-.477-.235-1.131V7.97q0-.657.238-1.131.242-.477.68-.735a2 2 0 0 1 1.033-.26m0 .718a.96.96 0 0 0-.573.174q-.245.171-.38.49a1.9 1.9 0 0 0-.134.743v.006q0 .426.132.744.135.317.376.49a.97.97 0 0 0 .579.175.96.96 0 0 0 .572-.174q.244-.174.376-.491.135-.318.135-.744V7.97q0-.43-.135-.743a1.1 1.1 0 0 0-.376-.49.96.96 0 0 0-.572-.174" clip-rule="evenodd"/><path d="M3.474 6.647H2.258V10H1.41V6.647H.194v-.699h3.28zm6.766 2.266h.051l1.117-2.965h.972V10h-.755V7.243h-.057L10.53 10H10L8.962 7.243h-.058V10h-.756V5.948h.972zm3.743.387h1.803v.7h-2.65V5.948h.847zM12.5 2A1.5 1.5 0 0 1 14 3.5V4h-1v-.5a.5.5 0 0 0-.5-.5h-9a.5.5 0 0 0-.5.5V4H2v-.5A1.5 1.5 0 0 1 3.5 2z"/></g>
</svg>
