<svg xmlns="http://www.w3.org/2000/svg" viewBox="0 0 20 20"
 width="20" height="20" fill="none"
 role="presentation" aria-hidden="true">
<path fill="currentColor" d="M13.147 8.448a4.7 4.7 0 0 0-5.082-4.683L10.6 6.297a.625.625 0 0 1 0 .884l-3.417 3.418a.625.625 0 0 1-.884 0L3.765 8.065q-.015.19-.015.383a4.698 4.698 0 0 0 6.122 4.479l.084-.02a.63.63 0 0 1 .547.173l3.352 3.353-.44.442-.443.442-3.095-3.095A5.946 5.946 0 0 1 2.79 6.609l.03-.075a.626.626 0 0 1 1.007-.174L6.74 9.272l2.533-2.534-2.912-2.91a.626.626 0 0 1 .25-1.038 5.948 5.948 0 0 1 7.612 7.086l3.095 3.095-.442.442-.442.441-3.353-3.352a.63.63 0 0 1-.154-.63c.142-.45.22-.928.22-1.424"/>
</svg>
