<svg xmlns="http://www.w3.org/2000/svg" viewBox="0 0 16 16"
 width="16" height="16" fill="none"
 role="presentation" aria-hidden="true">
<path fill="currentColor" d="M10.518 6.759a3.76 3.76 0 0 0-4.065-3.747L8.48 5.038a.5.5 0 0 1 0 .707L5.746 8.48a.5.5 0 0 1-.708 0L3.012 6.453Q3 6.603 3 6.76a3.76 3.76 0 0 0 4.897 3.582l.068-.017a.5.5 0 0 1 .437.14l2.683 2.682-.707.707L7.9 11.377c-.366.09-.748.142-1.141.142a4.76 4.76 0 0 1-4.527-6.23.5.5 0 0 1 .83-.2l2.33 2.33 2.026-2.026-2.33-2.33a.5.5 0 0 1 .2-.83 4.76 4.76 0 0 1 6.23 4.526c0 .394-.052.776-.142 1.141l2.478 2.478-.707.707-2.683-2.683a.5.5 0 0 1-.123-.505c.114-.359.177-.74.177-1.137"/>
</svg>
