<svg xmlns="http://www.w3.org/2000/svg" viewBox="0 0 16 16"
 width="16" height="16" fill="none"
 role="presentation" aria-hidden="true">
<g fill="currentColor"><path d="M8 10.17a.814.814 0 1 1 0 1.63.814.814 0 0 1 0-1.63m.094-5.365A1.928 1.928 0 0 1 9.148 8.33l-.37.248a.63.63 0 0 0-.278.524V9.5h-1v-.398c0-.543.27-1.051.72-1.354l.37-.248a.928.928 0 0 0-.506-1.695l-.073-.001a1 1 0 0 0-1.011 1V7H6v-.196a2 2 0 0 1 2.022-2z"/><path fill-rule="evenodd" d="M6.939 1.446a1.5 1.5 0 0 1 2.122 0l5.493 5.493a1.5 1.5 0 0 1 0 2.121l-5.493 5.493-.114.104a1.5 1.5 0 0 1-2.008-.104L1.446 9.06a1.5 1.5 0 0 1 0-2.12zm1.415.707a.5.5 0 0 0-.708 0L2.153 7.646a.5.5 0 0 0 0 .707l5.493 5.494c.17.17.436.192.63.064l.078-.064 5.493-5.494a.5.5 0 0 0 0-.707z" clip-rule="evenodd"/></g>
</svg>
