<svg xmlns="http://www.w3.org/2000/svg" viewBox="0 0 20 20"
 width="20" height="20" fill="none"
 role="presentation" aria-hidden="true">
<g fill="currentColor"><path d="M10 12.714a1.018 1.018 0 1 1 0 2.035 1.018 1.018 0 0 1 0-2.035m.118-6.708a2.41 2.41 0 0 1 1.317 4.407l-.462.31a.79.79 0 0 0-.348.655v.497h-1.25v-.497c0-.678.337-1.314.9-1.693l.462-.31a1.16 1.16 0 0 0-.632-2.12h-.09a1.25 1.25 0 0 0-1.265 1.25v.245H7.5v-.245a2.5 2.5 0 0 1 2.528-2.5z"/><path fill-rule="evenodd" d="M8.674 1.808a1.876 1.876 0 0 1 2.653 0l6.866 6.866c.732.732.732 1.92 0 2.652l-6.866 6.866-.143.13c-.737.6-1.824.556-2.51-.13l-6.866-6.866a1.876 1.876 0 0 1 0-2.652zm1.769.884a.627.627 0 0 0-.885 0L2.69 9.558a.626.626 0 0 0 0 .884l6.867 6.866a.625.625 0 0 0 .787.08l.098-.08 6.866-6.866a.626.626 0 0 0 0-.884z" clip-rule="evenodd"/></g>
</svg>
