<svg xmlns="http://www.w3.org/2000/svg" viewBox="0 0 16 16"
 width="16" height="16" fill="none"
 role="presentation" aria-hidden="true">
<path fill="currentColor" d="M8.5 14h-1v-1.967h1zM7.918 2.004a3.97 3.97 0 0 1 3.651 2.965A3.533 3.533 0 0 1 15 8.5l-.004.176a3.534 3.534 0 0 1-3.348 3.352l-.012.001-.156.004H8.5V8.207l2.146 2.146.707-.707-3-2.999A.5.5 0 0 0 8 6.5a.5.5 0 0 0-.354.148l-3 3 .708.707L7.5 8.207v3.826H4.1a3.1 3.1 0 0 1-3.096-2.94L1 8.933a3.1 3.1 0 0 1 2.767-3.082A3.967 3.967 0 0 1 7.73 2z"/>
</svg>
