<svg xmlns="http://www.w3.org/2000/svg" viewBox="0 0 20 20"
 width="20" height="20" fill="none"
 role="presentation" aria-hidden="true">
<g fill="currentColor"><path d="M10 8.124c.166 0 .325.068.442.185l3.75 3.75-.884.883-2.683-2.683V17.5h-1.25v-7.241l-2.683 2.683-.884-.884 3.75-3.749A.63.63 0 0 1 10 8.124"/><path d="M9.897 2.505a4.96 4.96 0 0 1 4.565 3.706 4.416 4.416 0 0 1 4.288 4.414l-.005.22a4.417 4.417 0 0 1-4.185 4.19l-.015.002-.196.004h-.599v-1.25h.568l.189-.004a3.17 3.17 0 0 0 2.977-2.848l.016-.314a3.167 3.167 0 0 0-2.843-3.15l-.323-.016q-.164 0-.318.014l-.598.06-.083-.595a3.71 3.71 0 0 0-3.324-3.172l-.347-.016a3.71 3.71 0 0 0-3.708 3.709l.005.203q.005.1.016.198l.079.742-.745-.051c-.081-.006-.135-.01-.186-.01A2.626 2.626 0 0 0 2.5 11.167l.013.268a2.625 2.625 0 0 0 2.612 2.356H6.25v1.25H5.125a3.875 3.875 0 0 1-3.87-3.675l-.005-.199c0-2 1.514-3.646 3.458-3.854A4.96 4.96 0 0 1 9.664 2.5z"/></g>
</svg>
