<svg xmlns="http://www.w3.org/2000/svg" viewBox="0 0 16 16"
 width="16" height="16" fill="none"
 role="presentation" aria-hidden="true">
<g fill="currentColor"><path d="M8 6.499c.133 0 .26.055.354.148l3 3-.707.707L8.5 8.207V14h-1V8.207l-2.146 2.146-.708-.707 3-2.999A.5.5 0 0 1 8 6.5"/><path d="M7.918 2.004a3.97 3.97 0 0 1 3.651 2.965A3.533 3.533 0 0 1 15 8.5l-.004.176a3.534 3.534 0 0 1-3.348 3.352l-.012.001-.156.004H11v-1h.454l.151-.004a2.53 2.53 0 0 0 2.382-2.278L14 8.5c0-1.312-.997-2.39-2.274-2.52l-.26-.013q-.13 0-.253.012l-.479.047-.066-.475a2.97 2.97 0 0 0-2.66-2.538L7.732 3a2.967 2.967 0 0 0-2.966 2.967l.004.163q.004.08.012.158l.064.594-.596-.041a2 2 0 0 0-.15-.008 2.1 2.1 0 0 0-2.1 2.1l.01.215a2.1 2.1 0 0 0 2.09 1.885H5v1h-.9a3.1 3.1 0 0 1-3.096-2.94L1 8.933a3.1 3.1 0 0 1 2.767-3.082A3.967 3.967 0 0 1 7.73 2z"/></g>
</svg>
