<svg xmlns="http://www.w3.org/2000/svg" viewBox="0 0 20 20"
 width="20" height="20" fill="none"
 role="presentation" aria-hidden="true">
<path fill="currentColor" d="M10.625 17.5h-1.25v-2.459h1.25zM9.897 2.505a4.96 4.96 0 0 1 4.565 3.706 4.416 4.416 0 0 1 4.288 4.414l-.005.22a4.417 4.417 0 0 1-4.185 4.19l-.015.002-.196.004h-3.724V10.26l2.683 2.683.884-.884-3.75-3.749A.63.63 0 0 0 10 8.124a.63.63 0 0 0-.442.185l-3.75 3.75.884.883 2.683-2.683v4.782h-4.25a3.875 3.875 0 0 1-3.87-3.675l-.005-.199c0-2 1.514-3.646 3.458-3.854A4.96 4.96 0 0 1 9.664 2.5z"/>
</svg>
