<svg xmlns="http://www.w3.org/2000/svg" viewBox="0 0 16 16"
 width="16" height="16" fill="none"
 role="presentation" aria-hidden="true">
<path fill="currentColor" fill-rule="evenodd" d="M8 8.5a2.5 2.5 0 1 0 0-5 2.5 2.5 0 0 0 0 5m0-1a1.5 1.5 0 1 0 0-3 1.5 1.5 0 0 0 0 3" clip-rule="evenodd"/><path fill="currentColor" fill-rule="evenodd" d="M8 15A7 7 0 1 0 8 1a7 7 0 0 0 0 14m4.874-3.5a6 6 0 1 0-9.748 0A6 6 0 0 1 8 9c2.008 0 3.785.986 4.874 2.5m-.674.785A5 5 0 0 0 8 10c-1.76 0-3.309.91-4.2 2.285A5.98 5.98 0 0 0 8 14a5.98 5.98 0 0 0 4.2-1.715" clip-rule="evenodd"/>
</svg>
