<svg xmlns="http://www.w3.org/2000/svg" viewBox="0 0 20 20"
 width="20" height="20" fill="none"
 role="presentation" aria-hidden="true">
<g fill="currentColor" fill-rule="evenodd" clip-rule="evenodd"><path d="M10.32 5.016a3.126 3.126 0 0 1 2.805 3.109l-.016.32A3.126 3.126 0 0 1 10 11.25l-.32-.016a3.13 3.13 0 0 1-2.79-2.79l-.015-.319C6.875 6.399 8.275 5 10 5zM10 6.25A1.875 1.875 0 1 0 10 10a1.875 1.875 0 0 0 0-3.75"/><path d="M10 1.25a8.75 8.75 0 1 1 0 17.5 8.75 8.75 0 0 1 0-17.5m-3.126 12.5a.626.626 0 0 0-.625.625v2.118A7.46 7.46 0 0 0 10 17.5a7.46 7.46 0 0 0 3.749-1.006v-2.119a.625.625 0 0 0-.5-.613l-.125-.012zM10 2.5a7.5 7.5 0 0 0-5.001 13.087v-1.212c0-1.035.84-1.874 1.875-1.875h6.25l.191.01A1.875 1.875 0 0 1 15 14.375v1.215A7.5 7.5 0 0 0 10 2.5"/></g>
</svg>
