<svg xmlns="http://www.w3.org/2000/svg" viewBox="0 0 16 16"
 width="16" height="16" fill="none"
 role="presentation" aria-hidden="true">
<g fill="currentColor"><path fill-rule="evenodd" d="M12.147 7.146A.5.5 0 0 1 13 7.5V10h2.5a.5.5 0 0 1 .354.854l-5 5A.5.5 0 0 1 10 15.5V13H7.5a.5.5 0 0 1-.354-.854zM8.707 12H10.5a.5.5 0 0 1 .5.5v1.793L14.293 11H12.5a.5.5 0 0 1-.5-.5V8.707z" clip-rule="evenodd"/><path d="M9.5 2A1.5 1.5 0 0 1 11 3.5v3h-1v-3a.5.5 0 0 0-.5-.5h-6a.5.5 0 0 0-.5.5v6a.5.5 0 0 0 .5.5h3v1h-3A1.5 1.5 0 0 1 2 9.5v-6A1.5 1.5 0 0 1 3.5 2z"/><path d="M8.207 6.5 5.854 8.854l-.708-.708L6.793 6.5 5.146 4.854l.708-.708z"/></g>
</svg>
