<svg xmlns="http://www.w3.org/2000/svg" viewBox="0 0 20 20"
 width="20" height="20" fill="none"
 role="presentation" aria-hidden="true">
<g fill="currentColor"><path fill-rule="evenodd" d="M15.625 8.75c1.726 0 3.125 1.4 3.125 3.125v1.875h.625c.345 0 .625.28.625.625v5c0 .345-.28.625-.625.625h-7.5a.625.625 0 0 1-.625-.625v-5c0-.345.28-.625.625-.625h.625v-1.875c0-1.726 1.4-3.125 3.125-3.125m-3.125 10h6.25V15H12.5zM15.625 10c-1.036 0-1.875.84-1.875 1.875v1.875h3.75v-1.875c0-1.036-.84-1.875-1.875-1.875" clip-rule="evenodd"/><path d="M11.875 2.5c1.036 0 1.875.84 1.875 1.875v3.75H12.5v-3.75a.625.625 0 0 0-.625-.625h-7.5a.625.625 0 0 0-.625.625v7.5c0 .345.28.625.625.625H10v1.25H4.375A1.875 1.875 0 0 1 2.5 11.875v-7.5c0-1.036.84-1.875 1.875-1.875z"/><path d="m10.259 8.125-2.942 2.942-.884-.884 2.058-2.058-2.058-2.058.884-.884z"/></g>
</svg>
