<svg xmlns="http://www.w3.org/2000/svg" viewBox="0 0 20 20"
 width="20" height="20" fill="none"
 role="presentation" aria-hidden="true">
<g fill="currentColor"><path fill-rule="evenodd" d="M14.828 9.4a.63.63 0 0 1 .344 0l4.375 1.25a.625.625 0 0 1 .453.6v3.125c0 1.887-1.323 3.145-2.474 3.886a10 10 0 0 1-2.292 1.071l-.044.014-.012.003-.003.002h-.003a.6.6 0 0 1-.259.018l-.085-.018h-.003l-.003-.002-.012-.003-.044-.014-.153-.05a9.9 9.9 0 0 1-2.139-1.022c-1.08-.693-2.31-1.842-2.46-3.538L10 14.375V11.25c0-.279.185-.524.453-.6zm-3.578 2.32v2.654c0 1.238.865 2.167 1.9 2.833a8.6 8.6 0 0 0 1.85.885 8.6 8.6 0 0 0 1.85-.885c1.035-.666 1.9-1.595 1.9-2.833V11.72L15 10.65z" clip-rule="evenodd"/><path d="M11.875 2.5c1.036 0 1.875.84 1.875 1.875v3.75H12.5v-3.75a.625.625 0 0 0-.625-.625h-7.5a.625.625 0 0 0-.625.625v7.5c0 .345.28.625.625.625h3.75v1.25h-3.75A1.875 1.875 0 0 1 2.5 11.875v-7.5c0-1.036.84-1.875 1.875-1.875z"/><path d="m10.259 8.125-2.942 2.942-.884-.884 2.058-2.058-2.058-2.058.884-.884z"/></g>
</svg>
