<svg xmlns="http://www.w3.org/2000/svg" viewBox="0 0 20 20"
 width="20" height="20" fill="none"
 role="presentation" aria-hidden="true">
<g fill="currentColor"><path fill-rule="evenodd" d="M15.183 8.933a.625.625 0 0 1 1.067.442V12.5h3.125a.625.625 0 0 1 .442 1.067l-6.25 6.25a.625.625 0 0 1-1.067-.442V16.25H9.375a.625.625 0 0 1-.442-1.067zM10.883 15h2.242c.345 0 .625.28.625.625v2.241l4.116-4.116h-2.241a.625.625 0 0 1-.625-.625v-2.241z" clip-rule="evenodd"/><path d="M11.875 2.5c1.036 0 1.875.84 1.875 1.875v3.75H12.5v-3.75a.625.625 0 0 0-.625-.625h-7.5a.625.625 0 0 0-.625.625v7.5c0 .345.28.625.625.625h3.75v1.25h-3.75A1.875 1.875 0 0 1 2.5 11.875v-7.5c0-1.036.84-1.875 1.875-1.875z"/><path d="m10.259 8.125-2.942 2.942-.884-.884 2.058-2.058-2.058-2.058.884-.884z"/></g>
</svg>
