<svg xmlns="http://www.w3.org/2000/svg" viewBox="0 0 16 16"
 width="16" height="16" fill="none"
 role="presentation" aria-hidden="true">
<g fill="currentColor"><path fill-rule="evenodd" d="M11.862 7.52a.5.5 0 0 1 .276 0l3.5 1A.5.5 0 0 1 16 9v2.5c0 1.51-1.058 2.516-1.98 3.108a8 8 0 0 1-1.868.869l-.01.002-.002.002h-.002a.5.5 0 0 1-.207.014l-.069-.014h-.002l-.003-.002-.01-.002a3 3 0 0 1-.157-.051 8 8 0 0 1-1.71-.817c-.864-.556-1.849-1.475-1.968-2.832L8 11.5V9a.5.5 0 0 1 .362-.48zM9 9.377V11.5c0 .99.692 1.734 1.52 2.267a7 7 0 0 0 1.48.708 7 7 0 0 0 1.48-.708C14.308 13.234 15 12.49 15 11.5V9.377l-3-.857z" clip-rule="evenodd"/><path d="M9.5 2A1.5 1.5 0 0 1 11 3.5v3h-1v-3a.5.5 0 0 0-.5-.5h-6a.5.5 0 0 0-.5.5v6a.5.5 0 0 0 .5.5h3v1h-3A1.5 1.5 0 0 1 2 9.5v-6A1.5 1.5 0 0 1 3.5 2z"/><path d="M8.207 6.5 5.854 8.854l-.708-.708L6.793 6.5 5.146 4.854l.708-.708z"/></g>
</svg>
