<svg xmlns="http://www.w3.org/2000/svg" viewBox="0 0 16 16"
 width="16" height="16" fill="none"
 role="presentation" aria-hidden="true">
<g fill="currentColor"><path fill-rule="evenodd" d="M12.5 7A2.5 2.5 0 0 1 15 9.5V11h.5a.5.5 0 0 1 .5.5v4a.5.5 0 0 1-.5.5h-6a.5.5 0 0 1-.5-.5v-4a.5.5 0 0 1 .5-.5h.5V9.5A2.5 2.5 0 0 1 12.5 7M10 15h5v-3h-5zm2.5-7A1.5 1.5 0 0 0 11 9.5V11h3V9.5A1.5 1.5 0 0 0 12.5 8" clip-rule="evenodd"/><path d="M9.5 2A1.5 1.5 0 0 1 11 3.5v3h-1v-3a.5.5 0 0 0-.5-.5h-6a.5.5 0 0 0-.5.5v6a.5.5 0 0 0 .5.5H8v1H3.5A1.5 1.5 0 0 1 2 9.5v-6A1.5 1.5 0 0 1 3.5 2z"/><path d="M8.207 6.5 5.854 8.854l-.708-.708L6.793 6.5 5.146 4.854l.708-.708z"/></g>
</svg>
