<svg xmlns="http://www.w3.org/2000/svg" viewBox="0 0 20 20"
 width="20" height="20" fill="none"
 role="presentation" aria-hidden="true">
<path fill="currentColor" d="m18.125 9.375.557.286h-.002l-.002.006-.009.014-.026.05-.1.176a10 10 0 0 1-.392.607 11.6 11.6 0 0 1-1.574 1.818 10.4 10.4 0 0 1-1.879 1.402l1.794 2.69-1.04.693-1.883-2.823a9.2 9.2 0 0 1-2.944.683v3.148h-1.25v-3.148a9.2 9.2 0 0 1-2.946-.683l-1.88 2.823-1.04-.694L5.3 13.734a10.4 10.4 0 0 1-1.877-1.402 11.6 11.6 0 0 1-1.574-1.818 10 10 0 0 1-.492-.783l-.026-.05-.009-.014-.002-.005-.002-.001.557-.286.557-.284.003.006.019.034c.017.03.044.08.08.141.074.125.188.307.34.527a10.3 10.3 0 0 0 1.402 1.62C5.533 12.595 7.42 13.75 10 13.75s4.467-1.155 5.724-2.331a10.3 10.3 0 0 0 1.401-1.62 9 9 0 0 0 .421-.668l.019-.034.003-.006z"/>
</svg>
