<svg xmlns="http://www.w3.org/2000/svg" viewBox="0 0 16 16"
 width="16" height="16" fill="none"
 role="presentation" aria-hidden="true">
<path fill="currentColor" d="m14.5 7.5.445.229-.003.004-.007.012-.02.04-.081.14c-.07.12-.175.287-.313.486a9.3 9.3 0 0 1-1.26 1.454 8.3 8.3 0 0 1-1.502 1.122l1.434 2.152-.832.554-1.506-2.258a7.3 7.3 0 0 1-2.355.546V14.5h-1v-2.519a7.3 7.3 0 0 1-2.356-.546l-1.505 2.258-.832-.554 1.433-2.152a8.4 8.4 0 0 1-1.502-1.122A9.3 9.3 0 0 1 1.48 8.411a8 8 0 0 1-.393-.626l-.022-.04-.006-.012-.002-.004h-.001s.001-.002.445-.229l.445-.228.003.005.015.028.064.113a8.3 8.3 0 0 0 1.394 1.717C4.426 10.076 5.935 11 8 11s3.574-.924 4.58-1.865a8.3 8.3 0 0 0 1.393-1.717l.064-.113.015-.028.003-.005z"/>
</svg>
