<svg xmlns="http://www.w3.org/2000/svg" viewBox="0 0 20 20"
 width="20" height="20" fill="none"
 role="presentation" aria-hidden="true">
<g fill="currentColor"><path fill-rule="evenodd" d="M15.183 8.933a.625.625 0 0 1 1.067.442V12.5h3.125a.625.625 0 0 1 .442 1.067l-6.25 6.25a.625.625 0 0 1-1.067-.442V16.25H9.375a.625.625 0 0 1-.442-1.067zM10.883 15h2.242c.345 0 .625.28.625.625v2.241l4.116-4.116h-2.241a.625.625 0 0 1-.625-.625v-2.241z" clip-rule="evenodd"/><path d="M9.2 2.814a1.88 1.88 0 0 1 1.602.006l5.63 2.683c.652.311 1.068.97 1.068 1.693v.309h-1.25v-.309c0-.24-.14-.46-.356-.564l-5.63-2.684a.63.63 0 0 0-.534-.002L4.11 6.573a.63.63 0 0 0-.36.567v8.49c0 .345.28.625.625.625H7.5v1.25H4.375A1.876 1.876 0 0 1 2.5 15.63V7.14c0-.728.421-1.39 1.08-1.698z"/></g>
</svg>
