<svg xmlns="http://www.w3.org/2000/svg" viewBox="0 0 20 20"
 width="20" height="20" fill="none"
 role="presentation" aria-hidden="true">
<g fill="currentColor" clipPath="url(#s0-prefix__a)"><path d="M13.044 15.862c.394 0 .714.318.714.71v2.717a.713.713 0 0 1-1.426 0v-1.474l-1.29.742a.715.715 0 0 1-.976-.26.71.71 0 0 1 .261-.971l2.265-1.303a.7.7 0 0 1 .452-.16m2.662-.001c.171 0 .33.06.452.161l2.265 1.303a.71.71 0 0 1 .261.971.715.715 0 0 1-.975.26l-1.29-.742v1.474a.713.713 0 0 1-1.428 0v-2.716c0-.393.32-.71.715-.71M9.2 2.81a1.88 1.88 0 0 1 1.602.005l5.63 2.683c.652.312 1.068.97 1.068 1.694V7.5h-1.25v-.308c0-.241-.14-.46-.356-.564l-5.63-2.685a.63.63 0 0 0-.534-.001L4.11 6.569a.63.63 0 0 0-.36.566v8.49c0 .345.28.625.625.625H7.5v1.25H4.375A1.876 1.876 0 0 1 2.5 15.625v-8.49c0-.727.421-1.39 1.08-1.698z"/><path d="M8.845 12.662a.715.715 0 0 1 .976-.26l2.36 1.357.007.004.039.025.006.004.014.01.03.025.003.002.022.018.009.007.01.012.037.037.008.01.006.007.002.002.025.031.01.015.004.006.025.039.001.001.004.005.008.017.02.038.012.03.013.033.012.037.008.028.004.015.004.024.003.011.002.017a1 1 0 0 1 .009.106l-.001.016v.019l-.008.07v.011l-.005.018-.008.038-.008.029-.012.036-.007.018-.005.015-.001.001-.012.03-.02.037-.008.018-.005.006-.025.039-.005.006-.01.014-.026.034-.006.007-.005.006-.008.008-.05.052-.017.013-.006.005-.002.001-.03.026-.014.008-.007.005-.04.026-.006.004-2.36 1.357a.716.716 0 0 1-.976-.26.71.71 0 0 1 .261-.972l1.29-.74-1.29-.743a.71.71 0 0 1-.26-.971m10.084-.26a.716.716 0 0 1 .975.26.71.71 0 0 1-.261.971l-1.29.742 1.29.741a.71.71 0 0 1 .26.972.716.716 0 0 1-.975.26l-2.36-1.357-.006-.004-.04-.026-.007-.005-.005-.002-.008-.006-.033-.027-.006-.005-.01-.008-.006-.005-.021-.02-.005-.006-.006-.005-.011-.012-.009-.008-.004-.007-.008-.008-.006-.008-.027-.033-.007-.01-.007-.01-.025-.04-.005-.005-.008-.018-.02-.037-.012-.03-.013-.034-.004-.01-.004-.01-.005-.016-.007-.029a.7.7 0 0 1-.02-.137l-.002-.035.001-.018v-.017l.008-.07.002-.015.003-.014.008-.039.007-.028.025-.07h.001l.012-.03.02-.038.003-.007.003-.004.002-.006.005-.006.025-.04.005-.007.01-.013.024-.03.002-.003.006-.007.005-.008.008-.007.006-.007.013-.012.006-.006.012-.014.014-.012.022-.018v-.002l.033-.025.012-.008.008-.006.04-.025.006-.004z"/><path fill-rule="evenodd" d="M14.023 13.227a.5.5 0 0 1 .704 0l.8.797a.495.495 0 0 1 0 .7l-.8.799a.5.5 0 0 1-.704 0l-.8-.797a.494.494 0 0 1 0-.7zm.435.72a.12.12 0 0 0-.166 0l-.347.344a.12.12 0 0 0 0 .167l.347.345c.046.045.12.045.166 0l.347-.345a.12.12 0 0 0 0-.167z" clip-rule="evenodd"/><path d="M13.044 8.75c.395 0 .714.318.714.71v2.717a.712.712 0 0 1-1.166.55l-2.265-1.303a.71.71 0 0 1-.261-.972.716.716 0 0 1 .975-.26l1.29.742V9.461c0-.393.32-.71.713-.71m2.662-.001c.394 0 .712.318.713.71v1.474l1.29-.742a.716.716 0 0 1 .975.26.71.71 0 0 1-.261.972l-2.265 1.302a.712.712 0 0 1-1.167-.55V9.462c0-.393.32-.71.715-.71"/></g><defs><clipPath id="s0-prefix__a"><path fill="#fff" d="M0 0h20v20H0z"/></clipPath></defs>
</svg>
