<svg xmlns="http://www.w3.org/2000/svg" viewBox="0 0 20 20"
 width="20" height="20" fill="none"
 role="presentation" aria-hidden="true">
<g fill="currentColor"><path d="M11.465 11.464a5 5 0 0 1 7.071 0l.214.214v-1.39H20v3.029c0 .345-.28.625-.625.625h-3.029v-1.25h1.65l-.345-.344a3.75 3.75 0 1 0 .812 4.095l1.154.48a5 5 0 0 1-8.152 1.611 5 5 0 0 1 0-7.07"/><path d="M9.2 2.81a1.88 1.88 0 0 1 1.602.005l5.63 2.683c.652.312 1.068.97 1.068 1.694V7.5h-1.25v-.308a.63.63 0 0 0-.356-.564l-5.63-2.685a.63.63 0 0 0-.534-.001L4.11 6.569a.63.63 0 0 0-.36.566v8.49c0 .345.28.625.625.625H7.5v1.25H4.375A1.876 1.876 0 0 1 2.5 15.625v-8.49c0-.727.421-1.39 1.08-1.698z"/></g>
</svg>
