<svg xmlns="http://www.w3.org/2000/svg" viewBox="0 0 16 16"
 width="16" height="16" fill="none"
 role="presentation" aria-hidden="true">
<g fill="currentColor" clipPath="url(#s0-prefix__a)"><path d="M10.436 12.69a.57.57 0 0 1 .57.568v2.173a.57.57 0 0 1-1.14 0v-1.178l-1.033.593a.568.568 0 1 1-.571-.985l1.811-1.042a.57.57 0 0 1 .362-.129m2.13 0a.57.57 0 0 1 .362.129l1.811 1.042a.568.568 0 1 1-.571.985l-1.032-.594v1.18a.57.57 0 0 1-1.142 0v-2.174a.57.57 0 0 1 .572-.568M7.36 2.248c.407-.19.877-.188 1.282.004L13.146 4.4A1.5 1.5 0 0 1 14 5.753v.248h-1v-.248a.5.5 0 0 0-.285-.45L8.21 3.154a.5.5 0 0 0-.427-.001L3.288 5.255A.5.5 0 0 0 3 5.71v6.79a.5.5 0 0 0 .5.5H6v1H3.5A1.5 1.5 0 0 1 2 12.5V5.709a1.5 1.5 0 0 1 .864-1.359z"/><path d="M7.076 10.13a.57.57 0 0 1 .78-.209l1.89 1.086.004.003.031.02.005.004.012.007.024.021.002.001.018.015.007.006.008.01.03.029.006.007.004.006.002.002.02.025.008.011.004.005.02.031v.001l.003.004.007.014.016.03.01.025.01.026.01.03.006.022.003.012.004.02.002.008.001.014.006.056.001.029v.027l-.007.056v.01l-.003.013-.007.031-.006.023-.01.029-.006.015-.004.011v.001l-.01.024-.016.03-.007.014-.004.005-.02.03-.003.006-.008.011-.022.027-.004.006-.004.005-.006.006-.041.041-.013.011-.005.004-.002.001-.024.02-.01.007-.007.004-.031.02-.005.004-1.889 1.086a.568.568 0 1 1-.571-.985l1.032-.594-1.032-.593a.57.57 0 0 1-.209-.778m8.068-.208a.568.568 0 1 1 .571.985l-1.032.595 1.032.592a.568.568 0 1 1-.571.986l-1.89-1.086-.004-.003-.031-.02-.006-.005-.004-.002-.007-.004-.026-.022-.005-.004-.008-.007-.005-.004-.016-.015-.004-.005-.005-.004-.009-.01-.007-.007-.004-.005-.006-.006-.005-.006-.02-.027-.007-.007-.006-.01-.02-.03-.003-.005-.007-.014-.016-.03-.01-.025-.01-.026-.003-.008-.003-.009-.004-.012-.006-.023a.6.6 0 0 1-.016-.11l-.001-.027v-.029l.007-.056.002-.012.002-.01.006-.032.006-.023.01-.029.01-.026v-.001l.01-.024.016-.03.003-.006.002-.003.002-.005.004-.005.02-.03.003-.007.008-.01.02-.025.001-.002.005-.006.004-.006.006-.005.005-.006.01-.01.006-.005.01-.01.01-.01.018-.015v-.001l.026-.02.01-.006.007-.005.031-.02.005-.004z"/><path fill-rule="evenodd" d="M11.219 10.582a.4.4 0 0 1 .562 0l.64.637a.396.396 0 0 1 0 .56l-.64.64a.4.4 0 0 1-.562 0l-.64-.638a.396.396 0 0 1 0-.56zm.347.576a.095.095 0 0 0-.132 0l-.278.275a.095.095 0 0 0 0 .134l.278.275a.094.094 0 0 0 .132 0l.278-.275a.095.095 0 0 0 0-.134z" clip-rule="evenodd"/><path d="M10.436 7a.57.57 0 0 1 .57.569v2.173a.57.57 0 0 1-.933.44L8.262 9.138a.568.568 0 1 1 .571-.985l1.032.594v-1.18a.57.57 0 0 1 .57-.567m2.13 0a.57.57 0 0 1 .57.569v1.179l1.032-.594a.568.568 0 1 1 .571.985l-1.811 1.042a.57.57 0 0 1-.934-.44V7.57a.57.57 0 0 1 .572-.57"/></g><defs><clipPath id="s0-prefix__a"><path fill="#fff" d="M0 0h16v16H0z"/></clipPath></defs>
</svg>
