<svg xmlns="http://www.w3.org/2000/svg" viewBox="0 0 16 16"
 width="16" height="16" fill="none"
 role="presentation" aria-hidden="true">
<g fill="currentColor" clipPath="url(#s0-prefix__a)"><path fill-rule="evenodd" d="M12.147 7.147A.5.5 0 0 1 13 7.5V10h2.5a.5.5 0 0 1 .354.854l-5 5A.5.5 0 0 1 10 15.5V13H7.5a.5.5 0 0 1-.354-.854zM8.707 12H10.5a.5.5 0 0 1 .5.5v1.793L14.293 11H12.5a.5.5 0 0 1-.5-.5V8.707z" clip-rule="evenodd"/><path d="M7.36 2.251c.407-.19.877-.188 1.282.005l4.504 2.146c.521.25.854.777.854 1.355v.247h-1v-.247a.5.5 0 0 0-.285-.451L8.21 3.158a.5.5 0 0 0-.427 0l-4.496 2.1A.5.5 0 0 0 3 5.713v6.792a.5.5 0 0 0 .5.5H6v1H3.5a1.5 1.5 0 0 1-1.5-1.5V5.712a1.5 1.5 0 0 1 .864-1.358z"/></g><defs><clipPath id="s0-prefix__a"><path fill="#fff" d="M0 0h16v16H0z"/></clipPath></defs>
</svg>
