<svg xmlns="http://www.w3.org/2000/svg" viewBox="0 0 20 20"
 width="20" height="20" fill="none"
 role="presentation" aria-hidden="true">
<path fill="currentColor" fill-rule="evenodd" d="M9.2 2.81a1.88 1.88 0 0 1 1.602.005l5.63 2.683c.652.312 1.068.97 1.068 1.694v8.433c0 1.036-.84 1.875-1.875 1.875H4.375A1.875 1.875 0 0 1 2.5 15.625v-8.49c0-.727.421-1.39 1.08-1.698zm1.064 1.133a.63.63 0 0 0-.534-.001L4.11 6.569a.63.63 0 0 0-.36.566v8.49c0 .345.28.625.625.625H6.25v-5.625c0-.345.28-.625.625-.625h6.25c.345 0 .625.28.625.625v5.625h1.875c.345 0 .625-.28.625-.625V7.192a.63.63 0 0 0-.356-.564zM7.5 14.375v1.875h5v-1.875zm0-1.25h5V11.25h-5z" clip-rule="evenodd"/>
</svg>
