<svg xmlns="http://www.w3.org/2000/svg" viewBox="0 0 20 20"
 width="20" height="20" fill="none"
 role="presentation" aria-hidden="true">
<g fill="currentColor"><path fill-rule="evenodd" d="M13.75 9.374c.22 0 .423.116.536.304l5.625 9.375a.626.626 0 0 1-.536.946H8.125a.626.626 0 0 1-.536-.946l5.625-9.375.046-.067a.63.63 0 0 1 .49-.237m.375 6.126a.63.63 0 0 1-.75 0l-1.516-1.138-2.63 4.387h9.043l-2.632-4.387zm-1.619-2.216 1.244.933 1.243-.933-1.243-2.071z" clip-rule="evenodd"/><path d="M9.2 2.81a1.88 1.88 0 0 1 1.602.005l5.63 2.683c.652.312 1.068.97 1.068 1.694V10h-1.25V7.192c0-.241-.14-.46-.356-.564l-5.63-2.685a.63.63 0 0 0-.534-.001L4.11 6.569a.63.63 0 0 0-.36.566v8.49c0 .345.28.625.625.625H6.25v1.25H4.375A1.876 1.876 0 0 1 2.5 15.625v-8.49c0-.727.421-1.39 1.08-1.698z"/></g>
</svg>
