<svg xmlns="http://www.w3.org/2000/svg" viewBox="0 0 16 16"
 width="16" height="16" fill="none"
 role="presentation" aria-hidden="true">
<g fill="currentColor"><path d="M9.172 9.171a4 4 0 0 1 5.657 0l.171.171V8.231h1v2.423a.5.5 0 0 1-.5.5h-2.423v-1h1.32l-.276-.276a3 3 0 1 0 .65 3.277l.922.384a4 4 0 1 1-6.522-4.367"/><path d="M7.36 2.248c.406-.19.877-.188 1.282.004L13.146 4.4A1.5 1.5 0 0 1 14 5.753V6h-1v-.247a.5.5 0 0 0-.285-.45L8.21 3.154a.5.5 0 0 0-.427-.001L3.288 5.255A.5.5 0 0 0 3 5.708v6.793a.5.5 0 0 0 .5.5H6v1H3.5A1.5 1.5 0 0 1 2 12.5V5.708a1.5 1.5 0 0 1 .864-1.358z"/></g>
</svg>
