<svg xmlns="http://www.w3.org/2000/svg" viewBox="0 0 16 16"
 width="16" height="16" fill="none"
 role="presentation" aria-hidden="true">
<g fill="currentColor"><path fill-rule="evenodd" d="M11 7.5c.175 0 .338.092.429.243l4.5 7.5a.5.5 0 0 1-.429.756h-9a.5.5 0 0 1-.429-.756l4.5-7.5.037-.054a.5.5 0 0 1 .392-.19m.3 4.9a.5.5 0 0 1-.6 0l-1.213-.91L7.383 15h7.234l-2.105-3.51zm-1.295-1.773.995.747.994-.747L11 8.97z" clip-rule="evenodd"/><path d="M7.36 2.248c.407-.19.877-.188 1.282.004L13.146 4.4A1.5 1.5 0 0 1 14 5.753v2.248h-1V5.753a.5.5 0 0 0-.285-.45L8.21 3.154a.5.5 0 0 0-.427-.001L3.288 5.255A.5.5 0 0 0 3 5.71v6.79a.5.5 0 0 0 .5.5H5v1H3.5A1.5 1.5 0 0 1 2 12.5V5.709a1.5 1.5 0 0 1 .864-1.359z"/></g>
</svg>
