<svg xmlns="http://www.w3.org/2000/svg" viewBox="0 0 20 20"
 width="20" height="20" fill="none"
 role="presentation" aria-hidden="true">
<g fill="currentColor"><path d="M10 14.375a.938.938 0 1 1 0 1.876.938.938 0 0 1 0-1.876m.626-1.25h-1.25V7.5h1.25z"/><path fill-rule="evenodd" d="M8.35 3.623c.708-1.314 2.593-1.314 3.3 0l6.659 12.364c.672 1.248-.233 2.763-1.65 2.763H3.342c-1.419 0-2.323-1.515-1.65-2.763zm2.201.592a.625.625 0 0 0-1.101 0L2.794 16.58a.625.625 0 0 0 .549.921h13.315a.625.625 0 0 0 .55-.921z" clip-rule="evenodd"/></g>
</svg>
