<svg xmlns="http://www.w3.org/2000/svg" viewBox="0 0 20 20"
 width="20" height="20" fill="none"
 role="presentation" aria-hidden="true">
<g fill="currentColor" fill-rule="evenodd" clip-rule="evenodd"><path d="M13.125 8.75c.345 0 .625.28.625.625v6.25c0 .345-.28.625-.625.625h-6.25a.625.625 0 0 1-.625-.625v-6.25c0-.345.28-.625.625-.625zM7.5 12.5V15h5v-2.5zm0-1.25h5V10h-5z"/><path d="M10.747 1.262c.12.024.232.083.32.171l5 5a.63.63 0 0 1 .183.442v10c0 1.035-.84 1.875-1.875 1.875h-8.75a1.875 1.875 0 0 1-1.875-1.875V3.125c0-1.035.84-1.875 1.875-1.875h5zM5.625 2.5A.625.625 0 0 0 5 3.125v13.75c0 .345.28.625.625.625h8.75c.345 0 .625-.28.625-.625V7.5h-3.125A1.875 1.875 0 0 1 10 5.625V2.5zm5.625 3.125c0 .345.28.625.625.625h2.241L11.25 3.384z"/></g>
</svg>
