<svg xmlns="http://www.w3.org/2000/svg" viewBox="0 0 16 16"
 width="16" height="16" fill="none"
 role="presentation" aria-hidden="true">
<g fill="currentColor" clipPath="url(#s0-prefix__a)"><path d="M14.507 13a1.5 1.5 0 0 1 1.5 1.507L16 16.002l-1-.004.007-1.496a.5.5 0 0 0-.5-.502h-4a.5.5 0 0 0-.5.498L10 16.002l-1-.004.007-1.505a1.5 1.5 0 0 1 1.5-1.493z"/><path fill-rule="evenodd" d="M12.5 2A1.5 1.5 0 0 1 14 3.5V6h-1V3.5a.5.5 0 0 0-.5-.5H7v11H3.5A1.5 1.5 0 0 1 2 12.5v-9A1.5 1.5 0 0 1 3.5 2zM3 12.5a.5.5 0 0 0 .5.5H6V8.5H3zM3.5 3a.5.5 0 0 0-.5.5v4h3V3z" clip-rule="evenodd"/><path fill-rule="evenodd" d="M12.5 7.5a2.5 2.5 0 1 1 0 5 2.5 2.5 0 0 1 0-5m0 1a1.5 1.5 0 1 0 0 3 1.5 1.5 0 0 0 0-3" clip-rule="evenodd"/></g><defs><clipPath id="s0-prefix__a"><path fill="#fff" d="M0 0h16v16H0z"/></clipPath></defs>
</svg>
