<svg xmlns="http://www.w3.org/2000/svg" viewBox="0 0 20 20"
 width="20" height="20" fill="none"
 role="presentation" aria-hidden="true">
<g fill="currentColor" clipPath="url(#s0-prefix__a)"><path d="M18.134 16.25c1.038 0 1.88.845 1.875 1.884L20 20.002l-1.25-.004.009-1.87a.625.625 0 0 0-.625-.628h-5a.625.625 0 0 0-.626.623l-.008 1.88-1.25-.005.008-1.882a1.875 1.875 0 0 1 1.876-1.866z"/><path fill-rule="evenodd" d="M15.625 2.5c1.035 0 1.875.84 1.875 1.875V7.5h-1.25V4.375a.625.625 0 0 0-.625-.625H8.75V17.5H4.375A1.875 1.875 0 0 1 2.5 15.625V4.375c0-1.036.84-1.875 1.875-1.875zM3.75 15.625c0 .345.28.625.625.625H7.5v-5.625H3.75zM4.375 3.75a.625.625 0 0 0-.625.625v5H7.5V3.75z" clip-rule="evenodd"/><path fill-rule="evenodd" d="M15.625 9.375a3.125 3.125 0 1 1 0 6.25 3.125 3.125 0 0 1 0-6.25m0 1.25a1.875 1.875 0 1 0 0 3.75 1.875 1.875 0 0 0 0-3.75" clip-rule="evenodd"/></g><defs><clipPath id="s0-prefix__a"><path fill="#fff" d="M0 0h20v20H0z"/></clipPath></defs>
</svg>
