<svg xmlns="http://www.w3.org/2000/svg" viewBox="0 0 16 16"
 width="16" height="16" fill="none"
 role="presentation" aria-hidden="true">
<g fill="currentColor" fill-rule="evenodd" clip-rule="evenodd"><path d="M10.69 8.104a1.5 1.5 0 0 1 2.12 0l2.336 2.336a1.5 1.5 0 0 1 0 2.122l-2.336 2.336a1.5 1.5 0 0 1-2.12 0l-2.336-2.336a1.5 1.5 0 0 1 0-2.122zm1.414.707a.5.5 0 0 0-.707 0L9.06 11.146a.5.5 0 0 0 0 .707l2.335 2.337a.5.5 0 0 0 .707 0l2.337-2.336a.5.5 0 0 0 0-.707z"/><path d="M12.5 2A1.5 1.5 0 0 1 14 3.5V7h-1V3.5a.5.5 0 0 0-.5-.5H7v11H3.5A1.5 1.5 0 0 1 2 12.5v-9A1.5 1.5 0 0 1 3.5 2zM3 12.5a.5.5 0 0 0 .5.5H6V8.5H3zM3.5 3a.5.5 0 0 0-.5.5v4h3V3z"/></g>
</svg>
