<svg xmlns="http://www.w3.org/2000/svg" viewBox="0 0 20 20"
 width="20" height="20" fill="none"
 role="presentation" aria-hidden="true">
<path fill="currentColor" fill-rule="evenodd" d="M14.091 1.799a1.875 1.875 0 0 1 2.652 0l.732.732c.731.732.731 1.92 0 2.652l-3.208 3.206.395.391q.076-.018.155-.026l.129-.006h2.5c.69 0 1.249.56 1.25 1.25v6.25l-.007.128a1.25 1.25 0 0 1-1.243 1.122h-3.114l-.011.002H9.999c-.943 0-1.869-.21-2.575-.722a2.8 2.8 0 0 1-.834-.952L2.724 17.45a.626.626 0 0 1-.824-.803l1.3-3.32a3.3 3.3 0 0 1-1.077-.318 1.615 1.615 0 0 1-.485-2.515l3.254-3.67a2.2 2.2 0 0 1 1.106-.677l.312-.08a8.1 8.1 0 0 1 3.601-.09zm-3.933 10.7h.466c.202 0 .314-.049.376-.09a.5.5 0 0 0 .16-.189.9.9 0 0 0 .09-.336v-.01h.626l.623.002v.034a2 2 0 0 1-.027.262c-.026.158-.081.38-.195.607a1.7 1.7 0 0 1-.582.67c-.29.193-.648.3-1.07.3H8.75c-.5 0-.835.058-1.029.162a.37.37 0 0 0-.156.141.6.6 0 0 0-.063.298v.046l.01.218c.056.535.297.899.645 1.15.424.308 1.062.485 1.843.486h3.697V9.998q.001-.19.053-.362l-.367-.362zm4.788 3.75h2.5v-6.25h-2.5zM4.775 12.882a.6.6 0 0 0-.14.213l-1.032 2.629 2.577-1.08q.04-.02.077-.043a4 4 0 0 1-.008-.229c0-.343.072-.663.231-.942.161-.28.391-.482.647-.62.375-.202.822-.277 1.251-.3l6.313-6.313-1.617-1.616zm4.027-5.796a6.9 6.9 0 0 0-2.182.193l-.312.08a.97.97 0 0 0-.481.293l-3.254 3.672a.364.364 0 0 0 .11.567c.355.177.747.238 1.129.194q.037-.046.079-.087zm7.057-4.404a.626.626 0 0 0-.884 0l-1.017 1.015 1.616 1.616L16.591 4.3a.626.626 0 0 0 0-.884z" clip-rule="evenodd"/>
</svg>
