<svg xmlns="http://www.w3.org/2000/svg" viewBox="0 0 16 16"
 width="16" height="16" fill="none"
 role="presentation" aria-hidden="true">
<path fill="currentColor" fill-rule="evenodd" d="M11.273 1.44a1.5 1.5 0 0 1 2.121 0l.586.585a1.5 1.5 0 0 1 0 2.121l-2.566 2.566.316.312q.06-.014.124-.02l.103-.005h2c.551 0 1 .448 1 1v5l-.005.102a1 1 0 0 1-.995.898H8c-.755 0-1.496-.168-2.06-.577a2.2 2.2 0 0 1-.668-.761l-3.093 1.3a.5.5 0 0 1-.659-.643l1.04-2.656a2.6 2.6 0 0 1-.861-.254 1.292 1.292 0 0 1-.389-2.012L3.914 5.46c.234-.265.543-.454.885-.541l.25-.064a6.5 6.5 0 0 1 2.88-.073zM8.127 10H8.5c.161 0 .25-.04.3-.073a.4.4 0 0 0 .128-.151A.7.7 0 0 0 9 9.507V9.5h1v.028l-.003.05a1.7 1.7 0 0 1-.175.645 1.4 1.4 0 0 1-.466.536c-.231.155-.518.24-.855.24H7c-.4 0-.668.046-.824.13a.3.3 0 0 0-.125.113.5.5 0 0 0-.05.238v.037l.008.174c.045.428.238.72.516.92.34.247.85.389 1.475.389h2.957V7.999q0-.152.043-.29l-.294-.29zm3.83 2.999h2v-5h-2zM3.82 10.306a.5.5 0 0 0-.112.171l-.826 2.103 2.062-.865q.032-.015.062-.034A3 3 0 0 1 5 11.5a1.5 1.5 0 0 1 .184-.754c.13-.225.313-.386.518-.496.3-.162.657-.221 1-.24l5.05-5.05-1.292-1.293zM7.042 5.67a5.5 5.5 0 0 0-1.745.154l-.25.063a.77.77 0 0 0-.385.236L2.058 9.06a.292.292 0 0 0 .088.453c.284.142.598.19.903.156q.031-.036.064-.07zm5.645-3.524a.5.5 0 0 0-.707 0l-.813.813 1.293 1.293.813-.813a.5.5 0 0 0 0-.707z" clip-rule="evenodd"/>
</svg>
