<svg xmlns="http://www.w3.org/2000/svg" viewBox="0 0 16 16"
 width="16" height="16" fill="none"
 role="presentation" aria-hidden="true">
<g fill="currentColor" clipPath="url(#s0-prefix__a)"><path d="M3 12.5a.5.5 0 0 0 .5.5h9a.5.5 0 0 0 .5-.5V12h1v.5a1.5 1.5 0 0 1-1.5 1.5h-9A1.5 1.5 0 0 1 2 12.5V12h1zM1.629 7.653h.05l.89-1.705h.918L2.075 8.486V10h-.847V8.486l-1.41-2.538h.918z"/><path fill-rule="evenodd" d="M5.602 5.948 7.012 10h-.894l-.3-.982h-1.43l-.3.982h-.89l1.407-4.052zm-.522.809-.497 1.626h1.042L5.13 6.757z" clip-rule="evenodd"/><path d="M9.56 8.913h.051l1.117-2.965h.972V10h-.755V7.243h-.056L9.849 10h-.53L8.282 7.243h-.057V10h-.756V5.948h.971zm3.744.387h1.802v.7h-2.65V5.948h.848zM12.5 2A1.5 1.5 0 0 1 14 3.5V4h-1v-.5a.5.5 0 0 0-.5-.5h-9a.5.5 0 0 0-.5.5V4H2v-.5A1.5 1.5 0 0 1 3.5 2z"/></g><defs><clipPath id="s0-prefix__a"><path fill="#fff" d="M0 0h16v16H0z"/></clipPath></defs>
</svg>
