<svg xmlns="http://www.w3.org/2000/svg" viewBox="0 0 20 20"
 width="20" height="20" fill="none"
 role="presentation" aria-hidden="true">
<g fill="currentColor" clipPath="url(#s0-prefix__a)"><path d="M3.75 15.625c0 .345.28.625.625.625h11.25c.345 0 .625-.28.625-.625V15h1.25v.625c0 1.035-.84 1.875-1.875 1.875H4.375A1.875 1.875 0 0 1 2.5 15.625V15h1.25zM2.036 9.567H2.1l1.112-2.132h1.147l-1.765 3.173V12.5h-1.06v-1.892L-.227 7.435H.92z"/><path fill-rule="evenodd" d="M7.002 7.435 8.765 12.5H7.648l-.375-1.228H5.486L5.11 12.5H3.998l1.759-5.065zM6.35 8.446l-.621 2.033H7.03l-.619-2.033z" clip-rule="evenodd"/><path d="M11.95 11.141h.064l1.397-3.706h1.214V12.5h-.943V9.054h-.071L12.312 12.5h-.663l-1.296-3.446h-.072V12.5h-.945V7.435h1.214zm4.68.485h2.253v.874H15.57V7.435h1.06zM15.625 2.5c1.035 0 1.875.84 1.875 1.875V5h-1.25v-.625a.625.625 0 0 0-.625-.625H4.375a.625.625 0 0 0-.625.625V5H2.5v-.625c0-1.036.84-1.875 1.875-1.875z"/></g><defs><clipPath id="s0-prefix__a"><path fill="#fff" d="M0 0h20v20H0z"/></clipPath></defs>
</svg>
