<svg xmlns="http://www.w3.org/2000/svg" viewBox="0 0 20 20"
 width="20" height="20" fill="none"
 role="presentation" aria-hidden="true">
<path fill="currentColor" d="M2.5 15.625V12.5h1.25v3.125c0 .345.28.625.625.625H7.5v1.25H4.375A1.875 1.875 0 0 1 2.5 15.625m13.75 0V12.5h1.25v3.125c0 1.035-.84 1.875-1.875 1.875H12.5v-1.25h3.125c.345 0 .625-.28.625-.625M2.5 4.375c0-1.036.84-1.875 1.875-1.875H7.5v1.25H4.375a.625.625 0 0 0-.625.625V7.5H2.5zm13.75 0a.625.625 0 0 0-.625-.625H12.5V2.5h3.125c1.035 0 1.875.84 1.875 1.875V7.5h-1.25z"/>
</svg>
