<svg xmlns="http://www.w3.org/2000/svg" viewBox="0 0 50 48"
 width="48" height="48" fill="none"
 role="presentation" aria-hidden="true">
<path stroke="currentColor" stroke-linejoin="round" stroke-width="2" d="M37.5 28c1.223 0 2.214.991 2.214 2.214v.19c0 .139.1.35.356.496l.12.059.003.001.028.012h.003l.126.044c.284.078.503-.001.602-.1l.134-.134.168-.151a2.215 2.215 0 0 1 3.115 3.115l-.151.168-.134.134c-.099.099-.178.318-.1.602l.043.126.001.003.012.028.001.003.059.12c.146.257.357.356.497.356h.19a2.214 2.214 0 0 1 0 4.428h-.19c-.16 0-.413.13-.556.476l-.001.003-.012.028v.003c-.145.345-.057.615.056.728l.134.134c.81.81.86 2.094.151 2.964l-.151.168a2.215 2.215 0 0 1-3.132 0l-.134-.134c-.113-.113-.383-.2-.728-.057l-.003.001-.028.012-.003.001c-.346.143-.476.396-.476.556v.19a2.214 2.214 0 0 1-4.428 0v-.19c0-.16-.13-.413-.476-.556l-.003-.001-.028-.012h-.003c-.302-.127-.546-.075-.678.015l-.05.041-.134.134a2.215 2.215 0 0 1-3.132-3.132l.134-.134.041-.05c.09-.132.142-.376.016-.678l-.001-.003-.012-.028-.001-.003c-.143-.346-.396-.476-.556-.476h-.19a2.214 2.214 0 0 1 0-4.428h.19c.16 0 .413-.13.556-.476l.001-.003.012-.028v-.003l.044-.126c.067-.244.019-.44-.059-.552l-.041-.05-.134-.134a2.215 2.215 0 0 1 0-3.132l.168-.151c.87-.71 2.153-.66 2.964.151l.134.134.05.041c.132.09.376.142.678.016l.003-.001.028-.012.003-.001.12-.059c.257-.146.356-.357.356-.497v-.19c0-1.222.991-2.213 2.214-2.213Zm0 6.857a2.642 2.642 0 1 0 0 5.285 2.642 2.642 0 0 0 0-5.285Z"/><path fill="currentColor" fill-rule="evenodd" d="M42.806 6.067a4 4 0 0 1 4 4v24.9c0 .904-.3 1.738-.806 2.408V31h-1.194V10.067a2 2 0 0 0-2-2H7.219a2 2 0 0 0-2 2v24.9a2 2 0 0 0 2 2H28v2H7.219a4 4 0 0 1-4-4v-24.9a4 4 0 0 1 4-4zm-12.598 11.31L25 19.005v4.22l5.208 1.445zm.037-2.115L24.686 17h-4.901c-2.297 0-4.16 1.788-4.16 3.994 0 1.54.908 2.876 2.238 3.542l2.785 5.61c.26.521.808.854 1.41.854h2.304c.989 0 1.73-.87 1.531-1.8l-.823-3.874 5.225 1.45c1 .277 1.997-.442 1.997-1.441v-8.646c0-1.02-1.037-1.742-2.047-1.427M19.785 19h3.132v3.974l-3.123.013c-1.15.005-2.086-.89-2.086-1.993 0-1.102.93-1.994 2.077-1.994m3.084 5.974-2.476.01L22.387 29h1.338z" clip-rule="evenodd"/>
</svg>
