<svg xmlns="http://www.w3.org/2000/svg" viewBox="0 0 50 48"
 width="48" height="48" fill="none"
 role="presentation" aria-hidden="true">
<mask id="s0-svg-983419349__a" fill="#fff"><path fill-rule="evenodd" d="M30.727 19.212A1.68 1.68 0 0 0 31.25 18c0-.455-.188-.89-.523-1.212a1.82 1.82 0 0 0-1.263-.502c-2.368 0-4.639-.903-6.313-2.51-1.675-1.608-2.615-3.788-2.615-6.062 0-.454-.188-.89-.523-1.212A1.82 1.82 0 0 0 18.75 6c-.474 0-.928.18-1.263.502a1.68 1.68 0 0 0-.523 1.212c0 2.274-.94 4.454-2.615 6.061-1.674 1.608-3.945 2.51-6.313 2.51-.474 0-.928.181-1.263.503A1.68 1.68 0 0 0 6.25 18c0 .455.188.89.523 1.212s.79.502 1.263.502c2.368 0 4.639.903 6.313 2.51 1.675 1.608 2.615 3.788 2.615 6.062 0 .454.188.89.523 1.212s.79.502 1.263.502c.474 0 .928-.18 1.263-.502a1.68 1.68 0 0 0 .523-1.212c0-2.274.94-4.454 2.615-6.061 1.674-1.608 3.945-2.51 6.313-2.51.474 0 .928-.181 1.263-.503m12.616 14.73c.26-.25.407-.588.407-.942s-.146-.693-.407-.943c-.26-.25-.614-.39-.982-.39a5.68 5.68 0 0 1-3.928-1.562 5.23 5.23 0 0 1-1.627-3.772c0-.353-.147-.692-.407-.942a1.42 1.42 0 0 0-.982-.391c-.369 0-.722.14-.982.39s-.407.59-.407.943a5.23 5.23 0 0 1-1.627 3.772 5.68 5.68 0 0 1-3.929 1.562c-.368 0-.721.14-.982.39-.26.25-.407.59-.407.943 0 .354.147.693.407.943s.614.39.982.39c1.474 0 2.887.562 3.929 1.562a5.23 5.23 0 0 1 1.627 3.772c0 .353.146.692.407.942.26.25.613.391.982.391.368 0 .721-.14.982-.39.26-.25.407-.59.407-.943 0-1.415.585-2.771 1.627-3.772a5.68 5.68 0 0 1 3.928-1.562c.369 0 .722-.14.982-.39" clip-rule="evenodd"/></mask><path fill="currentColor" d="m30.727 16.788 1.385-1.443zm-7.576-3.013-1.385 1.443zm-3.138-7.273 1.385-1.443zm-2.526 0L16.102 5.06zm-3.138 7.273-1.385-1.443zm-7.576 3.013-1.385-1.443zm0 2.424-1.385 1.443zm7.576 3.013-1.385 1.443zm3.138 7.273 1.385-1.443zm2.526 0-1.385-1.443zm3.138-7.273-1.385-1.443zm20.192 11.718L41.958 32.5zm0-1.886 1.385-1.443zm-4.91-1.952-1.385 1.442zm-2.034-4.715 1.385-1.442zm-1.964 0-1.386-1.442zM32.4 30.106l1.385 1.442zm-4.91 1.952-1.386-1.443zm0 1.886 1.384-1.443zm6.944 6.666 1.385-1.442zm1.964 0-1.385-1.442zM29.25 18c0-.103.043-.184.092-.23l2.77 2.885A3.68 3.68 0 0 0 33.25 18zm.092.23a.32.32 0 0 1-.092-.23h4a3.68 3.68 0 0 0-1.138-2.655zm.122.056a.18.18 0 0 1-.122-.055l2.77-2.886a3.82 3.82 0 0 0-2.648-1.06zm-7.698-3.068c2.055 1.973 4.826 3.068 7.698 3.068v-4c-1.863 0-3.634-.712-4.928-1.954zm-3.23-7.504c0 2.831 1.172 5.528 3.23 7.504l2.77-2.886c-1.291-1.239-2-2.902-2-4.618zm.092.23a.32.32 0 0 1-.092-.23h4a3.68 3.68 0 0 0-1.138-2.655zM18.75 8a.18.18 0 0 1-.122-.055l2.77-2.886A3.82 3.82 0 0 0 18.75 4zm.122-.055A.18.18 0 0 1 18.75 8V4c-.978 0-1.932.372-2.648 1.06zm.092-.23a.32.32 0 0 1-.092.23l-2.77-2.886a3.68 3.68 0 0 0-1.138 2.655zm-3.23 7.503c2.058-1.976 3.23-4.673 3.23-7.504h-4c0 1.716-.709 3.38-2 4.618zm-7.698 3.068c2.872 0 5.643-1.095 7.698-3.068l-2.77-2.886c-1.294 1.242-3.065 1.954-4.928 1.954zm.122-.055a.18.18 0 0 1-.122.055v-4c-.979 0-1.932.372-2.648 1.059zM8.25 18a.32.32 0 0 1-.092.23l-2.77-2.885A3.68 3.68 0 0 0 4.25 18zm-.092-.23a.32.32 0 0 1 .092.23h-4a3.68 3.68 0 0 0 1.138 2.655zm-.122-.056c.03 0 .076.011.122.055l-2.77 2.886a3.82 3.82 0 0 0 2.648 1.06zm7.698 3.068c-2.055-1.973-4.826-3.068-7.698-3.068v4c1.863 0 3.634.712 4.928 1.954zm3.23 7.504c0-2.831-1.172-5.528-3.23-7.504l-2.77 2.886c1.291 1.239 2 2.902 2 4.618zm-.092-.23a.32.32 0 0 1 .092.23h-4a3.68 3.68 0 0 0 1.138 2.655zM18.75 28c.031 0 .076.011.122.055l-2.77 2.886A3.82 3.82 0 0 0 18.75 32zm-.122.055A.18.18 0 0 1 18.75 28v4c.978 0 1.932-.372 2.648-1.06zm-.092.23c0-.102.043-.183.092-.23l2.77 2.886a3.68 3.68 0 0 0 1.138-2.655zm3.23-7.503c-2.058 1.976-3.23 4.673-3.23 7.504h4c0-1.716.709-3.38 2-4.618zm7.698-3.068c-2.872 0-5.643 1.095-7.698 3.068l2.77 2.886c1.294-1.242 3.065-1.954 4.928-1.954zm-.122.055a.18.18 0 0 1 .122-.055v4c.979 0 1.932-.372 2.648-1.059zM41.75 33c0-.204.085-.382.208-.5l2.77 2.886A3.3 3.3 0 0 0 45.75 33zm.208.5a.7.7 0 0 1-.208-.5h4c0-.911-.378-1.767-1.022-2.386zm.403.167a.58.58 0 0 1-.403-.167l2.77-2.886a3.42 3.42 0 0 0-2.367-.947zm-5.313-2.12a7.68 7.68 0 0 0 5.313 2.12v-4c-.969 0-1.882-.37-2.543-1.005zm-2.242-5.214c0 1.972.816 3.846 2.242 5.214l2.77-2.885a3.23 3.23 0 0 1-1.012-2.329zm.208.5a.7.7 0 0 1-.208-.5h4c0-.91-.378-1.767-1.022-2.385zm.403.167a.58.58 0 0 1-.403-.167l2.77-2.885A3.42 3.42 0 0 0 35.417 23zm.403-.167a.58.58 0 0 1-.403.167v-4c-.873 0-1.726.332-2.367.948zm.208-.5a.7.7 0 0 1-.208.5l-2.77-2.885a3.3 3.3 0 0 0-1.022 2.385zm-2.242 5.214a7.23 7.23 0 0 0 2.242-5.214h-4c0 .857-.354 1.697-1.012 2.329zm-5.314 2.12c1.978 0 3.891-.754 5.314-2.12l-2.77-2.885a3.68 3.68 0 0 1-2.544 1.005zm.403-.167a.58.58 0 0 1-.403.167v-4c-.873 0-1.726.332-2.367.947zm.208-.5a.7.7 0 0 1-.208.5l-2.77-2.886A3.3 3.3 0 0 0 25.083 33zm-.208-.5a.7.7 0 0 1 .208.5h-4c0 .911.378 1.767 1.022 2.386zm-.403-.167c.136 0 .283.052.403.167l-2.77 2.886a3.42 3.42 0 0 0 2.367.947zm5.314 2.12a7.68 7.68 0 0 0-5.314-2.12v4c.969 0 1.882.37 2.543 1.005zm2.242 5.214a7.23 7.23 0 0 0-2.242-5.214l-2.77 2.885a3.23 3.23 0 0 1 1.012 2.329zm-.208-.5a.7.7 0 0 1 .208.5h-4c0 .91.378 1.767 1.022 2.385zM35.417 39c.136 0 .282.051.403.167l-2.77 2.885a3.42 3.42 0 0 0 2.367.948zm-.403.167a.58.58 0 0 1 .403-.167v4c.873 0 1.726-.332 2.367-.948zm-.208.5c0-.204.085-.382.208-.5l2.77 2.885a3.3 3.3 0 0 0 1.022-2.385zm2.242-5.214a7.23 7.23 0 0 0-2.242 5.214h4c0-.857.354-1.697 1.012-2.329zm5.313-2.12c-1.978 0-3.89.754-5.313 2.12l2.77 2.885a3.68 3.68 0 0 1 2.543-1.005zm-.403.167a.58.58 0 0 1 .403-.167v4c.873 0 1.726-.332 2.367-.947z" mask="url(#s0-svg-983419349__a)"/>
</svg>
