<svg xmlns="http://www.w3.org/2000/svg" viewBox="0 0 50 48"
 width="48" height="48" fill="none"
 role="presentation" aria-hidden="true">
<path fill="currentColor" d="m27.04 17.414 2.792-2.793 2.793 2.793L34.039 16l-2.793-2.793 2.793-2.793L32.625 9l-2.793 2.793L27.04 9l-1.414 1.414 2.793 2.793L25.625 16z"/><path fill="currentColor" fill-rule="evenodd" d="M3 35a4 4 0 0 1 7.874-1h3.252A4.002 4.002 0 0 1 22 35a4 4 0 0 1-7.874 1h-3.252A4.002 4.002 0 0 1 3 35m4-2a2 2 0 1 0 0 4 2 2 0 0 0 0-4m9 2a2 2 0 1 1 4 0 2 2 0 0 1-4 0M37 35a4 4 0 1 1 8 0 4 4 0 0 1-8 0m4-2a2 2 0 1 0 0 4 2 2 0 0 0 0-4" clip-rule="evenodd"/><path fill="currentColor" d="m26.781 21.14-1.666 2.887-1.732-1 1.666-2.887zM23.448 26.914 21.78 29.8l-1.732-1 1.667-2.887zM34.495 24.027l-1.667-2.887 1.732-1 1.667 2.887zM37.828 29.8l-1.666-2.886 1.732-1L39.56 28.8z"/>
</svg>
