<svg xmlns="http://www.w3.org/2000/svg" viewBox="0 0 50 48"
 width="48" height="48" fill="none"
 role="presentation" aria-hidden="true">
<path stroke="currentColor" stroke-linecap="round" stroke-width="2" d="M35.636 12.83H13a4 4 0 0 0-4 4v17.53a4 4 0 0 0 4 4h22.636a4 4 0 0 0 4-4V16.83a4 4 0 0 0-4-4ZM16.659 9v7.659M31.976 9v7.659"/><path fill="currentColor" d="M15.823 20.466h4.167v4h-4.167zM15.735 27.591h4.167v4h-4.167zM23.158 20.466h4.167v4h-4.167zM23.069 27.591h4.167v4h-4.167zM30.492 20.466h4.167v4h-4.167zM30.404 27.591h4.167v4h-4.167z"/>
</svg>
