<svg xmlns="http://www.w3.org/2000/svg" viewBox="0 0 50 48"
 width="48" height="48" fill="none"
 role="presentation" aria-hidden="true">
<path stroke="currentColor" stroke-linejoin="round" stroke-width="2" d="M19.368 17.053 13 24l6.368 6.948"/><path fill="currentColor" d="m29.369 31.623 6.368-6.947a1 1 0 0 0 0-1.352l-6.368-6.947-1.475 1.351L33.644 24l-5.75 6.272z"/><path fill="currentColor" fill-rule="evenodd" d="M6 14a8 8 0 0 1 8-8h20a8 8 0 0 1 8 8v20a8 8 0 0 1-8 8H14a8 8 0 0 1-8-8zm8-6h20a6 6 0 0 1 6 6v20a6 6 0 0 1-6 6H14a6 6 0 0 1-6-6V14a6 6 0 0 1 6-6" clip-rule="evenodd"/>
</svg>
