<svg xmlns="http://www.w3.org/2000/svg" viewBox="0 0 50 48"
 width="48" height="48" fill="none"
 role="presentation" aria-hidden="true">
<path fill="currentColor" fill-rule="evenodd" d="M11 8h6.615a3 3 0 0 1 3 3v6.615a3 3 0 0 1-3 3H11a3 3 0 0 1-3-3V11a3 3 0 0 1 3-3m-5 3a5 5 0 0 1 5-5h6.615a5 5 0 0 1 5 5v6.615a5 5 0 0 1-5 5H11a5 5 0 0 1-5-5zm5 16.385h6.615a3 3 0 0 1 3 3V37a3 3 0 0 1-3 3H11a3 3 0 0 1-3-3v-6.615a3 3 0 0 1 3-3m-5 3a5 5 0 0 1 5-5h6.615a5 5 0 0 1 5 5V37a5 5 0 0 1-5 5H11a5 5 0 0 1-5-5zM37 8h-6.615a3 3 0 0 0-3 3v6.616a3 3 0 0 0 3 3H37a3 3 0 0 0 3-3V11a3 3 0 0 0-3-3m-6.615-2a5 5 0 0 0-5 5v6.616a5 5 0 0 0 5 5H37a5 5 0 0 0 5-5V11a5 5 0 0 0-5-5zm0 21.385H37a3 3 0 0 1 3 3V37a3 3 0 0 1-3 3h-6.615a3 3 0 0 1-3-3v-6.615a3 3 0 0 1 3-3m-5 3a5 5 0 0 1 5-5H37a5 5 0 0 1 5 5V37a5 5 0 0 1-5 5h-6.615a5 5 0 0 1-5-5z" clip-rule="evenodd"/>
</svg>
