<svg xmlns="http://www.w3.org/2000/svg" viewBox="0 0 50 48"
 width="48" height="48" fill="none"
 role="presentation" aria-hidden="true">
<path fill="currentColor" fill-rule="evenodd" d="M10.876 21.697a2 2 0 0 0 2.005-2.22 10 10 0 0 1-.06-1.084c0-5.375 4.358-9.733 9.734-9.733a9.74 9.74 0 0 1 9.185 6.506 2 2 0 0 0 2.012 1.333 8.429 8.429 0 1 1 .536 16.842H32v2h2.287c5.76 0 10.43-4.67 10.43-10.43s-4.67-10.429-10.43-10.429q-.333 0-.66.02C32.022 9.936 27.67 6.66 22.554 6.66c-6.245 0-11.352 4.88-11.712 11.037a12 12 0 0 0 .051 2h-.071c-.617 0-1.218.07-1.793.206a7.822 7.822 0 0 0 1.793 15.437H17v-2h-6.178a5.822 5.822 0 1 1 0-11.644z" clip-rule="evenodd"/><path stroke="currentColor" stroke-linejoin="round" stroke-width="2" d="M24.5 21c1.223 0 2.214.991 2.214 2.214v.19c0 .139.1.35.356.496l.12.059.003.001.028.012h.003l.126.044c.284.078.503-.001.602-.1l.134-.134.168-.151a2.215 2.215 0 0 1 3.115 3.115l-.151.168-.134.134c-.099.099-.178.318-.1.602l.043.126.001.003.012.028.001.003.059.12c.146.257.357.356.497.356h.19a2.214 2.214 0 0 1 0 4.428h-.19c-.16 0-.413.13-.556.476l-.001.003-.012.028v.003c-.145.345-.057.615.056.728l.134.134c.81.81.86 2.094.151 2.964l-.151.168a2.215 2.215 0 0 1-3.132 0l-.134-.134c-.113-.113-.383-.2-.728-.057l-.003.001-.028.012-.003.001c-.347.143-.476.396-.476.556v.19a2.214 2.214 0 0 1-4.428 0v-.19c0-.16-.13-.413-.476-.556l-.003-.001-.028-.012h-.003c-.302-.127-.546-.075-.678.015l-.05.041-.134.134a2.215 2.215 0 0 1-3.132-3.132l.134-.134.041-.05c.09-.132.142-.376.016-.678l-.001-.003-.012-.028-.001-.003c-.143-.346-.396-.476-.556-.476h-.19a2.214 2.214 0 0 1 0-4.428h.19c.16 0 .413-.13.556-.476l.001-.003.012-.028v-.003l.044-.126c.067-.244.019-.44-.059-.552l-.041-.05-.134-.134a2.215 2.215 0 0 1 0-3.132l.168-.151c.87-.71 2.153-.66 2.964.151l.134.134.05.041c.132.09.376.142.678.016l.003-.001.028-.012.003-.001.12-.059c.257-.146.356-.357.356-.497v-.19c0-1.222.991-2.213 2.214-2.213Zm0 6.857a2.642 2.642 0 1 0 0 5.285 2.642 2.642 0 0 0 0-5.285Z"/>
</svg>
