<svg xmlns="http://www.w3.org/2000/svg" viewBox="0 0 50 48"
 width="48" height="48" fill="none"
 role="presentation" aria-hidden="true">
<path fill="currentColor" d="m44.066 10.11-6.49 5.98a1 1 0 0 1-1.415-.05l-6.095-5.93 1.466-1.36 4.583 4.177V3h2v9.957l4.586-4.308z"/><path fill="currentColor" d="M28 4.4c-1.292-.262-2.63-.4-4-.4C12.954 4 4 12.954 4 24s8.954 20 20 20 20-8.954 20-20c0-1.727-.219-3.402-.63-5h-2.073c.458 1.587.703 3.265.703 5 0 9.941-8.059 18-18 18S6 33.941 6 24 14.059 6 24 6c1.375 0 2.714.154 4 .446z"/><path fill="currentColor" d="M22.736 14.813V13.25h2.433v1.563l.192.047c2.347.566 4.085 2.506 4.202 4.829h-2.438c-.135-1.552-1.518-2.748-3.172-2.748-1.743 0-3.184 1.327-3.184 2.998 0 1.67 1.441 2.997 3.184 2.997 3.117 0 5.616 2.364 5.616 5.245 0 2.432-1.777 4.493-4.208 5.08l-.192.045v1.444h-2.433v-1.444l-.192-.046c-2.347-.566-4.085-2.506-4.202-4.829h2.438c.135 1.551 1.518 2.748 3.173 2.748 1.742 0 3.183-1.327 3.183-2.998 0-1.67-1.44-2.997-3.183-2.997-3.118 0-5.617-2.364-5.617-5.245 0-2.433 1.777-4.493 4.209-5.08z"/>
</svg>
