<svg xmlns="http://www.w3.org/2000/svg" viewBox="0 0 50 48"
 width="48" height="48" fill="none"
 role="presentation" aria-hidden="true">
<path fill="currentColor" fill-rule="evenodd" d="M20.947 12.943c.26-.25.407-.59.407-.943 0-.354-.146-.693-.407-.943-.26-.25-.613-.39-.982-.39a5.68 5.68 0 0 1-3.928-1.562 5.23 5.23 0 0 1-1.627-3.772c0-.353-.147-.692-.407-.942S13.389 4 13.02 4c-.369 0-.722.14-.982.39s-.407.59-.407.943a5.23 5.23 0 0 1-1.627 3.772 5.68 5.68 0 0 1-3.929 1.562c-.368 0-.721.14-.982.39-.26.25-.407.59-.407.943 0 .354.147.693.407.943s.614.39.982.39c1.474 0 2.887.562 3.929 1.562a5.23 5.23 0 0 1 1.627 3.772c0 .353.146.692.407.942.26.25.614.391.982.391s.721-.14.982-.39c.26-.25.407-.59.407-.943 0-1.415.585-2.771 1.627-3.772a5.68 5.68 0 0 1 3.928-1.562c.369 0 .722-.14.982-.39M16.783 12a7.7 7.7 0 0 1-2.22-1.481 7.3 7.3 0 0 1-1.542-2.13 7.3 7.3 0 0 1-1.543 2.13A7.7 7.7 0 0 1 9.258 12c.819.36 1.572.859 2.22 1.481a7.3 7.3 0 0 1 1.543 2.13 7.3 7.3 0 0 1 1.543-2.13A7.7 7.7 0 0 1 16.783 12M11.97 38.773a1.07 1.07 0 0 1-1.008-.258.97.97 0 0 1-.27-.968l2.414-8.587a1 1 0 0 1 .27-.446l19.052-18.288c1.627-1.562 4.265-1.562 5.892 0l2.111 2.027a3.89 3.89 0 0 1 0 5.657L21.38 36.198c-.128.123-.289.212-.465.258zM33.9 11.64l-1.85 1.777 5.057 4.856 1.851-1.777a1.944 1.944 0 0 0 0-2.828l-2.111-2.027a2.145 2.145 0 0 0-2.946 0m1.734 8.047-5.058-4.856-15.53 14.908-1.87 6.65 6.927-1.794z" clip-rule="evenodd"/>
</svg>
