<svg xmlns="http://www.w3.org/2000/svg" viewBox="0 0 50 48"
 width="48" height="48" fill="none"
 role="presentation" aria-hidden="true">
<g fill="currentColor" clipPath="url(#s0-svg-702849541__a)"><path fill-rule="evenodd" d="M10.524 38.515a1 1 0 0 0 .967.258l8.587-2.317a1 1 0 0 0 .446-.258l18.29-18.288a4 4 0 0 0 0-5.657l-2.027-2.027a4 4 0 0 0-5.656 0L12.84 28.514a1 1 0 0 0-.259.446l-2.317 8.587a1 1 0 0 0 .258.968m20.244-25.098 1.777-1.777a2 2 0 0 1 2.828 0l2.027 2.027a2 2 0 0 1 0 2.829l-1.777 1.777zm-1.415 1.415 4.856 4.855-14.91 14.908-6.65 1.794 1.795-6.65z" clip-rule="evenodd"/><path d="M15.376 14.84h3.5v-2h-3.5v-3.5h-2v3.5h-3.5v2h3.5v3.5h2z"/></g><defs><clipPath id="s0-svg-702849541__a"><path fill="#fff" d="M0 0h48v48H0z"/></clipPath></defs>
</svg>
