<svg xmlns="http://www.w3.org/2000/svg" viewBox="0 0 50 48"
 width="48" height="48" fill="none"
 role="presentation" aria-hidden="true">
<path fill="currentColor" fill-rule="evenodd" d="M23.104 11.013 23 2.987l2-.026.104 8.026zm16.245-2.315-5.282 5.42-1.433-1.397 5.283-5.419zM10.28 7.626l5.42 5.282-1.397 1.433-5.42-5.283zM40.372 41.897l4.052-18.136a3 3 0 0 0-2.925-3.654l-10.776-.012.1-1.293a3.001 3.001 0 0 0-2.991-3.23H18.04A4 4 0 0 0 14.082 19l-.262 1.812a1 1 0 0 0-.026.124l-.393 2.74h-4.31c-2.667 0-4.587 2.56-3.84 5.121l3.955 13.545a4 4 0 0 0 3.84 2.879h23.38a4 4 0 0 0 3.847-2.893h.002l.011-.047q.052-.189.086-.384m-24.95-18.221.343-2.394.016-.06.28-1.936a2 2 0 0 1 1.98-1.713h9.79a1 1 0 0 1 .997 1.076l-.264 3.444 12.933.014a1 1 0 0 1 .975 1.218L39.46 36.807 36.977 26.72a4 4 0 0 0-3.884-3.044zm-6.33 2h24.001a2 2 0 0 1 1.942 1.522l3.334 13.545a2 2 0 0 1-1.942 2.478H13.046a2 2 0 0 1-1.92-1.44L7.172 28.237a2 2 0 0 1 1.92-2.561" clip-rule="evenodd"/>
</svg>
