<svg xmlns="http://www.w3.org/2000/svg" viewBox="0 0 50 48"
 width="48" height="48" fill="none"
 role="presentation" aria-hidden="true">
<path fill="currentColor" fill-rule="evenodd" d="m22.673 14.766-5.08 6.772h2.757a1.25 1.25 0 0 1 1.17 1.689l-2.806 7.483L29.82 20.614h-2.03c-1.03 0-1.618-1.176-1-2l2.885-3.848zm-1.375-1.5a1.25 1.25 0 0 1 1-.5h8.877c1.03 0 1.618 1.176 1 2l-2.885 3.848h2.47c1.142 0 1.686 1.407.84 2.175L17.763 34.278c-.97.882-2.472-.136-2.011-1.364l3.516-9.376h-3.174c-1.03 0-1.618-1.176-1-2zM22.999 8.312V1.486h2v6.826zM8.105 25.207H1.278v-2h6.827zM23 46.515v-6.827h2v6.826zM46.722 25.207h-6.827v-2h6.827zM34.385 12.2l4.827-4.827 1.414 1.414-4.827 4.827zM11.905 13.614 7.078 8.787l1.414-1.414L13.32 12.2zM7.372 39.213l4.827-4.827 1.414 1.414-4.827 4.828zM39.213 40.92l-4.827-4.827L35.8 34.68l4.827 4.827z" clip-rule="evenodd"/>
</svg>
