<svg xmlns="http://www.w3.org/2000/svg" viewBox="0 0 50 48"
 width="48" height="48" fill="none"
 role="presentation" aria-hidden="true">
<path fill="currentColor" fill-rule="evenodd" d="M19.444 22.682q.51.888.9 1.808a22.7 22.7 0 0 1 6.883-12.532c3.975-3.695 8.931-5.694 14-6.038a1.793 1.793 0 0 1 1.895 1.507c1.199 7.41-1.149 15.188-6.972 20.6-3.976 3.695-8.932 5.694-14 6.038a2 2 0 0 1-.211.002v8.041a1 1 0 1 1-2 0v-7.605q-.156.015-.32 0c-5.213-.477-10.082-3.343-12.858-8.152a16.3 16.3 0 0 1-2.046-10.327 1.72 1.72 0 0 1 1.87-1.494c5.213.477 10.082 3.343 12.859 8.152m4.35 9.192a20.7 20.7 0 0 0 10.994-5.311c5.257-4.886 7.42-11.898 6.389-18.634-4.567.35-9.013 2.17-12.588 5.494-4.944 4.595-7.151 11.07-6.539 17.428l14.372-17.945a1 1 0 0 1 1.562 1.25zm-6.082-8.192a14.26 14.26 0 0 1 1.904 6.498l-8.737-9.859a1 1 0 0 0-1.497 1.327l9.532 10.756c-4.262-.647-8.146-3.112-10.421-7.053a14.3 14.3 0 0 1-1.827-8.802c4.505.491 8.66 3.001 11.046 7.133" clip-rule="evenodd"/>
</svg>
