<svg xmlns="http://www.w3.org/2000/svg" viewBox="0 0 50 48"
 width="48" height="48" fill="none"
 role="presentation" aria-hidden="true">
<rect width="20" height="10" x="4" y="24" stroke="currentColor" stroke-width="2" rx="1"/><path fill="currentColor" fill-rule="evenodd" d="M14.645 4.854h10.578a6 6 0 0 1 3.91 1.449l10.13 8.703a6 6 0 0 1 2.09 4.551v17.58a6 6 0 0 1-6.01 6l-20.71-.038a6 6 0 0 1-5.988-6V35h2v2.1a4 4 0 0 0 3.992 4l20.709.037a4 4 0 0 0 4.007-4v-17.58q-.001-.532-.136-1.036H32.1a6 6 0 0 1-6-6V6.95a4 4 0 0 0-.877-.097H14.645a4 4 0 0 0-4 4V23h-2V10.854a6 6 0 0 1 6-6M28.1 8.052l9.857 8.469H32.1a4 4 0 0 1-4-4z" clip-rule="evenodd"/>
</svg>
