<svg xmlns="http://www.w3.org/2000/svg" viewBox="0 0 50 48"
 width="48" height="48" fill="none"
 role="presentation" aria-hidden="true">
<path fill="currentColor" fill-rule="evenodd" d="M30.756 9.812c0-1.965 1.658-3.557 3.704-3.557s3.705 1.592 3.705 3.557-1.659 3.556-3.705 3.556-3.704-1.592-3.704-3.556m-1.99 1H7.534c-.576 0-1.042-.448-1.042-1 0-.553.466-1 1.042-1h21.232c.49-2.592 2.853-4.557 5.694-4.557s5.204 1.965 5.695 4.557h2.312c.575 0 1.041.447 1.041 1s-.466 1-1.041 1h-2.312c-.49 2.591-2.854 4.556-5.695 4.556-2.84 0-5.204-1.965-5.694-4.556M11.77 24c0-1.964 1.659-3.556 3.705-3.556S19.18 22.036 19.18 24s-1.66 3.557-3.705 3.557S11.77 25.964 11.77 24m-1.99 1H7.534c-.576 0-1.042-.448-1.042-1s.466-1 1.042-1H9.78c.49-2.591 2.854-4.556 5.695-4.556 2.84 0 5.204 1.965 5.694 4.556h21.298c.575 0 1.041.448 1.041 1s-.466 1-1.041 1H21.169c-.49 2.592-2.853 4.557-5.694 4.557S10.27 27.592 9.78 25m24.68 9.632c-2.046 0-3.704 1.592-3.704 3.556 0 1.965 1.658 3.557 3.704 3.557s3.705-1.592 3.705-3.557-1.659-3.556-3.705-3.556M7.534 39.188h21.232c.49 2.592 2.853 4.557 5.694 4.557s5.204-1.965 5.695-4.557h2.312c.575 0 1.041-.447 1.041-1s-.466-1-1.041-1h-2.312c-.49-2.591-2.854-4.556-5.695-4.556-2.84 0-5.204 1.965-5.694 4.556H7.534c-.576 0-1.042.448-1.042 1 0 .553.466 1 1.042 1" clip-rule="evenodd"/>
</svg>
