<svg xmlns="http://www.w3.org/2000/svg" viewBox="0 0 50 48"
 width="48" height="48" fill="none"
 role="presentation" aria-hidden="true">
<g fill="currentColor" clipPath="url(#s0-svg-770667886__a)"><path d="M16.15 17.02a1 1 0 0 1-.027 1.415l-4.747 4.571a1 1 0 0 1-1.387 0l-2.11-2.032a1 1 0 0 1 1.387-1.44l1.416 1.364 4.054-3.904a1 1 0 0 1 1.414.027"/><path fill-rule="evenodd" d="M20.488 14.71A9 9 0 0 1 24 14a8.98 8.98 0 0 1 6.602 2.883l1.454-1.373A10.97 10.97 0 0 0 24 12c-1.71 0-3.33.39-4.774 1.087a10 10 0 0 0-2.63-1.97A13.93 13.93 0 0 1 24 9c7.732 0 14 6.268 14 14v5h2v-5c0-8.837-7.163-16-16-16a15.93 15.93 0 0 0-9.691 3.268A10 10 0 0 0 12 10C6.477 10 2 14.477 2 20s4.477 10 10 10q.507 0 1-.05v6.55h2v-6.958a10 10 0 0 0 3-1.541V38.5h2V26a9.96 9.96 0 0 0 1.99-6.459A4 4 0 0 1 28 23v15.5h2V23a6 6 0 0 0-8.324-5.533 10 10 0 0 0-1.188-2.756M12 28a8 8 0 1 0 0-16 8 8 0 0 0 0 16" clip-rule="evenodd"/><path d="M35 36.5h-2V23a8.96 8.96 0 0 0-1.065-4.252l1.732-1A10.95 10.95 0 0 1 35 23zM25 42.5V23h-2v19.5z"/></g><defs><clipPath id="s0-svg-770667886__a"><path fill="#fff" d="M0 0h50v48H0z"/></clipPath></defs>
</svg>
