<svg xmlns="http://www.w3.org/2000/svg" viewBox="0 0 50 48"
 width="48" height="48" fill="none"
 role="presentation" aria-hidden="true">
<path fill="currentColor" fill-rule="evenodd" d="m39.373 35.898 4.052-18.137a3 3 0 0 0-2.925-3.654l-10.776-.012.1-1.293a3.001 3.001 0 0 0-2.991-3.23h-9.791A4 4 0 0 0 13.082 13l-.26 1.812a1 1 0 0 0-.027.124l-.393 2.74h-4.31c-2.667 0-4.587 2.56-3.84 5.121l3.955 13.545a4 4 0 0 0 3.84 2.88h23.38a4 4 0 0 0 3.847-2.894h.002l.01-.047q.053-.19.087-.383m-24.95-18.222.343-2.394.017-.06.28-1.935a2 2 0 0 1 1.979-1.714h9.79a1 1 0 0 1 .997 1.076l-.264 3.444 12.933.014a1 1 0 0 1 .975 1.218L38.46 30.807 35.978 20.72a4 4 0 0 0-3.884-3.044zm-6.33 2h24.001a2 2 0 0 1 1.942 1.522l3.334 13.545a2 2 0 0 1-1.942 2.478H12.047a2 2 0 0 1-1.92-1.44L6.172 22.238a2 2 0 0 1 1.92-2.56" clip-rule="evenodd"/>
</svg>
