<svg xmlns="http://www.w3.org/2000/svg" viewBox="0 0 50 48"
 width="48" height="48" fill="none"
 role="presentation" aria-hidden="true">
<path fill="currentColor" d="M33.467 14H33v.267a1 1 0 1 1-2 0V13.2q0-.16.04-.31a1 1 0 0 1 .334-.516 1 1 0 0 1 .516-.333q.15-.04.31-.041h1.267a1 1 0 1 1 0 2M38.533 12a1 1 0 1 0 0 2H39v.267a1 1 0 1 0 2 0V13.2q0-.16-.04-.31a1 1 0 0 0-.334-.516 1 1 0 0 0-.516-.333Q39.96 12 39.8 12zM41 18.533a1 1 0 1 0-2 0v2.134a1 1 0 1 0 2 0zM33 18.533a1 1 0 0 0-2 0v2.134a1 1 0 1 0 2 0zM33 24.933a1 1 0 1 0-2 0v2.134a1 1 0 1 0 2 0zM41 24.933a1 1 0 1 0-2 0v2.134a1 1 0 1 0 2 0zM41 31.333a1 1 0 1 0-2 0v2.134a1 1 0 0 0 2 0zM33 31.333a1 1 0 1 0-2 0v2.134a1 1 0 1 0 2 0zM41 37.733a1 1 0 1 0-2 0V38h-.467a1 1 0 1 0 0 2H39.8q.16 0 .31-.04a1 1 0 0 0 .516-.334 1 1 0 0 0 .333-.516q.04-.15.041-.31zM33 37.733a1 1 0 1 0-2 0V38.8q0 .16.04.31c.057.21.177.388.334.516a1 1 0 0 0 .516.333q.15.04.31.041h1.267a1 1 0 1 0 0-2H33z"/><path fill="currentColor" fill-rule="evenodd" d="M18.5 38a2 2 0 0 0 2 2h5a2 2 0 0 0 2-2V25a2 2 0 0 0-2-2h-5a2 2 0 0 0-2 2zm2-13v13h5V25zM7 38a2 2 0 0 0 2 2h5a2 2 0 0 0 2-2v-6a2 2 0 0 0-2-2H9a2 2 0 0 0-2 2zm2-6v6h5v-6z" clip-rule="evenodd"/>
</svg>
