<svg xmlns="http://www.w3.org/2000/svg" viewBox="0 0 50 48"
 width="48" height="48" fill="none"
 role="presentation" aria-hidden="true">
<path stroke="currentColor" stroke-width="2" d="M27.408 4a1.51 1.51 0 0 1 1.502 1.36l.377 3.77c1.123.323 2.193.77 3.196 1.325l2.934-2.4a1.51 1.51 0 0 1 2.023.1l3.404 3.405a1.51 1.51 0 0 1 .101 2.023l-2.4 2.934a15.4 15.4 0 0 1 1.325 3.196l3.77.377A1.51 1.51 0 0 1 45 21.592v4.816a1.51 1.51 0 0 1-1.36 1.502l-3.77.377a15.4 15.4 0 0 1-1.325 3.196l2.4 2.934a1.51 1.51 0 0 1-.1 2.023l-3.405 3.404a1.51 1.51 0 0 1-2.023.102l-2.934-2.4a15.4 15.4 0 0 1-3.196 1.324l-.377 3.77A1.51 1.51 0 0 1 27.408 44h-4.816a1.51 1.51 0 0 1-1.501-1.36l-.378-3.77a15.4 15.4 0 0 1-3.196-1.325l-2.933 2.4a1.51 1.51 0 0 1-2.024-.1L9.155 36.44a1.51 1.51 0 0 1-.1-2.023l2.4-2.934a15.4 15.4 0 0 1-1.325-3.196l-3.77-.377A1.51 1.51 0 0 1 5 26.408v-4.816a1.51 1.51 0 0 1 1.36-1.501l3.77-.378a15.4 15.4 0 0 1 1.325-3.196l-2.4-2.934a1.51 1.51 0 0 1 .1-2.023l3.405-3.405a1.51 1.51 0 0 1 2.023-.1l2.934 2.4a15.4 15.4 0 0 1 3.196-1.325l.377-3.77A1.51 1.51 0 0 1 22.592 4zm7.026 20a9.434 9.434 0 1 1-18.868 0 9.434 9.434 0 0 1 18.868 0Z" clip-rule="evenodd"/>
</svg>
