<svg xmlns="http://www.w3.org/2000/svg" viewBox="0 0 50 48"
 width="48" height="48" fill="none"
 role="presentation" aria-hidden="true">
<path fill="currentColor" fill-rule="evenodd" d="m35.171 36.5 4.233 4.203 1.41-1.42L8.595 7.298l-1.41 1.419 4.246 4.215a5 5 0 0 0-.795 2.705v16.726a5 5 0 0 0 5 5h16.726c1.04 0 2.008-.319 2.808-.863m-1.465-1.455-20.8-20.65c-.173.379-.269.8-.269 1.242v16.726a3 3 0 0 0 3 3h16.726c.483 0 .939-.115 1.343-.318m3.657-2.683q0 .347-.046.681l-1.954-1.94V15.638a3 3 0 0 0-3-3h-15.6l-1.947-1.932q.402-.068.821-.068h16.726a5 5 0 0 1 5 5z" clip-rule="evenodd"/>
</svg>
