<svg xmlns="http://www.w3.org/2000/svg" viewBox="0 0 50 48"
 width="48" height="48" fill="none"
 role="presentation" aria-hidden="true">
<path fill="currentColor" fill-rule="evenodd" d="M22.998 3.013v8.666h2V3.012zM31.909 24h10.15v12.471a3.78 3.78 0 0 1-3.778 3.778H9.778A3.78 3.78 0 0 1 6 36.471v-12.47L16.1 24v.908a7.904 7.904 0 1 0 15.81 0zm12.15 12.471v-13.47a1 1 0 0 0-1-1H29.94a.03.03 0 0 0-.03.03v2.877a5.904 5.904 0 1 1-11.81 0v-2.877a.03.03 0 0 0-.03-.031H5a1 1 0 0 0-1 1v13.471a5.78 5.78 0 0 0 5.778 5.778H38.28a5.78 5.78 0 0 0 5.778-5.778M39.15 9.497l-5.777 5.778-1.415-1.414 5.778-5.778zm-24.525 5.778L8.847 9.497l1.414-1.414 5.778 5.778z" clip-rule="evenodd"/>
</svg>
