<svg xmlns="http://www.w3.org/2000/svg" viewBox="0 0 50 48"
 width="48" height="48" fill="none"
 role="presentation" aria-hidden="true">
<path fill="currentColor" fill-rule="evenodd" d="M23.316 5.571h12.83v7.415H25.343v4.093c5.152.659 9.134 5.06 9.134 10.391v1.115h7.831a3 3 0 0 1 3 3v11.523H2.693V31.585a3 3 0 0 1 3-3h7.83V27.47c0-5.565 4.34-10.116 9.819-10.456v-4.028h-.026zm-7.792 35.537h3.415V36a2 2 0 0 1 2-2h6.123a2 2 0 0 1 2 2v5.107h3.415V30.586H15.524zm11.538 0V36h-6.123v5.107zm7.085-30.122h-8.805V8.618h-.026V7.57h8.83zM24 18.994a8.477 8.477 0 0 0-8.477 8.476v1.115h16.953V27.47A8.477 8.477 0 0 0 24 18.994M5.693 30.585a1 1 0 0 0-1 1v9.523h3.415V30.585zm7.83 10.523h-3.415V30.585h3.416zm29.784-9.523a1 1 0 0 0-1-1h-2.769v10.523h3.77zm-5.769 9.523V30.585h-3.061v10.523z" clip-rule="evenodd"/>
</svg>
