<svg xmlns="http://www.w3.org/2000/svg" viewBox="0 0 50 48"
 width="48" height="48" fill="none"
 role="presentation" aria-hidden="true">
<path fill="currentColor" fill-rule="evenodd" d="M23.308 6.848a6.43 6.43 0 0 0-8.781 2.353l-3.585 6.21a1 1 0 0 0 .366 1.365l9.401 5.428a1 1 0 0 0 1.367-.366l3.584-6.21a6.43 6.43 0 0 0-2.352-8.78m-7.049 3.353a4.428 4.428 0 1 1 7.67 4.428l-3.086 5.343-7.669-4.428zM9.808 19.374a1 1 0 0 0-1.366.366l-3.594 6.226a6.428 6.428 0 1 0 11.133 6.428l3.595-6.226a1 1 0 0 0-.367-1.366zM6.58 26.966l3.094-5.36 7.67 4.428-3.095 5.36a4.428 4.428 0 1 1-7.67-4.428M32.652 19.61a2 2 0 0 0-2 2v4.13h-4.13a2 2 0 0 0-2 2v4.13a2 2 0 0 0 2 2h4.13V38a2 2 0 0 0 2 2h4.13a2 2 0 0 0 2-2v-4.13h4.13a2 2 0 0 0 2-2v-4.13a2 2 0 0 0-2-2h-4.13v-4.13a2 2 0 0 0-2-2zm0 2h4.13v6.13h6.13v4.13h-6.13V38h-4.13v-6.13h-6.13v-4.13h6.13z" clip-rule="evenodd"/>
</svg>
