<svg xmlns="http://www.w3.org/2000/svg" viewBox="0 0 50 48"
 width="48" height="48" fill="none"
 role="presentation" aria-hidden="true">
<path fill="currentColor" fill-rule="evenodd" d="M12.422 21.338a3 3 0 0 1-3-3v-2.123H7.299a3 3 0 0 1-3-3V11.46a3 3 0 0 1 3-3h2.123V6.338a3 3 0 0 1 3-3h1.754a3 3 0 0 1 3 3V8.46h2.123a3 3 0 0 1 3 3v1.754a3 3 0 0 1-3 3h-2.123v2.123a3 3 0 0 1-3 3zm2.754-7.123h4.123a1 1 0 0 0 1-1V11.46a1 1 0 0 0-1-1h-4.123V6.338a1 1 0 0 0-1-1h-1.754a1 1 0 0 0-1 1v4.123H7.299a1 1 0 0 0-1 1v1.754a1 1 0 0 0 1 1h4.123v4.123a1 1 0 0 0 1 1h1.754a1 1 0 0 0 1-1zM32.738 8.437h-4.445a3 3 0 0 0-3 3v8.731c-4.51 1.654-7.925 5.562-8.506 10.36l-.06.64q-.028.404-.028.815c0 7.14 6.186 12.679 13.5 12.679s13.5-5.54 13.5-12.679c0-5.219-3.333-9.607-7.961-11.566v-8.98a3 3 0 0 0-3-3M18.72 32.647c.37 5.589 5.367 10.015 11.478 10.015 6.351 0 11.5-4.781 11.5-10.679l-.001-.18c-2.56-1.268-4.525-1.467-6.2-1.214-1.62.245-3.027.912-4.584 1.649h-.002l-.348.166c-1.658.781-3.488 1.598-5.68 1.71-1.83.095-3.833-.302-6.163-1.467m22.657-3.18c-.881-3.388-3.502-6.145-6.934-7.411a1.06 1.06 0 0 1-.706-.98v-9.64a1 1 0 0 0-1-1h-4.445a1 1 0 0 0-1 1v9.426c0 .461-.318.859-.759.997-4.045 1.262-7.086 4.556-7.715 8.575 2.452 1.383 4.358 1.766 5.962 1.683 1.76-.09 3.274-.742 4.93-1.522l.388-.184c1.51-.718 3.176-1.509 5.1-1.8 1.821-.274 3.827-.1 6.179.855" clip-rule="evenodd"/>
</svg>
