<svg xmlns="http://www.w3.org/2000/svg" viewBox="0 0 50 48"
 width="48" height="48" fill="none"
 role="presentation" aria-hidden="true">
<path fill="currentColor" fill-rule="evenodd" d="M25.235 8.059h-9.118V4h-2v4.059H5v2h4.096c.174 2.256 1.024 5.996 4.392 9.365l.087.085c-1.393 1.03-2.916 1.851-4.248 2.466-.956.44-1.799.768-2.4.985a23 23 0 0 1-.886.299l-.045.013-.01.003h-.002l.282.96.283.96.006-.002.016-.005.058-.018q.075-.022.211-.067c.181-.058.442-.145.764-.261.645-.232 1.542-.581 2.56-1.05 1.504-.694 3.307-1.668 4.953-2.942 1.646 1.274 3.45 2.248 4.953 2.941a32 32 0 0 0 2.56 1.05 25 25 0 0 0 .975.33l.058.017.016.005.007.002.282-.96.282-.96h-.002l-.01-.003-.044-.013-.184-.058a23 23 0 0 1-.703-.241 30 30 0 0 1-2.4-.985c-1.332-.615-2.854-1.436-4.247-2.466l.086-.085c3.369-3.369 4.218-7.109 4.393-9.365h4.096zm-6.103 2h-8.03c.175 1.943.94 5.091 3.8 7.95q.107.106.215.21.109-.104.215-.21c2.86-2.859 3.625-6.007 3.8-7.95M36.027 22.177H32.61L26.336 41h2.108l2.333-7h7.496l2.593 7h2.133l-3.312-8.94V32h-.022zm-1.699 1.171L31.444 32h6.089z" clip-rule="evenodd"/>
</svg>
