<svg xmlns="http://www.w3.org/2000/svg" viewBox="0 0 50 48"
 width="48" height="48" fill="none"
 role="presentation" aria-hidden="true">
<path fill="currentColor" fill-rule="evenodd" d="M9.375 10c0-2.761 2.332-5 5.208-5h21.744c2.877 0 5.209 2.239 5.209 5v27.175c0 2.762-2.332 5-5.209 5H14.583c-2.876 0-5.208-2.238-5.208-5zm5.208-3c-1.726 0-3.125 1.343-3.125 3v27.175c0 1.657 1.4 3 3.125 3h21.744c1.726 0 3.125-1.343 3.125-3V10c0-1.657-1.399-3-3.125-3z" clip-rule="evenodd"/><path fill="currentColor" fill-rule="evenodd" d="M28.082 27.917H15.537v-2h12.545zM32.612 32.939H15.537v-2h17.075000000000003z" clip-rule="evenodd"/><rect width="8" height="8" x="15" y="13" fill="currentColor" rx="2"/>
</svg>
