<svg xmlns="http://www.w3.org/2000/svg" viewBox="0 0 50 48"
 width="48" height="48" fill="none"
 role="presentation" aria-hidden="true">
<path fill="currentColor" d="M9.037 37.175V20.554h2v16.621a3 3 0 0 0 3 3h20.875a3 3 0 0 0 3-3V10a3 3 0 0 0-3-3H16.829V5h18.083a5 5 0 0 1 5 5v27.175a5 5 0 0 1-5 5H14.037a5 5 0 0 1-5-5"/><path fill="currentColor" d="M14.953 27.917h12.043v-2H14.953zM14.953 32.939v-2h16.392v2zM12.957 5.826a.7.7 0 0 0-1.255 0L10.288 8.69a.7.7 0 0 1-.527.383l-3.16.46a.7.7 0 0 0-.389 1.193l2.287 2.23a.7.7 0 0 1 .202.62l-.54 3.147a.7.7 0 0 0 1.015.738l2.828-1.486a.7.7 0 0 1 .651 0l2.827 1.486a.7.7 0 0 0 1.016-.738l-.54-3.148a.7.7 0 0 1 .201-.62l2.288-2.229a.7.7 0 0 0-.388-1.194l-3.161-.46a.7.7 0 0 1-.527-.382z"/>
</svg>
