<svg xmlns="http://www.w3.org/2000/svg" viewBox="0 0 50 48"
 width="48" height="48" fill="none"
 role="presentation" aria-hidden="true">
<path fill="currentColor" fill-rule="evenodd" d="M9.375 10c0-2.761 2.332-5 5.208-5h21.744c2.877 0 5.209 2.239 5.209 5v27.175c0 2.762-2.332 5-5.209 5H14.583c-2.876 0-5.208-2.238-5.208-5zm5.208-3c-1.726 0-3.125 1.343-3.125 3v27.175c0 1.657 1.4 3 3.125 3h21.744c1.726 0 3.125-1.343 3.125-3V10c0-1.657-1.399-3-3.125-3z" clip-rule="evenodd"/><path fill="currentColor" d="m17.893 21.012.675-1.99h3.28l.675 1.99h2.06l-3.134-8.727h-2.477l-3.139 8.727zm1.163-3.43 1.119-3.303h.07l1.12 3.303zM27.586 21.136c1.007 0 1.66-.422 1.993-1.032h.053v.908h1.793v-4.415c0-1.56-1.376-2.216-2.894-2.216-1.633 0-2.708.75-2.97 1.944l1.75.136c.128-.435.532-.754 1.211-.754.644 0 1.012.31 1.012.848v.025c0 .422-.466.478-1.651.588-1.35.12-2.561.554-2.561 2.016 0 1.295.963 1.952 2.264 1.952m.541-1.253c-.581 0-.999-.26-.999-.759 0-.511.44-.762 1.106-.852.412-.055 1.087-.15 1.314-.294v.695c0 .686-.59 1.21-1.42 1.21"/><path fill="currentColor" fill-rule="evenodd" d="M28.082 27.917H15.537v-2h12.545zM32.612 32.939H15.537v-2h17.075000000000003z" clip-rule="evenodd"/>
</svg>
