<svg xmlns="http://www.w3.org/2000/svg" viewBox="0 0 50 48"
 width="48" height="48" fill="none"
 role="presentation" aria-hidden="true">
<path stroke="currentColor" stroke-width="2" d="m20.792 39.072-2.682-11.18-10.407-.075 6.235 11.95a1 1 0 0 0 .886.538h4.996a1 1 0 0 0 .972-1.233ZM2.9 21.652a6.12 6.12 0 0 1 6.118-6.118h10.609V27.77H9.018A6.12 6.12 0 0 1 2.9 21.652Z"/><path stroke="currentColor" stroke-linecap="square" stroke-width="2" d="m39.074 15.416 5.78-5.78M39.125 26.352l5.78 5.78M39.21 21.14h6.387"/><path stroke="currentColor" stroke-width="2" d="m19.627 15.845 12.194-4.605a1 1 0 0 1 1.353.935v18.126a1 1 0 0 1-1.288.957l-12.259-3.69z"/>
</svg>
