<svg xmlns="http://www.w3.org/2000/svg" viewBox="0 0 50 48"
 width="48" height="48" fill="none"
 role="presentation" aria-hidden="true">
<path fill="currentColor" fill-rule="evenodd" d="M40.37 7.626c-6.168-6.168-16.168-6.168-22.336 0L6.693 18.968a1 1 0 0 0 0 1.414l6.783 6.783a1 1 0 0 0 1.414 0L26.23 15.823a4.201 4.201 0 1 1 5.941 5.941L20.832 33.106a1 1 0 0 0 0 1.414l6.783 6.783a1 1 0 0 0 1.414 0L40.37 29.96c6.167-6.167 6.167-16.167 0-22.335M19.449 9.04c5.386-5.387 14.12-5.387 19.507 0 5.386 5.387 5.386 14.12 0 19.507l-3.67 3.67-5.369-5.37 3.67-3.669a6.201 6.201 0 1 0-8.77-8.77l-3.67 3.67-5.368-5.368zm9.054 19.222 5.369 5.368-5.551 5.552-5.369-5.37zM14.365 14.124l5.368 5.368-5.55 5.551-5.37-5.368zM9.364 32.017l-6.35 6.378 1.418 1.411 6.349-6.378zm-.417 8.158 6.35-6.379 1.417 1.411-6.35 6.379z" clip-rule="evenodd"/>
</svg>
