<svg xmlns="http://www.w3.org/2000/svg" viewBox="0 0 50 48"
 width="48" height="48" fill="none"
 role="presentation" aria-hidden="true">
<path fill="currentColor" fill-rule="evenodd" d="M10.532 7.47c-1.445 0-2.744.947-3.113 2.355l-2 7.692c-.576 2.166.368 4.143 2.053 5.302v14.407c0 1.794 1.406 3.303 3.247 3.303h9.692v-5.637a3.564 3.564 0 0 1 7.128 0v5.637h9.71c1.82 0 3.282-1.488 3.282-3.303V22.763c.488-.375.892-.82 1.214-1.293.857-1.26 1.197-2.834.9-3.953v-.003l-1.999-7.687c-.366-1.41-1.667-2.356-3.111-2.356zm27.999 16.25c-.447.11-.931.17-1.452.17-2.224 0-3.678-1.102-4.543-2.173l-.055-.07c-.746 1.15-2.116 2.244-4.442 2.244-1.961 0-3.207-.78-3.958-1.733-.296.38-.683.74-1.186 1.033-.758.443-1.72.7-2.923.7-2.454 0-3.84-1.076-4.553-2.281l-.12.14c-.883 1-2.318 2.14-4.292 2.14a6.5 6.5 0 0 1-1.535-.182v13.518c0 .749.568 1.303 1.247 1.303h7.692v-3.637a5.564 5.564 0 0 1 11.128 0v3.637h7.71c.698 0 1.282-.575 1.282-1.303zm-4.986-4.1c.13.25.31.547.547.84.59.732 1.517 1.43 2.987 1.43 1.475 0 2.435-.695 3.012-1.544.62-.914.733-1.897.62-2.317v-.006l-2-7.693c-.125-.48-.592-.86-1.176-.86H10.532c-.583 0-1.051.38-1.178.861L7.353 18.03c-.492 1.845 1.014 3.862 3.654 3.862 1.15 0 2.085-.662 2.79-1.464.247-.279.451-.56.613-.808h2.375l.007.039c.051.26.151.597.343.925.346.59 1.072 1.308 2.837 1.308.913 0 1.515-.194 1.915-.427.398-.233.653-.538.822-.85a2.8 2.8 0 0 0 .306-.995h2.065l.006.03c.055.267.158.611.348.946.346.61 1.027 1.296 2.605 1.296 1.587 0 2.355-.697 2.77-1.343.212-.33.342-.664.419-.928z" clip-rule="evenodd"/>
</svg>
