<svg xmlns="http://www.w3.org/2000/svg" viewBox="0 0 50 48"
 width="48" height="48" fill="none"
 role="presentation" aria-hidden="true">
<path fill="currentColor" fill-rule="evenodd" d="M5 5a3 3 0 0 0-3 3v26a3 3 0 0 0 3 3h16.482a9.03 9.03 0 0 0 7.558 4.079 9 9 0 0 0 5.68-2.007l5.506 5.506 1.414-1.414-5.513-5.513q.25-.315.47-.651H43a3 3 0 0 0 3-3V8a3 3 0 0 0-3-3zm32.583 30H43a1 1 0 0 0 1-1V8a1 1 0 0 0-1-1H5a1 1 0 0 0-1 1v26a1 1 0 0 0 1 1h15.496A9 9 0 0 1 20 32.04c0-.985.157-1.933.449-2.82h-1.112a1 1 0 0 1-.185-.018H13a1 1 0 0 1-1-1v-4.61a1 1 0 0 1 1-1h5.337v-3.61a1 1 0 0 1 1-1h5.344V15a1 1 0 0 1 1-1h6.333a1 1 0 0 1 1 1v8.919a9.04 9.04 0 0 1 5.065 8.12A9 9 0 0 1 37.583 35m-6.568-11.784V16H26.68v7.31a9 9 0 0 1 2.358-.31c.679 0 1.34.075 1.976.216m-6.344.908v-4.141h-4.334v7.236h1.054a9.1 9.1 0 0 1 3.28-3.095m-6.337 3.078H14v-2.61h4.334zM22 32.04a7.04 7.04 0 1 1 14.079 0 7.04 7.04 0 0 1-14.079 0" clip-rule="evenodd"/>
</svg>
