<svg xmlns="http://www.w3.org/2000/svg" viewBox="0 0 50 48"
 width="48" height="48" fill="none"
 role="presentation" aria-hidden="true">
<path fill="currentColor" fill-rule="evenodd" d="M19.576 15.172a1.5 1.5 0 0 0-2.201 1.326V27.48a1.5 1.5 0 0 0 2.14 1.357l10.982-5.18c1.118-.528 1.154-2.106.06-2.683zm-.201 11.52v-9.364l9.363 4.947z" clip-rule="evenodd"/><path fill="currentColor" fill-rule="evenodd" d="M6.125 10.594a2 2 0 0 1 2-2h31.75a2 2 0 0 1 2 2v22.75a2 2 0 0 1-2 2H8.125a2 2 0 0 1-2-2zm33.75 0H8.125v22.75h31.75z" clip-rule="evenodd"/><path fill="currentColor" d="M42 39.844H6v-2h36z"/>
</svg>
