<svg xmlns="http://www.w3.org/2000/svg" viewBox="0 0 50 48"
 width="48" height="48" fill="none"
 role="presentation" aria-hidden="true">
<path fill="currentColor" d="M5 7a2 2 0 0 1 2-2h4.5V3H7a4 4 0 0 0-4 4v4.5h2zM41 5a2 2 0 0 1 2 2v4.5h2V7a4 4 0 0 0-4-4h-4.5v2zM41 43a2 2 0 0 0 2-2v-4.5h2V41a4 4 0 0 1-4 4h-4.5v-2zM7 43a2 2 0 0 1-2-2v-4.5H3V41a4 4 0 0 0 4 4h4.5v-2z"/><path fill="currentColor" fill-rule="evenodd" d="M12 31V16c0-3 5.425-5.5 11.5-5.5s12 3 12 5.5v15h-2V18.708c-2.247 1.55-6.092 2.792-10 2.792-3.819 0-7.381-1.186-9.5-2.687V31zm21.476-15c-.043-.08-.146-.242-.391-.48-.446-.434-1.172-.93-2.164-1.4-1.978-.938-4.685-1.62-7.421-1.62-2.791 0-5.366.579-7.174 1.433-.905.428-1.534.886-1.911 1.296-.348.378-.408.628-.414.749.009.029.067.218.389.556.4.42 1.06.905 1.98 1.366 1.832.92 4.399 1.6 7.13 1.6 2.736 0 5.443-.682 7.421-1.62.992-.47 1.718-.966 2.164-1.4.245-.238.348-.4.39-.48" clip-rule="evenodd"/><path fill="currentColor" d="M24 35c-3.334 0-5.913-.833-7.632-1.807-.863-.49-1.491-1.003-1.89-1.447-.414-.46-.472-.721-.478-.744V31h-2c0 .755.46 1.492.99 2.083.57.634 1.38 1.276 2.392 1.85C17.412 36.083 20.334 37 24 37c3.703 0 6.512-.916 8.424-2.084.953-.582 1.696-1.233 2.21-1.877.491-.612.866-1.332.866-2.039h-2s0 .02-.01.063q-.015.063-.063.173c-.067.148-.18.336-.353.553-.348.435-.904.94-1.692 1.42C29.813 34.167 27.372 35 24 35"/>
</svg>
