<svg xmlns="http://www.w3.org/2000/svg" viewBox="0 0 50 48"
 width="48" height="48" fill="none"
 role="presentation" aria-hidden="true">
<path fill="currentColor" fill-rule="evenodd" d="M30.83 10.752a6.9 6.9 0 0 1-3.292 5.908c5.81 1.183 9.222 5.169 10.743 9.173.98 2.582-1.284 4.89-4.046 4.899l-20.701.073c-2.762.01-5.043-2.281-4.08-4.87 1.507-4.054 4.943-8.103 10.848-9.284a6.902 6.902 0 1 1 10.527-5.899m-6.885 4.926a4.902 4.902 0 1 0-.035-9.804 4.902 4.902 0 0 0 .035 9.804m10.283 13.054c.844-.003 1.542-.36 1.929-.803.347-.396.458-.85.254-1.385-1.575-4.148-5.44-8.262-12.57-8.237-7.132.025-10.966 4.167-12.513 8.326-.2.537-.086.99.264 1.384.39.439 1.091.791 1.935.788zM8 34a4 4 0 1 0 3.874 5h8.252a4.002 4.002 0 0 0 7.748 0h8.252A4.002 4.002 0 0 0 44 38a4 4 0 0 0-7.874-1h-8.252a4.002 4.002 0 0 0-7.748 0h-8.252A4 4 0 0 0 8 34m-2 4a2 2 0 1 1 4 0 2 2 0 0 1-4 0m16 0a2 2 0 1 1 4 0 2 2 0 0 1-4 0m16 0a2 2 0 1 1 4 0 2 2 0 0 1-4 0" clip-rule="evenodd"/>
</svg>
