<svg xmlns="http://www.w3.org/2000/svg" viewBox="0 0 50 48"
 width="48" height="48" fill="none"
 role="presentation" aria-hidden="true">
<path fill="currentColor" fill-rule="evenodd" d="M21.528 3.67a5 5 0 0 1 5 0l13.828 7.984a5 5 0 0 1 2.5 4.33V31.95a5 5 0 0 1-2.5 4.33l-13.828 7.984a5 5 0 0 1-5 0L7.7 36.281a5 5 0 0 1-2.5-4.33V15.984a5 5 0 0 1 2.5-4.33zm4 1.732a3 3 0 0 0-3 0l-1.888 1.09 16.056 9.063 3.188-1.783a3 3 0 0 0-.528-.386zm3.855 14.242-15.94-8.997L8.7 13.386q-.193.111-.365.248l15.563 9.076zm-4.438 4.772 5.312-2.97v8.398a1 1 0 0 0 1.51.86l5.412-3.215a1 1 0 0 0 .49-.86v-9.327l3.154-1.763q.033.219.033.445V31.95a3 3 0 0 1-1.5 2.598l-13.828 7.984a3 3 0 0 1-.583.258zM35.67 18.42l-3.412 1.907v7.76l3.412-2.028zm-12.724 6.048L7.272 15.33a3 3 0 0 0-.072.655V31.95a3 3 0 0 0 1.5 2.598l13.828 7.984q.203.117.417.2zm8.298-6.072-15.678-8.85 3.187-1.824 15.679 8.85z" clip-rule="evenodd"/>
</svg>
