<svg xmlns="http://www.w3.org/2000/svg" viewBox="0 0 50 48"
 width="48" height="48" fill="none"
 role="presentation" aria-hidden="true">
<path fill="currentColor" fill-rule="evenodd" d="M13.77 20.987a1.986 1.986 0 1 0-.015-3.973 1.986 1.986 0 0 0 .014 3.973m.007 2a3.987 3.987 0 1 0-.029-7.973 3.987 3.987 0 0 0 .029 7.973" clip-rule="evenodd"/><path fill="currentColor" d="M28 17h13v2H28zM37 21h-9v2h9zM40.207 25.293a1 1 0 0 1 0 1.414l-4.5 4.5a1 1 0 0 1-1.414 0l-2-2a1 1 0 0 1 1.414-1.414L35 29.086l3.793-3.793a1 1 0 0 1 1.414 0"/><path fill="currentColor" fill-rule="evenodd" d="M2 13a4 4 0 0 1 4-4h36a4 4 0 0 1 4 4v21a4 4 0 0 1-4 4H6a4 4 0 0 1-4-4zm23 23h17a2 2 0 0 0 2-2V13a2 2 0 0 0-2-2H25zm-2-25v25H6a2 2 0 0 1-2-2V13a2 2 0 0 1 2-2z" clip-rule="evenodd"/><path fill="currentColor" fill-rule="evenodd" d="M19.503 27.412q.006 0 0 0m-.432.001c-.733-1.747-2.398-3.397-5.442-3.386S8.933 25.7 8.213 27.452zm-11.29.04q-.008 0 0 0m11.73 1.959-11.724.041c-1.104.004-2.015-.903-1.705-1.963.769-2.625 3.093-5.447 7.54-5.463 4.448-.016 6.792 2.79 7.58 5.409.317 1.058-.587 1.972-1.692 1.976" clip-rule="evenodd"/>
</svg>
