<svg xmlns="http://www.w3.org/2000/svg" viewBox="0 0 50 48"
 width="48" height="48" fill="none"
 role="presentation" aria-hidden="true">
<path fill="currentColor" fill-rule="evenodd" d="M16 29a1 1 0 0 1 1-1h4a1 1 0 0 1 1 1v5a1 1 0 0 1-1 1h-4a1 1 0 0 1-1-1zm2 1v3h2v-3zM16 19a1 1 0 0 1 1-1h4a1 1 0 0 1 1 1v5a1 1 0 0 1-1 1h-4a1 1 0 0 1-1-1zm2 1v3h2v-3zM24 29a1 1 0 0 1 1-1h4a1 1 0 0 1 1 1v5a1 1 0 0 1-1 1h-4a1 1 0 0 1-1-1zm2 1v3h2v-3zM32.852 10.679a3.674 3.674 0 1 0 0 7.347 3.674 3.674 0 0 0 0-7.347m-1.673 3.673a1.674 1.674 0 1 1 3.347 0 1.674 1.674 0 0 1-3.347 0" clip-rule="evenodd"/><path fill="currentColor" fill-rule="evenodd" d="M32.852 6c-3.796 0-7 2.532-8.016 6H15a3 3 0 0 0-3 3v4H9a2 2 0 0 0-2 2v18a1 1 0 0 0 1 1h6v-.007l6.154.008v-.01H32V40h7a1 1 0 0 0 1-1V18.818q.084-.19.164-.379c.6-1.416 1.04-2.867 1.04-4.087A8.35 8.35 0 0 0 32.852 6M26.5 14.352a6.352 6.352 0 0 1 12.704 0c0 .81-.312 1.962-.881 3.308-.56 1.32-1.326 2.733-2.14 4.034-.816 1.301-1.664 2.465-2.376 3.292a8 8 0 0 1-.955.966l-.059-.047a8 8 0 0 1-.896-.92c-.711-.826-1.56-1.99-2.375-3.291s-1.581-2.714-2.14-4.034c-.57-1.346-.882-2.497-.882-3.308m6.156 11.734.009-.005-.007.004zM14 37.993l5.035.007q.062-.008.127-.008H32v-10.2c-.17-.1-.334-.224-.488-.352a10 10 0 0 1-1.13-1.15 23 23 0 0 1-1.065-1.341A1 1 0 0 1 29 25h-4a1 1 0 0 1-1-1v-5a1 1 0 0 1 1-1h.36c-.506-1.274-.86-2.554-.86-3.648q0-.177.007-.352H15a1 1 0 0 0-1 1zM12 21H9v17h3zm14-1h.267a35 35 0 0 0 1.715 3H26zm8 7.593q.099-.074.193-.153c.351-.293.736-.692 1.13-1.15.792-.92 1.699-2.17 2.554-3.535l.123-.197V38h-4z" clip-rule="evenodd"/>
</svg>
