<svg xmlns="http://www.w3.org/2000/svg" viewBox="0 0 50 48"
 width="48" height="48" fill="none"
 role="presentation" aria-hidden="true">
<path fill="currentColor" fill-rule="evenodd" d="M19.867 24.8a3.933 3.933 0 1 1 7.867 0 3.933 3.933 0 0 1-7.867 0m3.933-1.933a1.933 1.933 0 1 0 0 3.866 1.933 1.933 0 0 0 0-3.866" clip-rule="evenodd"/><path fill="currentColor" fill-rule="evenodd" d="M7 9a2 2 0 0 1 2-2h3a2 2 0 0 1 2 2v3c0 .316-.073.616-.204.882l4.075 4.075A9.9 9.9 0 0 1 23.8 15c1.915 0 3.706.54 5.22 1.475l2.098-2.798A2 2 0 0 1 31 13V9a2 2 0 0 1 2-2h4a2 2 0 0 1 2 2v4a2 2 0 0 1-2 2h-4q-.18 0-.352-.03l-2.043 2.723c1.845 1.744 2.995 4.191 2.995 6.911 0 1.398-.517 3.073-1.232 4.725a30 30 0 0 1-.846 1.779l3.596 3.596c.266-.13.566-.204.882-.204h4a2 2 0 0 1 2 2v4a2 2 0 0 1-2 2h-4a2 2 0 0 1-2-2v-4q0-.042.002-.084l-3.485-3.485q-.428.73-.875 1.426c-1.02 1.593-2.1 3.048-3.041 4.117-.469.531-.922.99-1.331 1.324-.204.166-.419.32-.636.436a1.8 1.8 0 0 1-.834.233 1.8 1.8 0 0 1-.834-.233 4 4 0 0 1-.636-.436c-.41-.334-.862-.793-1.33-1.324-.942-1.07-2.021-2.524-3.042-4.117s-2-3.35-2.726-5.028C14.517 27.677 14 26 14 24.604c0-2.412.905-4.61 2.397-6.293l-4.313-4.313L12 14H9a2 2 0 0 1-2-2zm5 0H9v3h3zm24 27.5v4h4v-4zM33 9h4v4h-4zm-9.2 8c-4.33 0-7.8 3.426-7.8 7.604 0 .98.383 2.35 1.068 3.93.673 1.555 1.595 3.216 2.574 4.744.98 1.529 2 2.898 2.858 3.874.432.49.804.859 1.095 1.096q.122.1.205.155.084-.056.205-.155c.29-.237.663-.606 1.095-1.096.858-.976 1.878-2.345 2.858-3.874.979-1.528 1.9-3.19 2.574-4.744.685-1.58 1.068-2.95 1.068-3.93 0-4.178-3.47-7.604-7.8-7.604" clip-rule="evenodd"/>
</svg>
