<svg xmlns="http://www.w3.org/2000/svg" viewBox="0 0 50 48"
 width="48" height="48" fill="none"
 role="presentation" aria-hidden="true">
<path fill="currentColor" fill-rule="evenodd" d="M24.964 8.692a3.674 3.674 0 1 1 7.347 0 3.674 3.674 0 0 1-7.347 0m3.673-1.674a1.673 1.673 0 1 0 0 3.347 1.673 1.673 0 0 0 0-3.347" clip-rule="evenodd"/><path fill="currentColor" fill-rule="evenodd" d="M20.387 7.382a8.352 8.352 0 0 1 16.602 1.31c0 .94-.261 2.02-.657 3.113a18.25 18.25 0 0 1 5.965 13.517c0 10.105-8.192 18.296-18.296 18.296-10.105 0-18.297-8.191-18.297-18.296 0-8.868 6.309-16.263 14.683-17.94m8.25-5.043a6.35 6.35 0 0 0-6.352 6.353c0 .81.312 1.961.882 3.307.559 1.32 1.325 2.733 2.14 4.034.816 1.302 1.664 2.465 2.375 3.292a8.3 8.3 0 0 0 .955.967l.06-.048c.233-.195.537-.503.895-.919.712-.826 1.56-1.99 2.375-3.292.815-1.3 1.582-2.714 2.14-4.034.57-1.346.883-2.497.883-3.307a6.35 6.35 0 0 0-6.353-6.353m-8.303 7.1c.06.475.17.974.32 1.484-.181.227-.418.479-.724.754-1.065.959-2.72 1.964-4.78 2.879-1.629.724-2.736.997-3.427 1.069-.345.035-.564.018-.68-.003l-.041-.01-.06-.042a16.3 16.3 0 0 1 9.392-6.13m1.094 3.578c.271.621.58 1.253.911 1.878-2.012 1.901-3.234 3.421-3.763 4.941-.639 1.833-.215 3.486.503 5.382.806 2.127 2.033 3.07 2.96 3.742l.04.03c.452.327.705.51.882.722.131.158.221.335.221.68 0 .605.026 1.282.13 1.936.105.646.296 1.337.67 1.925.389.615.976 1.112 1.8 1.309.794.19 1.693.074 2.685-.287 4.106-1.493 6.033-3.8 6.033-6.275 0-.718-.264-1.3-.531-1.746a10 10 0 0 0-.397-.598l-.013-.018c-.122-.174-.22-.312-.303-.447-.172-.28-.196-.415-.19-.502.005-.077.047-.303.447-.719.323-.336.588-.468.786-.522.2-.055.41-.05.654.005.257.06.513.166.822.3l.06.025c.255.11.632.274.995.328 1.243.184 2.259.046 3.094-.265q.189-.071.361-.15.012.314.012.63c0 5.458-2.682 10.289-6.8 13.247-1.054-.965-2.656-1.147-4.09-1.126-1.435.02-3.032.257-4.44.465l-.373.055c-1.433.21-2.758.72-3.762 1.316a6.4 6.4 0 0 0-1.293.987 3.3 3.3 0 0 0-.47.594 16.2 16.2 0 0 1-3.808-1.78c.958-.875 1.939-2.4 2.226-4.7.275-2.198-.683-3.531-1.518-4.692l-.127-.177c-.835-1.17-1.631-2.368-1.631-4.638 0-2.436-1.142-3.971-2.612-4.819-.877-.506-1.844-.754-2.708-.847q.412-1.016.95-1.958c.258.191.564.289.834.34a4.4 4.4 0 0 0 1.255.026c.966-.1 2.283-.453 4.032-1.23 2.163-.962 4.026-2.068 5.306-3.22zm1.932 3.67c-1.713 1.662-2.55 2.813-2.896 3.807-.392 1.125-.203 2.196.486 4.016.602 1.588 1.458 2.248 2.263 2.831l.11.08c.372.268.829.596 1.174 1.01.43.516.685 1.146.685 1.962 0 .557.025 1.114.106 1.618q.125.768.382 1.171c.154.242.331.376.577.434.279.067.758.063 1.536-.22C31.548 32.026 32.5 30.24 32.5 29c0-.21-.072-.427-.247-.718a8 8 0 0 0-.316-.474l-.024-.034c-.112-.16-.244-.345-.361-.537-.252-.41-.529-.98-.482-1.681.048-.711.411-1.358 1-1.972.532-.552 1.1-.901 1.703-1.066a3.3 3.3 0 0 1 1.628-.014c.454.105.863.281 1.157.408l.009.003c.351.152.483.201.556.212.929.138 1.602.026 2.102-.16.32-.12.591-.277.831-.452a16.26 16.26 0 0 0-4.556-8.74 34 34 0 0 1-1.838 3.32c-.855 1.365-1.762 2.615-2.554 3.535-.394.457-.779.856-1.13 1.15a3.6 3.6 0 0 1-.558.39c-.177.097-.454.22-.783.22-.328 0-.605-.123-.782-.22a3.5 3.5 0 0 1-.558-.39 10 10 0 0 1-1.13-1.15c-.793-.92-1.7-2.17-2.555-3.535zM21.275 41.39q.24-.192.579-.394a8.5 8.5 0 0 1 3.03-1.056l.352-.052c1.438-.212 2.905-.429 4.199-.447.975-.014 1.694.09 2.187.288a16.2 16.2 0 0 1-7.621 1.888q-1.396-.002-2.727-.227m-13.57-16.07c0-1.436.185-2.83.534-4.157.734.023 1.621.195 2.361.622.876.505 1.61 1.394 1.61 3.086 0 2.89 1.081 4.508 2.005 5.8l.061.086c.864 1.208 1.403 1.962 1.226 3.373-.279 2.232-1.332 3.33-1.913 3.728a16.26 16.26 0 0 1-5.885-12.537m3.26-9.72.003.001z" clip-rule="evenodd"/>
</svg>
