<svg xmlns="http://www.w3.org/2000/svg" viewBox="0 0 50 48"
 width="48" height="48" fill="none"
 role="presentation" aria-hidden="true">
<path fill="currentColor" fill-rule="evenodd" d="M31.8 10.867a3.933 3.933 0 1 0 .001 7.866 3.933 3.933 0 0 0 0-7.866M29.868 14.8a1.933 1.933 0 1 1 3.867 0 1.933 1.933 0 0 1-3.867 0" clip-rule="evenodd"/><path fill="currentColor" d="M14 29a1 1 0 0 1 1-1h3a1 1 0 1 1 0 2h-3a1 1 0 0 1-1-1M22 28a1 1 0 1 0 0 2h3a1 1 0 1 0 0-2z"/><path fill="currentColor" fill-rule="evenodd" d="M31.8 5C26.41 5 22 9.279 22 14.604c0 1.398.517 3.073 1.233 4.725q.144.333.302.671H12.792a4 4 0 0 0-3.63 2.319L3.41 34.739C2.488 36.727 3.939 39 6.13 39H41.87c2.19 0 3.643-2.273 2.722-4.261l-5.74-12.39a33 33 0 0 0 1.516-3.02C41.083 17.677 41.6 16 41.6 14.604 41.6 9.28 37.191 5 31.8 5M24 14.604C24 10.426 27.471 7 31.8 7c4.33 0 7.8 3.426 7.8 7.604 0 .98-.383 2.35-1.067 3.93-.674 1.555-1.596 3.216-2.575 4.744-.98 1.529-2 2.898-2.858 3.874-.432.49-.804.859-1.095 1.096q-.121.1-.205.155a3 3 0 0 1-.205-.155c-.29-.237-.662-.606-1.094-1.096-.86-.976-1.88-2.345-2.859-3.874s-1.9-3.19-2.574-4.744c-.685-1.58-1.068-2.95-1.068-3.93m7.652 13.885.008-.003-.006.002zM12.792 22h11.762c.443.805.919 1.6 1.404 2.357 1.02 1.593 2.1 3.048 3.042 4.117.468.531.921.99 1.33 1.324.204.166.419.32.636.436.2.107.494.233.834.233s.634-.126.834-.233a4 4 0 0 0 .636-.436c.41-.334.862-.793 1.33-1.324.93-1.056 1.995-2.489 3.005-4.059l5.172 11.165A1 1 0 0 1 41.87 37H6.13a1 1 0 0 1-.907-1.42l2.593-5.597A1 1 0 0 0 8 30h3a1 1 0 1 0 0-2H8.735l2.242-4.84A2 2 0 0 1 12.792 22" clip-rule="evenodd"/>
</svg>
