<svg xmlns="http://www.w3.org/2000/svg" viewBox="0 0 50 48"
 width="48" height="48" fill="none"
 role="presentation" aria-hidden="true">
<circle cx="21.309" cy="21.09" r="16.374" stroke="currentColor" stroke-width="2"/><path fill="currentColor" d="M24.867 14.278a1.864 1.864 0 1 0 0 3.727 1.864 1.864 0 0 0 0-3.727"/><path fill="currentColor" fill-rule="evenodd" d="M21.015 10.85c-.495 0-.969.196-1.319.546l-9.798 9.799a3.58 3.58 0 0 0 0 5.06l4.847 4.847a3.58 3.58 0 0 0 5.06 0l9.799-9.799c.35-.35.546-.823.546-1.318v-5.557a3.58 3.58 0 0 0-3.578-3.578zm-9.693 11.769 1.628-1.628 7.059 7.059-1.628 1.628c-.611.61-1.601.61-2.212 0l-4.847-4.847c-.611-.611-.611-1.601 0-2.212m10.1 4.017-7.058-7.06 6.713-6.712h5.495c.864 0 1.564.7 1.564 1.564v5.495z" clip-rule="evenodd"/><path fill="currentColor" fill-rule="evenodd" d="M2.936 21.09c0-9.596 7.778-17.374 17.373-17.374s17.374 7.778 17.374 17.374c0 3.483-1.025 6.727-2.79 9.447l9.351 9.351a3.162 3.162 0 0 1-4.472 4.472l-9.23-9.229a17.3 17.3 0 0 1-10.233 3.332c-9.595 0-17.373-7.778-17.373-17.373M20.309 5.716c-8.49 0-15.373 6.883-15.373 15.374s6.883 15.373 15.373 15.373c8.491 0 15.374-6.883 15.374-15.373 0-8.491-6.883-15.374-15.374-15.374m13.513 26.579L32.24 34l8.946 8.946a1.163 1.163 0 0 0 1.644-1.644z" clip-rule="evenodd"/>
</svg>
