<svg xmlns="http://www.w3.org/2000/svg" viewBox="0 0 50 48"
 width="48" height="48" fill="none"
 role="presentation" aria-hidden="true">
<path fill="currentColor" fill-rule="evenodd" d="M25.037 12c-3.889 0-7.041 3.026-7.041 6.76 0 2.49 1.403 4.667 3.492 5.84-4.675 1.149-8.273 4.47-8.654 8.993-.086 1.02.783 1.781 1.738 1.781h21.206c.955 0 1.824-.76 1.738-1.78-.386-4.587-4.08-7.937-8.85-9.042 2.045-1.182 3.412-3.334 3.412-5.792 0-3.734-3.153-6.76-7.041-6.76m-4.958 6.76c0-2.63 2.22-4.76 4.958-4.76s4.958 2.13 4.958 4.76c0 2.628-2.22 4.759-4.958 4.759s-4.958-2.13-4.958-4.76m5.096 7.399c5.444 0 9.646 3.083 10.222 7.215H14.953c.577-4.132 4.778-7.215 10.222-7.215" clip-rule="evenodd"/><path fill="currentColor" fill-rule="evenodd" d="M37.2 31.863h8.295c.937 0 1.86-.758 1.716-1.827-.363-2.693-2.418-4.676-5.092-5.536 1.032-.852 1.686-2.115 1.686-3.524 0-2.567-2.167-4.647-4.84-4.647s-4.841 2.08-4.841 4.647c0 1.431.674 2.712 1.734 3.564-1.144.385-2.17.978-2.993 1.745.594.377 1.145.801 1.645 1.267 1.094-.936 2.68-1.524 4.539-1.524 3.118 0 5.473 1.656 6.014 3.835h-8.707a9 9 0 0 1 .845 2m1.764-13.534c-1.523 0-2.757 1.185-2.757 2.647s1.234 2.647 2.757 2.647 2.758-1.186 2.758-2.647c0-1.462-1.235-2.647-2.758-2.647M17.485 26.284c-.85-.793-1.92-1.4-3.113-1.784 1.033-.852 1.686-2.115 1.686-3.524 0-2.567-2.167-4.647-4.84-4.647s-4.84 2.08-4.84 4.647c0 1.431.673 2.712 1.734 3.564-2.615.88-4.615 2.843-4.972 5.496-.144 1.069.78 1.827 1.716 1.827h8.293a9 9 0 0 1 .844-2H5.288c.541-2.18 2.896-3.835 6.014-3.835 1.858 0 3.444.587 4.538 1.523.5-.466 1.051-.89 1.645-1.267M8.46 20.976c0-1.462 1.235-2.647 2.758-2.647s2.757 1.185 2.757 2.647-1.234 2.647-2.757 2.647-2.758-1.186-2.758-2.647" clip-rule="evenodd"/>
</svg>
