<svg xmlns="http://www.w3.org/2000/svg" viewBox="0 0 50 48"
 width="48" height="48" fill="none"
 role="presentation" aria-hidden="true">
<path fill="currentColor" fill-rule="evenodd" d="M13 15a1 1 0 0 0-1 1v12a1 1 0 0 0 1 1h15a1 1 0 0 0 1-1v-7a1 1 0 0 0-1-1h-4v-8a1 1 0 0 0-1-1h-5a1 1 0 0 0-1 1v3zm4 2h-3v10h3zm7 5v5h3v-5zm-2 5V13h-3v14z" clip-rule="evenodd"/><path fill="currentColor" fill-rule="evenodd" d="M20.31 3.716c-9.596 0-17.374 7.778-17.374 17.374s7.778 17.373 17.373 17.373c3.826 0 7.363-1.236 10.234-3.332l9.23 9.23a3.162 3.162 0 0 0 4.471-4.473l-9.351-9.351a17.3 17.3 0 0 0 2.79-9.447c0-9.596-7.778-17.374-17.374-17.374M4.935 21.09c0-8.491 6.883-15.374 15.373-15.374 8.491 0 15.374 6.883 15.374 15.374S28.8 36.463 20.31 36.463 4.936 29.58 4.936 21.09m28.886 11.205L32.24 34l8.946 8.946a1.163 1.163 0 0 0 1.644-1.644z" clip-rule="evenodd"/>
</svg>
