<svg xmlns="http://www.w3.org/2000/svg" viewBox="0 0 50 48"
 width="48" height="48" fill="none"
 role="presentation" aria-hidden="true">
<path fill="currentColor" fill-rule="evenodd" d="M23.775 37.55c8.16 0 14.775-6.615 14.775-14.775S31.935 8 23.775 8 9 14.615 9 22.775 15.615 37.55 23.775 37.55m0 2c4.273 0 8.172-1.597 11.134-4.227l7.384 7.384a1 1 0 0 0 1.414-1.414l-7.384-7.384a16.7 16.7 0 0 0 4.227-11.134C40.55 13.51 33.04 6 23.775 6S7 13.51 7 22.775 14.51 39.55 23.775 39.55m-4.388-23.162h6.775a3 3 0 0 1 3 3v2.387H16.387v-2.387a3 3 0 0 1 3-3m-5 7.387v2.388a5 5 0 0 0 5 5h6.775a5 5 0 0 0 5-5v-6.776a5 5 0 0 0-5-5h-6.775a5 5 0 0 0-5 5v4.388m2 0h5.388v5.388h-2.388a3 3 0 0 1-3-3zm7.388 5.388v-5.388h5.387v2.388a3 3 0 0 1-3 3z" clip-rule="evenodd"/>
</svg>
