<svg xmlns="http://www.w3.org/2000/svg" viewBox="0 0 50 48"
 width="48" height="48" fill="none"
 role="presentation" aria-hidden="true">
<path fill="currentColor" fill-rule="evenodd" d="M9.375 37.107c-1.15 0-2.083-.896-2.083-2V11c0-1.105.932-2 2.083-2h5.208c1.15 0 2.084.895 2.084 2v24.107c0 1.104-.933 2-2.084 2zm0-2V11h5.208v24.107zM21.354 37.107c-1.15 0-2.083-.896-2.083-2V19c0-1.105.933-2 2.083-2h5.209c1.15 0 2.083.895 2.083 2v16.107c0 1.104-.933 2-2.084 2zm0-2V19h5.209v16.107z" clip-rule="evenodd"/><path fill="currentColor" d="m36.47 25.48 5.228-4.688-1.422-1.462-3.245 3.017V16.94h-2.085v5.376l-3.196-3.183-1.527 1.36 4.772 4.936a1.067 1.067 0 0 0 1.474.05"/><path fill="currentColor" fill-rule="evenodd" d="M33.333 37.107c-1.15 0-2.083-.896-2.083-2V30c0-1.105.933-2 2.083-2h5.209c1.15 0 2.083.895 2.083 2v5.107c0 1.104-.933 2-2.083 2zm0-2V30h5.209v5.107z" clip-rule="evenodd"/>
</svg>
