<svg xmlns="http://www.w3.org/2000/svg" viewBox="0 0 50 48"
 width="48" height="48" fill="none"
 role="presentation" aria-hidden="true">
<path fill="currentColor" fill-rule="evenodd" d="M35.217 10.41H12.783a3 3 0 0 0-3 3v25.136a3 3 0 0 0 3 3h22.434a3 3 0 0 0 3-3V13.41a3 3 0 0 0-3-3m-22.434-2a5 5 0 0 0-5 5v25.136a5 5 0 0 0 5 5h22.434a5 5 0 0 0 5-5V13.41a5 5 0 0 0-5-5z" clip-rule="evenodd"/><path fill="currentColor" fill-rule="evenodd" d="M24 25.785a4.633 4.633 0 1 0 0-9.267 4.633 4.633 0 0 0 0 9.267m0-2a2.633 2.633 0 1 0 0-5.267 2.633 2.633 0 0 0 0 5.267M32.813 38.14c1.105 0 2.01-.901 1.795-1.985-.798-4.05-4.013-8.826-10.609-8.826-6.595 0-9.81 4.775-10.609 8.826-.213 1.084.691 1.986 1.796 1.986zm-.254-2c-.796-3.317-3.418-6.81-8.56-6.81-5.141 0-7.763 3.493-8.559 6.81z" clip-rule="evenodd"/><path fill="currentColor" fill-rule="evenodd" d="M21.29 3.004h5.42v5.405h8.507a5 5 0 0 1 5 5v25.137a5 5 0 0 1-5 5H12.783a5 5 0 0 1-5-5V13.41a5 5 0 0 1 5-5h8.507zm0 10.818v-3.413h-8.507a3 3 0 0 0-3 3v25.137a3 3 0 0 0 3 3h22.434a3 3 0 0 0 3-3V13.41a3 3 0 0 0-3-3h-8.508v3.413z" clip-rule="evenodd"/>
</svg>
