<svg xmlns="http://www.w3.org/2000/svg" viewBox="0 0 50 48"
 width="48" height="48" fill="none"
 role="presentation" aria-hidden="true">
<path fill="currentColor" fill-rule="evenodd" d="M24.5 4a3.5 3.5 0 0 0-1.838 6.48h-5.66c-3.347 0-6 2.802-6 6.183v6.775H7a1 1 0 0 0-1 1c0 3.38 2.653 6.183 6 6.183s6-2.802 6-6.183a1 1 0 0 0-1-1h-3.998v-6.775c0-2.345 1.825-4.184 4-4.184h6.522V35H14a1 1 0 0 0-1 1v4a1 1 0 0 0 1 1h21a1 1 0 0 0 1-1v-4a1 1 0 0 0-1-1h-9.476V12.48h6.487c2.175 0 4 1.838 4 4.183v6.775H32a1 1 0 0 0-1 1c0 3.38 2.653 6.183 6 6.183s6-2.802 6-6.183a1 1 0 0 0-1-1h-3.99v-6.775c0-3.381-2.652-6.184-6-6.184h-5.672A3.5 3.5 0 0 0 24.5 4M23 7.5a1.5 1.5 0 1 1 3 0 1.5 1.5 0 0 1-3 0M8.114 25.438c.432 1.847 2.031 3.183 3.886 3.183s3.454-1.336 3.886-3.183zm25 0c.432 1.847 2.031 3.183 3.886 3.183s3.454-1.336 3.886-3.183zM15 37v2h19v-2z" clip-rule="evenodd"/>
</svg>
