<svg xmlns="http://www.w3.org/2000/svg" viewBox="0 0 50 48"
 width="48" height="48" fill="none"
 role="presentation" aria-hidden="true">
<path fill="currentColor" fill-rule="evenodd" d="M37.035 5.46h-24.07c-2.541 0-4.602 1.979-4.602 4.42s2.06 4.418 4.602 4.418h24.07c2.542 0 4.602-1.978 4.602-4.419s-2.06-4.418-4.602-4.418m-24.07-2c-3.692 0-6.685 2.874-6.685 6.42 0 2.224 1.178 4.184 2.97 5.336v19.188c0 3.314 2.798 6 6.25 6h4.253c.484 2.357 2.65 4.135 5.247 4.135h13.372c2.954 0 5.349-2.299 5.349-5.135s-2.395-5.135-5.35-5.135H25c-2.597 0-4.763 1.778-5.247 4.135h-4.254c-2.3 0-4.166-1.79-4.166-4v-6.837h8.42c.484 2.357 2.65 4.135 5.247 4.135h13.372c2.954 0 5.349-2.299 5.349-5.135s-2.395-5.134-5.35-5.134H25c-2.598 0-4.763 1.777-5.247 4.134h-8.42v-9.462c.522.126 1.07.193 1.632.193h24.07c3.692 0 6.686-2.874 6.686-6.419s-2.994-6.418-6.686-6.418zm25.407 19.973H25c-1.803 0-3.265 1.403-3.265 3.134 0 1.732 1.462 3.135 3.265 3.135h13.372c1.803 0 3.265-1.403 3.265-3.135s-1.462-3.134-3.265-3.134M25 36.27h13.372c1.803 0 3.265 1.403 3.265 3.134 0 1.732-1.462 3.135-3.265 3.135H25c-1.803 0-3.265-1.403-3.265-3.135S23.197 36.27 25 36.27" clip-rule="evenodd"/>
</svg>
