<svg xmlns="http://www.w3.org/2000/svg" viewBox="0 0 50 48"
 width="48" height="48" fill="none"
 role="presentation" aria-hidden="true">
<path fill="currentColor" fill-rule="evenodd" d="M24.579 4.854H14a6 6 0 0 0-6 6v26.245a6 6 0 0 0 5.989 6l20.709.038a6 6 0 0 0 6.01-6v-17.58a6 6 0 0 0-2.09-4.55l-10.13-8.704a6 6 0 0 0-3.91-1.449M14 6.854h10.579a4 4 0 0 1 .877.097v5.57a6 6 0 0 0 6 6h7.116q.136.505.137 1.036v17.58a4 4 0 0 1-4.008 4l-20.708-.038a4 4 0 0 1-3.993-4V10.854a4 4 0 0 1 4-4m23.313 9.667-9.857-8.469v4.469a4 4 0 0 0 4 4z" clip-rule="evenodd"/><path stroke="currentColor" stroke-linejoin="round" stroke-width="2" d="M21.046 24 16.5 29l4.546 5M27.408 34l4.545-5-4.545-5"/>
</svg>
