<svg xmlns="http://www.w3.org/2000/svg" viewBox="0 0 50 48"
 width="48" height="48" fill="none"
 role="presentation" aria-hidden="true">
<path fill="currentColor" fill-rule="evenodd" d="M38.643 22.764c0 7.435-6.278 13.462-14.023 13.462-7.744 0-14.022-6.027-14.022-13.462S16.876 9.303 24.62 9.303s14.023 6.027 14.023 13.461M35.26 34.418c-2.84 2.392-6.564 3.843-10.64 3.843-8.915 0-16.142-6.938-16.142-15.497 0-8.558 7.227-15.496 16.142-15.496s16.142 6.938 16.142 15.496c0 3.913-1.51 7.488-4.003 10.215l10.623 10.197a.99.99 0 0 1 0 1.44 1.09 1.09 0 0 1-1.5 0z" clip-rule="evenodd"/>
</svg>
