<svg xmlns="http://www.w3.org/2000/svg" viewBox="0 0 50 48"
 width="48" height="48" fill="none"
 role="presentation" aria-hidden="true">
<path fill="currentColor" fill-rule="evenodd" d="M24.79 5.998a1.195 1.195 0 0 0-1.579 0c-2.938 2.625-8.514 6.984-13.58 8.444-1.332.384-2.196 1.427-2.118 2.428.173 2.258.544 4.37 1.062 6.338A10.7 10.7 0 0 1 13.542 22c5.753 0 10.416 4.477 10.416 10 0 3.464-1.834 6.516-4.62 8.31.592.49 1.159.918 1.687 1.282.786.542 1.474.936 2.019 1.19q.41.19.674.268.13.04.207.053c.05.01.073.01.075.01s.025 0 .075-.01q.077-.014.207-.053.264-.078.674-.268c.545-.254 1.233-.648 2.02-1.19 1.57-1.083 3.487-2.724 5.381-4.923 3.785-4.396 7.454-10.992 8.13-19.799.078-1.001-.785-2.044-2.118-2.428-5.066-1.46-10.641-5.818-13.58-8.444M17.403 41.29a27 27 0 0 0 2.486 1.948c.856.59 1.64 1.045 2.308 1.356.625.293 1.27.519 1.802.519s1.177-.226 1.802-.519c.667-.311 1.452-.766 2.308-1.356 1.714-1.18 3.758-2.936 5.763-5.264 4.013-4.66 7.894-11.647 8.609-20.95.177-2.303-1.708-3.97-3.56-4.504-4.596-1.325-9.882-5.406-12.8-8.013a3.195 3.195 0 0 0-4.243 0c-2.919 2.607-8.205 6.688-12.802 8.013-1.85.534-3.736 2.201-3.559 4.504a37.4 37.4 0 0 0 1.3 7.338C4.557 26.197 3.124 28.938 3.124 32c0 5.523 4.664 10 10.417 10a10.8 10.8 0 0 0 3.862-.71m.354-2.388-.28-.272a8 8 0 0 1-1.886.94l.146.15a8.7 8.7 0 0 1-2.196.28c-4.603 0-8.334-3.582-8.334-8s3.731-8 8.334-8 8.333 3.582 8.333 8c0 2.941-1.653 5.512-4.117 6.902m.106-9.881a.97.97 0 0 1-.027 1.414l-4.945 4.571a1.073 1.073 0 0 1-1.446 0L9.25 32.974a.97.97 0 0 1-.028-1.414c.399-.397 1.058-.41 1.473-.026l1.475 1.364 4.222-3.904a1.073 1.073 0 0 1 1.473.027" clip-rule="evenodd"/>
</svg>
