<svg xmlns="http://www.w3.org/2000/svg" viewBox="0 0 50 48"
 width="48" height="48" fill="none"
 role="presentation" aria-hidden="true">
<path fill="currentColor" d="M14.99 31.11c.833-.345 1.415-1.14 1.414-2.066 0-1.242-1.05-2.247-2.343-2.246s-2.34 1.008-2.34 2.249c.002.937.6 1.74 1.45 2.077l-1.212 4.039c-.096.32.154.638.5.638l3.253-.002c.347 0 .596-.32.5-.64z"/><path fill="currentColor" fill-rule="evenodd" d="M18.413 40.388a29 29 0 0 0 2.827 2.15c.891.59 1.709 1.045 2.403 1.356.652.292 1.323.519 1.878.519s1.226-.227 1.877-.519c.695-.311 1.513-.766 2.404-1.356 1.785-1.181 3.915-2.937 6.003-5.265 4.18-4.66 8.223-11.647 8.968-20.95.184-2.303-1.78-3.97-3.708-4.503-4.788-1.325-10.294-5.406-13.334-8.014-1.253-1.075-3.167-1.075-4.42 0-3.04 2.607-8.546 6.689-13.334 8.014-1.929.533-3.892 2.2-3.708 4.503.206 2.561.66 4.947 1.3 7.157-2.391 1.832-3.923 4.654-3.923 7.82 0 5.522 4.664 10 10.417 10 1.553 0 3.026-.327 4.35-.912m7.93-35.09a1.284 1.284 0 0 0-1.644 0c-3.06 2.625-8.868 6.983-14.146 8.444-1.388.384-2.287 1.426-2.207 2.428a34.3 34.3 0 0 0 1.065 6.18c1.4-.672 2.98-1.05 4.652-1.05 5.752 0 10.416 4.477 10.416 10 0 3.278-1.644 6.189-4.183 8.012.75.617 1.467 1.143 2.126 1.58.819.541 1.536.936 2.103 1.19q.427.189.702.268.135.04.216.053.076.012.078.01.002.002.078-.01.08-.014.216-.053c.183-.054.418-.14.701-.268.568-.255 1.285-.649 2.104-1.19 1.636-1.084 3.633-2.724 5.606-4.924 3.943-4.395 7.764-10.991 8.47-19.799.08-1-.82-2.043-2.208-2.427-5.276-1.46-11.084-5.819-14.145-8.444m-9.58 33.572a8.5 8.5 0 0 0 1.964-.94c2.214-1.439 3.669-3.871 3.669-6.63 0-4.419-3.731-8-8.333-8a8.57 8.57 0 0 0-4.06 1.01 8.3 8.3 0 0 0-1.757 1.261c-1.553 1.453-2.517 3.483-2.517 5.729 0 4.418 3.731 8 8.334 8 .945 0 1.853-.151 2.7-.43" clip-rule="evenodd"/>
</svg>
