<svg xmlns="http://www.w3.org/2000/svg" viewBox="0 0 50 48"
 width="48" height="48" fill="none"
 role="presentation" aria-hidden="true">
<path fill="currentColor" d="M6.233 25q-.372 0-.74.016l-.087-1.998a19 19 0 0 1 2.928.098l-.221 1.988A17 17 0 0 0 6.233 25M14.344 27.089a16.7 16.7 0 0 0-3.467-1.438l.553-1.922c1.365.393 2.666.936 3.883 1.61zM19.343 31.313a17 17 0 0 0-2.656-2.656l1.248-1.563a19 19 0 0 1 2.971 2.971zM22.349 37.123a16.7 16.7 0 0 0-1.438-3.467l1.75-.97a18.7 18.7 0 0 1 1.61 3.884zM23 41.767q0-.954-.104-1.88l1.988-.221a19 19 0 0 1 .098 2.928l-1.998-.087q.016-.368.016-.74M23.03 6.386c-.019.472-.03.906-.03 1.214q.001 1.066.116 2.101l1.988-.221A17 17 0 0 1 25 7.6c0-.269.01-.672.029-1.133zM23.729 12.797a18.7 18.7 0 0 0 1.61 3.883l1.75-.969a16.7 16.7 0 0 1-1.438-3.467zM27.094 19.302a19 19 0 0 0 2.97 2.97l1.249-1.562a17 17 0 0 1-2.656-2.656zM32.687 24.028a18.7 18.7 0 0 0 3.883 1.61l.552-1.923a16.7 16.7 0 0 1-3.466-1.437zM39.665 26.25a19 19 0 0 0 2.929.099l-.087-1.998a17 17 0 0 1-2.62-.088z"/><path fill="currentColor" fill-rule="evenodd" d="M2.91 24C2.91 12.352 12.352 2.91 24 2.91S45.09 12.352 45.09 24 35.648 45.09 24 45.09 2.91 35.648 2.91 24M24 4.91C13.457 4.91 4.91 13.457 4.91 24S13.457 43.09 24 43.09 43.09 34.543 43.09 24 34.543 4.91 24 4.91" clip-rule="evenodd"/>
</svg>
