<svg xmlns="http://www.w3.org/2000/svg" viewBox="0 0 50 48"
 width="48" height="48" fill="none"
 role="presentation" aria-hidden="true">
<path fill="currentColor" d="M13.614 19.674h2.29C15.857 17.524 13.965 16 11.17 16c-2.758 0-4.83 1.504-4.824 3.755 0 1.828 1.34 2.878 3.502 3.42l1.495.372c1.417.348 2.354.777 2.36 1.766-.006 1.088-1.07 1.815-2.623 1.815-1.488 0-2.643-.647-2.739-1.983H6c.096 2.53 2.04 3.954 5.1 3.954 3.149 0 4.977-1.523 4.983-3.768-.006-2.207-1.886-3.214-3.861-3.668l-1.232-.298c-1.077-.249-2.245-.69-2.232-1.753.006-.957.892-1.66 2.38-1.66 1.417 0 2.354.64 2.476 1.722M30.755 22.54c0-4.116-2.591-6.54-6.036-6.54-3.45 0-6.035 2.424-6.035 6.54 0 4.11 2.584 6.54 6.035 6.54.834 0 1.616-.143 2.328-.417L28.132 30h2.31l-1.822-2.263c1.321-1.119 2.136-2.89 2.136-5.197m-6.844 2.089 1.777 2.263q-.46.119-.969.118c-2.136 0-3.643-1.573-3.643-4.47s1.507-4.47 3.643-4.47c2.142 0 3.643 1.573 3.643 4.47 0 1.567-.436 2.742-1.18 3.494l-1.116-1.405zM33.835 28.906H42v-1.933h-5.785V16.174h-2.38z"/><path stroke="currentColor" stroke-width="2" d="M41 33.462v1.307A5.23 5.23 0 0 1 35.77 40H12.23A5.23 5.23 0 0 1 7 34.77V33.46M41 12.54V11.23A5.23 5.23 0 0 0 35.77 6H12.23A5.23 5.23 0 0 0 7 11.23v1.309"/>
</svg>
