<svg xmlns="http://www.w3.org/2000/svg" viewBox="0 0 50 48"
 width="48" height="48" fill="none"
 role="presentation" aria-hidden="true">
<path fill="currentColor" d="M10 16a7 7 0 0 0-7 7v15a7 7 0 0 0 7 7h15a7 7 0 0 0 7-7v-5.876a1 1 0 0 0-.05-2h-3.025a1 1 0 0 0 0 2H30V38a5 5 0 0 1-5 5H10a5 5 0 0 1-5-5V23a5 5 0 0 1 5-5h5.875v1.075a1 1 0 1 0 2 0V16.05a1 1 0 0 0-1.999-.05zM17.875 10c0-.541.086-1.06.244-1.546a1 1 0 1 0-1.903-.618 7 7 0 0 0-.34 2.164v1.512a1 1 0 1 0 2 0z"/><path fill="currentColor" d="M16.875 22.612a1 1 0 0 0-1 1v1.513c0 .753.12 1.48.341 2.163a1 1 0 1 0 1.902-.617 5 5 0 0 1-.243-1.546v-1.513a1 1 0 0 0-1-1M20.07 4.601a1 1 0 0 0 1.26.642A5 5 0 0 1 22.874 5h1.513a1 1 0 1 0 0-2h-1.513c-.753 0-1.48.12-2.163.341a1 1 0 0 0-.643 1.26M20.07 30.524a1 1 0 0 0 .642 1.26c.682.221 1.41.34 2.163.34h1.513a1 1 0 1 0 0-2h-1.513c-.54 0-1.06-.085-1.546-.242a1 1 0 0 0-1.26.642M27.925 4a1 1 0 0 0 1 1h3.025a1 1 0 1 0 0-2h-3.025a1 1 0 0 0-1 1M35.488 4a1 1 0 0 0 1 1H38c.541 0 1.06.086 1.546.243a1 1 0 0 0 .618-1.902A7 7 0 0 0 38 3h-1.512a1 1 0 0 0-1 1M35.488 31.125a1 1 0 0 0 1 1H38c.754 0 1.481-.12 2.164-.341a1 1 0 0 0-.618-1.902 5 5 0 0 1-1.546.243h-1.512a1 1 0 0 0-1 1M43.4 7.194a1 1 0 0 0-.643 1.26C42.915 8.94 43 9.459 43 10v1.512a1 1 0 1 0 2 0V10c0-.754-.12-1.481-.34-2.164a1 1 0 0 0-1.26-.642M43.4 27.93a1 1 0 0 0 1.26-.642c.22-.682.34-1.41.34-2.163v-1.513a1 1 0 0 0-2 0v1.513c0 .541-.085 1.06-.243 1.546a1 1 0 0 0 .642 1.26M44 15.05a1 1 0 0 0-1 1v3.025a1 1 0 1 0 2 0V16.05a1 1 0 0 0-1-1"/><path fill="currentColor" fill-rule="evenodd" d="M31.785 12.818a1.3 1.3 0 0 0-2.16-.004l-1.74 2.59-3.255-1.719c-1.065-.562-2.257.502-1.817 1.624l2.138 5.465c.106.27.32.695.782.963.664.385 2.047.84 4.967.84s4.303-.455 4.966-.84c.463-.268.676-.693.782-.963l2.14-5.467c.438-1.121-.752-2.185-1.817-1.623l-3.263 1.719zm-2.742 4.448 1.658-2.468 1.643 2.465a1 1 0 0 0 1.299.33l2.397-1.263-1.454 3.715-.002.004c-.336.164-1.37.527-3.884.527-2.515 0-3.55-.363-3.885-.527l-.002-.004-1.452-3.712 2.385 1.26a1 1 0 0 0 1.297-.327" clip-rule="evenodd"/>
</svg>
