<svg xmlns="http://www.w3.org/2000/svg" viewBox="0 0 50 48"
 width="48" height="48" fill="none"
 role="presentation" aria-hidden="true">
<path fill="currentColor" d="m39.414 18.027-6.951 6.693a1 1 0 0 1-1.387 0l-3.49-3.36 1.387-1.44 2.796 2.692 6.258-6.026z"/><path fill="currentColor" fill-rule="evenodd" d="M22.309 16.693a5.19 5.19 0 0 1-2.19 4.256c3.48 1.06 5.425 3.832 6.133 6.393a2.45 2.45 0 0 1-.555 2.326 2.87 2.87 0 0 1-2.12.921l-13.215.047a2.87 2.87 0 0 1-2.126-.906 2.45 2.45 0 0 1-.572-2.322c.708-2.634 2.718-5.5 6.366-6.519a5.193 5.193 0 1 1 8.279-4.196m-5.182 3.212a3.193 3.193 0 1 0-.023-6.387 3.193 3.193 0 0 0 .023 6.387m-.186 2.6c-4.43.015-6.65 2.838-7.345 5.422a.45.45 0 0 0 .113.45c.132.144.363.26.646.26l13.215-.048a.88.88 0 0 0 .644-.263.45.45 0 0 0 .11-.45c-.713-2.58-2.953-5.388-7.383-5.372" clip-rule="evenodd"/><path fill="currentColor" fill-rule="evenodd" d="M2 10.5a4 4 0 0 1 4-4h36a4 4 0 0 1 4 4V32a4 4 0 0 1-4 4H31.808a2 2 0 0 0-1.465.64l-4.848 5.22a2 2 0 0 1-2.984-.06l-4.372-5.102A2 2 0 0 0 16.62 36H6a4 4 0 0 1-4-4zm4-2a2 2 0 0 0-2 2V32a2 2 0 0 0 2 2h10.62a4 4 0 0 1 3.037 1.397l4.373 5.101 4.847-5.22A4 4 0 0 1 31.808 34H42a2 2 0 0 0 2-2V10.5a2 2 0 0 0-2-2z" clip-rule="evenodd"/>
</svg>
