<svg xmlns="http://www.w3.org/2000/svg" viewBox="0 0 50 48"
 width="48" height="48" fill="none"
 role="presentation" aria-hidden="true">
<path fill="currentColor" fill-rule="evenodd" d="M13 37a4 4 0 1 0-8 0 4 4 0 0 0 8 0m-2 0a2 2 0 1 0-4 0 2 2 0 0 0 4 0" clip-rule="evenodd"/><path fill="currentColor" fill-rule="evenodd" d="M9 15a3.99 3.99 0 0 0 2.767-1.111L26.485 23H12.874A4.002 4.002 0 0 0 5 24a4 4 0 0 0 7.874 1h13.61l-14.717 9.111a4 4 0 0 1 1.053 1.7l17.706-10.96a1 1 0 0 0 0-1.701L12.82 12.189A4 4 0 1 0 9 15m0 7a2 2 0 1 1 0 4 2 2 0 0 1 0-4m2-11a2 2 0 1 0-4 0 2 2 0 0 0 4 0M35 29a2 2 0 0 1-2-2v-6a2 2 0 0 1 2-2h6a2 2 0 0 1 2 2v6a2 2 0 0 1-2 2zm6-2h-6v-6h6z" clip-rule="evenodd"/>
</svg>
