<svg xmlns="http://www.w3.org/2000/svg" viewBox="0 0 50 48"
 width="48" height="48" fill="none"
 role="presentation" aria-hidden="true">
<path fill="currentColor" fill-rule="evenodd" d="M9.525 7.949h28.95a3 3 0 0 1 3 3v6.52H6.525v-6.52a3 3 0 0 1 3-3m-5 11.52v-8.52a5 5 0 0 1 5-5h28.95a5 5 0 0 1 5 5v26.167a5 5 0 0 1-5 5H9.525a5 5 0 0 1-5-5zm33.95 20.647H25v-9.52h16.475v6.52a3 3 0 0 1-3 3m3-11.52H25v-9.128h16.475zm-18.475 0v-9.128H6.525v9.129zm-16.475 2v6.52a3 3 0 0 0 3 3H23v-9.52z" clip-rule="evenodd"/>
</svg>
