<svg xmlns="http://www.w3.org/2000/svg" viewBox="0 0 50 48"
 width="48" height="48" fill="none"
 role="presentation" aria-hidden="true">
<path fill="currentColor" fill-rule="evenodd" d="M30.487 19.649c2.908 0 5.265-2.263 5.265-5.055S33.395 9.54 30.487 9.54s-5.265 2.263-5.265 5.054 2.357 5.055 5.265 5.055m0 2c4.059 0 7.349-3.159 7.349-7.055s-3.29-7.054-7.349-7.054c-4.058 0-7.348 3.158-7.348 7.054s3.29 7.055 7.348 7.055M17.51 14.912c0 1.453-1.226 2.63-2.739 2.63s-2.739-1.177-2.739-2.63 1.226-2.629 2.74-2.629c1.512 0 2.738 1.177 2.738 2.63m2.084 0c0 2.557-2.16 4.63-4.823 4.63s-4.822-2.073-4.822-4.63 2.159-4.629 4.822-4.629 4.823 2.073 4.823 4.63M5.797 29.925C7.087 27.381 9.972 25 14.627 25c2.59 0 4.555.732 6.01 1.799-2.314 1.554-4.028 3.612-5.211 5.803H8.729c-1.852 0-2.684-.467-3-.863-.28-.35-.376-.939.068-1.815m8.704 4.678H8.729c-2.109 0-3.754-.52-4.653-1.646-.936-1.172-.794-2.64-.152-3.907C5.537 25.868 9.12 23 14.626 23c3.406 0 6.023 1.094 7.907 2.711C24.736 24.644 27.374 24 30.487 24c9.403 0 14.475 5.875 16.323 11.543.86 2.635-1.506 4.917-4.382 4.917H18.547c-2.877 0-5.242-2.282-4.382-4.917q.153-.47.336-.941m29.97 3.05c-.428.457-1.165.808-2.043.808H18.547c-.878 0-1.615-.35-2.044-.808-.395-.422-.54-.927-.35-1.512C17.803 31.077 22.223 26 30.487 26s12.684 5.077 14.335 10.14c.19.585.045 1.09-.35 1.512" clip-rule="evenodd"/>
</svg>
