<svg xmlns="http://www.w3.org/2000/svg" viewBox="0 0 50 48"
 width="48" height="48" fill="none"
 role="presentation" aria-hidden="true">
<path fill="currentColor" d="M4.5 21H16v-2H4.5zM2 25h11.5v-2H2z"/><path fill="currentColor" fill-rule="evenodd" d="M8 13a3 3 0 0 1 3-3h19a4 4 0 0 1 4 4v2h8a4 4 0 0 1 4 4v12a4 4 0 0 1-4 4h-3.256a4.502 4.502 0 0 1-8.488 0h-9.512a4.502 4.502 0 0 1-8.488 0H11a3 3 0 0 1-3-3v-6h2v6a1 1 0 0 0 1 1h1.027a4.5 4.5 0 0 1 8.946 0h9.055A4.5 4.5 0 0 1 32 30.758V14a2 2 0 0 0-2-2H11a1 1 0 0 0-1 1v4H8zm34 21h-3.028A4.5 4.5 0 0 0 34 30.028V25h10v7a2 2 0 0 1-2 2m-8-11v-5h8a2 2 0 0 1 2 2v3zM14 34.5a2.5 2.5 0 1 1 5 0 2.5 2.5 0 0 1-5 0m18 0a2.5 2.5 0 1 1 5 0 2.5 2.5 0 0 1-5 0" clip-rule="evenodd"/>
</svg>
