<svg xmlns="http://www.w3.org/2000/svg" viewBox="0 0 50 48"
 width="48" height="48" fill="none"
 role="presentation" aria-hidden="true">
<path fill="currentColor" d="M28.953 15.784a1 1 0 1 0-2 0v17.228a1 1 0 1 0 2 0zM19.046 19.35a1 1 0 1 1-1.732-1 1 1 0 0 1 1.732 1"/><path fill="currentColor" fill-rule="evenodd" d="M28.981 6.838V5a3 3 0 0 0-3-3h-4.807a3 3 0 0 0-3 3v1.838H12a5 5 0 0 0-5 5V37.27a5 5 0 0 0 5 5h3.79v2.822a1 1 0 0 0 2 0V42.27h11.929v2.822a1 1 0 1 0 2 0V42.27h3.545a5 5 0 0 0 5-5V11.84a5 5 0 0 0-5-5zm-2 0V5a1 1 0 0 0-1-1h-4.807a1 1 0 0 0-1 1v1.838zM9 11.838a3 3 0 0 1 3-3h2.462l1.512 5.643-2.606 3.323 2.439 9.101 2.085-.558v6.665a1 1 0 1 0 2 0v-7.201l4.37-1.171-2.439-9.101-3.918-1.576-1.373-5.125h18.732a3 3 0 0 1 3 3V37.27a3 3 0 0 1-3 3H12a3 3 0 0 1-3-3zm6.559 6.414 1.662 6.204 4.592-1.23-1.663-6.205-2.758-1.108z" clip-rule="evenodd"/>
</svg>
