<svg xmlns="http://www.w3.org/2000/svg" viewBox="0 0 50 48"
 width="48" height="48" fill="none"
 role="presentation" aria-hidden="true">
<path stroke="currentColor" stroke-width="2" d="M7.83 30.727 20.196 9.093c2.358-4.124 8.255-4.124 10.612 0l12.363 21.635C45.527 34.85 42.58 40 37.865 40h-24.73c-4.715 0-7.662-5.151-5.306-9.273Z"/><circle cx="24.75" cy="32.25" r="2.25" fill="currentColor"/><path fill="currentColor" d="M26.074 27h-.648a1 1 0 0 1-.997-.923l-.846-11A1 1 0 0 1 24.58 14h2.34a1 1 0 0 1 .997 1.077l-.846 11a1 1 0 0 1-.997.923"/>
</svg>
