<svg xmlns="http://www.w3.org/2000/svg" viewBox="0 0 50 48"
 width="48" height="48" fill="none"
 role="presentation" aria-hidden="true">
<path fill="currentColor" d="M12.326 6.794a1 1 0 0 1-1.224-.708l-.31-1.155a1 1 0 1 1 1.933-.517l.309 1.155a1 1 0 0 1-.708 1.225M12.461 10.948a6.07 6.07 0 0 0-2.967 7.43 9 9 0 0 0-1.642 1.275 8.071 8.071 0 0 1 13.265-8.81q-1.014.376-1.938.91a6.07 6.07 0 0 0-6.718-.805"/><path fill="currentColor" fill-rule="evenodd" d="M38.929 32.81a7.5 7.5 0 1 0-3.83-14.292q-.21-.534-.474-1.038a10.5 10.5 0 0 0-9.307-5.635c-4.62 0-8.542 2.982-9.947 7.126a7 7 0 1 0-1.331 13.874h24.889zm-.737-1.965h.283l.264-.025a5.5 5.5 0 1 0-2.81-10.483l-1.923.877-.77-1.967a8.504 8.504 0 0 0-15.97.367l-.56 1.651-1.713-.33a5 5 0 1 0-.953 9.91h24.152" clip-rule="evenodd"/><path fill="currentColor" d="m8 43.138 6.5-6.5 1.414 1.414-6.5 6.5zM20 43.138l6.5-6.5 1.414 1.414-6.5 6.5zM38.5 36.638l-6.5 6.5 1.414 1.414 6.5-6.5zM5.639 18.83a1 1 0 0 1-.705 1.226l-1.155.312a1 1 0 1 1-.52-1.931l1.154-.312a1 1 0 0 1 1.226.705M3.67 9.883a1 1 0 0 0 .384 1.36l1.044.584a1 1 0 0 0 .976-1.746L5.03 9.498a1 1 0 0 0-1.36.385M21.515 5.1a1 1 0 0 0-1.368.359l-.603 1.032a1 1 0 0 0 1.727 1.01l.603-1.033a1 1 0 0 0-.359-1.368"/>
</svg>
