<svg xmlns="http://www.w3.org/2000/svg" viewBox="0 0 50 48"
 width="48" height="48" fill="none"
 role="presentation" aria-hidden="true">
<path stroke="currentColor" stroke-width="2" d="m17.5 20.5-7.718 7.718a3.566 3.566 0 0 1-5.084-5.003l9.076-9.369a7 7 0 0 1 8.413-1.256l.063.035 1.188.656.593.328M22.5 25l4.032 3.628a.5.5 0 0 1-.335.872H16.5a4 4 0 0 0 0 8H43a2 2 0 0 0 2-2V22.886a2 2 0 0 0-1.883-1.997l-2.315-.136a19 19 0 0 1-8.074-2.337l-.978-.541-1.187-.656-.594-.328M39 20.5V37"/><path stroke="currentColor" stroke-width="2" d="M17.5 29.5 24 23l11.307-11.725a3.034 3.034 0 0 0-4.33-4.252L6 32l-1.316 5.705a.5.5 0 0 0 .608.597L10.5 37l2-2"/>
</svg>
